<svg xmlns="http://www.w3.org/2000/svg" viewBox="0 0 377.2 216.1"><radialGradient id="a" cx="188.866" cy="102.168" r="608.253" gradientTransform="matrix(1 0 0 1.0993 0 -10.15)" gradientUnits="userSpaceOnUse"><stop offset=".035" stop-color="#006F98"/><stop offset=".093" stop-color="#02557A"/><stop offset=".167" stop-color="#043A5B"/><stop offset=".244" stop-color="#052543"/><stop offset=".325" stop-color="#061732"/><stop offset=".414" stop-color="#070E28"/><stop offset=".523" stop-color="#070B25"/></radialGradient><g fill="#FFF"><path d="M375.4 216.1h-3.7c-1 0-1.8-.8-1.8-1.8V205h-8.5v9.3c0 1-.8 1.8-1.8 1.8h-3.7c-1 0-1.8-.8-1.8-1.8v-23.9c0-1 .8-1.8 1.8-1.8h3.7c1 0 1.8.8 1.8 1.8v8.2h8.5v-8.2c0-1 .8-1.8 1.8-1.8h3.7c1 0 1.8.8 1.8 1.8v23.9c0 1-.8 1.8-1.8 1.8zM325.5 193.2v-2.8c0-1 .8-1.8 1.8-1.8h19.3c1 0 1.8.8 1.8 1.8v2.8c0 1-.8 1.8-1.8 1.8h-6.2v19.4c0 1-.8 1.8-1.8 1.8h-3.4c-1 0-1.8-.8-1.8-1.8V195h-6.2c-.9-.1-1.7-.9-1.7-1.8zM244.3 202.6v11.7c0 1-.8 1.8-1.8 1.8h-3.7c-1 0-1.8-.8-1.8-1.8v-23.9c0-1 .8-1.8 1.8-1.8h3.8c1.1 0 2.1.5 2.7 1.4l8.2 12v-11.7c0-1 .8-1.8 1.8-1.8h3.7c1 0 1.8.8 1.8 1.8v23.9c0 1-.8 1.8-1.8 1.8h-3.7c-1.1 0-2.1-.5-2.7-1.4l-8.3-12zM265.8 202.4c0-19 28.2-19 28.2 0s-28.2 19-28.2 0zm21 0c0-9.9-13.8-9.9-13.8 0s13.8 9.9 13.8 0zM319.7 216.1h-3.4c-.9 0-1.7-.4-2.1-1.2L310 208h-3.6v6.3c0 1-.8 1.8-1.8 1.8h-3.7c-1 0-1.8-.8-1.8-1.8v-23.9c0-1 .8-1.8 1.8-1.8h10.5c10.8 0 12.7 13 5.8 17.7l4.1 7.1c.6 1.2-.3 2.7-1.6 2.7zm-8.4-21.2h-5v6.8h5c3.8 0 4-6.7 0-6.8z"/><g><path d="M185.3 216.1h-3.7c-1 0-1.8-.8-1.8-1.8V205h-8.5v9.3c0 1-.8 1.8-1.8 1.8H166c-1 0-1.8-.8-1.8-1.8v-23.9c0-1 .8-1.8 1.8-1.8h3.7c1 0 1.8.8 1.8 1.8v8.2h8.5v-8.2c0-1 .8-1.8 1.8-1.8h3.7c1 0 1.8.8 1.8 1.8v23.9c-.3 1-1.1 1.8-2 1.8zM135.4 193.2v-2.8c0-1 .8-1.8 1.8-1.8h19.3c1 0 1.8.8 1.8 1.8v2.8c0 1-.8 1.8-1.8 1.8h-6.2v19.4c0 1-.8 1.8-1.8 1.8h-3.4c-1 0-1.8-.8-1.8-1.8V195h-6.2c-.9-.1-1.7-.9-1.7-1.8zM210.6 193.2v-2.8c0-1-.8-1.8-1.8-1.8h-14.1c-1 0-1.8.8-1.8 1.8v23.9c0 1 .8 1.8 1.8 1.8h14.1c1 0 1.8-.8 1.8-1.8v-2.7c0-1-.8-1.8-1.8-1.8h-8.9V205h8.1c1 0 1.8-.8 1.8-1.8v-3c0-1-.8-1.8-1.8-1.8h-8.1v-3.7h8.9c1 .2 1.8-.6 1.8-1.5z"/></g><g><path d="M21.1 216.1h-3.7c-1 0-1.8-.8-1.8-1.8V205H7.2v9.3c0 1-.8 1.8-1.8 1.8H1.8c-1 0-1.8-.8-1.8-1.8v-23.9c0-1 .8-1.8 1.8-1.8h3.7c1 0 1.8.8 1.8 1.8v8.2h8.5v-8.2c0-1 .8-1.8 1.8-1.8h3.7c1 0 1.8.8 1.8 1.8v23.9c-.3 1-1.1 1.8-2 1.8zM49.6 216.1h2.9c1.3 0 2.1-1.3 1.6-2.5l-10.8-24c-.3-.6-.9-1-1.6-1h-1.2c-.7 0-1.3.4-1.6 1l-10.8 24c-.5 1.2.3 2.5 1.6 2.5h2.9c1 0 2-.6 2.4-1.6l1.4-3.3h9.5l1.4 3.4c.4.9 1.3 1.5 2.3 1.5zm-10.5-11.2l2.1-5.1 2.1 5.1h-4.2zM78.4 205.1c-.9 0-1.6.5-2 1.2-3.1 5.8-12.9 4.5-12.9-4 0-8 9-9.6 12.5-4.7.4.6 1.1.9 1.8.9h3.7c1.4 0 2.4-1.5 1.8-2.7-5.6-12.3-27-10.1-27 6.5 0 17.2 22.9 19 27.5 5.3.4-1.2-.5-2.5-1.9-2.5h-3.5zM90.3 216.1h3.6c1 0 1.8-.8 1.8-1.8V205h2.8l4.8 9.7c.4.8 1.2 1.3 2 1.3h3.9c1.3 0 2.2-1.5 1.5-2.6l-6.4-11.2 6.4-10.9c.7-1.2-.2-2.6-1.5-2.6h-4c-.8 0-1.6.5-2 1.2l-4.8 8.8h-2.8v-8.2c0-1-.8-1.8-1.8-1.8h-3.6c-1 0-1.8.8-1.8 1.8v23.9c.1.9.9 1.7 1.9 1.7z"/></g></g><path fill="#3AB4D7" d="M113.8 75.2c0 41.6 33.7 75.2 75.2 75.2 41.6 0 75.2-33.7 75.2-75.2S230.5 0 189 0s-75.2 33.7-75.2 75.2"/><path fill="none" d="M113.8 75.2c0 41.6 33.7 75.2 75.2 75.2 41.6 0 75.2-33.7 75.2-75.2S230.5 0 189 0s-75.2 33.7-75.2 75.2"/><path fill="#007096" d="M173.2 51.4c10.5 0 18.9-8.5 18.9-18.9 0-10.5-8.5-18.9-18.9-18.9-10.5 0-18.9 8.5-18.9 18.9-.1 10.4 8.4 18.9 18.9 18.9z"/><path fill="none" d="M113.8 75.2c0 41.6 33.7 75.2 75.2 75.2 41.6 0 75.2-33.7 75.2-75.2S230.5 0 189 0s-75.2 33.7-75.2 75.2"/><path fill="#007096" d="M180.2 145.4c-.4-.7-.2-1.7.3-2.3l5.9-6.7c.5-.6.8-1.7.7-2.4-.1-.9-.2-1.8-.2-2.7 0-.8-.5-1.8-1-2.3l-6.7-5.9c-.6-.5-.9-1.5-.6-2.3l1.8-5.2c.2-.7 1.1-1.4 1.9-1.4l8.9-.6c.8-.1 1.8-.6 2.2-1.2.5-.6 1-1.1 1.5-1.7.5-.6.9-1.6.9-2.4l-.7-8.9c-.1-.8.4-1.7 1.1-2l4.9-2.5c.7-.4 1.7-.2 2.3.3l7.9 6.7c1.5-.3 3-.4 4.5-.4.8 0 1.8-.5 2.3-1l5.9-6.7c.5-.6 1.5-.9 2.3-.6l5.2 1.8c.7.2 1.4 1.1 1.4 1.9l.6 8.9c.1.8.6 1.8 1.2 2.2.7.6 1.4 1.2 2.1 1.9.6.5 1.6 1 2.4.9l8.9-.5c.8-.1 1.7.5 2 1.2l2.2 4.6c7.4-11.7 11.7-25.5 11.7-40.3 0-31.7-19.6-58.8-47.3-69.9l-1.7 4c-.3.7-.2 1.9.1 2.5.8 1.6 1.5 3.2 2.1 4.9.3.7 1 1.6 1.7 1.9l15 6c.7.3 1.3 1.1 1.3 1.9l.2 10.5c0 .8-.6 1.6-1.3 2l-16.1 7c-.8 2.6-1.7 5.2-3 7.7-.4.7-.4 1.8-.1 2.5l6.1 14.9c.3.7.1 1.7-.5 2.3l-7.5 7.5c-.6.6-1.6.8-2.3.5l-14.9-6.1c-.7-.3-1.9-.2-2.5.1-1.9.9-3.8 1.7-5.7 2.4-.7.2-1.6 1-1.9 1.7l-6.3 14.8c-.3.7-1.2 1.3-1.9 1.3H167c-.8 0-1.6-.6-1.9-1.3L158.9 80c-.3-.7-1.1-1.5-1.9-1.7-1.9-.6-3.7-1.4-5.4-2.3-.7-.4-1.8-.4-2.5-.1L134.2 82c-.7.3-1.7.1-2.3-.5l-7.5-7.5c-.6-.6-.8-1.6-.5-2.3l6.1-14.9c.3-.7.2-1.9-.1-2.5-.9-1.8-1.7-3.7-2.3-5.6-.2-.7-1-1.6-1.7-1.9l-5.5-2.3c-4.3 9.6-6.7 20.1-6.7 31.2 0 39.4 30.2 71.7 68.8 75l-2.3-5.3z"/><path fill="#007096" d="M221.2 141c5.8-2.9 8.2-9.9 5.3-15.7-2.9-5.8-9.9-8.2-15.7-5.3-5.8 2.9-8.2 9.9-5.3 15.7 2.9 5.8 9.9 8.1 15.7 5.3z"/></svg>