<?xml version="1.0" encoding="utf-8"?>
<!-- Generator: Adobe Illustrator 16.0.0, SVG Export Plug-In . SVG Version: 6.00 Build 0)  -->
<!DOCTYPE svg PUBLIC "-//W3C//DTD SVG 1.1//EN" "http://www.w3.org/Graphics/SVG/1.1/DTD/svg11.dtd">
<svg version="1.1" id="Layer_1" xmlns="http://www.w3.org/2000/svg" xmlns:xlink="http://www.w3.org/1999/xlink" x="0px" y="0px"
	 width="351.98px" height="188.764px" viewBox="0 0 351.98 188.764" enable-background="new 0 0 351.98 188.764"
	 xml:space="preserve">
<g>
	<g>
		<defs>
			<rect id="SVGID_1_" y="53.439" width="351.98" height="64.426"/>
		</defs>
		<clipPath id="SVGID_2_">
			<use xlink:href="#SVGID_1_"  overflow="visible"/>
		</clipPath>
		<path clip-path="url(#SVGID_2_)" fill="#3DBEB5" d="M326.708,110.841c-0.215,0.016-0.426,0.022-0.634,0.022
			c-3.427,0-5.193-1.061-5.954-1.713c0.987-1.048,2.051-2.223,3.199-3.537c1.824-2.092,3.639-4.288,5.355-6.446
			c0.313,1.487,0.589,2.909,0.589,4.394C329.264,109.805,327.971,110.71,326.708,110.841L326.708,110.841z M258.967,110.863
			c-3.537,0-6.159-2.38-5.012-5.372c2.966-7.745,8.646-14.664,13.032-14.664c1.15,0,1.51,1.764,1.51,4.952
			C268.497,102.078,264.872,110.863,258.967,110.863L258.967,110.863z M262,60.253c2.289,0,2.947,4.268-5.296,22.067
			c-1.198,2.585-2.449,5.123-3.648,7.47C253.85,78.187,257.952,60.253,262,60.253L262,60.253z M225.616,106.321
			c-0.439-1.144-0.67-2.477-0.67-3.921c0-5.923,3.576-11.523,7.359-11.523c0.841,0,1.018,1.27,1.018,2.333
			c0,2.638-1.402,7.12-5.35,11.076C227.309,104.951,226.527,105.645,225.616,106.321L225.616,106.321z M194.643,89.782
			c0.795-11.603,4.896-29.538,8.944-29.538c2.288,0,2.947,4.269-5.296,22.067C197.093,84.897,195.843,87.435,194.643,89.782
			L194.643,89.782z M187.43,102.212c-0.577,0.601-4.879,8.66-11.681,8.66c-4.284,0-3.936-13.493-3.865-16.144
			c0.924-1.564,3.188-5.474,5.64-10.224l10.695,0.445C187.499,92.349,187.417,99.022,187.43,102.212L187.43,102.212z
			 M179.113,60.258c2.116,0-4.794,15.516-5.994,17.863C173.914,66.519,176.588,60.258,179.113,60.258L179.113,60.258z
			 M90.062,96.205c-2.403,7.1-6.258,14.659-11.078,14.659c-6.392,0,5.096-20.953,12.659-20.953
			C91.143,91.627,90.562,93.815,90.062,96.205L90.062,96.205z M46.671,82.352c-1.198,2.585-2.448,5.123-3.648,7.471
			c0.795-11.604,4.896-29.538,8.945-29.538C54.256,60.285,54.914,64.553,46.671,82.352L46.671,82.352z M17.485,111.048
			c-1.845-0.105-3.312-0.455-4.44-0.866c-1.543-0.687-2.809-1.592-3.355-2.064c-0.178-0.154-0.366-0.287-0.564-0.398
			c2.634-2.374,6.381-5.85,9.988-9.536c0.057,0.277,0.114,0.551,0.172,0.819c0.343,1.627,0.668,3.164,0.668,4.775
			C19.953,109.877,18.72,110.882,17.485,111.048L17.485,111.048z M150.617,90.894c1.098,0,2.209,0.334,2.209,0.971
			c0,0.656-0.797,2.324-3.813,3.934c-1.175,0.627-2.802,1.307-5.002,1.878C145.257,93.818,147.883,90.894,150.617,90.894
			L150.617,90.894z M351.614,102.049c-0.848-1.671-2.888-2.34-4.562-1.493c-0.716,0.363-1.647,0.999-3.059,1.961
			c-1.952,1.33-4.938,3.366-8.145,5.095c0.198-1.639,0.198-3.105,0.198-4.051c0-2.32-0.433-4.371-0.814-6.179
			c-0.603-2.846-1.019-4.812,0.167-7.097c0.604-0.842,1.152-1.621,1.637-2.321c1.023-1.485,0.707-3.511-0.721-4.613
			c-1.432-1.103-3.471-0.893-4.646,0.475c-0.84,0.978-1.509,1.935-2.037,2.869c-8.542,11.914-19.872,24.166-21.975,24.166
			c-3.622,0,1.057-21.878,1.202-22.993c0.226-1.76-0.942-3.398-2.681-3.756c-1.736-0.354-3.459,0.684-3.946,2.391
			c-0.42,1.469-4.709,24.271-12.621,24.271c-4.678,0,2.191-20.788,2.542-22.739c0.314-1.75-0.775-3.445-2.497-3.886
			c-1.728-0.443-3.493,0.523-4.059,2.208c-0.457,1.363-3.059,14.093-12.585,20.417c1.473-3.405,2.267-7.251,2.267-10.994
			c0-2.963-0.559-5.565-1.613-7.524c-1.463-2.716-3.836-4.212-6.681-4.212c-1.36,0-2.729,0.399-4.077,1.071
			c8.852-18.99,7.952-25.058,6.155-28.209c-1.273-2.234-3.527-3.465-6.348-3.465c-2.712,0-5.254,1.13-7.352,3.268
			c-9.093,9.263-9.559,38.103-9.521,45.658c-0.051,0.054-0.104,0.109-0.159,0.167c-1.962,2.057-7.934,8.316-12.457,8.316
			c-0.779,0-1.506-0.061-2.179-0.181c0.632-0.535,1.205-1.068,1.725-1.589c4.522-4.531,7.332-10.611,7.332-15.869
			c0-5.453-3.135-9.117-7.802-9.117c-8.461,0-14.144,9.467-14.144,18.308c0,2.602,0.482,4.995,1.414,7.083
			c-2.446,0.838-9.001,1.823-9.508,1.155c-1.182-1.557,1.437-8.849,2.528-12.036c2.05-5.99,3.405-9.948,1.449-12.683
			c-0.86-1.203-2.251-1.894-3.816-1.894c-2.105,0-4.174,0.756-6.166,2.011c0.032-0.069,0.065-0.137,0.099-0.206
			c9.215-19.549,8.31-25.719,6.491-28.91c-1.274-2.234-3.527-3.465-6.347-3.465c-2.713,0-5.256,1.13-7.354,3.269
			c-4.222,4.301-6.583,12.82-7.899,21.469l-8.274-0.345c6.394-13.92,5.62-18.666,4.174-21.228c-1.149-2.033-3.185-3.153-5.735-3.153
			c-1.507,0-3.749,0.455-5.876,2.618c-3.78,3.847-5.851,12.407-6.98,21.164l-3.032-0.126c-1.867-0.07-3.453,1.376-3.53,3.249
			c-0.079,1.872,1.376,3.453,3.247,3.531l2.614,0.109c-0.617,7.623-0.644,14.473-0.619,17.353
			c-2.338,3.254-7.967,9.501-13.499,9.501c-2.867,0-5.019-0.817-6.396-2.43c-0.813-0.951-1.382-2.221-1.671-3.689
			c3.37-0.677,6.311-1.67,8.733-2.963c4.705-2.511,7.402-6.127,7.402-9.919c0-4.494-3.781-7.755-8.993-7.755
			c-7.321,0-12.535,6.936-13.815,14.572c-1.536,0.122-6.586,1.449-4.9-3.623c1.029-3.093,2.164-6.266,0.34-8.826
			c-0.715-1.003-2.132-2.199-4.824-2.199c-3.74,0-7.41,3.03-11.58,9.679l0.81-5.83c0.249-1.788-0.945-3.456-2.717-3.798
			c-1.774-0.343-3.501,0.763-3.935,2.514c-2.847,11.477-8.901,24.265-13.038,24.265c-0.366,0-0.412-0.062-0.513-0.201
			c-1.244-1.709-0.911-7.056,0.255-12.858c1.36-4.181,2.051-7.63,2.231-8.595c0.329-1.759-0.764-3.471-2.498-3.912
			c-1.457-0.373-2.943,0.262-3.708,1.48c-0.283-1.588-1.673-2.792-3.341-2.792c-14.986,0-17.712,26.878-27.954,26.878
			c-3.112,0,0.736-9,1.765-12.136c1.991-6.061,3.306-10.063,1.322-12.803c-0.879-1.214-2.235-1.882-3.818-1.882
			c-3.139,0-5.941,0.888-8.431,2.351C52.354,86.215,70.682,53.5,52.557,53.5c-15.643,0-16.748,40.401-16.697,48.505
			c-1.355,1.44-7.204,5.564-9.423,6.557c0.301-1.929,0.301-3.7,0.301-4.784c0-2.32-0.434-4.37-0.815-6.179
			c-0.637-3.008-1.064-5.032,0.386-7.491c0.512-0.659,0.988-1.304,1.418-1.927c1.024-1.485,0.708-3.512-0.721-4.613
			c-1.428-1.102-3.469-0.893-4.645,0.475c-0.636,0.74-1.174,1.468-1.626,2.183c-6.404,8.141-19.411,19.336-19.552,19.457
			c-1.422,1.221-1.586,3.361-0.365,4.783c0.856,1,2.17,1.377,3.367,1.09c0.131,0.49,0.374,0.957,0.73,1.362
			c0.273,0.311,1.953,2.105,5.318,3.444c1.858,0.833,4.106,1.503,6.53,1.503c0.265,0,0.524-0.008,0.775-0.022
			c0.36,0.015,0.729,0.022,1.106,0.022c6.727,0,12.454-3.786,17.072-7.25c-0.637,1.981-0.217,6.938,2.441,6.938
			c6.093,0,5.479-7.514,8.538-14.535c2.683-6.159,7.136-11.94,11.176-11.94c1.424,0-0.579,3.875-1.123,5.532
			c-2.251,6.854-4.578,13.94-1.5,18.19c0.94,1.299,2.776,2.848,6.181,2.848c4.366,0,7.595-2.346,10.304-5.67
			c0.656,3.495,3.36,5.671,7.248,5.671c4.346,0,7.848-2.387,10.632-5.782c0.321,1.045,0.762,1.986,1.344,2.785
			c1.405,1.932,3.535,2.996,6,2.996c3.673,0,6.849-2.4,9.518-5.85l-0.277,1.99c-0.237,1.707,0.843,3.319,2.51,3.751
			c1.666,0.432,3.394-0.455,4.015-2.062c0.024-0.063,2.485-6.41,5.808-12.776c3.438-6.589,5.855-9.528,7.291-10.838
			c-0.115,0.346-0.231,0.683-0.334,0.979c-1.101,3.189-2.471,7.158-0.303,10.199c1.307,1.835,3.503,2.766,6.527,2.766
			c1.734,0,3.411-0.059,5.022-0.174c0.472,2.789,1.573,5.243,3.252,7.208c1.874,2.193,5.399,4.807,11.555,4.807
			c6.28,0,11.721-4.209,15.296-7.916c1.508,3.883,4.206,7.923,8.911,7.923c3.892,0,6.969-1.379,9.418-3.183
			c0.082,1.238,0.829,2.39,2.05,2.906c0.432,0.183,0.88,0.27,1.322,0.27c1.32,0,2.577-0.777,3.125-2.071
			c3.631-8.579,10.655-20.693,16.056-23.94c-0.428,1.508-1.058,3.347-1.545,4.769c-2.352,6.878-4.787,13.99-1.695,18.317
			c0.954,1.334,2.831,2.925,6.353,2.925c5.327,0,9.707-1.081,13.251-2.637c2.058,1.44,5.007,2.621,9.145,2.621
			c5.078,0,9.94-3.413,13.459-6.568c0.172,0.57,0.408,1.14,0.729,1.697c1.872,3.242,5.757,4.887,11.55,4.887
			c9.995,0,17.371-3.982,22.619-9.29c0.155,2.556,0.71,4.811,1.872,6.424c1.33,1.849,3.347,2.866,5.681,2.866
			c4.666,0,8.278-2.442,11.058-5.934c0.357,1.109,0.84,2.104,1.467,2.936c1.479,1.961,3.584,2.998,6.084,2.998
			c1.603,0,3.739-0.584,7.485-3.773c1.681,1.627,5.004,3.773,10.842,3.773c0.006,0,0.009-0.001,0.016,0
			c7.767-0.009,16.847-6.199,21.727-9.525c0.928-0.633,1.979-1.351,2.304-1.515C351.791,105.762,352.459,103.721,351.614,102.049
			L351.614,102.049z"/>
	</g>
</g>
</svg>
