<?xml version="1.0" encoding="utf-8"?>
<!-- Generator: Adobe Illustrator 16.0.0, SVG Export Plug-In . SVG Version: 6.00 Build 0)  -->
<!DOCTYPE svg PUBLIC "-//W3C//DTD SVG 1.1//EN" "http://www.w3.org/Graphics/SVG/1.1/DTD/svg11.dtd">
<svg version="1.1" id="Layer_1" xmlns="http://www.w3.org/2000/svg" xmlns:xlink="http://www.w3.org/1999/xlink" x="0px" y="0px"
	 width="588.411px" height="361.797px" viewBox="-4.589 0 588.411 361.797" enable-background="new -4.589 0 588.411 361.797"
	 xml:space="preserve">
<g>
	<polygon fill="#DB1F26" points="54.626,192.059 72.61,174.511 72.61,150.544 62.585,141.195 62.588,100.599 65.928,100.599 
		65.928,139.744 75.951,149.1 75.951,175.917 56.959,194.45 56.959,194.45 54.626,192.059 	"/>
	<polygon fill="#DB1F26" points="25.502,169.333 25.502,149.6 28.173,149.6 28.173,168.179 41.113,180.252 39.292,182.206 
		25.502,169.333 	"/>
	<polygon fill="#DB1F26" points="40.87,146.928 40.87,123.542 43.541,123.542 43.541,146.928 40.87,146.928 	"/>
	<polygon fill="#DB1F26" points="92.097,160.069 92.097,136.237 94.771,136.237 94.771,160.069 92.097,160.069 	"/>
	<path fill="#DB1F26" d="M63.577,135.25l12.706-11.631v-10.767h2.673v11.943L65.38,137.219L63.577,135.25L63.577,135.25
		L63.577,135.25z M65.379,137.219L65.379,137.219l0.003,0.006L65.379,137.219L65.379,137.219L65.379,137.219z"/>
	<polygon fill="#DB1F26" points="23.165,201.497 23.165,184.803 8.045,169.25 10.442,166.925 26.503,183.445 26.503,201.497 
		26.506,201.497 23.165,201.497 	"/>
	<polygon fill="#DB1F26" points="88.244,188.288 98.488,178.04 100.852,180.401 90.606,190.649 88.244,188.288 	"/>
	<path fill="#DB1F26" d="M19.375,108.842c0.004,1.537,1.249,2.784,2.786,2.786l0,0c1.539-0.002,2.781-1.249,2.783-2.786l0,0
		c-0.002-1.539-1.244-2.779-2.783-2.783l0,0C20.624,106.062,19.379,107.303,19.375,108.842L19.375,108.842L19.375,108.842z
		 M16.033,108.842c0.002-3.384,2.745-6.122,6.127-6.122l0,0c3.385,0,6.126,2.738,6.126,6.122l0,0c0,3.383-2.741,6.126-6.126,6.126
		l0,0C18.778,114.968,16.036,112.225,16.033,108.842L16.033,108.842L16.033,108.842z"/>
	<path fill="#DB1F26" d="M24.945,146.149c0,1.292,1.046,2.337,2.337,2.341l0,0c1.293-0.004,2.337-1.05,2.341-2.341l0,0
		c-0.004-1.292-1.048-2.341-2.341-2.341l0,0C25.991,143.808,24.945,144.857,24.945,146.149L24.945,146.149L24.945,146.149z
		 M22.271,146.149c0.002-2.767,2.243-5.015,5.01-5.016l0,0c2.767,0.001,5.015,2.249,5.015,5.016l0,0
		c0,2.765-2.248,5.008-5.015,5.008l0,0C24.515,151.157,22.274,148.914,22.271,146.149L22.271,146.149L22.271,146.149z"/>
	<polygon fill="#DB1F26" points="7.906,148.875 7.906,135.792 10.577,135.792 10.577,147.652 27.932,162.624 26.188,164.643 
		7.906,148.875 	"/>
	<path fill="#DB1F26" d="M7.349,132.338c0.004,1.292,1.047,2.337,2.34,2.341l0,0c1.287-0.003,2.335-1.049,2.335-2.341l0,0
		c0-1.292-1.048-2.338-2.335-2.338l0,0C8.396,130,7.354,131.046,7.349,132.338L7.349,132.338L7.349,132.338z M4.674,132.338
		c0-2.768,2.245-5.01,5.015-5.01l0,0c2.766,0,5.009,2.242,5.01,5.01l0,0c-0.001,2.767-2.244,5.013-5.01,5.013l0,0
		C6.919,137.351,4.674,135.104,4.674,132.338L4.674,132.338L4.674,132.338z"/>
	<path fill="#DB1F26" d="M39.979,120.426c0.001,1.288,1.046,2.334,2.34,2.337l0,0c1.288-0.003,2.332-1.049,2.336-2.337l0,0
		c-0.004-1.292-1.048-2.338-2.336-2.341l0,0C41.025,118.088,39.98,119.134,39.979,120.426L39.979,120.426L39.979,120.426z
		 M37.305,120.426c0-2.771,2.244-5.011,5.014-5.019l0,0c2.764,0.007,5.008,2.248,5.011,5.019l0,0
		c-0.003,2.764-2.247,5.012-5.011,5.012l0,0C39.549,125.438,37.305,123.189,37.305,120.426L37.305,120.426L37.305,120.426z"/>
	<path fill="#DB1F26" d="M75.28,109.51c0.004,1.288,1.048,2.337,2.34,2.337l0,0c1.29,0,2.335-1.049,2.339-2.337l0,0
		c-0.003-1.294-1.049-2.334-2.339-2.338l0,0C76.328,107.175,75.285,108.216,75.28,109.51L75.28,109.51L75.28,109.51z M72.606,109.51
		c0.004-2.771,2.243-5.01,5.015-5.01l0,0c2.768,0,5.011,2.239,5.011,5.01l0,0c0,2.771-2.243,5.011-5.011,5.011l0,0
		C74.849,114.521,72.61,112.28,72.606,109.51L72.606,109.51L72.606,109.51z"/>
	<path fill="#DB1F26" d="M91.317,133.12c0.003,1.292,1.047,2.334,2.339,2.334l0,0c1.292,0,2.338-1.042,2.34-2.334l0,0
		c-0.002-1.292-1.048-2.338-2.34-2.341l0,0C92.364,130.782,91.32,131.829,91.317,133.12L91.317,133.12L91.317,133.12z
		 M88.645,133.12c0-2.771,2.242-5.013,5.011-5.013l0,0c2.769,0,5.011,2.243,5.011,5.013l0,0c0,2.768-2.243,5.01-5.011,5.01l0,0
		C90.887,138.13,88.645,135.888,88.645,133.12L88.645,133.12L88.645,133.12z"/>
	<path fill="#DB1F26" d="M61.696,96.592c0.002,1.534,1.246,2.777,2.783,2.777l0,0c1.537,0,2.781-1.243,2.786-2.777l0,0
		c-0.004-1.538-1.249-2.781-2.786-2.786l0,0C62.942,93.811,61.698,95.054,61.696,96.592L61.696,96.592L61.696,96.592z
		 M58.355,96.592c0-3.382,2.738-6.126,6.124-6.126l0,0c3.383,0,6.123,2.745,6.124,6.126l0,0c-0.001,3.383-2.741,6.128-6.124,6.128
		l0,0C61.093,102.72,58.355,99.975,58.355,96.592L58.355,96.592L58.355,96.592z"/>
	<path fill="#DB1F26" d="M100.45,148.26c0.004,1.543,1.246,2.784,2.783,2.784l0,0c1.535,0,2.783-1.241,2.786-2.784l0,0
		c-0.003-1.533-1.251-2.779-2.786-2.783l0,0C101.696,145.48,100.454,146.727,100.45,148.26L100.45,148.26L100.45,148.26z
		 M97.107,148.26c0.003-3.38,2.743-6.121,6.126-6.121l0,0c3.383,0,6.124,2.741,6.124,6.121l0,0c0,3.391-2.741,6.132-6.124,6.133l0,0
		C99.85,154.392,97.11,151.65,97.107,148.26L97.107,148.26L97.107,148.26z"/>
	<path fill="#DB1F26" d="M99.783,175.888c0,1.527,1.246,2.777,2.782,2.781l0,0c1.537-0.004,2.78-1.254,2.783-2.781l0,0
		c-0.003-1.543-1.246-2.79-2.783-2.79l0,0C101.029,173.098,99.783,174.345,99.783,175.888L99.783,175.888L99.783,175.888z
		 M96.438,175.888c0.002-3.389,2.744-6.132,6.126-6.132l0,0c3.384,0,6.124,2.743,6.124,6.132l0,0c0,3.379-2.74,6.12-6.124,6.12l0,0
		C99.182,182.008,96.441,179.267,96.438,175.888L96.438,175.888L96.438,175.888z"/>
	<path fill="#DB1F26" d="M5.791,185.683c0.002,1.534,1.246,2.784,2.785,2.784l0,0c1.538,0,2.781-1.25,2.783-2.784l0,0
		c-0.002-1.541-1.246-2.781-2.783-2.781l0,0C7.037,182.901,5.792,184.142,5.791,185.683L5.791,185.683L5.791,185.683z
		 M2.448,185.683c0.003-3.384,2.742-6.127,6.127-6.127l0,0c3.382,0,6.123,2.743,6.125,6.127l0,0
		c-0.001,3.38-2.742,6.123-6.125,6.123l0,0C5.189,191.806,2.451,189.062,2.448,185.683L2.448,185.683L2.448,185.683z"/>
	<path fill="#DB1F26" d="M37.64,159.617c0.003,1.543,1.25,2.785,2.785,2.788l0,0c1.536-0.003,2.78-1.245,2.784-2.788l0,0
		c-0.003-1.529-1.248-2.775-2.784-2.777l0,0C38.89,156.842,37.644,158.088,37.64,159.617L37.64,159.617L37.64,159.617z
		 M34.3,159.617c0-3.38,2.741-6.118,6.125-6.123l0,0c3.383,0.005,6.122,2.743,6.124,6.123l0,0c-0.002,3.391-2.741,6.13-6.124,6.134
		l0,0C37.041,165.748,34.3,163.008,34.3,159.617L34.3,159.617L34.3,159.617z"/>
	<path fill="#DB1F26" d="M3.341,164.97c0.002,1.54,1.247,2.778,2.784,2.783l0,0c1.536-0.005,2.78-1.243,2.785-2.783l0,0
		c-0.005-1.539-1.25-2.781-2.785-2.788l0,0C4.588,162.189,3.344,163.431,3.341,164.97L3.341,164.97L3.341,164.97z M0,164.97
		c0-3.385,2.741-6.128,6.125-6.128l0,0c3.384,0,6.122,2.743,6.126,6.128l0,0c-0.004,3.382-2.742,6.122-6.126,6.125l0,0
		C2.741,171.092,0,168.352,0,164.97L0,164.97L0,164.97z"/>
	<polygon fill="#DB1F26" points="63.477,249.711 63.477,218.428 91.541,189.475 91.541,164.896 101.636,152.435 99.041,150.331 
		88.198,163.708 88.198,188.124 60.136,217.079 60.136,249.711 	"/>
	<polygon fill="#DB1F26" points="53.897,249.711 57.239,249.711 57.239,159.155 23.832,125.742 23.832,112.852 20.49,112.852 
		20.49,127.13 53.897,160.537 	"/>
	<polygon fill="#DB1F26" points="47.886,249.711 51.226,249.711 51.226,207.262 41.871,197.909 41.874,163.633 38.532,163.633 
		38.532,199.292 47.886,208.65 	"/>
	<polygon fill="#DB1F26" points="42.094,249.711 45.435,249.711 45.435,219.499 12.412,187.379 10.083,189.776 42.094,220.913 	"/>
	<polygon fill="#DB1F26" points="34.928,266.079 34.928,258.844 45.413,250.418 45.413,247.778 42.122,247.778 42.122,248.836 
		31.634,257.26 31.634,266.079 	"/>
	<polygon fill="#DB1F26" points="46.902,266.079 46.902,258.299 51.218,250.075 51.218,247.004 47.934,247.004 47.934,249.274 
		43.612,257.495 43.612,266.079 	"/>
	<polygon fill="#DB1F26" points="58.234,266.079 61.525,266.079 61.52,257.37 57.206,249.15 57.206,246.879 53.923,246.879 
		53.916,246.879 53.916,249.551 53.916,249.952 58.234,258.168 	"/>
	<polygon fill="#DB1F26" points="70.628,266.079 73.92,266.079 73.92,257.26 63.436,248.836 63.436,247.778 60.149,247.778 
		60.144,247.778 60.144,249.629 60.144,250.418 70.628,258.844 	"/>
	<path fill="#231F20" d="M124.506,265.116c0.392-6.761,0.564-14.912,0.533-24.426c-0.038-9.514-0.29-19.928-0.754-31.236
		l19.596-0.041c6.052,0,10.366,1.032,12.949,3.073c2.572,2.056,3.996,5.448,4.257,10.147c0.261,4.725-0.985,8.516-3.74,11.396
		c-2.761,2.903-6.783,4.582-12.067,5.079l16.77,26.005h-8.957c-0.919-1.757-1.886-3.471-2.896-5.154
		c-1.012-1.688-2.175-3.523-3.483-5.535l-13.257-20.359c0.66,0.023,1.422,0.059,2.287,0.087c0.87,0.048,1.391,0.071,1.586,0.071
		c5.586,0,9.725-0.916,12.415-2.754c2.691-1.832,3.938-4.584,3.734-8.258c-0.165-2.957-1.063-5.021-2.69-6.205
		c-1.623-1.172-4.97-1.756-10.038-1.756h-8.912c-0.049,1.092-0.08,2.311-0.085,3.646c-0.011,1.34-0.008,3.104,0.005,5.267
		l0.329,22.879c0.056,3.558,0.134,6.846,0.217,9.86c0.084,3.046,0.17,5.774,0.252,8.214H124.506L124.506,265.116z"/>
	<path fill="#231F20" d="M210.756,227.771c-4.737,0-8.248,1.513-10.532,4.515c-2.284,3.016-3.269,7.42-2.944,13.233
		c0.281,5.017,1.618,8.782,4.019,11.319c2.4,2.537,5.817,3.797,10.258,3.797c4.732,0,8.252-1.487,10.553-4.473
		c2.294-2.988,3.287-7.367,2.971-13.111c-0.286-5.114-1.625-8.945-4.011-11.483C218.682,229.045,215.248,227.771,210.756,227.771
		L210.756,227.771z M190.445,245.2c-0.401-7.209,1.207-12.865,4.827-16.99c3.615-4.135,8.784-6.183,15.489-6.183
		c6.436,0,11.492,1.845,15.158,5.524c3.67,3.674,5.694,8.945,6.076,15.779c0.395,7.076-1.185,12.674-4.717,16.791
		c-3.535,4.119-8.497,6.182-14.878,6.182c-6.704,0-11.943-1.807-15.723-5.469C192.902,257.195,190.821,251.976,190.445,245.2
		L190.445,245.2z"/>
	<path fill="#231F20" d="M269.946,230.606c-0.166,1.826-0.253,3.982-0.25,6.48c0,2.473,0.076,5.084,0.224,7.82
		c0.283,5.118,1.523,9.004,3.712,11.67c2.187,2.651,5.24,3.977,9.156,3.977c4.295,0,7.558-1.562,9.779-4.678
		c2.222-3.131,3.176-7.506,2.865-13.15c-0.274-4.957-1.609-8.719-4.013-11.285c-2.403-2.555-5.792-3.824-10.178-3.824
		c-1.75,0-3.549,0.237-5.397,0.723C273.993,228.84,272.028,229.592,269.946,230.606L269.946,230.606z M262.954,265.116
		c0.297-11.32,0.445-21.621,0.437-30.916c-0.011-9.291-0.176-17.555-0.493-24.787h7.063c-0.076,1.989-0.099,4.305-0.064,6.904
		c0,0.51-0.007,0.883-0.023,1.104l0.156,7.238c1.735-0.859,3.587-1.513,5.58-1.961c1.988-0.449,4.009-0.672,6.061-0.672
		c6.106,0,10.987,1.811,14.639,5.42c3.648,3.608,5.654,8.654,6.014,15.104c0.404,7.268-1.066,13.035-4.42,17.31
		c-3.344,4.306-8.018,6.444-14.019,6.444c-2.98,0-5.605-0.582-7.859-1.727c-2.252-1.154-4.254-2.92-6.008-5.343l-0.001,5.88h-7.063
		V265.116z"/>
	<path fill="#231F20" d="M352.407,227.771c-4.741,0-8.252,1.513-10.529,4.515c-2.284,3.016-3.266,7.42-2.94,13.233
		c0.277,5.017,1.613,8.782,4.017,11.319c2.397,2.537,5.819,3.797,10.254,3.797c4.741,0,8.257-1.487,10.556-4.473
		c2.302-2.988,3.29-7.367,2.97-13.111c-0.286-5.114-1.621-8.945-4.013-11.483C360.342,229.045,356.897,227.771,352.407,227.771
		L352.407,227.771z M332.098,245.2c-0.398-7.209,1.209-12.865,4.825-16.99c3.621-4.135,8.78-6.183,15.493-6.183
		c6.438,0,11.488,1.845,15.16,5.524c3.666,3.674,5.688,8.945,6.072,15.779c0.393,7.076-1.185,12.674-4.714,16.791
		c-3.541,4.119-8.502,6.182-14.875,6.182c-6.715,0-11.959-1.807-15.73-5.469C334.55,257.195,332.477,251.976,332.098,245.2
		L332.098,245.2z"/>
	<path fill="#231F20" d="M406.271,228.514h-5.88l-0.044-5.303h5.953l-0.22-6.98l6.905-1.354l0.137,8.334h12.366l0.129,5.303h-12.451
		l0.258,24.564c0.022,0.354,0.027,0.717,0.022,1.102c-0.011,0.391-0.011,0.613-0.004,0.67c0.109,2.041,0.668,3.479,1.651,4.27
		c0.987,0.789,2.704,1.19,5.138,1.19c1.478,0,3.56-0.304,6.24-0.897c0.348-0.088,0.607-0.142,0.771-0.177l-0.646,6.2
		c-1.706,0.305-3.324,0.543-4.847,0.71c-1.525,0.157-2.956,0.241-4.298,0.241c-3.534,0-6.2-0.766-7.996-2.299
		c-1.796-1.541-2.782-3.924-2.965-7.149c-0.026-0.433-0.026-1.235-0.016-2.401c0.022-1.168,0.029-2.078,0.016-2.736L406.271,228.514
		L406.271,228.514z"/>
	<path fill="#231F20" d="M455.682,216.487l-0.227-7.074h7.312l0.229,7.074H455.682L455.682,216.487z M455.594,265.116
		c0.245-6.875,0.336-13.59,0.272-20.15c-0.062-6.562-0.272-13.029-0.624-19.408l-0.134-2.346h8.007
		c-0.242,6.883-0.332,13.588-0.271,20.149c0.068,6.556,0.271,13.017,0.627,19.415l0.129,2.34H455.594L455.594,265.116z"/>
	<path fill="#231F20" d="M527.161,264.456c-2.072,0.611-4.026,1.057-5.854,1.383c-1.837,0.308-3.544,0.465-5.133,0.465
		c-6.324,0-11.349-1.848-15.049-5.539c-3.718-3.703-5.759-8.893-6.132-15.564c-0.396-7.207,1.215-12.865,4.848-16.988
		c3.64-4.135,8.793-6.184,15.478-6.184c1.505,0,3.146,0.137,4.931,0.396c1.784,0.281,3.864,0.707,6.249,1.285l0.358,6.326
		l-0.128-0.048c-5.123-1.532-8.902-2.29-11.344-2.29c-4.742,0-8.262,1.497-10.572,4.508c-2.311,3.021-3.312,7.389-2.987,13.145
		c0.283,5.068,1.614,8.877,3.98,11.443c2.376,2.565,5.778,3.842,10.222,3.842c1.478,0,3.149-0.211,5.017-0.596
		c1.864-0.396,4.267-1.09,7.195-2.074L527.161,264.456L527.161,264.456z"/>
	<path fill="#231F20" d="M554.289,257.184c2.812,1.288,5.324,2.238,7.549,2.834c2.227,0.605,4.299,0.896,6.215,0.896
		c2.792,0,4.953-0.494,6.47-1.492c1.518-0.996,2.229-2.391,2.131-4.17c-0.099-1.771-1.554-3.744-4.355-5.871h-0.039l-9.562-7.221
		c-2.404-1.844-4.14-3.559-5.213-5.139c-1.074-1.592-1.659-3.277-1.759-5.057c-0.166-2.939,0.905-5.319,3.214-7.168
		c2.304-1.854,5.401-2.771,9.297-2.771c1.53,0,3.203,0.136,5.012,0.396c1.811,0.283,3.809,0.684,6.001,1.207l0.752,6.16
		c-2.204-0.775-4.268-1.358-6.194-1.768c-1.93-0.406-3.574-0.611-4.943-0.611c-1.977,0-3.534,0.441-4.691,1.33
		c-1.154,0.881-1.693,2.041-1.619,3.465c0.051,0.85,0.405,1.695,1.068,2.522c0.667,0.84,1.818,1.851,3.479,3.021l8.861,6.416
		c3.108,2.326,5.111,4.205,5.996,5.623c0.886,1.428,1.388,3.119,1.491,5.061c0.204,3.641-1.018,6.463-3.659,8.455
		c-2.641,2.003-6.476,2.998-11.521,2.998c-2.075,0-4.222-0.196-6.419-0.582c-2.195-0.372-4.481-0.951-6.854-1.715L554.289,257.184
		L554.289,257.184z"/>
	<path fill="#DB1F26" d="M124.664,194.006c0.679-11.752,0.988-25.906,0.927-42.447c-0.063-16.551-0.499-34.647-1.306-54.301
		l34.059-0.081c10.521,0,18.027,1.778,22.509,5.356c4.485,3.575,6.95,9.445,7.41,17.639c0.453,8.188-1.714,14.791-6.506,19.817
		c-4.794,5.027-11.784,7.961-20.971,8.812l29.15,45.206h-15.567c-1.601-3.031-3.275-6.023-5.031-8.953
		c-1.757-2.932-3.782-6.133-6.072-9.609l-23.037-35.416c1.148,0.046,2.473,0.102,3.977,0.171c1.499,0.079,2.42,0.114,2.75,0.114
		c9.719,0,16.913-1.595,21.592-4.788c4.678-3.187,6.837-7.963,6.485-14.346c-0.285-5.15-1.844-8.742-4.672-10.792
		c-2.827-2.042-8.645-3.063-17.449-3.063h-15.495c-0.091,1.896-0.14,4.021-0.155,6.356c-0.009,2.327-0.009,5.377,0.015,9.139
		l0.57,39.773c0.098,6.186,0.226,11.908,0.38,17.168c0.152,5.273,0.296,10.014,0.431,14.248H124.664L124.664,194.006z"/>
	<path fill="#DB1F26" d="M211.589,145.453h38.345c-0.289-5.29-2.003-9.334-5.135-12.139c-3.133-2.812-7.483-4.217-13.055-4.217
		c-5.522,0-10.068,1.447-13.644,4.36C214.522,136.361,212.347,140.359,211.589,145.453L211.589,145.453z M210.831,154.953
		c-0.022,0.429-0.037,1.001-0.046,1.707c0.024,2.195,0.061,3.713,0.105,4.57c0.477,8.481,2.732,14.848,6.781,19.101
		c4.043,4.263,9.849,6.397,17.42,6.397c3.047,0,6.038-0.333,8.976-1.009c2.942-0.654,6.969-2.076,12.087-4.275l-0.648,11.426
		c-4.657,1.137-8.566,1.967-11.722,2.461c-3.167,0.508-6.029,0.758-8.599,0.758c-10.758,0-19.329-3.201-25.706-9.609
		c-6.381-6.404-9.888-15.286-10.521-26.672c-0.684-12.378,2.026-22.267,8.139-29.638c6.11-7.371,14.569-11.065,25.379-11.065
		c9.19,0,16.365,2.545,21.532,7.633c5.155,5.101,8.007,12.46,8.54,22.065c0.026,0.482,0.029,1.453,0.018,2.899
		c-0.018,1.449-0.004,2.537,0.037,3.253L210.831,154.953L210.831,154.953z"/>
	<path fill="#DB1F26" d="M327.4,130.957c-2.286-0.76-4.753-1.337-7.412-1.717c-2.669-0.38-5.451-0.572-8.354-0.572
		c-9.765,0-17.11,2.878-22.051,8.649c-4.942,5.759-7.114,13.964-6.517,24.635c0.429,7.803,2.56,13.916,6.4,18.313
		c3.845,4.397,8.927,6.608,15.261,6.608c7.857,0,13.733-2.526,17.645-7.571c3.91-5.052,5.758-12.48,5.548-22.274L327.4,130.957
		L327.4,130.957z M328.117,194.006l-0.152-10.492c-3.246,4.152-6.812,7.232-10.702,9.244c-3.883,2.029-8.181,3.043-12.897,3.043
		c-10.138,0-18.095-2.862-23.862-8.572c-5.767-5.714-8.943-13.827-9.53-24.355c-0.751-13.475,2.493-24.106,9.723-31.917
		c7.234-7.814,17.515-11.716,30.842-11.716c2.575,0,5.201,0.207,7.893,0.609c2.693,0.403,5.406,0.986,8.159,1.75l-0.212-6.5
		c-0.061-2.808-0.12-5.552-0.17-8.216c-0.034-0.572-0.049-0.875-0.056-0.925l-0.48-8.782h11.99
		c-0.444,13.422-0.584,28.346-0.399,44.742c0.169,16.402,0.621,33.762,1.356,52.087H328.117L328.117,194.006z"/>
	<path fill="#DB1F26" d="M359.359,130.386H349.15l-0.084-9.208h10.358l-0.395-12.154l12.007-2.348l0.238,14.501h21.49l0.229,9.208
		h-21.636l0.446,42.695c0.028,0.635,0.044,1.265,0.032,1.936c-0.012,0.664-0.015,1.044-0.008,1.143
		c0.203,3.57,1.161,6.042,2.877,7.419c1.717,1.395,4.699,2.076,8.933,2.076c2.577,0,6.19-0.515,10.838-1.568
		c0.615-0.141,1.057-0.24,1.348-0.287l-1.116,10.779c-2.972,0.523-5.782,0.937-8.433,1.223c-2.648,0.287-5.143,0.427-7.478,0.427
		c-6.141,0-10.77-1.336-13.893-4.006c-3.127-2.659-4.839-6.8-5.16-12.423c-0.038-0.751-0.044-2.153-0.019-4.176
		c0.033-2.029,0.038-3.616,0.022-4.752L359.359,130.386L359.359,130.386z"/>
	<path fill="#DB1F26" d="M404.457,194.006c0.336-11.18,0.411-22.418,0.239-33.705c-0.18-11.28-0.582-22.608-1.212-33.993
		l-0.29-5.131h12.426l0.128,10.062c1.966-4.193,4.357-7.206,7.179-9.037c2.826-1.819,6.453-2.746,10.888-2.746
		c1.663,0,2.911,0.058,3.754,0.18c0.841,0.12,1.602,0.301,2.276,0.533l1.293,10.352c-1.584-0.187-2.972-0.326-4.163-0.422
		c-1.201-0.1-2.016-0.155-2.44-0.155c-13.711,0-19.607,20.648-17.698,61.919c0.007,0.957,0.023,1.67,0.05,2.141h-12.429V194.006z"/>
	<path fill="#DB1F26" d="M460.674,145.453h38.353c-0.294-5.29-2.011-9.334-5.139-12.139c-3.133-2.812-7.484-4.217-13.056-4.217
		c-5.518,0-10.071,1.447-13.645,4.36C463.611,136.361,461.439,140.359,460.674,145.453L460.674,145.453z M459.916,154.953
		c-0.022,0.429-0.041,1.001-0.043,1.707c0.021,2.195,0.063,3.713,0.11,4.57c0.472,8.481,2.727,14.848,6.772,19.101
		c4.039,4.263,9.853,6.397,17.424,6.397c3.048,0,6.038-0.333,8.977-1.009c2.938-0.654,6.963-2.076,12.081-4.275l-0.652,11.426
		c-4.646,1.137-8.554,1.967-11.718,2.461c-3.161,0.508-6.031,0.758-8.596,0.758c-10.769,0-19.328-3.201-25.709-9.609
		c-6.378-6.404-9.883-15.286-10.518-26.672c-0.688-12.378,2.023-22.267,8.146-29.638c6.104-7.371,14.566-11.065,25.374-11.065
		c9.189,0,16.362,2.545,21.525,7.633c5.163,5.101,8.014,12.46,8.546,22.065c0.026,0.482,0.033,1.453,0.017,2.899
		c-0.014,1.449,0,2.537,0.037,3.253L459.916,154.953L459.916,154.953z"/>
	<path fill="#DB1F26" d="M532.798,145.453h38.355c-0.293-5.29-2.005-9.334-5.137-12.139c-3.135-2.812-7.485-4.217-13.055-4.217
		c-5.522,0-10.072,1.447-13.646,4.36C535.735,136.361,533.571,140.359,532.798,145.453L532.798,145.453z M532.047,154.953
		c-0.025,0.429-0.041,1.001-0.048,1.707c0.023,2.195,0.062,3.713,0.109,4.57c0.472,8.481,2.729,14.848,6.771,19.101
		c4.047,4.263,9.856,6.397,17.426,6.397c3.048,0,6.04-0.333,8.977-1.009c2.938-0.654,6.966-2.076,12.084-4.275l-0.653,11.426
		c-4.646,1.137-8.55,1.967-11.714,2.461c-3.164,0.508-6.03,0.758-8.602,0.758c-10.758,0-19.325-3.201-25.707-9.609
		c-6.38-6.404-9.883-15.286-10.517-26.672c-0.685-12.378,2.02-22.267,8.141-29.638c6.107-7.371,14.568-11.065,25.378-11.065
		c9.189,0,16.363,2.545,21.529,7.633c5.155,5.101,8.009,12.46,8.544,22.065c0.025,0.482,0.032,1.453,0.019,2.899
		c-0.019,1.449-0.003,2.537,0.038,3.253L532.047,154.953L532.047,154.953z"/>
</g>
</svg>
