<?xml version="1.0" encoding="utf-8"?>
<!-- Generator: Adobe Illustrator 16.0.0, SVG Export Plug-In . SVG Version: 6.00 Build 0)  -->
<!DOCTYPE svg PUBLIC "-//W3C//DTD SVG 1.1//EN" "http://www.w3.org/Graphics/SVG/1.1/DTD/svg11.dtd">
<svg version="1.1" id="logo" xmlns="http://www.w3.org/2000/svg" xmlns:xlink="http://www.w3.org/1999/xlink" x="0px" y="0px"
	 width="755px" height="583px" viewBox="0 0 755 583" enable-background="new 0 0 755 583" xml:space="preserve">
<path fill-rule="evenodd" clip-rule="evenodd" d="M648.887,333.271c-4.025,11.355-9.732,21.287-17.106,29.802
	c-7.382,8.515-16.524,15.197-27.42,20.034c-10.904,4.844-23.065,7.263-36.477,7.263c-10.4,0-20.125-1.581-29.182-4.759
	c-9.056-3.169-17.53-7.341-25.408-12.521c-7.885-5.173-15.345-11.183-22.389-18.03c-7.044-6.84-13.757-13.938-20.125-21.287
	c-7.044,7.349-13.922,14.447-20.628,21.287c-6.714,6.848-13.836,12.857-21.383,18.03c-7.547,5.181-15.77,9.353-24.653,12.521
	c-8.892,3.178-18.867,4.759-29.936,4.759c-13.757,0-25.997-2.419-36.728-7.263c-10.738-4.837-19.96-11.348-27.672-19.533
	c-7.098-7.52-12.623-16.386-16.597-26.592c-0.117,0.266-0.229,0.533-0.349,0.797c-5.071,11.18-11.897,20.859-20.467,29.03
	c-8.575,8.176-18.537,14.486-29.886,18.933c-11.354,4.445-23.427,6.547-36.225,6.311c-12.316,0-24.089-1.623-35.319-4.868
	c-11.229-3.246-21.191-8.232-29.885-14.966c-8.694-6.728-15.639-15.084-20.83-25.063c-5.196-9.973-7.913-21.574-8.151-34.799h51.44
	c1.206,11.539,5.552,20.735,13.041,27.587c7.482,6.852,17.025,10.277,28.618,10.277c6.758,0,12.86-1.38,18.293-4.146
	c5.434-2.762,10.019-6.367,13.766-10.819c3.741-4.445,6.639-9.612,8.694-15.506c2.049-5.889,3.079-11.957,3.079-18.212
	c0-6.491-0.968-12.621-2.898-18.392c-1.936-5.77-4.834-10.818-8.694-15.146c-3.866-4.327-8.457-7.691-13.766-10.097
	c-5.315-2.4-11.473-3.606-18.475-3.606c-9.181,0-16.664,1.623-22.459,4.869c-5.796,3.245-11.23,8.356-16.301,15.326h-46.368
	l24.995-139.56h141.64v42.192h-104.69l-10.143,57.338l0.725,0.721c7.001-6.97,14.49-11.957,22.459-14.965
	c7.969-3.003,17.026-4.508,27.168-4.508c12.554,0,23.666,2.288,33.327,6.852c9.656,4.57,17.807,10.7,24.452,18.392
	c4.962,5.752,9.048,12.273,12.258,19.566c3.841-10.811,9.354-20.202,16.541-28.171c7.374-8.178,16.43-14.689,27.169-19.533
	c10.731-4.836,22.806-7.263,36.225-7.263c11.069,0,21.21,1.675,30.439,5.009c9.221,3.342,17.774,7.763,25.659,13.273
	c7.877,5.509,15.259,11.856,22.137,19.032c6.871,7.185,13.663,14.775,20.377,22.79c6.368-7.678,12.995-15.19,19.873-22.539
	c6.871-7.341,14.253-13.773,22.138-19.283c7.877-5.51,16.431-9.931,25.66-13.273c9.221-3.334,19.197-5.009,29.936-5.009
	c13.411,0,25.486,2.34,36.225,7.012c10.73,4.68,19.787,11.105,27.169,19.283c7.374,8.186,13.081,17.78,17.106,28.799
	c4.024,11.019,6.037,23.039,6.037,36.062S652.911,321.923,648.887,333.271z M426.506,284.938c-5.37-5.174-10.99-9.932-16.855-14.274
	c-5.872-4.336-11.996-7.928-18.364-10.769c-6.375-2.833-12.75-4.257-19.118-4.257c-11.745,0-21.053,4.43-27.924,13.272
	c-6.878,8.852-10.314,18.782-10.314,29.802c0,12.021,3.522,21.873,10.566,29.551c7.044,7.685,16.768,11.52,29.181,11.52
	c6.368,0,12.744-1.252,19.119-3.757c6.368-2.504,12.405-5.674,18.112-9.516c5.7-3.835,11.069-8.179,16.101-13.022
	c5.031-4.837,9.56-9.595,13.584-14.274C436.568,294.877,431.867,290.119,426.506,284.938z M596.813,268.159
	c-7.217-8.342-17.028-12.521-29.433-12.521c-6.714,0-13.168,1.424-19.371,4.257c-6.21,2.841-12.074,6.433-17.609,10.769
	c-5.534,4.343-10.816,9.101-15.848,14.274c-5.031,5.181-9.56,9.938-13.585,14.274c4.355,5.008,9.057,9.938,14.088,14.775
	c5.031,4.844,10.393,9.188,16.1,13.021c5.699,3.843,11.65,6.935,17.861,9.267c6.202,2.34,12.829,3.506,19.873,3.506
	c12.405,0,21.965-4.007,28.679-12.021c6.705-8.014,10.062-17.859,10.062-29.551C607.631,286.526,604.021,276.51,596.813,268.159z"/>
</svg>
