<?xml version="1.0" encoding="utf-8"?>
<!-- Generator: Adobe Illustrator 16.0.0, SVG Export Plug-In . SVG Version: 6.00 Build 0)  -->
<!DOCTYPE svg PUBLIC "-//W3C//DTD SVG 1.1//EN" "http://www.w3.org/Graphics/SVG/1.1/DTD/svg11.dtd">
<svg version="1.1" id="Layer_1" xmlns="http://www.w3.org/2000/svg" xmlns:xlink="http://www.w3.org/1999/xlink" x="0px" y="0px"
	 width="532.229px" height="272px" viewBox="0 -20.745 532.229 272" enable-background="new 0 -20.745 532.229 272"
	 xml:space="preserve">
<g id="estimote">
</g>
<g id="Pebble">
</g>
<g id="Spark">
</g>
<g id="Layer_4">
</g>
<g id="Layer_5">
</g>
<g id="Layer_6">
</g>
<g id="Base">
</g>
<g id="yelp">
</g>
<g id="Yext">
</g>
<g id="Estimote">
</g>
<g id="Microsoft">
</g>
<g id="Big_Viking">
</g>
<g id="_x35_00px">
</g>
<g id="Magnet_Forensics">
</g>
<g id="Guides">
</g>
<g id="Wit.Ai" display="none">
</g>
<g id="Layer_18">
</g>
<g id="Kik">
</g>
<g id="Layer_20">
</g>
<g id="Affirm">
</g>
<g id="Shopify">
</g>
<g id="apple">
</g>
<g id="velocity">
</g>
<g id="pagerduty">
</g>
<g id="Layer_26">
</g>
<g id="bitalino">
</g>
<g id="TextNow">
	<g>
		<g>
			<g>
				<g>
					<path id="SVGID_103_" fill="#4C99F3" d="M73.458,175.703c-6.212,0-12.884-1.15-12.884-1.15s-14.035,10.584-28.99,11.043
						c-3.911,0.23-5.982-0.459-5.982-1.84c0-0.92,9.433-5.752,7.362-19.326c-0.23-1.609-0.92-2.07-0.92-2.07
						S6.276,147.634,6.276,118.875c0-39.574,42.564-66.493,80.986-66.493c44.175,0,67.182,29.91,67.182,54.298
						C154.444,139.812,120.854,175.703,73.458,175.703L73.458,175.703z M26.293,78.382L12.719,99.778c0,0-5.062,0.46-8.283,0.92
						c-1.38,0.229-1.84-0.46-1.84-0.46s-0.69-0.23-0.92-1.61c-0.46-2.531-1.15-7.132-1.61-9.894c-0.23-1.61,0.23-2.071,0.23-2.071
						s0.46-0.69,1.841-0.92c2.761-0.23,6.902-0.69,6.902-0.69s-0.46-2.991-0.92-5.521c-0.23-1.611,0-2.301,0.46-2.762
						c0.46-0.46,0.69-0.92,2.531-0.92c3.451-0.229,8.743-0.689,11.964-1.149c1.38-0.23,2.071,0.229,2.071,0.229s0.69,0.23,0.92,1.38
						C26.293,77.232,26.293,78.382,26.293,78.382L26.293,78.382z M159.967,117.494c-1.841,7.362-6.673,25.539-8.053,31.061
						c-0.23,0.92-0.69,1.15-0.69,1.15s-0.69,0.461-1.841,0.461c-2.53,0-6.672-0.23-8.742-0.23c-1.15,0-1.61-0.461-1.61-0.461
						s-0.461-0.229-0.921-1.148c-0.69-1.611-1.61-3.912-1.61-3.912l9.203-29.68c0,0,6.902-0.23,11.504-0.459
						c1.84,0,2.53,0.689,2.53,0.689S160.427,115.423,159.967,117.494L159.967,117.494z"/>
				</g>
				<g>
					<g>
						<g>
							<defs>
								<path id="SVGID_1_" d="M73.458,175.703c-6.212,0-12.884-1.15-12.884-1.15s-14.035,10.584-28.99,11.043
									c-3.911,0.23-5.982-0.459-5.982-1.84c0-0.92,9.433-5.752,7.362-19.326c-0.23-1.609-0.92-2.07-0.92-2.07
									S6.276,147.634,6.276,118.875c0-39.574,42.564-66.493,80.986-66.493c44.175,0,67.182,29.91,67.182,54.298
									C154.444,139.812,120.854,175.703,73.458,175.703L73.458,175.703z M26.293,78.382L12.719,99.778c0,0-5.062,0.46-8.283,0.92
									c-1.38,0.229-1.84-0.46-1.84-0.46s-0.69-0.23-0.92-1.61c-0.46-2.531-1.15-7.132-1.61-9.894
									c-0.23-1.61,0.23-2.071,0.23-2.071s0.46-0.69,1.841-0.92c2.761-0.23,6.902-0.69,6.902-0.69s-0.46-2.991-0.92-5.521
									c-0.23-1.611,0-2.301,0.46-2.762c0.46-0.46,0.69-0.92,2.531-0.92c3.451-0.229,8.743-0.689,11.964-1.149
									c1.38-0.23,2.071,0.229,2.071,0.229s0.69,0.23,0.92,1.38C26.293,77.232,26.293,78.382,26.293,78.382L26.293,78.382z
									 M159.967,117.494c-1.841,7.362-6.673,25.539-8.053,31.061c-0.23,0.92-0.69,1.15-0.69,1.15s-0.69,0.461-1.841,0.461
									c-2.53,0-6.672-0.23-8.742-0.23c-1.15,0-1.61-0.461-1.61-0.461s-0.461-0.229-0.921-1.148c-0.69-1.611-1.61-3.912-1.61-3.912
									l9.203-29.68c0,0,6.902-0.23,11.504-0.459c1.84,0,2.53,0.689,2.53,0.689S160.427,115.423,159.967,117.494L159.967,117.494z"
									/>
							</defs>
							<clipPath id="SVGID_2_">
								<use xlink:href="#SVGID_1_"  overflow="visible"/>
							</clipPath>
							<rect x="-49.172" y="48.471" clip-path="url(#SVGID_2_)" fill="#4C99F3" width="252.853" height="140.346"/>
						</g>
					</g>
				</g>
			</g>
			<g>
				<g>
					<path id="SVGID_105_" fill="#FFFFFF" d="M149.383,146.945l-8.973-0.461l-3.911-11.965l-4.371,11.504l-9.434,0.23l-5.752-30.601
						l9.894,0.92l2.99,13.344l2.991-13.116h8.053l2.991,13.344l3.221-13.572l9.894-0.461L149.383,146.945L149.383,146.945z
						 M100.147,149.015c-9.663,0.459-17.716-7.133-18.177-16.564c-0.46-9.664,7.133-17.717,16.565-18.176
						c9.663-0.461,17.716,7.131,18.177,16.564C117.173,140.501,109.811,148.554,100.147,149.015L100.147,149.015z M98.997,123.476
						c-4.602,0.23-8.053,4.143-8.053,8.744c0.229,4.602,4.141,8.053,8.742,8.053c4.602-0.23,8.053-4.143,8.053-8.742
						C107.51,126.699,103.599,123.246,98.997,123.476L98.997,123.476z M71.388,149.015l-11.504-11.734l1.38,13.113l-10.123,1.381
						l-2.761-29.91l9.663-0.92l11.273,11.965l-1.61-14.955l9.893-0.461l2.761,30.6L71.388,149.015L71.388,149.015z"/>
				</g>
				<g>
					<g>
						<g>
							<defs>
								<path id="SVGID_3_" d="M149.383,146.945l-8.973-0.461l-3.911-11.965l-4.371,11.504l-9.434,0.23l-5.752-30.601l9.894,0.92
									l2.99,13.344l2.991-13.116h8.053l2.991,13.344l3.221-13.572l9.894-0.461L149.383,146.945L149.383,146.945z M100.147,149.015
									c-9.663,0.459-17.716-7.133-18.177-16.564c-0.46-9.664,7.133-17.717,16.565-18.176c9.663-0.461,17.716,7.131,18.177,16.564
									C117.173,140.501,109.811,148.554,100.147,149.015L100.147,149.015z M98.997,123.476c-4.602,0.23-8.053,4.143-8.053,8.744
									c0.229,4.602,4.141,8.053,8.742,8.053c4.602-0.23,8.053-4.143,8.053-8.742C107.51,126.699,103.599,123.246,98.997,123.476
									L98.997,123.476z M71.388,149.015l-11.504-11.734l1.38,13.113l-10.123,1.381l-2.761-29.91l9.663-0.92l11.273,11.965
									l-1.61-14.955l9.893-0.461l2.761,30.6L71.388,149.015L71.388,149.015z"/>
							</defs>
							<clipPath id="SVGID_4_">
								<use xlink:href="#SVGID_3_"  overflow="visible"/>
							</clipPath>
							<rect x="40.558" y="88.505" clip-path="url(#SVGID_4_)" fill="#FFFFFF" width="124.701" height="92.719"/>
						</g>
					</g>
				</g>
			</g>
			<g>
				<g>
					<path id="SVGID_107_" fill="#FFFFFF" d="M114.182,83.674v10.124l-10.354,0.23v25.308l-9.203,0.229v-1.149l-4.371,5.981
						L78.52,114.275l-9.433,11.043l-8.973-7.133l9.894-11.273l-6.212-5.522c0,0.46,0,0.92,0,1.38l0,0V103l-23.238,6.443
						c2.071,2.068,5.062,2.99,8.053,2.068c1.61-0.459,3.221-1.609,4.141-2.76l7.132,5.521c-2.07,2.762-5.062,4.832-8.743,5.981
						c-9.203,2.761-18.866-2.53-21.627-11.733c-1.38-4.832-0.69-9.894,1.61-13.805l-6.672,0.69l1.15,24.846l-8.743,0.691
						l-3.451-24.389l-9.433,0.92l-1.61-9.663l9.433-1.15l-1.15-8.743l12.654-1.15l0.46,8.514l10.123-1.15l0.23,6.902
						c1.84-1.84,4.371-3.221,6.902-4.142c7.593-2.301,15.646,0.921,19.787,7.593l4.142-5.752L77.14,98.857l5.292-5.982l-0.69-7.823
						l9.433-0.46l-0.689-8.513l13.344-0.46v8.513L114.182,83.674L114.182,83.674z M43.779,95.867
						c-3.221,0.92-5.292,3.451-5.752,6.672l14.265-4.142C49.991,95.867,46.77,94.948,43.779,95.867L43.779,95.867z M92.555,97.708
						l-6.902,8.283l8.282,6.901L92.555,97.708L92.555,97.708z M99.227,126.007c3.222-0.229,5.982,2.301,6.212,5.521
						s-2.301,5.981-5.521,6.214c-3.221,0.229-5.982-2.302-6.212-5.523C93.475,128.998,96.006,126.238,99.227,126.007L99.227,126.007
						z"/>
				</g>
				<g>
					<g>
						<g>
							<defs>
								<path id="SVGID_5_" d="M114.182,83.674v10.124l-10.354,0.23v25.308l-9.203,0.229v-1.149l-4.371,5.981L78.52,114.275
									l-9.433,11.043l-8.973-7.133l9.894-11.273l-6.212-5.522c0,0.46,0,0.92,0,1.38l0,0V103l-23.238,6.443
									c2.071,2.068,5.062,2.99,8.053,2.068c1.61-0.459,3.221-1.609,4.141-2.76l7.132,5.521c-2.07,2.762-5.062,4.832-8.743,5.981
									c-9.203,2.761-18.866-2.53-21.627-11.733c-1.38-4.832-0.69-9.894,1.61-13.805l-6.672,0.69l1.15,24.846l-8.743,0.691
									l-3.451-24.389l-9.433,0.92l-1.61-9.663l9.433-1.15l-1.15-8.743l12.654-1.15l0.46,8.514l10.123-1.15l0.23,6.902
									c1.84-1.84,4.371-3.221,6.902-4.142c7.593-2.301,15.646,0.921,19.787,7.593l4.142-5.752L77.14,98.857l5.292-5.982
									l-0.69-7.823l9.433-0.46l-0.689-8.513l13.344-0.46v8.513L114.182,83.674L114.182,83.674z M43.779,95.867
									c-3.221,0.92-5.292,3.451-5.752,6.672l14.265-4.142C49.991,95.867,46.77,94.948,43.779,95.867L43.779,95.867z
									 M92.555,97.708l-6.902,8.283l8.282,6.901L92.555,97.708L92.555,97.708z M99.227,126.007
									c3.222-0.229,5.982,2.301,6.212,5.521s-2.301,5.981-5.521,6.214c-3.221,0.229-5.982-2.302-6.212-5.523
									C93.475,128.998,96.006,126.238,99.227,126.007L99.227,126.007z"/>
							</defs>
							<clipPath id="SVGID_6_">
								<use xlink:href="#SVGID_5_"  overflow="visible"/>
							</clipPath>
							<rect x="-5.917" y="44.331" clip-path="url(#SVGID_6_)" fill="#FFFFFF" width="185.441" height="112.506"/>
						</g>
					</g>
				</g>
			</g>
		</g>
		<g>
			<g>
				<path fill="#383838" d="M209.203,135.902v0.92c-0.921,7.82,2.07,9.893,11.273,9.893c5.752,0,13.114-0.92,19.096-2.53
					c0.921-0.229,1.841,0.229,1.841,1.379l0.92,11.506c0,0.921-0.689,2.07-1.61,2.302c-6.441,2.069-15.645,3.68-24.157,3.68
					c-22.088,0-29.22-10.812-27.38-27.607l1.611-15.875c1.61-14.726,9.433-27.15,31.98-27.15c22.547,0,25.998,13.345,24.388,28.07
					l-1.381,12.424c0,0.92-0.92,1.84-2.07,1.84h-32.9C210.123,134.98,209.203,135.441,209.203,135.902z M221.167,108.292
					c-6.902,0-9.663,3.911-10.124,8.743c0,0,0,0.689-0.229,1.38c0,0.92,0.69,1.379,1.61,1.379h14.034
					c0.921,0,1.841-0.688,2.071-1.379l0.229-1.38C229.219,112.202,228.299,108.292,221.167,108.292z"/>
				<path fill="#383838" d="M286.737,160.058l4.603-43.023c0.229-2.992-0.921-4.832-4.372-4.832c-3.221,0-8.973,2.07-13.574,4.141
					c-0.92,0.459-1.841,1.611-1.841,2.531l-4.37,41.183c0,0.92-0.92,1.842-2.071,1.842h-16.565c-0.921,0-1.611-0.92-1.611-1.842
					l6.902-64.19c0-0.92,0.921-1.84,2.071-1.84h11.273c0.92,0,2.068,0.689,2.301,1.609l0.459,1.841
					c0.229,0.921,1.382,1.381,2.302,0.921c8.513-3.682,18.636-5.752,25.999-5.752c11.504,0,14.725,8.743,13.344,21.858
					l-4.831,45.785c0,0.92-0.921,1.84-2.071,1.84H288.12C287.429,161.9,286.737,160.978,286.737,160.058z"/>
				<path fill="#4AB4E6" d="M359.672,97.248l-2.531,12.884c-0.229,0.92-1.148,1.84-2.068,1.84h-10.123c-0.92,0-1.841,0.92-2.07,1.84
					l-5.062,46.477c0,0.92-0.921,1.84-2.07,1.84h-16.565c-0.92,0-1.608-0.92-1.608-1.84l5.062-46.477c0-0.92-0.688-1.84-1.608-1.84
					h-6.675c-0.92,0-1.608-0.92-1.608-1.84l1.381-12.884c0-0.92,0.92-1.841,2.07-1.841h6.672c0.921,0,1.841-0.92,2.069-1.841
					l0.922-8.283c1.608-14.035,8.973-21.857,25.309-21.857c5.062,0,8.743,0.46,12.654,1.38c0.92,0.23,1.38,1.15,1.148,2.302
					l-3.222,12.193c-0.229,0.92-1.15,1.611-2.301,1.381c-2.07-0.46-4.371-0.46-6.212-0.46c-6.442,0-7.134,2.762-7.595,7.362
					l-0.688,6.212c0,0.92,0.688,1.84,1.609,1.84h11.505C359.212,95.408,359.902,96.096,359.672,97.248z M531.998,95.637
					c0.46-0.92,0.229-1.609-0.69-1.609h-17.943c-0.921,0-2.302,0.689-2.763,1.609l-18.864,30.37c-0.46,0.92-0.69,2.301-0.23,3.221
					l13.114,31.062c0.46,0.92,1.381,1.608,2.531,1.608h17.943c0.922,0,1.381-0.688,1.15-1.608l-14.034-31.062
					c-0.46-0.92-0.229-2.301,0.229-3.221L531.998,95.637z M493.115,63.657l-16.795,2.301c-0.921,0.229-1.843,1.15-2.071,2.071
					l-9.895,92.029c0,0.92,0.69,1.842,1.61,1.842h16.565c0.92,0,1.841-0.92,2.068-1.842l10.124-94.791
					C494.956,64.346,494.036,63.657,493.115,63.657z M465.736,94.257c-20.707-2.531-37.962-0.92-51.997,2.761l0.229-1.149
					c0-0.92-0.688-1.84-1.608-1.84h-16.565c-0.921,0-1.841,0.92-2.071,1.84l-0.92,8.743c-2.991,1.38-5.752,2.761-8.053,4.371
					l4.602-43.484c0-0.92-0.688-1.611-1.608-1.611l-16.796,2.302c-0.92,0.229-1.84,1.149-2.07,2.07l-9.895,92.031
					c0,0.92,0.689,1.84,1.609,1.84h16.565c0.921,0,1.841-0.92,2.069-1.84l4.371-41.646c-12.424,2.763-19.325,5.752-19.325,5.752
					s32.439-17.715,85.589-14.494c2.068,0.23,3.909,0.23,5.752,0.23c1.841,0.23,3.682,0.459,5.521,0.92
					c0.921,0.23,1.841-0.461,2.301-1.381l3.451-13.114C467.347,95.408,466.657,94.487,465.736,94.257z M396.714,85.513h16.565
					c0.92,0,1.841-0.92,2.068-1.84l1.843-17.716c0-0.92-0.69-1.84-1.61-1.84h-16.565c-0.92,0-1.841,0.92-2.068,1.84l-1.843,17.716
					C395.104,84.594,395.794,85.513,396.714,85.513z M386.82,160.058c0,0.92,0.688,1.842,1.609,1.842h16.565
					c0.92,0,1.84-0.922,2.07-1.842l4.832-45.324c-7.595,0.459-14.495,1.148-20.247,2.301L386.82,160.058z M457.914,144.873
					c-4.142,0.92-7.822,1.381-12.424,1.381c-8.055,0-10.584-3.221-9.896-10.123l1.841-16.105c0.229-1.842,0.689-3.451,1.15-4.832
					c-7.133-0.689-14.035-0.689-20.477-0.689c-0.461,1.84-0.69,3.68-0.921,5.751l-1.61,15.414
					c-2.07,19.326,5.98,27.609,28.069,27.609c4.369,0,8.741-0.459,14.953-1.609c0.922-0.229,1.843-1.149,1.843-2.071l-0.461-13.113
					C459.755,145.333,458.834,144.642,457.914,144.873z"/>
			</g>
			<g>
				<path fill="#4D4D4D" d="M463.896,165.349c0.461,0,0.688,0,1.148,0.23"/>
			</g>
		</g>
	</g>
</g>
<g id="Uber">
</g>
<g id="mars">
</g>
<g id="twilio">
</g>
<g id="wit-ai">
</g>
<g id="indiegogo">
</g>
<g id="Layer_34">
</g>
<g id="cisco">
</g>
<g id="teespring">
</g>
<g id="sendgrid">
</g>
<g id="kloudless">
</g>
<g id="uwaterloo">
</g>
</svg>
