<?xml version="1.0" encoding="utf-8"?>
<!-- Generator: Adobe Illustrator 18.1.1, SVG Export Plug-In . SVG Version: 6.00 Build 0)  -->
<svg version="1.1" xmlns="http://www.w3.org/2000/svg" xmlns:xlink="http://www.w3.org/1999/xlink" x="0px" y="0px"
	 viewBox="0 0 149.4 100" enable-background="new 0 0 149.4 100" xml:space="preserve">
<g id="Loblaw_Digital">
</g>
<g id="Phoenix">
</g>
<g id="Magnet_Forensics_1_">
</g>
<g id="Bloomberg">
</g>
<g id="Wish">
</g>
<g id="lani">
</g>
<g id="Yelp">
</g>
<g id="Mozilla">
	<g id="Layer_5">
		<g>
			<path fill="#57585D" d="M6.2,39c0.4,0.7,0.7,1.3,0.9,2.7c1.8-1.8,4-2.7,6.3-2.7c2.1,0,3.9,0.7,5.3,2.1c0.3,0.3,0.8,0.8,1,1.2
				c2.3-2.4,4.5-3.4,7.3-3.4c2,0,4,0.6,5.1,1.7c1.4,1.2,1.9,2.8,1.9,6.3v18.5h-6.5V48.3c0-3.1-0.3-3.7-2.1-3.7
				c-1.2,0-3.1,0.9-4.5,2.2v18.6h-6.4v-17c0-3.2-0.4-4-2.3-4c-1.2,0-3,0.7-4.4,2v18.9H1V47.3c0-3.8-0.2-5.3-1-6.6L6.2,39z"/>
			<path fill="#57585D" d="M58.4,42.9c2.1,2.4,3,5.3,3,9.5c0,4.4-1,7.5-3.2,10.1c-2,2.2-4.5,3.7-8.5,3.7c-7.1,0-11.6-5.3-11.6-13.4
				c0-8.2,4.7-13.6,11.6-13.6C53.3,39,56.2,40.3,58.4,42.9z M46.2,46.7c-0.4,1.3-0.7,3.2-0.7,5.8c0,3,0.3,5.2,0.9,6.5
				c0.7,1.4,2.1,2.1,3.4,2.1c3,0,4.2-2.7,4.2-8.8c0-3.5-0.4-5.8-1.3-7c-0.7-0.9-1.7-1.3-2.9-1.3C48.1,44,46.8,45,46.2,46.7z"/>
			<path fill="#57585D" d="M83.2,39.6v4.7L71.8,60.9h12l-1.7,4.8H63v-4.2l12.2-17H64v-4.8h19.2V39.6z"/>
			<path fill="#57585D" d="M94.7,32.4c0,2.3-1.9,4.2-4.2,4.2c-2.3,0-4.1-1.9-4.1-4.2c0-2.3,1.9-4.2,4.2-4.2
				C93,28.2,94.7,30.1,94.7,32.4z M94,38.9v26.6h-6.8V40L94,38.9z"/>
			<path fill="#57585D" d="M106.3,34.7V55c0,4.4,0,5.1,0.4,5.8c0.2,0.4,0.8,0.7,1.3,0.7c0.2,0,0.4,0,0.8-0.1l1.1,4.1
				c-1.1,0.4-2.5,0.7-4.1,0.7c-2.9,0-5.2-1.3-6-3.5c-0.6-1.3-0.7-2.1-0.7-5.9V37.4c0-3.4-0.1-5.4-0.3-7.8l7-1.6
				C106.1,29.4,106.3,31.1,106.3,34.7z"/>
			<path fill="#57585D" d="M120.4,34.7V55c0,4.4,0.1,5.1,0.4,5.8c0.2,0.4,0.8,0.7,1.3,0.7c0.2,0,0.4,0,0.8-0.1l1.1,4.1
				c-1.1,0.4-2.5,0.7-4.1,0.7c-2.9,0-5.2-1.3-6-3.5c-0.6-1.3-0.6-2.1-0.6-5.9V37.4c0-3.4-0.1-5.4-0.3-7.8l7-1.6
				C120.3,29.4,120.4,31.1,120.4,34.7z"/>
			<path fill="#57585D" d="M131.1,40.5c2.5-1.1,4.7-1.6,7.1-1.6c4.3,0,7.3,1.7,8.4,4.5c0.3,1.1,0.4,1.9,0.4,4.7l-0.1,8.8
				c0,0.1,0,0.3,0,0.4c0,2.8,0.4,3.9,2.4,5.3l-3.7,4.2c-1.6-0.7-3-1.9-3.7-3.1c-0.6,0.6-1.1,1-1.6,1.3c-1.2,0.9-3.1,1.4-5.2,1.4
				c-5.8,0-9-3-9-8.1c0-6.1,4.2-9,12.5-9c0.4,0,1,0,1.6,0.1v-1.1c0-2.9-0.6-3.9-3.1-3.9c-2.1,0-4.8,1.1-7.5,3l-2.9-4.9
				C128.2,41.8,129.2,41.2,131.1,40.5z M139.8,54.1c-4.7,0-6.3,0.9-6.3,4c0,2,1.3,3.4,3,3.4c1.2,0,2.5-0.7,3.5-1.8l0.1-5.5h-0.3
				V54.1z"/>
		</g>
	</g>
</g>
<g id="Microsoft">
</g>
<g id="Facebook">
</g>
<g id="Kik_1_">
</g>
<g id="D2L">
</g>
<g id="Linode">
</g>
<g id="Braintree">
</g>
<g id="Velocity">
</g>
<g id="citi">
</g>
<g id="Course_Hero">
</g>
<g id="square">
</g>
<g id="Capco">
</g>
</svg>
