<?xml version="1.0" encoding="utf-8"?>
<!-- Generator: Adobe Illustrator 16.0.0, SVG Export Plug-In . SVG Version: 6.00 Build 0)  -->
<!DOCTYPE svg PUBLIC "-//W3C//DTD SVG 1.1//EN" "http://www.w3.org/Graphics/SVG/1.1/DTD/svg11.dtd">
<svg version="1.1" id="Layer_1" xmlns="http://www.w3.org/2000/svg" xmlns:xlink="http://www.w3.org/1999/xlink" x="0px" y="0px"
	 width="170.502px" height="292px" viewBox="53.253 4 170.502 292" enable-background="new 53.253 4 170.502 292"
	 xml:space="preserve">
<g>
	<path fill="#F38120" d="M187.009,21.704H63.285c-5.543,0-10.032,4.49-10.032,10.027V182.18c0,5.539,4.489,10.027,10.032,10.027
		h150.442c5.538,0,10.028-4.488,10.028-10.027V56.196c0-2.222-0.611-3.015-1.653-4.062c-5.81-5.807-25.039-25.039-27.263-27.261
		C192.22,22.251,191.042,21.704,187.009,21.704"/>
	<path fill="#FFFFFF" d="M181.091,165.379c-9.047,0-16.387-7.332-16.387-16.389c0-9.055,7.34-16.387,16.387-16.387
		c9.056,0,16.395,7.332,16.395,16.387C197.484,158.047,190.146,165.379,181.091,165.379 M181.091,117.331
		c-17.481,0-31.661,14.178-31.661,31.66c0,17.479,14.18,31.661,31.661,31.661c17.496,0,31.66-14.182,31.66-31.661
		C212.751,131.506,198.587,117.331,181.091,117.331"/>
	<path fill="#FFFFFF" d="M130.708,155.713c-0.812,0.545-2.049,1.752-2.584,2.553c-2.914,4.326-7.944,7.113-13.563,7.113
		c-9.05,0-16.39-7.332-16.39-16.389c0-9.055,7.34-16.387,16.39-16.387c5.619,0,10.649,2.787,13.563,7.112
		c0.535,0.804,1.772,2.007,2.584,2.554c3.893,2.617,9.955,2.565,15.141,2.108c-2.237-15.291-15.378-27.049-31.288-27.049
		c-17.495,0-31.663,14.176-31.663,31.66c0,17.479,14.167,31.659,31.663,31.659c15.91,0,29.051-11.756,31.288-27.049
		C140.664,153.143,134.6,153.084,130.708,155.713"/>
	<path fill="#FFFFFF" d="M78.871,169.92c0,4.035-3.272,7.309-7.309,7.309c-4.034,0-7.306-3.272-7.306-7.309s3.271-7.307,7.306-7.307
		C75.598,162.614,78.871,165.885,78.871,169.92"/>
</g>
</svg>
