<?xml version="1.0" encoding="utf-8"?>
<!-- Generator: Adobe Illustrator 16.0.0, SVG Export Plug-In . SVG Version: 6.00 Build 0)  -->
<!DOCTYPE svg PUBLIC "-//W3C//DTD SVG 1.1//EN" "http://www.w3.org/Graphics/SVG/1.1/DTD/svg11.dtd">
<svg version="1.1" id="Layer_1" xmlns="http://www.w3.org/2000/svg" xmlns:xlink="http://www.w3.org/1999/xlink" x="0px" y="0px"
	 width="351.125px" height="113.483px" viewBox="0 0 351.125 113.483" enable-background="new 0 0 351.125 113.483"
	 xml:space="preserve">
<g>
	<path fill="#00263D" d="M25.026,70.599H5.347v-2.188c0.553-0.041,1.352-0.103,2.4-0.186c1.048-0.083,1.786-0.205,2.216-0.37
		c0.678-0.265,1.172-0.63,1.481-1.091c0.308-0.463,0.461-1.107,0.461-1.927V33.176c0-0.717-0.112-1.316-0.338-1.8
		c-0.227-0.483-0.761-0.888-1.605-1.218c-0.615-0.247-1.388-0.478-2.323-0.694c-0.935-0.212-1.699-0.342-2.293-0.383v-2.187h19.679
		v2.187c-0.636,0.021-1.397,0.1-2.279,0.23c-0.883,0.135-1.654,0.303-2.312,0.507c-0.781,0.247-1.303,0.648-1.57,1.204
		c-0.265,0.555-0.399,1.168-0.399,1.846v31.629c0,0.68,0.149,1.279,0.445,1.803c0.298,0.524,0.804,0.94,1.524,1.249
		c0.432,0.165,1.136,0.342,2.111,0.537c0.974,0.196,1.801,0.305,2.479,0.325V70.599L25.026,70.599z"/>
	<path fill="#00263D" d="M72.677,36.806c-0.47,0.018-1.185,0.151-2.155,0.401c-0.972,0.252-1.666,0.509-2.083,0.777
		c-0.602,0.419-1.007,1.223-1.216,2.409c-0.211,1.186-0.314,2.69-0.314,4.511v26.058h-2.182L43.159,41.847v18.357
		c0,2.057,0.13,3.636,0.388,4.741c0.262,1.105,0.658,1.889,1.192,2.357c0.384,0.368,1.182,0.711,2.385,1.03
		c1.202,0.319,1.997,0.486,2.381,0.501v1.782H34.908v-1.782c0.449-0.034,1.212-0.197,2.283-0.49
		c1.069-0.292,1.737-0.555,2.004-0.788c0.585-0.47,0.989-1.183,1.207-2.145c0.216-0.963,0.325-2.605,0.325-4.928V42.952
		c0-0.772-0.133-1.54-0.401-2.308c-0.266-0.771-0.625-1.362-1.081-1.78c-0.602-0.552-1.414-1.026-2.443-1.42
		c-1.03-0.391-1.859-0.606-2.495-0.638v-1.78h10.156l20.013,27.137V45.234c0-2.075-0.133-3.664-0.401-4.777
		c-0.267-1.114-0.652-1.852-1.154-2.219c-0.468-0.318-1.235-0.628-2.295-0.928c-1.059-0.305-1.867-0.471-2.418-0.503v-1.78h14.469
		V36.806L72.677,36.806z"/>
	<path fill="#00263D" d="M143.354,64.47c0.94-1.521,1.622-3.246,2.045-5.167c0.428-1.921,0.64-4.072,0.64-6.445
		c0-2.444-0.236-4.682-0.717-6.722c-0.474-2.039-1.173-3.779-2.091-5.218c-0.923-1.419-2.074-2.527-3.463-3.321
		c-1.387-0.792-2.975-1.192-4.764-1.192c-2.004,0-3.713,0.46-5.114,1.378c-1.405,0.921-2.55,2.151-3.439,3.688
		c-0.832,1.472-1.459,3.194-1.869,5.167c-0.408,1.975-0.612,4.044-0.612,6.22c0,2.408,0.217,4.58,0.653,6.517
		c0.435,1.941,1.119,3.663,2.055,5.171c0.904,1.47,2.039,2.62,3.41,3.449c1.371,0.823,3.012,1.239,4.916,1.239
		c1.789,0,3.402-0.417,4.841-1.255C141.284,67.143,142.452,65.975,143.354,64.47L143.354,64.47z M147.093,39.238
		c1.572,1.638,2.798,3.618,3.686,5.932c0.885,2.315,1.329,4.877,1.329,7.687c0,2.824-0.451,5.392-1.353,7.7
		c-0.904,2.308-2.158,4.271-3.761,5.89c-1.555,1.607-3.364,2.844-5.417,3.712c-2.059,0.87-4.249,1.307-6.573,1.307
		c-2.475,0-4.761-0.463-6.859-1.393c-2.099-0.929-3.901-2.222-5.404-3.875c-1.505-1.623-2.686-3.591-3.549-5.904
		c-0.861-2.317-1.292-4.795-1.292-7.437c0-2.894,0.453-5.473,1.357-7.739c0.9-2.262,2.145-4.227,3.735-5.88
		c1.57-1.638,3.4-2.892,5.478-3.764c2.084-0.868,4.261-1.301,6.534-1.301c2.357,0,4.582,0.443,6.672,1.327
		C143.766,36.389,145.57,37.634,147.093,39.238L147.093,39.238z"/>
	<path fill="#00263D" d="M264.992,60.122c-0.234,0.773-0.774,1.97-1.62,3.602c-0.845,1.631-1.649,2.849-2.421,3.652
		c-0.285,0.301-0.764,0.539-1.441,0.715c-0.678,0.173-1.334,0.295-1.97,0.364c-0.62,0.068-1.379,0.101-2.284,0.101
		c-0.903,0-1.631,0-2.183,0c-1.388,0-2.459-0.047-3.211-0.139c-0.755-0.092-1.347-0.298-1.78-0.615
		c-0.438-0.316-0.73-0.785-0.879-1.406c-0.152-0.617-0.228-1.463-0.228-2.533V53.171h4.016c1.084,0,1.959,0.101,2.621,0.304
		c0.661,0.202,1.25,0.626,1.771,1.278c0.316,0.403,0.62,1.05,0.913,1.944c0.294,0.896,0.473,1.744,0.541,2.547h1.882V45.32h-1.882
		c-0.084,0.718-0.256,1.483-0.514,2.294c-0.261,0.815-0.573,1.46-0.94,1.944c-0.453,0.573-0.976,0.977-1.569,1.22
		c-0.597,0.241-1.535,0.363-2.822,0.363h-4.016V37.053h0.487h0.197h6.907c0.704,0,1.461,0.02,2.286,0.056
		c0.817,0.032,3.816,0.371,5.774,3.208c0.504,0.767,1.856,3.154,1.856,3.154h1.968l-0.564-8.463H253.31h-6.372h-10.374v1.781
		c0.45,0.032,1.058,0.134,1.819,0.301c0.761,0.167,1.367,0.361,1.818,0.577c0.586,0.268,0.971,0.614,1.154,1.045
		c0.186,0.424,0.275,0.914,0.275,1.464v25.593c0,0.62-0.104,1.131-0.313,1.531c-0.209,0.401-0.58,0.727-1.116,0.98
		c-0.249,0.116-0.796,0.229-1.63,0.338c-0.836,0.11-1.506,0.179-2.008,0.213v1.783h29.558l0.676-10.492H264.992L264.992,60.122z"/>
	<path fill="#00263D" d="M291.474,71.442c-2.123,0-4.162-0.419-6.109-1.26c-1.95-0.831-3.677-2.039-5.182-3.609
		c-1.486-1.572-2.679-3.491-3.564-5.758c-0.885-2.269-1.328-4.822-1.328-7.667c0-2.843,0.435-5.422,1.306-7.741
		c0.869-2.318,2.072-4.311,3.611-5.986c1.523-1.656,3.322-2.935,5.395-3.838c2.075-0.904,4.291-1.354,6.65-1.354
		c1.756,0,3.346,0.217,4.77,0.651c1.416,0.436,2.772,1.046,4.062,1.833l1.029-1.708h2.005l0.229,12.697h-2.058
		c-0.269-1.238-0.67-2.579-1.205-4.029c-0.537-1.445-1.162-2.671-1.881-3.674c-0.803-1.139-1.759-2.03-2.863-2.672
		c-1.102-0.645-2.365-0.968-3.787-0.968c-1.619,0-3.132,0.362-4.528,1.082c-1.395,0.717-2.606,1.779-3.626,3.186
		c-0.97,1.355-1.731,3.079-2.283,5.169c-0.55,2.089-0.829,4.424-0.829,7c0,2.271,0.291,4.362,0.867,6.257
		c0.578,1.899,1.4,3.569,2.472,5.007c1.067,1.423,2.337,2.536,3.802,3.338c1.462,0.804,3.099,1.203,4.904,1.203
		c1.356,0,2.602-0.211,3.738-0.636c1.139-0.429,2.122-0.992,2.963-1.694c0.835-0.736,1.57-1.575,2.206-2.51
		c0.637-0.94,1.154-1.961,1.556-3.062l1.881,0.903c-1.438,3.528-3.347,6.052-5.719,7.565
		C297.577,70.683,294.751,71.442,291.474,71.442L291.474,71.442z"/>
	<path fill="#00263D" d="M351.125,70.613h-14.778v-1.783c0.4-0.034,0.98-0.084,1.745-0.152c0.758-0.065,1.282-0.167,1.565-0.299
		c0.501-0.201,0.87-0.506,1.105-0.917c0.235-0.41,0.352-0.939,0.352-1.592V53.197h-16.737v12.395c0,0.586,0.097,1.082,0.291,1.48
		c0.191,0.404,0.57,0.752,1.141,1.057c0.283,0.151,0.791,0.3,1.518,0.451c0.728,0.15,1.302,0.236,1.718,0.251v1.783h-14.776v-1.783
		c0.4-0.034,0.982-0.084,1.741-0.152c0.761-0.065,1.283-0.167,1.569-0.299c0.502-0.201,0.868-0.506,1.104-0.917
		c0.233-0.41,0.35-0.939,0.35-1.592V40.175c0-0.535-0.108-1.022-0.325-1.464c-0.218-0.444-0.594-0.794-1.129-1.045
		c-0.453-0.215-1.001-0.41-1.644-0.577c-0.644-0.167-1.2-0.269-1.667-0.301v-1.781h14.776v1.781
		c-0.467,0.018-1.04,0.094-1.718,0.223c-0.676,0.139-1.184,0.264-1.518,0.38c-0.57,0.2-0.949,0.535-1.141,1.003
		c-0.194,0.467-0.291,0.978-0.291,1.529v11.04h16.737v-10.79c0-0.535-0.11-1.022-0.326-1.464c-0.217-0.444-0.593-0.794-1.131-1.045
		c-0.452-0.215-0.998-0.41-1.642-0.577c-0.645-0.167-1.2-0.269-1.669-0.301v-1.781h14.778v1.781
		c-0.469,0.018-1.041,0.094-1.72,0.223c-0.677,0.139-1.183,0.264-1.517,0.38c-0.569,0.2-0.95,0.535-1.144,1.003
		c-0.192,0.467-0.286,0.978-0.286,1.529v25.667c0,0.586,0.094,1.082,0.286,1.48c0.193,0.404,0.574,0.752,1.144,1.057
		c0.284,0.151,0.789,0.3,1.517,0.451c0.73,0.15,1.299,0.236,1.72,0.251V70.613L351.125,70.613z"/>
	<path fill="#00263D" d="M110.533,35.025h-6.43H91.902H81.27v1.78c0.451,0.032,1.057,0.134,1.819,0.301
		c0.759,0.167,1.366,0.361,1.819,0.577c0.585,0.268,0.969,0.614,1.152,1.044c0.185,0.424,0.275,0.913,0.275,1.463v25.682
		c0,0.601-0.11,1.116-0.338,1.543c-0.229,0.426-0.592,0.75-1.089,0.965c-0.255,0.118-0.795,0.214-1.633,0.289
		c-0.835,0.076-1.504,0.128-2.005,0.163v1.782h15.425v-1.782c-0.436-0.015-1.069-0.109-1.908-0.276
		c-0.836-0.168-1.378-0.311-1.631-0.426c-0.55-0.268-0.935-0.619-1.151-1.056c-0.218-0.433-0.328-0.927-0.328-1.479V53.333h4.089
		c1.071,0,1.983,0.113,2.747,0.338c0.759,0.228,1.391,0.648,1.893,1.268c0.333,0.419,0.646,1.096,0.939,2.033
		c0.292,0.935,0.464,1.771,0.515,2.505h1.905V45.507h-1.905c-0.086,0.889-0.263,1.72-0.54,2.498
		c-0.275,0.777-0.581,1.35-0.914,1.717c-0.484,0.536-1.069,0.932-1.757,1.192c-0.686,0.259-1.645,0.39-2.883,0.39h-4.089V37.036
		h0.742h0.195h6.793c0.691,0,1.432,0.019,2.244,0.054c0.808,0.03,3.752,0.366,5.682,3.158c0.493,0.754,1.82,3.098,1.82,3.098h1.936
		L110.533,35.025L110.533,35.025z"/>
	<path fill="#00263D" d="M228.353,26.894h-14.459h-7.791H191.64l-0.664,9.937h2.308c0,0,1.591-2.797,2.18-3.701
		c2.304-3.333,5.82-3.731,6.788-3.772c0.244-0.009,0.442-0.008,0.677-0.016c3.41-0.002,1.969-0.032,1.905-0.042
		c0.03,0,0.067-0.003,0.095-0.003h1.784v34.957c0,0.677-0.137,1.296-0.426,1.861c-0.287,0.566-0.793,1.003-1.511,1.312
		c-0.37,0.144-1.146,0.338-2.323,0.583c-1.184,0.247-2.105,0.381-2.757,0.401v2.188h8.668h3.268h8.668v-2.188
		c-0.658-0.02-1.578-0.155-2.756-0.401c-1.181-0.245-1.958-0.439-2.327-0.583c-0.717-0.308-1.221-0.745-1.51-1.312
		c-0.288-0.565-0.429-1.184-0.429-1.861V29.297h1.785c0.03,0,0.067,0.003,0.098,0.003c-0.068,0.01-1.505,0.04,1.902,0.042
		c0.237,0.008,0.436,0.007,0.68,0.016c0.964,0.041,4.482,0.439,6.785,3.772c0.594,0.904,2.179,3.701,2.179,3.701h2.309
		L228.353,26.894L228.353,26.894z"/>
	<path fill="#00263D" d="M6.455,89.525h4.097c0.333,0,0.65-0.051,0.951-0.153c0.301-0.102,0.565-0.25,0.791-0.444
		c0.226-0.193,0.406-0.427,0.541-0.701c0.134-0.275,0.202-0.589,0.202-0.944c0-0.709-0.208-1.268-0.621-1.677
		c-0.414-0.408-1.035-0.612-1.862-0.612H6.455V89.525L6.455,89.525z M5.358,84.058h5.274c0.473,0,0.921,0.059,1.346,0.177
		c0.424,0.119,0.796,0.298,1.113,0.541c0.317,0.242,0.57,0.554,0.758,0.935c0.188,0.382,0.283,0.831,0.283,1.347
		c0,0.731-0.188,1.365-0.564,1.903c-0.376,0.537-0.936,0.881-1.677,1.032v0.032c0.376,0.054,0.688,0.154,0.935,0.298
		c0.247,0.146,0.449,0.331,0.605,0.557c0.156,0.226,0.269,0.487,0.339,0.782c0.07,0.296,0.115,0.616,0.137,0.96
		c0.01,0.193,0.021,0.43,0.032,0.709c0.011,0.28,0.032,0.562,0.065,0.847c0.032,0.285,0.083,0.554,0.153,0.806
		c0.07,0.254,0.164,0.45,0.283,0.589h-1.21c-0.064-0.108-0.116-0.239-0.153-0.395c-0.038-0.156-0.067-0.317-0.089-0.484
		c-0.021-0.167-0.034-0.331-0.04-0.492c-0.005-0.161-0.014-0.301-0.024-0.419c-0.022-0.398-0.057-0.801-0.105-1.21
		c-0.049-0.408-0.15-0.771-0.307-1.089c-0.156-0.316-0.382-0.572-0.677-0.766c-0.296-0.193-0.702-0.279-1.218-0.258H6.455v5.113
		H5.358V84.058L5.358,84.058z"/>
	<polygon fill="#00263D" points="31.759,84.058 39.71,84.058 39.71,84.994 32.855,84.994 32.855,89.155 39.275,89.155 39.275,90.09 
		32.855,90.09 32.855,94.637 39.791,94.637 39.791,95.573 31.759,95.573 31.759,84.058 	"/>
	<path fill="#00263D" d="M57.482,91.783c-0.011,0.592,0.081,1.086,0.274,1.484c0.194,0.398,0.46,0.715,0.799,0.951
		c0.338,0.237,0.739,0.407,1.202,0.508c0.461,0.103,0.956,0.154,1.483,0.154c0.301,0,0.629-0.043,0.983-0.129
		c0.355-0.086,0.686-0.224,0.992-0.411c0.307-0.189,0.562-0.431,0.766-0.727c0.205-0.295,0.307-0.652,0.307-1.072
		c0-0.323-0.073-0.602-0.218-0.839c-0.145-0.236-0.333-0.435-0.564-0.596c-0.232-0.161-0.486-0.293-0.766-0.395
		c-0.28-0.103-0.554-0.186-0.823-0.251l-2.564-0.629c-0.344-0.085-0.672-0.193-0.984-0.322s-0.586-0.301-0.822-0.516
		c-0.237-0.215-0.428-0.478-0.573-0.79s-0.217-0.694-0.217-1.145c0-0.279,0.053-0.607,0.161-0.984
		c0.107-0.376,0.309-0.731,0.605-1.064c0.295-0.333,0.701-0.616,1.217-0.847c0.516-0.231,1.177-0.347,1.984-0.347
		c0.57,0,1.113,0.076,1.629,0.226c0.516,0.15,0.97,0.376,1.363,0.677c0.392,0.302,0.701,0.675,0.927,1.122
		c0.225,0.446,0.339,0.965,0.339,1.556h-1.097c-0.022-0.44-0.119-0.825-0.29-1.153c-0.173-0.328-0.404-0.602-0.694-0.822
		s-0.621-0.387-0.992-0.5c-0.371-0.113-0.76-0.169-1.169-0.169c-0.376,0-0.74,0.041-1.089,0.121s-0.655,0.209-0.919,0.387
		c-0.263,0.177-0.475,0.411-0.637,0.701c-0.161,0.291-0.242,0.65-0.242,1.081c0,0.269,0.046,0.503,0.137,0.701
		c0.092,0.199,0.218,0.366,0.379,0.5c0.162,0.135,0.347,0.247,0.557,0.339c0.209,0.091,0.432,0.164,0.669,0.218l2.806,0.693
		c0.408,0.107,0.793,0.239,1.153,0.395c0.36,0.156,0.678,0.35,0.952,0.581s0.489,0.513,0.645,0.846
		c0.156,0.333,0.234,0.737,0.234,1.21c0,0.129-0.014,0.301-0.041,0.516c-0.027,0.215-0.091,0.444-0.193,0.686
		c-0.102,0.241-0.247,0.486-0.436,0.733c-0.188,0.248-0.446,0.473-0.774,0.678c-0.328,0.204-0.733,0.368-1.217,0.491
		c-0.484,0.124-1.065,0.186-1.742,0.186c-0.677,0-1.306-0.078-1.887-0.234c-0.58-0.156-1.075-0.397-1.484-0.726
		c-0.409-0.328-0.723-0.747-0.943-1.258c-0.221-0.51-0.315-1.115-0.282-1.814H57.482L57.482,91.783z"/>
	<polygon fill="#00263D" points="82.771,84.058 90.721,84.058 90.721,84.994 83.867,84.994 83.867,89.155 90.286,89.155 
		90.286,90.09 83.867,90.09 83.867,94.637 90.802,94.637 90.802,95.573 82.771,95.573 82.771,84.058 	"/>
	<path fill="#00263D" d="M109.606,91.057h4.532l-2.225-5.903L109.606,91.057L109.606,91.057z M111.348,84.058h1.226l4.516,11.515
		h-1.178l-1.403-3.58h-5.241l-1.387,3.58h-1.177L111.348,84.058L111.348,84.058z"/>
	<path fill="#00263D" d="M134.878,89.525h4.097c0.333,0,0.65-0.051,0.951-0.153c0.301-0.102,0.565-0.25,0.79-0.444
		c0.226-0.193,0.406-0.427,0.541-0.701c0.134-0.275,0.202-0.589,0.202-0.944c0-0.709-0.208-1.268-0.622-1.677
		c-0.413-0.408-1.035-0.612-1.862-0.612h-4.097V89.525L134.878,89.525z M133.782,84.058h5.274c0.472,0,0.921,0.059,1.346,0.177
		c0.424,0.119,0.796,0.298,1.113,0.541c0.317,0.242,0.57,0.554,0.758,0.935c0.188,0.382,0.282,0.831,0.282,1.347
		c0,0.731-0.188,1.365-0.564,1.903c-0.377,0.537-0.936,0.881-1.678,1.032v0.032c0.376,0.054,0.688,0.154,0.935,0.298
		c0.248,0.146,0.45,0.331,0.606,0.557c0.155,0.226,0.268,0.487,0.338,0.782c0.07,0.296,0.116,0.616,0.138,0.96
		c0.01,0.193,0.021,0.43,0.032,0.709c0.01,0.28,0.032,0.562,0.064,0.847c0.032,0.285,0.083,0.554,0.153,0.806
		c0.07,0.254,0.164,0.45,0.283,0.589h-1.21c-0.065-0.108-0.116-0.239-0.153-0.395c-0.038-0.156-0.067-0.317-0.089-0.484
		s-0.035-0.331-0.041-0.492c-0.005-0.161-0.013-0.301-0.023-0.419c-0.022-0.398-0.057-0.801-0.105-1.21
		c-0.049-0.408-0.151-0.771-0.307-1.089c-0.156-0.316-0.382-0.572-0.677-0.766c-0.296-0.193-0.702-0.279-1.218-0.258h-4.161v5.113
		h-1.096V84.058L133.782,84.058z"/>
	<path fill="#00263D" d="M168.602,87.541c-0.097-0.44-0.255-0.836-0.476-1.185c-0.22-0.349-0.489-0.642-0.806-0.879
		c-0.317-0.236-0.667-0.416-1.048-0.541c-0.382-0.123-0.782-0.185-1.202-0.185c-0.763,0-1.419,0.145-1.967,0.436
		c-0.549,0.29-0.997,0.674-1.347,1.153c-0.349,0.479-0.607,1.021-0.774,1.629c-0.167,0.607-0.25,1.223-0.25,1.846
		c0,0.635,0.083,1.253,0.25,1.855c0.167,0.602,0.425,1.143,0.774,1.621c0.35,0.479,0.798,0.863,1.347,1.153
		c0.548,0.291,1.204,0.436,1.967,0.436c0.527,0,1.008-0.097,1.444-0.291c0.435-0.193,0.809-0.456,1.12-0.79
		c0.312-0.333,0.565-0.723,0.759-1.169c0.193-0.446,0.317-0.928,0.371-1.444h1.096c-0.075,0.71-0.241,1.35-0.5,1.919
		c-0.258,0.57-0.591,1.057-1,1.46c-0.409,0.403-0.889,0.712-1.443,0.927c-0.554,0.216-1.169,0.323-1.847,0.323
		c-0.903,0-1.696-0.164-2.378-0.492c-0.683-0.328-1.251-0.768-1.702-1.322c-0.452-0.554-0.79-1.194-1.016-1.92
		c-0.226-0.725-0.339-1.48-0.339-2.266c0-0.784,0.113-1.54,0.339-2.265c0.226-0.726,0.564-1.366,1.016-1.92
		c0.451-0.553,1.019-0.994,1.702-1.323c0.682-0.328,1.475-0.492,2.378-0.492c0.548,0,1.083,0.081,1.605,0.242
		c0.521,0.161,0.995,0.401,1.419,0.718c0.425,0.317,0.78,0.707,1.065,1.169c0.285,0.462,0.465,0.994,0.54,1.596H168.602
		L168.602,87.541z"/>
	<polygon fill="#00263D" points="187.18,84.058 188.277,84.058 188.277,89.057 195.116,89.057 195.116,84.058 196.212,84.058 
		196.212,95.573 195.116,95.573 195.116,89.993 188.277,89.993 188.277,95.573 187.18,95.573 187.18,84.058 	"/>
	<path fill="#00263D" d="M244.145,95.573h-0.791l-0.145-2.097h-0.033c-0.193,0.409-0.433,0.761-0.717,1.057
		c-0.285,0.296-0.6,0.537-0.943,0.726c-0.344,0.188-0.713,0.328-1.105,0.419c-0.393,0.091-0.798,0.137-1.218,0.137
		c-0.903,0-1.696-0.164-2.378-0.492c-0.683-0.328-1.251-0.768-1.702-1.322c-0.452-0.554-0.79-1.194-1.016-1.92
		c-0.226-0.725-0.339-1.48-0.339-2.266c0-0.784,0.113-1.54,0.339-2.265c0.226-0.726,0.564-1.366,1.016-1.92
		c0.451-0.553,1.019-0.994,1.702-1.323c0.682-0.328,1.475-0.492,2.378-0.492c0.603,0,1.172,0.081,1.71,0.242
		c0.538,0.161,1.018,0.403,1.443,0.726c0.425,0.323,0.779,0.723,1.064,1.202c0.285,0.478,0.48,1.03,0.59,1.653h-1.098
		c-0.032-0.333-0.143-0.669-0.331-1.007c-0.188-0.339-0.44-0.648-0.758-0.928c-0.317-0.28-0.696-0.508-1.138-0.686
		c-0.44-0.178-0.936-0.266-1.483-0.266c-0.763,0-1.419,0.145-1.967,0.436c-0.548,0.29-0.997,0.674-1.347,1.153
		c-0.349,0.479-0.607,1.021-0.774,1.629c-0.167,0.607-0.25,1.223-0.25,1.846c0,0.635,0.083,1.253,0.25,1.855
		c0.167,0.602,0.425,1.143,0.774,1.621c0.35,0.479,0.799,0.863,1.347,1.153c0.548,0.291,1.204,0.436,1.967,0.436
		c0.635,0,1.202-0.106,1.702-0.315s0.921-0.502,1.266-0.879c0.344-0.376,0.602-0.823,0.773-1.338
		c0.173-0.516,0.254-1.081,0.242-1.694h-3.918v-0.935h4.887V95.573L244.145,95.573z"/>
	<path fill="#00263D" d="M262.996,89.525h4.098c0.333,0,0.649-0.051,0.95-0.153c0.302-0.102,0.565-0.25,0.791-0.444
		c0.227-0.193,0.406-0.427,0.54-0.701c0.136-0.275,0.202-0.589,0.202-0.944c0-0.709-0.208-1.268-0.621-1.677
		c-0.414-0.408-1.035-0.612-1.862-0.612h-4.098V89.525L262.996,89.525z M261.9,84.058h5.273c0.473,0,0.922,0.059,1.347,0.177
		s0.796,0.298,1.112,0.541c0.317,0.242,0.57,0.554,0.759,0.935c0.188,0.382,0.281,0.831,0.281,1.347
		c0,0.731-0.188,1.365-0.563,1.903c-0.377,0.537-0.937,0.881-1.677,1.032v0.032c0.376,0.054,0.687,0.154,0.935,0.298
		c0.247,0.146,0.449,0.331,0.605,0.557c0.155,0.226,0.268,0.487,0.339,0.782c0.069,0.296,0.115,0.616,0.137,0.96
		c0.01,0.193,0.021,0.43,0.032,0.709c0.011,0.28,0.032,0.562,0.064,0.847s0.083,0.554,0.153,0.806
		c0.069,0.254,0.164,0.45,0.282,0.589h-1.21c-0.064-0.108-0.116-0.239-0.153-0.395c-0.038-0.156-0.066-0.317-0.089-0.484
		s-0.034-0.331-0.04-0.492c-0.005-0.161-0.014-0.301-0.024-0.419c-0.021-0.398-0.057-0.801-0.104-1.21
		c-0.049-0.408-0.15-0.771-0.307-1.089c-0.155-0.316-0.382-0.572-0.678-0.766c-0.295-0.193-0.702-0.279-1.218-0.258h-4.161v5.113
		H261.9V84.058L261.9,84.058z"/>
	<path fill="#00263D" d="M288.785,89.815c0,0.635,0.083,1.253,0.25,1.855c0.166,0.602,0.424,1.143,0.774,1.621
		c0.349,0.479,0.798,0.863,1.346,1.153c0.549,0.291,1.204,0.436,1.968,0.436c0.752,0,1.403-0.145,1.952-0.436
		c0.548-0.29,0.997-0.674,1.346-1.153c0.351-0.478,0.608-1.019,0.774-1.621c0.167-0.602,0.25-1.22,0.25-1.855
		c0-0.623-0.083-1.239-0.25-1.846c-0.166-0.608-0.424-1.151-0.774-1.629c-0.349-0.479-0.798-0.863-1.346-1.153
		c-0.549-0.291-1.2-0.436-1.952-0.436c-0.764,0-1.419,0.145-1.968,0.436c-0.548,0.29-0.997,0.674-1.346,1.153
		c-0.351,0.479-0.608,1.021-0.774,1.629C288.868,88.576,288.785,89.192,288.785,89.815L288.785,89.815z M287.688,89.815
		c0-0.784,0.113-1.54,0.339-2.265c0.226-0.726,0.564-1.366,1.015-1.92c0.453-0.553,1.02-0.994,1.702-1.323
		c0.684-0.328,1.477-0.492,2.379-0.492c0.903,0,1.694,0.164,2.371,0.492c0.677,0.329,1.241,0.77,1.693,1.323
		c0.452,0.554,0.79,1.194,1.016,1.92c0.227,0.725,0.339,1.481,0.339,2.265c0,0.786-0.112,1.541-0.339,2.266
		c-0.226,0.726-0.563,1.366-1.016,1.92c-0.452,0.554-1.017,0.994-1.693,1.322s-1.468,0.492-2.371,0.492
		c-0.902,0-1.695-0.164-2.379-0.492c-0.683-0.328-1.249-0.768-1.702-1.322c-0.45-0.554-0.789-1.194-1.015-1.92
		C287.802,91.356,287.688,90.601,287.688,89.815L287.688,89.815z"/>
	<path fill="#00263D" d="M315.783,84.058h1.096v7.128c0,0.667,0.075,1.234,0.227,1.702c0.15,0.467,0.371,0.85,0.661,1.145
		c0.291,0.296,0.646,0.511,1.064,0.645c0.419,0.135,0.894,0.202,1.419,0.202c0.527,0,1.002-0.067,1.429-0.202
		c0.424-0.134,0.781-0.349,1.071-0.645c0.29-0.295,0.512-0.678,0.661-1.145c0.151-0.468,0.227-1.035,0.227-1.702v-7.128h1.097v7.37
		c0,0.592-0.084,1.154-0.25,1.686c-0.167,0.532-0.43,0.997-0.79,1.395c-0.361,0.397-0.823,0.715-1.388,0.951
		c-0.564,0.237-1.25,0.355-2.057,0.355c-0.795,0-1.476-0.118-2.04-0.355c-0.564-0.236-1.026-0.554-1.387-0.951
		c-0.361-0.398-0.624-0.863-0.79-1.395c-0.167-0.532-0.25-1.094-0.25-1.686V84.058L315.783,84.058z"/>
	<path fill="#00263D" d="M343.684,89.703h3.773c0.765,0,1.382-0.194,1.855-0.581c0.473-0.387,0.71-0.978,0.71-1.774
		c0-0.795-0.237-1.387-0.71-1.774c-0.474-0.387-1.091-0.58-1.855-0.58h-3.773V89.703L343.684,89.703z M342.587,84.058h5.113
		c0.517,0,0.983,0.072,1.403,0.218c0.418,0.146,0.779,0.36,1.08,0.645s0.531,0.632,0.693,1.04c0.161,0.409,0.241,0.871,0.241,1.387
		s-0.08,0.979-0.241,1.387c-0.162,0.409-0.393,0.755-0.693,1.04c-0.301,0.285-0.662,0.5-1.08,0.645
		c-0.42,0.145-0.887,0.218-1.403,0.218h-4.017v4.935h-1.097V84.058L342.587,84.058z"/>
	<path fill="#00263D" d="M161.858,55.17c0.886-2.052,2.06-3.761,3.523-5.128c1.461-1.365,3.191-2.047,5.193-2.047
		c2.087,0,4.575,0.913,7.462,2.74c2.888,1.827,5.08,2.74,6.577,2.74c1.478,0,2.712-0.392,3.705-1.175c0.991-0.782,1.991-2,3-3.653
		l2.089,1.409c-0.748,1.549-1.931,3.11-3.549,4.685c-1.619,1.575-3.585,2.361-5.898,2.361c-2.227,0-4.771-0.915-7.633-2.74
		c-2.862-1.828-5.048-2.74-6.562-2.74c-1.271,0-2.385,0.4-3.342,1.2c-0.956,0.801-1.798,1.966-2.529,3.497L161.858,55.17
		L161.858,55.17z"/>
</g>
</svg>
