<?xml version="1.0" encoding="UTF-8" standalone="no"?>
<!-- Generator: Adobe Illustrator 17.1.0, SVG Export Plug-In . SVG Version: 6.00 Build 0)  -->

<svg
   xmlns:dc="http://purl.org/dc/elements/1.1/"
   xmlns:cc="http://creativecommons.org/ns#"
   xmlns:rdf="http://www.w3.org/1999/02/22-rdf-syntax-ns#"
   xmlns:svg="http://www.w3.org/2000/svg"
   xmlns="http://www.w3.org/2000/svg"
   xmlns:xlink="http://www.w3.org/1999/xlink"
   xmlns:sodipodi="http://sodipodi.sourceforge.net/DTD/sodipodi-0.dtd"
   xmlns:inkscape="http://www.inkscape.org/namespaces/inkscape"
   version="1.1"
   x="0px"
   y="0px"
   viewBox="-87 350 112.13367 77.920402"
   enable-background="new -87 350 174 60"
   xml:space="preserve"
   id="svg2"
   inkscape:version="0.91 r13725"
   sodipodi:docname="logos_thiel.svg"
   width="112.13367"
   height="77.920403"><metadata
     id="metadata269"><rdf:RDF><cc:Work
         rdf:about=""><dc:format>image/svg+xml</dc:format><dc:type
           rdf:resource="http://purl.org/dc/dcmitype/StillImage" /><dc:title></dc:title></cc:Work></rdf:RDF></metadata><defs
     id="defs267" /><sodipodi:namedview
     pagecolor="#ffffff"
     bordercolor="#666666"
     borderopacity="1"
     objecttolerance="10"
     gridtolerance="10"
     guidetolerance="10"
     inkscape:pageopacity="0"
     inkscape:pageshadow="2"
     inkscape:window-width="640"
     inkscape:window-height="480"
     id="namedview265"
     showgrid="false"
     fit-margin-top="11"
     fit-margin-left="0"
     fit-margin-right="0"
     fit-margin-bottom="33"
     inkscape:zoom="1.7816092"
     inkscape:cx="56.033669"
     inkscape:cy="64.920407"
     inkscape:window-x="0"
     inkscape:window-y="0"
     inkscape:window-maximized="0"
     inkscape:current-layer="svg2" /><g
     id="estimote"
     transform="translate(-30.966333,-17)" /><g
     id="Pebble"
     transform="translate(-30.966333,-17)" /><g
     id="Spark"
     transform="translate(-30.966333,-17)" /><g
     id="Layer_4"
     transform="translate(-30.966333,-17)" /><g
     id="Layer_5"
     transform="translate(-30.966333,-17)" /><g
     id="Layer_6"
     transform="translate(-30.966333,-17)" /><g
     id="Base"
     transform="translate(-30.966333,-17)" /><g
     id="yelp"
     transform="translate(-30.966333,-17)" /><g
     id="Yext"
     transform="translate(-30.966333,-17)" /><g
     id="Estimote"
     transform="translate(-30.966333,-17)" /><g
     id="Kloudless"
     transform="translate(-30.966333,-17)" /><g
     id="Microsoft"
     transform="translate(-30.966333,-17)" /><g
     id="Big_Viking"
     transform="translate(-30.966333,-17)" /><g
     id="_x35_00px"
     transform="translate(-30.966333,-17)" /><g
     id="Magnet_Forensics"
     transform="translate(-30.966333,-17)" /><g
     id="Guides"
     transform="translate(-30.966333,-17)" /><g
     id="Wit.Ai"
     display="none"
     style="display:none"
     transform="translate(-30.966333,-17)"><g
       display="inline"
       id="g21"
       style="display:inline"><g
         id="g23"><polygon
           stroke-miterlimit="10"
           points="-29.4,382.4 -42.6,382.1 -42.6,382.9 -25.1,383.3 -25,382.6 "
           id="polygon25"
           style="fill:#bad4ee;stroke:#101e46;stroke-width:0.69999999;stroke-miterlimit:10" /><polygon
           stroke-miterlimit="10"
           points="-43.3,382.9 -46.8,383.1 -46.8,382.6 -44.2,382.2 -43.3,382 "
           id="polygon27"
           style="fill:#bad4ee;stroke:#101e46;stroke-width:0.69999999;stroke-miterlimit:10" /><g
           id="g29"><g
             id="g31"><path
               stroke-miterlimit="10"
               d="m -46.8,367.1 0,2.6 0,0.5 c 0.6,0.5 1,1.9 1,3.7 0,1.6 -0.5,3.1 -1,3.7 l 0,0.7 0,3.7 3.5,-0.6 0,-17 c 0,0 -3.6,1.7 -3.5,2.7 z"
               id="path33"
               inkscape:connector-curvature="0"
               style="fill:#bad4ee;stroke:#101e46;stroke-width:0.69999999;stroke-miterlimit:10" /></g></g><path
           stroke-miterlimit="10"
           d="m -48.4,373.9 c 0,1.6 0.5,2.9 1.1,3 0.6,0 1.1,-1.3 1.2,-2.9 0,-1.6 -0.5,-2.9 -1.1,-3 -0.7,0 -1.2,1.3 -1.2,2.9 z"
           id="path35"
           inkscape:connector-curvature="0"
           style="fill:#bad4ee;stroke:#101e46;stroke-width:0.69999999;stroke-miterlimit:10" /><path
           stroke-miterlimit="10"
           d="m -20.5,394.8 0,-9.2 c 0,0 0.2,-1.5 -1.3,-1.6 l -24.7,-0.4 c 0,0 -2.5,-0.5 -2.6,1.7 l 0,9.5 28.6,0 z"
           id="path37"
           inkscape:connector-curvature="0"
           style="fill:#bad4ee;stroke:#101e46;stroke-width:0.69999999;stroke-miterlimit:10" /><path
           stroke-miterlimit="10"
           d="m -49.6,394.8 0,-9.5 c 0,0 0.1,-1.3 -1.1,-1.2 0,0 -3,0 -3.7,2.5 l 0,8.2 4.8,0 z"
           id="path39"
           inkscape:connector-curvature="0"
           style="fill:#bad4ee;stroke:#101e46;stroke-width:0.69999999;stroke-miterlimit:10" /><path
           stroke-miterlimit="10"
           d="m -26.8,364.3 -13.6,-0.6 c 0,0 -2.1,-0.3 -2.3,1.6 l 0,15.1 0,1 17.6,0.4 0,-15.5 c 0,0 0,-1.9 -1.7,-2 z"
           id="path41"
           inkscape:connector-curvature="0"
           style="fill:#bad4ee;stroke:#101e46;stroke-width:0.69999999;stroke-miterlimit:10" /><circle
           stroke-miterlimit="10"
           cx="-37.299999"
           cy="371.79999"
           r="1.7"
           id="circle43"
           style="fill:#ffffff;stroke:#101e46;stroke-width:0.69999999;stroke-miterlimit:10" /><circle
           stroke-miterlimit="10"
           cx="-29.299999"
           cy="371.79999"
           r="1.7"
           id="circle45"
           style="fill:#ffffff;stroke:#101e46;stroke-width:0.69999999;stroke-miterlimit:10" /></g><g
         id="g47"><path
           d="m -8.7,389.9 -4.9,-19.4 2.7,0 2.3,9.8 c 0.6,2.4 1.1,4.8 1.4,6.7 l 0.1,0 c 0.3,-1.9 0.9,-4.2 1.6,-6.7 l 2.6,-9.8 2.6,0 2.4,9.9 c 0.5,2.3 1.1,4.6 1.4,6.7 l 0.1,0 c 0.4,-2.1 1,-4.3 1.6,-6.7 l 2.6,-9.8 2.6,0 L 4.9,390 2,390 -0.4,379.9 c -0.6,-2.5 -1,-4.4 -1.3,-6.3 l -0.1,0 c -0.3,1.9 -0.8,3.8 -1.5,6.3 l -2.8,10.1 -2.6,0 z"
           id="path49"
           inkscape:connector-curvature="0"
           style="fill:#231f20" /><path
           d="m 14.8,372 c 0,0.9 -0.6,1.6 -1.6,1.6 -0.9,0 -1.5,-0.7 -1.5,-1.6 0,-0.9 0.7,-1.6 1.6,-1.6 0.9,0 1.5,0.7 1.5,1.6 z m -2.8,17.9 0,-13.9 2.5,0 0,13.9 -2.5,0 z"
           id="path51"
           inkscape:connector-curvature="0"
           style="fill:#231f20" /><path
           d="m 21.8,371.9 0,4 3.6,0 0,1.9 -3.6,0 0,7.5 c 0,1.7 0.5,2.7 1.9,2.7 0.7,0 1.2,-0.1 1.5,-0.2 l 0.1,1.9 c -0.5,0.2 -1.3,0.3 -2.2,0.3 -1.2,0 -2.1,-0.4 -2.7,-1.1 -0.7,-0.7 -1,-2 -1,-3.6 l 0,-7.6 -2.2,0 0,-1.9 2.2,0 0,-3.3 2.4,-0.6 z"
           id="path53"
           inkscape:connector-curvature="0"
           style="fill:#231f20" /><path
           d="m 27.5,388.4 c 0,-1.1 0.7,-1.8 1.7,-1.8 1,0 1.7,0.7 1.7,1.8 0,1 -0.7,1.8 -1.7,1.8 -1,0 -1.7,-0.8 -1.7,-1.8 z"
           id="path55"
           inkscape:connector-curvature="0"
           style="fill:#231f20" /><path
           d="m 37.3,383.8 -2,6.1 -2.6,0 6.6,-19.4 3,0 6.6,19.4 -2.7,0 -2.1,-6.1 -6.8,0 z m 6.4,-2 -1.9,-5.6 c -0.4,-1.3 -0.7,-2.4 -1,-3.5 l -0.1,0 c -0.3,1.2 -0.6,2.3 -1,3.5 l -1.9,5.6 5.9,0 z"
           id="path57"
           inkscape:connector-curvature="0"
           style="fill:#231f20" /><path
           d="m 54.3,370.4 0,19.4 -2.5,0 0,-19.4 2.5,0 z"
           id="path59"
           inkscape:connector-curvature="0"
           style="fill:#231f20" /></g></g></g><g
     id="Layer_18"
     transform="translate(-30.966333,-17)" /><g
     id="Kik"
     transform="translate(-30.966333,-17)" /><g
     id="Layer_20"
     transform="translate(-30.966333,-17)" /><g
     id="Affirm"
     transform="translate(-30.966333,-17)" /><g
     id="Shopify"
     transform="translate(-30.966333,-17)" /><g
     id="apple"
     transform="translate(-30.966333,-17)" /><g
     id="velocity"
     transform="translate(-30.966333,-17)" /><g
     id="pagerduty"
     transform="translate(-30.966333,-17)" /><g
     id="Layer_26"
     transform="translate(-30.966333,-17)" /><g
     id="bitalino"
     transform="translate(-30.966333,-17)"><g
       id="g71"><g
         id="g73"><g
           id="g75"><defs
             id="defs77"><rect
               id="SVGID_37_"
               x="92.599998"
               y="-313.10001"
               width="112.5"
               height="41" /></defs><clipPath
             id="SVGID_2_"><use
               xlink:href="#SVGID_37_"
               overflow="visible"
               id="use81"
               style="overflow:visible"
               x="0"
               y="0"
               width="100%"
               height="100%" /></clipPath><g
             clip-path="url(#SVGID_2_)"
             id="g83"><g
               id="g85"><defs
                 id="defs87"><rect
                   id="SVGID_43_"
                   x="92.599998"
                   y="-313.10001"
                   width="112.5"
                   height="41" /></defs><clipPath
                 id="SVGID_3_"><use
                   xlink:href="#SVGID_43_"
                   overflow="visible"
                   id="use91"
                   style="overflow:visible"
                   x="0"
                   y="0"
                   width="100%"
                   height="100%" /></clipPath><g
                 clip-path="url(#SVGID_3_)"
                 id="g93"><g
                   id="g95"><defs
                     id="defs97"><rect
                       id="SVGID_49_"
                       x="92.599998"
                       y="-313.10001"
                       width="112.5"
                       height="41" /></defs><clipPath
                     id="SVGID_4_"><use
                       xlink:href="#SVGID_49_"
                       overflow="visible"
                       id="use101"
                       style="overflow:visible"
                       x="0"
                       y="0"
                       width="100%"
                       height="100%" /></clipPath><g
                     id="g86"
                     clip-path="url(#SVGID_4_)"><g
                       id="g104"><defs
                         id="defs106"><path
                           id="SVGID_51_"
                           d="m 145,-328.4 1.4,0 c 0.3,1.5 1.6,2.6 3.2,2.6 1.6,0 2.9,-1.1 3.2,-2.6 l 1.4,0 0,-1.4 -0.5,0 0,-1.4 1.9,0 0,0 0,4.2 0,0 -0.2,0 -1.6,0 -0.1,0.1 c -0.8,1.5 -2.3,2.5 -4.1,2.5 -2.3,0 -4.3,-1.7 -4.6,-4"
                           inkscape:connector-curvature="0" /></defs><clipPath
                         id="SVGID_5_"><use
                           xlink:href="#SVGID_51_"
                           overflow="visible"
                           id="use110"
                           style="overflow:visible"
                           x="0"
                           y="0"
                           width="100%"
                           height="100%" /></clipPath><g
                         id="g88"
                         clip-path="url(#SVGID_5_)"><g
                           id="g94"><defs
                             id="defs114"><rect
                               id="SVGID_53_"
                               x="17.799999"
                               y="-469.79999"
                               transform="matrix(-0.2713,0.9625,-0.9625,-0.2713,-107.8132,-538.0009)"
                               width="263.89999"
                               height="320" /></defs><clipPath
                             id="SVGID_6_"><use
                               xlink:href="#SVGID_53_"
                               overflow="visible"
                               id="use118"
                               style="overflow:visible"
                               x="0"
                               y="0"
                               width="100%"
                               height="100%" /></clipPath></g></g></g></g><g
                     clip-path="url(#SVGID_4_)"
                     id="g120"><g
                       id="g122"><defs
                         id="defs124"><rect
                           id="SVGID_55_"
                           x="92.599998"
                           y="-313.10001"
                           width="112.5"
                           height="41" /></defs><clipPath
                         id="SVGID_7_"><use
                           xlink:href="#SVGID_55_"
                           overflow="visible"
                           id="use128"
                           style="overflow:visible"
                           x="0"
                           y="0"
                           width="100%"
                           height="100%" /></clipPath><g
                         id="g130"
                         clip-path="url(#SVGID_7_)"><g
                           id="g132"><defs
                             id="defs134"><path
                               id="SVGID_57_"
                               d="m 143.6,-327 0,0 0,-4.2 0,0 0.2,0 1.6,0 0.1,-0.1 c 0.8,-1.5 2.3,-2.5 4.1,-2.5 2.3,0 4.3,1.7 4.6,4 l -1.4,0 c -0.3,-1.5 -1.6,-2.6 -3.2,-2.6 -1.6,0 -2.9,1.1 -3.2,2.6 l -1.4,0 0,1.4 0.5,0 0,1.4 -1.9,0 z"
                               inkscape:connector-curvature="0" /></defs><clipPath
                             id="SVGID_8_"><use
                               xlink:href="#SVGID_57_"
                               overflow="visible"
                               id="use138"
                               style="overflow:visible"
                               x="0"
                               y="0"
                               width="100%"
                               height="100%" /></clipPath><g
                             id="g124"
                             clip-path="url(#SVGID_8_)"><g
                               id="g141"><defs
                                 id="defs143"><rect
                                   id="SVGID_59_"
                                   x="26.4"
                                   y="-464.89999"
                                   transform="matrix(-0.1961,-0.9806,0.9806,-0.1961,482.9323,-223.7201)"
                                   width="246.7"
                                   height="310.29999" /></defs><clipPath
                                 id="SVGID_9_"><use
                                   xlink:href="#SVGID_59_"
                                   overflow="visible"
                                   id="use147"
                                   style="overflow:visible"
                                   x="0"
                                   y="0"
                                   width="100%"
                                   height="100%" /></clipPath></g></g></g></g><g
                         clip-path="url(#SVGID_7_)"
                         id="g149"><g
                           id="g151"><defs
                             id="defs153"><rect
                               id="SVGID_61_"
                               x="92.599998"
                               y="-313.10001"
                               width="112.5"
                               height="41" /></defs><clipPath
                             id="SVGID_10_"><use
                               xlink:href="#SVGID_61_"
                               overflow="visible"
                               id="use157"
                               style="overflow:visible"
                               x="0"
                               y="0"
                               width="100%"
                               height="100%" /></clipPath><g
                             id="g158"
                             clip-path="url(#SVGID_10_)"><g
                               id="g160"><defs
                                 id="defs162"><path
                                   id="SVGID_63_"
                                   d="m 145,-328.4 1.4,0 c 0.3,1.5 1.6,2.6 3.2,2.6 l 0,1.4 c -2.3,0 -4.3,-1.8 -4.6,-4"
                                   inkscape:connector-curvature="0" /></defs><clipPath
                                 id="SVGID_11_"><use
                                   xlink:href="#SVGID_63_"
                                   overflow="visible"
                                   id="use166"
                                   style="overflow:visible"
                                   x="0"
                                   y="0"
                                   width="100%"
                                   height="100%" /></clipPath><g
                                 id="g168"
                                 clip-path="url(#SVGID_11_)"><g
                                   id="g166"><defs
                                   id="defs171"><rect
                                   id="SVGID_65_"
                                   x="17.799999"
                                   y="-469.79999"
                                   transform="matrix(-0.2713,0.9625,-0.9625,-0.2713,-107.8132,-538.0009)"
                                   width="263.89999"
                                   height="320" /></defs><clipPath
                                   id="SVGID_12_"><use
                                   xlink:href="#SVGID_65_"
                                   overflow="visible"
                                   id="use175"
                                   style="overflow:visible"
                                   x="0"
                                   y="0"
                                   width="100%"
                                   height="100%" /></clipPath></g></g></g></g><g
                             clip-path="url(#SVGID_10_)"
                             id="g177"><g
                               id="g179"><defs
                                 id="defs181"><rect
                                   id="SVGID_67_"
                                   x="92.599998"
                                   y="-313.10001"
                                   width="112.5"
                                   height="41" /></defs><clipPath
                                 id="SVGID_13_"><use
                                   xlink:href="#SVGID_67_"
                                   overflow="visible"
                                   id="use185"
                                   style="overflow:visible"
                                   x="0"
                                   y="0"
                                   width="100%"
                                   height="100%" /></clipPath><g
                                 id="g194"
                                 clip-path="url(#SVGID_13_)"><g
                                   id="g188"><defs
                                   id="defs190"><path
                                   id="SVGID_69_"
                                   d="m 179.5,-324.9 c -1.5,-0.8 -2.5,-2.3 -2.5,-4.1 0,-2.3 1.7,-4.3 4,-4.6 l 0,1.4 c -1.5,0.3 -2.6,1.6 -2.6,3.2 0,1 0.4,1.9 1.2,2.5 l 0,-0.8 1.4,0 0,2.5 0,0.5 c 0,0 0,0 0,0 l 0,0 c 0,-0.1 -0.9,-0.3 -1.5,-0.6"
                                   inkscape:connector-curvature="0" /></defs><clipPath
                                   id="SVGID_14_"><use
                                   xlink:href="#SVGID_69_"
                                   overflow="visible"
                                   id="use194"
                                   style="overflow:visible"
                                   x="0"
                                   y="0"
                                   width="100%"
                                   height="100%" /></clipPath><g
                                   id="g196"
                                   clip-path="url(#SVGID_14_)"><g
                                   id="g202"><defs
                                   id="defs198"><rect
                                   id="SVGID_71_"
                                   x="-18.299999"
                                   y="-477.20001"
                                   transform="matrix(-0.7071,0.7071,-0.7071,-0.7071,35.3121,-634.2565)"
                                   width="334.70001"
                                   height="334.70001" /></defs><clipPath
                                   id="SVGID_15_"><use
                                   xlink:href="#SVGID_71_"
                                   overflow="visible"
                                   id="use202"
                                   style="overflow:visible"
                                   x="0"
                                   y="0"
                                   width="100%"
                                   height="100%" /></clipPath></g></g></g></g></g></g></g></g></g></g></g></g></g></g></g></g></g></g><g
     id="TextNow"
     transform="translate(-30.966333,-17)" /><g
     id="Uber"
     transform="translate(-30.966333,-17)" /><g
     id="mars"
     transform="translate(-30.966333,-17)" /><g
     id="twilio"
     transform="translate(-30.966333,-17)" /><g
     id="wit-ai"
     transform="translate(-30.966333,-17)" /><g
     id="indiegogo"
     transform="translate(-30.966333,-17)" /><g
     id="Layer_34"
     transform="translate(-30.966333,9)"><g
       id="g211"><g
         id="g213"><g
           id="g215"><path
             d="m -40.1,395.9 c 0,0 -0.9,0.6 8,-6.2 8.9,-6.8 7.9,-11.5 7.9,-11.5 l 0,-16.2 -17.7,0 3.6,0 -17.7,0 0,16.3 c 0,0 -1,4.7 7.9,11.5 8.9,6.8 8,6.1 8,6.1 l 0,0 z"
             id="path217"
             inkscape:connector-curvature="0"
             style="fill:#231f20" /></g><g
           id="g219"><path
             d="m -40.1,393.4 c 0,0 -0.8,0.5 7.1,-5.4 7.9,-5.9 7,-10 7,-10 l 0,-14.2 -15.8,0 3.2,0 -15.8,0 0,14.2 c 0,0 -0.8,4.1 7,10 8.1,6 7.3,5.4 7.3,5.4 l 0,0 z"
             id="path221"
             inkscape:connector-curvature="0"
             style="fill:#ffffff" /></g><g
           id="g223"><rect
             x="-44.5"
             y="384.10001"
             width="9.1999998"
             height="0.80000001"
             id="rect225"
             style="fill:#bbbdbf" /><g
             id="g227"><path
               d="m -44.4,370.8 c 0,-1.4 0.6,-2.1 2,-2.1 1.3,0 1.9,0.8 1.9,2 l 0,1.3 c 0,0.5 -0.1,1.3 -0.3,1.8 l -2.6,7.6 3,0 0,1.1 -4.1,0 0,-1.3 2.6,-7.5 c 0.2,-0.6 0.3,-1.2 0.3,-1.9 l 0,-1.1 c 0,-0.8 -0.2,-1.1 -0.8,-1.1 -0.5,0 -0.8,0.4 -0.8,1.1 l 0,1.6 -1.2,0 0,-1.5 z"
               id="path229"
               inkscape:connector-curvature="0"
               style="fill:#231f20" /><path
               d="m -39.2,370.8 c 0,-1.7 1.1,-2 2,-2 0.9,0 2,0.3 2,2 l 0,9.9 c 0,1.7 -1.1,2 -2,2 -0.9,0 -2,-0.3 -2,-2 l 0,-9.9 z m 2.7,-0.1 c 0,-0.3 0,-1 -0.8,-1 -0.8,0 -0.8,0.6 -0.8,1 l 0,10.2 c 0,0.3 0,1 0.8,1 0.8,0 0.8,-0.6 0.8,-1 l 0,-10.2 z"
               id="path231"
               inkscape:connector-curvature="0"
               style="fill:#231f20" /></g></g></g><g
         id="g233"><path
           d="m -13.3,375.5 c -1.1,0 -1.6,-0.5 -1.6,-1.7 l 0.1,-5 c -0.4,0 -1,0 -1.2,0 -0.1,0 -0.1,-0.2 -0.1,-0.2 0.9,-0.6 1.6,-1.4 2.4,-2.2 0,0 0.1,0 0.1,0.1 0,0.4 -0.1,1.3 -0.1,1.7 l 1,0 c 0.8,0 1.3,0 1.6,-0.1 0.1,0 0.1,0.8 -0.1,0.8 -0.2,0 -0.5,0 -1.2,-0.1 l -1.2,0 -0.1,4.6 c 0,1.1 0.5,1.4 1.3,1.4 0.4,0 0.9,-0.1 1.3,-0.2 0,0 0.1,0.1 0,0.2 -0.7,0.4 -1.7,0.7 -2.2,0.7 z"
           id="path235"
           inkscape:connector-curvature="0"
           style="fill:#231f20" /><path
           d="m -3,375.2 c -0.7,0 -1.2,0 -1.8,0.1 -0.1,0 0,-0.2 0,-0.2 0.9,-0.1 1.1,-0.2 1.1,-1.6 l 0,-2.7 c 0,-1.6 -0.4,-2.3 -1.3,-2.3 -0.6,0 -1,0.1 -2.4,1 l 0,4 c 0,1.3 0.2,1.5 1.1,1.6 0,0 0.1,0.2 0,0.2 -0.4,-0.1 -1.2,-0.1 -1.7,-0.1 -0.7,0 -1.5,0 -2,0.1 -0.1,0 0,-0.2 0,-0.2 1.2,-0.1 1.4,-0.2 1.4,-1.6 l 0,-8.7 c 0,-1.2 -0.2,-1.4 -1.2,-1.1 0,0 -0.1,-0.1 0,-0.2 0.7,-0.4 1.8,-1 2.4,-1.5 0,0 0.2,0 0.1,0.1 -0.1,0.3 -0.1,1.9 -0.1,2.6 l 0,4.5 c 1.4,-1.1 2.3,-1.4 3.2,-1.4 1.3,0 1.7,0.8 1.7,2.2 l 0,3.5 c 0,1.3 0.1,1.5 1.4,1.6 0,0 0.1,0.2 0,0.2 -0.4,0 -1.4,-0.1 -1.9,-0.1 z"
           id="path237"
           inkscape:connector-curvature="0"
           style="fill:#231f20" /><path
           d="m 1.8,375.2 c -0.7,0 -1.5,0 -2,0.1 -0.1,0 0,-0.2 0,-0.2 1.2,-0.1 1.4,-0.2 1.4,-1.6 l 0,-3.1 C 1.2,369.2 1,369 0,369.3 c 0,0 -0.1,-0.1 0,-0.2 0.7,-0.4 1.8,-1 2.4,-1.6 0,0 0.2,0 0.2,0.1 -0.1,0.4 -0.1,2 -0.1,2.7 l 0,3.1 c 0,1.4 0.1,1.5 1.4,1.6 0,0 0.1,0.2 0,0.2 -0.7,0 -1.4,0 -2.1,0 z M 2,365.3 c -0.4,0 -0.7,-0.4 -0.7,-0.8 0,-0.4 0.3,-0.8 0.8,-0.8 0.4,0 0.7,0.4 0.7,0.8 0,0.4 -0.4,0.8 -0.8,0.8 z"
           id="path239"
           inkscape:connector-curvature="0"
           style="fill:#231f20" /><path
           d="m 11.3,370.6 -5.1,0.1 c 0,0.2 0,0.4 0,0.6 0,2.4 1.4,3.4 2.7,3.4 0.8,0 1.7,-0.3 2.3,-0.8 0,0 0.1,0.1 0.1,0.2 -0.6,0.7 -1.8,1.3 -3,1.3 -2,0 -3.4,-1.5 -3.4,-3.6 0,-2.2 1.9,-4.1 3.8,-4.1 1.8,0 2.7,1.3 2.7,2.4 -0.1,0.2 -0.1,0.4 -0.1,0.5 z m -3.1,-2.3 c -0.9,0 -1.7,0.8 -2,2.2 l 3.8,-0.1 c 0,-1 -0.6,-2.1 -1.8,-2.1 z"
           id="path241"
           inkscape:connector-curvature="0"
           style="fill:#231f20" /><path
           d="m 14,375.2 c -0.7,0 -1.4,0 -1.9,0.1 -0.1,0 0,-0.2 0,-0.2 1.2,-0.1 1.4,-0.2 1.4,-1.6 l 0,-8.7 c 0,-1.2 -0.2,-1.4 -1.2,-1.1 0,0 -0.1,-0.1 0,-0.2 0.7,-0.4 1.8,-1 2.4,-1.5 0,0 0.2,0 0.2,0.1 -0.1,0.3 -0.1,1.9 -0.1,2.6 l 0,8.8 c 0,1.4 0.1,1.5 1.4,1.6 0,0 0.1,0.2 0,0.2 -0.8,-0.1 -1.5,-0.1 -2.2,-0.1 z"
           id="path243"
           inkscape:connector-curvature="0"
           style="fill:#231f20" /><path
           d="m -10,379.8 c -0.5,0 -1.1,-0.8 -1.9,-0.8 -1.2,0 -1.6,0.9 -1.6,4 l 0,1.1 1,0 c 0.8,0 1.3,0 1.5,-0.1 0.1,0 0.1,0.7 0,0.7 -0.2,0 -0.6,0 -1.2,0 l -1.2,0 0,4.8 c 0,1.3 0.2,1.5 1.8,1.6 0,0 0.1,0.2 0,0.2 -0.4,-0.1 -1.8,-0.1 -2.3,-0.1 -0.7,0 -1.5,0 -2,0.1 -0.1,0 0,-0.2 0,-0.2 1.2,-0.1 1.4,-0.2 1.4,-1.6 l 0,-4.8 c -0.4,0 -1.3,0 -1.5,0 -0.1,0 -0.1,-0.3 -0.1,-0.3 0.7,0 1.2,-0.1 1.5,-0.3 l 0,-0.7 c 0,-3.1 1.8,-5.3 4,-5.3 0.7,0 1.4,0.5 1.4,0.7 -0.2,0.3 -0.6,1 -0.8,1 z"
           id="path245"
           inkscape:connector-curvature="0"
           style="fill:#231f20" /><path
           d="m -3.5,386.6 -5.1,0.1 c 0,0.2 0,0.4 0,0.6 0,2.4 1.4,3.4 2.7,3.4 0.8,0 1.7,-0.3 2.3,-0.8 0,0 0.1,0.1 0.1,0.2 -0.6,0.7 -1.8,1.3 -3,1.3 -2,0 -3.4,-1.5 -3.4,-3.6 0,-2.2 1.9,-4.1 3.8,-4.1 1.8,0 2.7,1.3 2.7,2.4 -0.1,0.2 -0.1,0.4 -0.1,0.5 z m -3.1,-2.4 c -0.9,0 -1.7,0.8 -2,2.2 l 3.8,-0.1 c 0,-0.9 -0.6,-2.1 -1.8,-2.1 z"
           id="path247"
           inkscape:connector-curvature="0"
           style="fill:#231f20" /><path
           d="m -0.5,391.2 c -0.7,0 -1.4,0 -1.9,0.1 -0.1,0 0,-0.2 0,-0.2 1.2,-0.1 1.4,-0.2 1.4,-1.6 l 0,-8.7 c 0,-1.2 -0.2,-1.4 -1.2,-1.1 0,0 -0.1,-0.1 0,-0.2 0.7,-0.4 1.8,-1 2.4,-1.5 0,0 0.2,0 0.2,0.1 -0.1,0.3 -0.1,1.9 -0.1,2.6 l 0,8.8 c 0,1.4 0.1,1.5 1.4,1.6 0,0 0.1,0.2 0,0.2 -0.7,-0.1 -1.5,-0.1 -2.2,-0.1 z"
           id="path249"
           inkscape:connector-curvature="0"
           style="fill:#231f20" /><path
           d="m 5,391.2 c -0.7,0 -1.4,0 -1.9,0.1 -0.1,0 0,-0.2 0,-0.2 1.2,-0.1 1.4,-0.2 1.4,-1.6 l 0,-8.7 c 0,-1.2 -0.2,-1.4 -1.2,-1.1 0,0 -0.1,-0.1 0,-0.2 0.7,-0.4 1.8,-1 2.4,-1.5 0,0 0.2,0 0.2,0.1 -0.1,0.3 -0.1,1.9 -0.1,2.6 l 0,8.8 c 0,1.4 0.1,1.5 1.4,1.6 0,0 0.1,0.2 0,0.2 -0.7,-0.1 -1.5,-0.1 -2.2,-0.1 z"
           id="path251"
           inkscape:connector-curvature="0"
           style="fill:#231f20" /><path
           d="m 11.5,391.5 c -2.3,0 -3.7,-1.8 -3.7,-3.7 0,-2 1.5,-4 3.9,-4 2.3,0 3.7,1.8 3.7,3.7 0,2 -1.5,4 -3.9,4 z m -0.2,-7.3 c -1.5,0 -2.2,1.3 -2.2,2.8 0,2.5 1.1,4 2.8,4 1.5,0 2.2,-1.3 2.2,-2.8 0,-2.5 -1.1,-4 -2.8,-4 z"
           id="path253"
           inkscape:connector-curvature="0"
           style="fill:#231f20" /><path
           d="m 26.6,385.7 -2.3,5.7 c 0,0.1 -0.2,0.1 -0.3,0 L 22.1,386 20,391.4 c 0,0.1 -0.2,0.1 -0.3,0 l -2.3,-5.7 c -0.5,-1.2 -0.8,-1.5 -1.8,-1.6 0,0 -0.1,-0.2 0,-0.2 0.3,0.1 1.3,0.1 1.8,0.1 0.7,0 1.3,0 1.8,-0.1 0.1,0 0,0.2 0,0.2 -1,0.1 -1.1,0.3 -0.6,1.6 l 1.6,4 1.6,-4.2 c -0.4,-1.1 -0.8,-1.3 -1.6,-1.4 0,0 -0.1,-0.2 0,-0.2 0.4,0.1 1.3,0.1 1.8,0.1 0.7,0 1.3,0 1.8,-0.1 0.1,0 0,0.2 0,0.2 -1,0.1 -1.2,0.3 -0.7,1.6 l 1.4,3.9 1.5,-3.9 c 0.5,-1.2 0.3,-1.5 -0.6,-1.6 0,0 -0.1,-0.2 0,-0.2 0.6,0.1 0.9,0.1 1.6,0.1 0.5,0 1,0 1.4,-0.1 0.1,0 0,0.2 0,0.2 -1,0.1 -1.4,0.5 -1.8,1.6 z"
           id="path255"
           inkscape:connector-curvature="0"
           style="fill:#231f20" /><path
           d="m 30.7,391.5 c -0.8,0 -1.5,-0.2 -2.1,-0.5 -0.1,-0.1 -0.1,-1.2 -0.1,-2 0,-0.1 0.2,0 0.2,0 0.4,1.6 1.3,2.2 2.3,2.2 0.9,0 1.3,-0.5 1.3,-1.3 0,-1.8 -3.5,-1.9 -3.5,-4 0,-1.1 0.9,-2.1 2.5,-2.1 0.7,0 1.1,0.1 1.5,0.3 0.1,0.1 0.2,1.1 0.2,1.8 0,0 -0.2,0 -0.2,0 -0.3,-1.1 -1.1,-1.8 -1.9,-1.8 -0.7,0 -1,0.5 -1,1.2 0,1.7 3.4,1.7 3.4,3.8 0,1.3 -1,2.4 -2.6,2.4 z"
           id="path257"
           inkscape:connector-curvature="0"
           style="fill:#231f20" /><path
           d="m 41,391.2 c -0.7,0 -1.2,0 -1.8,0.1 -0.1,0 0,-0.2 0,-0.2 0.9,-0.1 1.1,-0.2 1.1,-1.6 l 0,-2.7 c 0,-1.6 -0.4,-2.3 -1.3,-2.3 -0.6,0 -1,0.1 -2.4,1 l 0,4 c 0,1.3 0.2,1.5 1.1,1.6 0,0 0.1,0.2 0,0.2 -0.4,-0.1 -1.2,-0.1 -1.7,-0.1 -0.7,0 -1.5,0 -2,0.1 -0.1,0 0,-0.2 0,-0.2 1.2,-0.1 1.4,-0.2 1.4,-1.6 l 0,-8.7 c 0,-1.2 -0.2,-1.4 -1.2,-1.1 0,0 -0.1,-0.1 0,-0.2 0.7,-0.4 1.8,-1 2.4,-1.5 0,0 0.2,0 0.1,0.1 -0.1,0.3 -0.1,1.9 -0.1,2.6 l 0,4.5 c 1.4,-1.1 2.3,-1.4 3.2,-1.4 1.3,0 1.7,0.8 1.7,2.2 l 0,3.5 c 0,1.3 0.1,1.5 1.4,1.6 0,0 0.1,0.2 0,0.2 -0.3,-0.1 -1.4,-0.1 -1.9,-0.1 z"
           id="path259"
           inkscape:connector-curvature="0"
           style="fill:#231f20" /><path
           d="m 45.4,391.2 c -0.7,0 -1.5,0 -2,0.1 -0.1,0 0,-0.2 0,-0.2 1.2,-0.1 1.4,-0.2 1.4,-1.6 l 0,-3.1 c 0,-1.2 -0.2,-1.4 -1.2,-1.1 0,0 -0.1,-0.1 0,-0.2 0.7,-0.4 1.8,-1 2.4,-1.6 0,0 0.2,0 0.2,0.1 -0.1,0.4 -0.1,2 -0.1,2.7 l 0,3.1 c 0,1.4 0.1,1.5 1.4,1.6 0,0 0.1,0.2 0,0.2 -0.6,0 -1.4,0 -2.1,0 z m 0.2,-9.9 c -0.4,0 -0.7,-0.4 -0.7,-0.8 0,-0.4 0.3,-0.8 0.8,-0.8 0.4,0 0.7,0.4 0.7,0.8 0,0.4 -0.3,0.8 -0.8,0.8 z"
           id="path261"
           inkscape:connector-curvature="0"
           style="fill:#231f20" /><path
           d="m 51.6,391.5 c -0.4,0 -0.8,0 -1.2,-0.2 l 0,2.8 c 0,1.4 0.2,1.5 1.8,1.5 0,0 0.1,0.2 0,0.2 -0.5,0 -1.9,0 -2.4,0 -0.7,0 -1.3,0.1 -1.8,0.1 -0.1,0 0,-0.2 0,-0.2 1.1,-0.2 1.2,-0.3 1.2,-1.6 l 0,-3.3 c -0.2,-0.1 -0.4,-0.2 -0.6,-0.3 l 0.6,-0.9 0,-3.1 c 0,-1.2 -0.2,-1.4 -1.2,-1.1 0,0 -0.1,-0.1 0,-0.2 0.7,-0.4 1.6,-1.1 2.2,-1.6 0,0 0.1,0.1 0.1,0.1 0.1,0.3 0,1 0.1,1.4 0.9,-0.8 1.8,-1.1 2.6,-1.1 1.8,0 3.1,1.5 3.1,3.3 -0.1,2 -2,4.2 -4.5,4.2 z m 0.6,-6.7 c -0.6,0 -1.2,0.2 -1.8,0.6 l 0,4.8 c 0.8,0.4 1.6,0.6 2.3,0.6 1.2,0 2.1,-1.2 2.1,-3.1 -0.1,-1.9 -1.4,-2.9 -2.6,-2.9 z"
           id="path263"
           inkscape:connector-curvature="0"
           style="fill:#231f20" /></g></g></g></svg>