<?xml version="1.0" encoding="utf-8"?>
<!-- Generator: Adobe Illustrator 16.0.0, SVG Export Plug-In . SVG Version: 6.00 Build 0)  -->
<!DOCTYPE svg PUBLIC "-//W3C//DTD SVG 1.1//EN" "http://www.w3.org/Graphics/SVG/1.1/DTD/svg11.dtd">
<svg version="1.1" id="Layer_1" xmlns="http://www.w3.org/2000/svg" xmlns:xlink="http://www.w3.org/1999/xlink" x="0px" y="0px"
	 width="575px" height="301px" viewBox="-100 0 575 301" enable-background="new -100 0 575 301" xml:space="preserve">
<g transform="translate(0.000000,237.000000) scale(0.100000,-0.100000)">
	<path d="M1750,1938.999c-697.998-36.001-1312.998-345-1521.001-763.999c-275-555.996,178.003-1144.004,1043.003-1354.004
		C1512.998-237.998,1587.002-245,1915-245c322.998,0.996,422.998,10.996,655,70c484.003,122.998,869.003,382.002,1020.996,690
		c221.006,447.998-22.998,925-615.996,1206.001C2722.998,1840,2395,1922.002,2115,1935c-60,2.998-135,7.002-165,8.999
		C1920,1945,1830,1942.998,1750,1938.999z M1827.998,1293.999c-12.998-26.997-33.999-55-47.998-61.001
		C1765,1225,1712.002,1220,1643.999,1220c-76.997,0-115-3.999-121.997-12.002C1513.999,1197.002,1480,1055,1480,1031.001
		c0-3.003,42.002-6.001,92.998-6.001c108.003,0,153.003-18.999,211.001-86.001c40-46.997,52.002-96.997,43.003-188.003
		c-6.001-66.992-33.003-125-84.004-181.992c-78.999-88.008-180.996-119.004-310-94.004c-78.999,15-100,25.996-88.999,44.004
		c3.999,5.996,20,5,48.003-5c66.997-23.008,146.997-18.008,208.999,13.994c156.001,81.006,186.001,310,51.001,394.004
		C1621.001,941.001,1601.001,945,1525,945c-82.998,1.001-90,2.002-92.998,21.001c-3.003,23.999,61.997,331.001,72.998,341.997
		c2.998,4.004,71.001,9.004,150,12.002c120,3.999,147.002,7.998,162.002,22.002C1847.002,1372.002,1852.998,1345,1827.998,1293.999z
		 M1012.002,534.004c10-10,35.996-20,58.999-23.008c22.998-2.998,43.999-11.992,46.997-17.998c3.003-10-35-12.998-166.997-12.998
		C857.002,480,780,484.004,780,487.998c0,5,21.001,15,47.998,22.998c40,12.002,49.004,19.004,59.004,49.004
		c15,42.998,17.998,586.001,3.999,622.998c-13.003,32.002-42.002,41.001-87.002,27.002c-18.999-7.002-37.998-8.999-41.001-6.001
		c-11.997,11.001,20,35,66.001,51.001c26.001,7.998,72.002,31.001,102.002,50L985,1338.999L990,945
		C995,590,997.002,549.004,1012.002,534.004z M2252.002,534.004c10-10,35.996-20,58.994-23.008
		c23.008-2.998,44.004-11.992,47.002-17.998c2.998-10-35-12.998-167.002-12.998c-93.994,0-170.996,4.004-170.996,7.998
		c0,5,20.996,15,47.998,22.998c40,12.002,49.004,19.004,59.004,49.004c15,42.998,17.998,586.001,3.994,622.998
		c-12.998,32.002-41.992,41.001-86.992,27.002c-19.004-7.002-38.008-8.999-41.006-6.001c-12.002,11.001,20,35,66.006,51.001
		c25.996,7.998,71.992,31.001,101.992,50l54.004,33.999L2230,945C2235,590,2237.002,549.004,2252.002,534.004z M2904.003,1310
		h148.994l-7.002-66.001c-3.994-37.998-28.994-128.999-56.992-212.998C2860.996,662.998,2845,592.002,2870,490.996
		c7.002-28.994,10-53.994,7.002-56.992C2874.003,430.996,2855,425,2835,420c-30.996-7.002-40-5-57.002,12.002
		c-18.994,18.994-20,28.994-15,107.002C2769.003,647.002,2792.001,715,2884.003,905c77.998,158.999,90.996,192.002,105,267.998
		l7.998,47.002h-134.004c-160,0-195-10-213.994-63.999c-14.004-38.003-26.006-46.001-35-22.002
		c-6.006,15,11.992,123.999,26.992,163.003c9.004,23.999,12.002,25,62.001,18.999C2730.996,1312.998,2822.001,1310,2904.003,1310z"
		/>
</g>
</svg>
