<?xml version="1.0" encoding="UTF-8" standalone="no"?>
<svg
   xmlns:dc="http://purl.org/dc/elements/1.1/"
   xmlns:cc="http://creativecommons.org/ns#"
   xmlns:rdf="http://www.w3.org/1999/02/22-rdf-syntax-ns#"
   xmlns:svg="http://www.w3.org/2000/svg"
   xmlns="http://www.w3.org/2000/svg"
   xmlns:sodipodi="http://sodipodi.sourceforge.net/DTD/sodipodi-0.dtd"
   xmlns:inkscape="http://www.inkscape.org/namespaces/inkscape"
   version="1.1"
   id="body"
   width="4.2223649in"
   height="3.6003001in"
   viewBox="0 0 0.52779561 0.4500375"
   preserveAspectRatio="none"
   sodipodi:version="0.32"
   inkscape:version="0.91 r13725"
   sodipodi:docname="logos_epic.svg"
   inkscape:output_extension="org.inkscape.output.svg.inkscape"
   sodipodi:modified="true">
  <metadata
     id="metadata34">
    <rdf:RDF>
      <cc:Work
         rdf:about="">
        <dc:format>image/svg+xml</dc:format>
        <dc:type
           rdf:resource="http://purl.org/dc/dcmitype/StillImage" />
        <dc:title>SVG drawing</dc:title>
      </cc:Work>
    </rdf:RDF>
  </metadata>
  <defs
     id="defs32" />
  <sodipodi:namedview
     inkscape:window-height="855"
     inkscape:window-width="1280"
     inkscape:pageshadow="2"
     inkscape:pageopacity="0.0"
     guidetolerance="10.0"
     gridtolerance="10.0"
     objecttolerance="10.0"
     borderopacity="1.0"
     bordercolor="#666666"
     pagecolor="#ffffff"
     id="base"
     inkscape:zoom="0.52361111"
     inkscape:cx="514.71527"
     inkscape:cy="175.62037"
     inkscape:window-x="86"
     inkscape:window-y="2"
     inkscape:current-layer="content"
     showgrid="false"
     fit-margin-top="0"
     fit-margin-left="0"
     fit-margin-right="0"
     fit-margin-bottom="0"
     inkscape:window-maximized="0" />
  <title
     id="title3">SVG drawing</title>
  <desc
     id="desc5">This was produced by version 4.3 of GNU libplot, a free library for exporting 2-D vector graphics.</desc>
  <g
     id="content"
     transform="matrix(0.0017361,0,0,-0.0017361,-0.52671758,0.35619279)"
     xml:space="preserve"
     stroke-miterlimit="10.433"
     font-style="normal"
     font-variant="normal"
     font-weight="normal"
     font-stretch="normal"
     font-size-adjust="none"
     letter-spacing="normal"
     word-spacing="normal"
     style="font-style:normal;font-variant:normal;font-weight:normal;font-stretch:normal;letter-spacing:normal;word-spacing:normal;text-anchor:start;fill:none;fill-opacity:1;fill-rule:evenodd;stroke:#000000;stroke-linecap:butt;stroke-linejoin:miter;stroke-miterlimit:10.43299961;stroke-dasharray:none;stroke-dashoffset:0;stroke-opacity:1"><g
       id="g2195"
       transform="translate(41.315859,26.326963)"><polygon
         transform="translate(207.78913,-56.530866)"
         style="fill:#df004c;fill-rule:nonzero;stroke:#df004c;stroke-width:0"
         id="polygon9"
         points="277.15,167.45 250.82,167.45 247.45,151.56 273.77,151.56 277.15,167.45 " /><path
         id="path13"
         transform="matrix(0.8000051,0,0,-0.8000051,164.67479,280.64898)"
         d="m 143.8125,217.625 -22.0625,108.15625 110.03125,0 -6.46875,30.40625 32.90625,0 8.09375,-38.03125 0.3125,0 c 4.26248,6.2112 14.41259,11.03125 29,11.03125 24.96235,-10e-6 44.22506,-12.85886 53.4375,-30.65625 l -5.78125,27.25 32.90625,0 L 382.625,295.5 c 0.1625,22.9186 18.43146,33.6875 50.59375,33.6875 36.26227,-10e-6 55.43132,-13.17265 65.65625,-36.40625 l -34.8125,0 c -4.64999,9.81994 -13.72508,14.6875 -25.625,14.6875 -15.82488,-10e-6 -23.00623,-8.53635 -19.78125,-23.75 3.23747,-15.21242 14.3751,-23.75 29.75,-23.75 l 1.15625,0 1.09375,0.0312 1.09375,0.0625 1.03125,0.0937 1,0.125 0.96875,0.125 0.9375,0.15625 0.875,0.1875 0.875,0.1875 0.8125,0.25 0.78125,0.25 0.75,0.28125 L 460.5,262 l 0.65625,0.3125 0.65625,0.34375 0.59375,0.375 0.5625,0.375 0.53125,0.40625 0.5,0.4375 0.5,0.46875 0.4375,0.46875 0.375,0.5 0.375,0.5 0.34375,0.53125 0.3125,0.5625 0.28125,0.5625 0.21875,0.59375 0.21875,0.625 0.1875,0.625 0.15625,0.65625 0.0937,0.6875 0.0937,0.6875 34.125,0 C 502.83124,247.08141 482.83731,238.25 452.5625,238.25 c -31.32479,-1e-5 -55.04381,11.2939 -65.03125,34.09375 l 6.53125,-30.6875 -32.90625,0 -6.0625,28.5 c -1.425,-19.77486 -16.46891,-30.6875 -40.71875,-30.6875 -13.34992,0 -26.01256,4.8063 -34.8125,13.34375 l -0.3125,0 2.375,-11.15625 -31.96875,0 -12.78125,60.21875 -73.125,0 3.5,-18.875 65.28125,0 4.875,-22.96875 -65.25,0 3.5,-18.5 74.0625,0 5.0625,-23.90625 -110.96875,0 z m 157.78125,44.8125 c 15.06241,10e-6 21.68123,7.47509 18.71875,21.4375 l -0.28125,1.28125 -0.34375,1.25 -0.375,1.21875 -0.4375,1.1875 -0.4375,1.125 -0.5,1.09375 -0.53125,1.0625 -0.5625,1.03125 -0.625,0.96875 -0.625,0.9375 -0.6875,0.90625 -0.75,0.84375 -0.75,0.8125 -0.78125,0.78125 -0.84375,0.75 -0.84375,0.6875 -0.90625,0.65625 -0.9375,0.625 -0.96875,0.5625 -1,0.53125 -1.03125,0.5 -1.09375,0.4375 -1.09375,0.40625 -1.15625,0.375 -1.15625,0.3125 -1.21875,0.28125 -1.21875,0.25 -1.28125,0.1875 -1.3125,0.15625 -1.3125,0.0937 -1.375,0.0625 -1.40625,0.0312 c -15.37489,-1e-5 -21.64998,-8.36383 -18.875,-21.40625 2.77497,-13.03743 12.6376,-21.4375 28,-21.4375 z"
         style="fill:#df004c;fill-rule:nonzero;stroke:#df004c;stroke-width:0"
         inkscape:connector-curvature="0" /></g></g></svg>
