<?xml version="1.0" encoding="utf-8"?>
<!-- Generator: Adobe Illustrator 18.1.1, SVG Export Plug-In . SVG Version: 6.00 Build 0)  -->
<svg version="1.1" xmlns="http://www.w3.org/2000/svg" xmlns:xlink="http://www.w3.org/1999/xlink" x="0px" y="0px"
	 viewBox="0 0 212.5 99" enable-background="new 0 0 212.5 99" xml:space="preserve">
<g id="Loblaw_Digital">
</g>
<g id="Phoenix">
</g>
<g id="Magnet_Forensics_1_">
</g>
<g id="Bloomberg">
</g>
<g id="Wish">
</g>
<g id="lani">
</g>
<g id="Yelp">
</g>
<g id="Mozilla">
</g>
<g id="Microsoft">
</g>
<g id="Facebook">
</g>
<g id="Kik_1_">
</g>
<g id="D2L">
</g>
<g id="Linode">
</g>
<g id="Braintree">
</g>
<g id="Velocity">
</g>
<g id="citi">
</g>
<g id="Course_Hero">
</g>
<g id="square">
	<g id="square_1_">
		<g>
			<path fill="#010101" d="M191.6,51h20.8c0.3,0,0.5-0.2,0.5-0.5c0.1-0.3,0-0.6,0-0.6c0-7.3-5.7-12.7-12.5-12.7
				c-6.9,0-12.4,5.7-12.4,12.5c0,7.1,5.8,12.6,12.8,12.5h0.2c4.6,0,8.6-2.6,10.6-6.5c0.1-0.3-0.1-0.5-0.4-0.5h-2.7h-0.1
				c-0.3,0-0.5,0.2-0.8,0.6c-1.3,1.7-3.9,3.1-6.7,3.1l0,0C195.3,58.8,192.5,55.1,191.6,51z M191.6,48c0.9-4.2,4.4-7.1,8.6-7.1
				c4.4,0,7.7,3.1,8.6,7.1H191.6z"/>
			<path fill="#010101" d="M75.9,42.6c-5-1.2-5.8-2.6-5.8-5.3c0-2.9,2.7-5.4,5.9-5.4c3.9,0,6.1,2.5,6.2,5.2c0,0.3,0.2,0.5,0.5,0.5
				h2.6c0.3,0,0.5-0.2,0.5-0.5c0-2.2-1.1-4.5-3-6.1c-1.8-1.6-4.4-2.6-6.9-2.6c-5.4,0-9.6,4.1-9.6,8.9c0,2.5,0.7,4.4,2.2,5.8
				c1.4,1.3,3.4,2.3,6.4,3c7,1.7,8.5,3.7,8.5,6.2c0.1,3.4-3.6,6.3-7.3,6.2c-5-0.1-7-3.6-7.2-5.7c0-0.4-0.2-0.5-0.5-0.5h-2.5
				c-0.3,0-0.5,0.2-0.5,0.5c0,2.1,2.1,9.1,10.9,9.4l0,0c2.9,0,5.6-1,7.6-2.8c2.1-1.9,3.3-4.4,3.3-7C87.2,46.1,81.5,43.9,75.9,42.6z"
				/>
			<path fill="#010101" d="M169.2,38.2h-2.8c-0.2,0-0.4,0.2-0.4,0.4v3.1c-2-2.6-5.1-4.1-8.6-4.1c-7,0-12.6,5.4-12.6,12.2
				c0,6.9,5.5,12.3,12.6,12.3c3.6,0,6.6-1.5,8.6-4.1v3.1c0,0.2,0.2,0.4,0.4,0.4h2.8c0.2,0,0.4-0.2,0.4-0.4V38.8v-0.1
				C169.6,38.4,169.5,38.2,169.2,38.2z M157.4,58.9c-5.3,0-9-3.8-9-8.9c0-5.3,3.8-9.1,9-9.1c4.9,0,8.8,4.1,8.8,9
				C166.2,55,162.3,58.9,157.4,58.9z"/>
			<path fill="#010101" d="M111.8,70.5c0,0.2,0.2,0.4,0.4,0.4h2.8c0.2,0,0.4-0.2,0.4-0.4V38.8v-0.1c0-0.2-0.2-0.4-0.4-0.4h-2.8
				c-0.2,0-0.4,0.2-0.4,0.4v3c-2-2.6-5.1-4.1-8.6-4.1c-7,0-12.6,5.4-12.6,12.2c0,6.9,5.5,12.3,12.6,12.3c3.5,0,6.6-1.5,8.6-4V70.5z
				 M103.1,58.9c-5.3,0-9-3.8-9-8.9c0-5.3,3.8-9.1,9-9.1c4.9,0,8.8,4.1,8.8,9C111.9,55,108,58.9,103.1,58.9z"/>
			<path fill="#010101" d="M137.5,61.2c0,0.2,0.2,0.4,0.4,0.4h2.8c0.2,0,0.4-0.2,0.4-0.4V38.6c0-0.2-0.2-0.4-0.4-0.4h-2.8
				c-0.2,0-0.4,0.2-0.4,0.4v11.9c0,2.7-0.4,4.9-2.3,6.6c-1.3,1.2-2.7,1.8-4.7,1.8c-4.5,0-6.6-2.6-6.6-7.9V38.6
				c0-0.2-0.2-0.4-0.4-0.4h-2.8c-0.2,0-0.4,0.2-0.4,0.4v12.5c0,3.4,0.7,5.8,2.1,7.5c1.8,2.3,4.8,3.6,8.1,3.6c3,0,5.5-1.2,6.9-3.2
				V61.2z"/>
			<path fill="#010101" d="M179,38.6c0-0.2-0.2-0.4-0.4-0.4h-2.8c-0.2,0-0.4,0.2-0.4,0.4v22.6c0,0.2,0.2,0.4,0.4,0.4h2.8
				c0.2,0,0.4-0.2,0.4-0.4V49.9c0-5,3.8-9,8.6-9l0,0c0.4,0,0.5-0.2,0.5-0.5v-2.2c0-0.4-0.2-0.5-0.5-0.6c-3.6,0-6.7,1.5-8.6,4.1V38.6
				z"/>
			<g>
				<path fill="#020202" d="M42.8,19.6H8.6c-4.8,0-8.6,3.9-8.6,8.6v34.2C0,67.2,3.9,71,8.6,71h34.2c4.8,0,8.6-3.9,8.6-8.6V28.2
					C51.3,23.5,47.6,19.6,42.8,19.6z M42,58.9c0,1.5-1.2,2.7-2.7,2.7H12.1c-1.5,0-2.7-1.2-2.7-2.7V31.7c0-1.5,1.2-2.7,2.7-2.7h27.3
					c1.5,0,2.7,1.2,2.7,2.7V58.9z"/>
				<path fill="#020202" d="M20.2,52.3c-0.9,0-1.6-0.7-1.6-1.6V39.8c0-0.9,0.7-1.6,1.6-1.6h10.9c0.9,0,1.6,0.7,1.6,1.6v10.9
					c0,0.9-0.7,1.6-1.6,1.6H20.2z"/>
			</g>
		</g>
	</g>
</g>
<g id="Capco">
</g>
</svg>
