<?xml version="1.0" encoding="UTF-8" standalone="no"?>
<!-- Generator: Adobe Illustrator 16.0.0, SVG Export Plug-In . SVG Version: 6.00 Build 0)  -->

<svg
   xmlns:dc="http://purl.org/dc/elements/1.1/"
   xmlns:cc="http://creativecommons.org/ns#"
   xmlns:rdf="http://www.w3.org/1999/02/22-rdf-syntax-ns#"
   xmlns:svg="http://www.w3.org/2000/svg"
   xmlns="http://www.w3.org/2000/svg"
   xmlns:xlink="http://www.w3.org/1999/xlink"
   xmlns:sodipodi="http://sodipodi.sourceforge.net/DTD/sodipodi-0.dtd"
   xmlns:inkscape="http://www.inkscape.org/namespaces/inkscape"
   version="1.1"
   id="Layer_1"
   x="0px"
   y="0px"
   width="350.18701"
   height="288.33899"
   viewBox="0 0 350.18702 288.339"
   enable-background="new 0 0 469.663 244.943"
   xml:space="preserve"
   inkscape:version="0.91 r13725"
   sodipodi:docname="logos_namecheap.svg"><metadata
     id="metadata81"><rdf:RDF><cc:Work
         rdf:about=""><dc:format>image/svg+xml</dc:format><dc:type
           rdf:resource="http://purl.org/dc/dcmitype/StillImage" /><dc:title></dc:title></cc:Work></rdf:RDF></metadata><defs
     id="defs79" /><sodipodi:namedview
     pagecolor="#ffffff"
     bordercolor="#666666"
     borderopacity="1"
     objecttolerance="10"
     gridtolerance="10"
     guidetolerance="10"
     inkscape:pageopacity="0"
     inkscape:pageshadow="2"
     inkscape:window-width="640"
     inkscape:window-height="480"
     id="namedview77"
     showgrid="false"
     inkscape:zoom="0.66004774"
     inkscape:cx="122.35943"
     inkscape:cy="172.6626"
     inkscape:window-x="0"
     inkscape:window-y="0"
     inkscape:window-maximized="0"
     inkscape:current-layer="Layer_1"
     fit-margin-top="20"
     fit-margin-left="0"
     fit-margin-right="0"
     fit-margin-bottom="70" /><g
     id="g3"
     transform="translate(-62.336,-14.794996)"><path
       d="m 327.954,34.795 c -7.402,0 -13.848,4.096 -17.206,10.14 l -0.416,0.811 -15.469,30.452 -19.541,38.496 12.8,25.215 0.706,1.389 c 1.966,3.48 4.954,6.299 8.549,8.074 3.595,-1.772 6.58,-4.594 8.549,-8.074 l 0.703,-1.389 38.417,-75.659 0.92,-1.813 c 1.074,-2.435 1.684,-5.118 1.684,-7.948 0,-10.876 -8.816,-19.694 -19.696,-19.694"
       id="path5"
       inkscape:connector-curvature="0"
       style="fill:#f05423" /><path
       d="m 209.46,71.425 -12.759,-25.116 -0.703,-1.392 c -1.963,-3.475 -4.945,-6.29 -8.531,-8.062 -3.586,1.772 -6.56,4.585 -8.52,8.057 l -0.706,1.392 -38.414,75.662 -0.92,1.81 c -1.078,2.432 -1.685,5.116 -1.685,7.946 0,10.878 8.815,19.693 19.693,19.693 7.403,0 13.849,-4.096 17.209,-10.134 l 0.413,-0.814 15.466,-30.454 19.52,-38.449 -0.063,-0.139"
       id="path7"
       inkscape:connector-curvature="0"
       style="fill:#f05423" /><g
       id="g9"><defs
         id="defs11"><path
           id="SVGID_1_"
           d="m 297.342,149.372 c -3.595,-1.775 -6.583,-4.594 -8.549,-8.074 l -0.706,-1.389 -12.8,-25.215 19.544,-38.496 15.466,-30.452 0.412,-0.811 c 3.36,-6.044 9.807,-10.14 17.213,-10.14 0.004,0 0.009,0 0.013,0 -7.396,0.007 -13.832,4.101 -17.188,10.14 l -0.416,0.811 -15.469,30.452 -19.541,38.496 12.8,25.215 0.706,1.389 c 1.963,3.475 4.945,6.29 8.531,8.065 -0.004,0.003 -0.01,0.006 -0.016,0.009"
           inkscape:connector-curvature="0" /></defs><clipPath
         id="SVGID_2_"><use
           xlink:href="#SVGID_1_"
           overflow="visible"
           id="use15"
           style="overflow:visible"
           x="0"
           y="0"
           width="100%"
           height="100%" /></clipPath><g
         transform="translate(0,-3.814697e-6)"
         clip-path="url(#SVGID_2_)"
         id="g17"><image
           sodipodi:absref="/Users/arthurwang/Documents/hackthenorth.com/static/img/logos/B652E48F4B10A95A.jpg"
           xlink:href="B652E48F4B10A95A.jpg"
           overflow="visible"
           width="222"
           height="480"
           transform="matrix(0.2413,0,0,0.2406,274.7129,34.3906)"
           id="image19"
           style="overflow:visible" /></g></g><g
       id="g21"><defs
         id="defs23"><path
           id="SVGID_3_"
           d="m 297.359,149.363 c -3.586,-1.775 -6.568,-4.59 -8.531,-8.065 l -0.706,-1.389 -12.8,-25.215 19.541,-38.496 15.469,-30.452 0.416,-0.811 c 3.355,-6.039 9.791,-10.133 17.188,-10.14 10.869,0.006 19.674,8.822 19.674,19.693 0,2.83 -0.603,5.514 -1.678,7.948 l -0.92,1.813 -38.414,75.659 -0.706,1.389 c -1.967,3.476 -4.946,6.294 -8.533,8.066"
           inkscape:connector-curvature="0" /></defs><clipPath
         id="SVGID_4_"><use
           xlink:href="#SVGID_3_"
           overflow="visible"
           id="use27"
           style="overflow:visible"
           x="0"
           y="0"
           width="100%"
           height="100%" /></clipPath><g
         transform="translate(-3.051758e-5,0)"
         clip-path="url(#SVGID_4_)"
         id="g29"><image
           sodipodi:absref="/Users/arthurwang/Documents/hackthenorth.com/static/img/logos/B652E48F4B10A95B.jpg"
           xlink:href="B652E48F4B10A95B.jpg"
           overflow="visible"
           width="304"
           height="480"
           transform="matrix(0.2409,0,0,0.2406,274.7129,34.3906)"
           id="image31"
           style="overflow:visible" /></g></g><g
       id="g33"><defs
         id="defs35"><path
           id="SVGID_5_"
           d="m 156.901,151.426 c -10.872,0 -19.69,-8.818 -19.69,-19.693 0,-2.83 0.609,-5.514 1.682,-7.948 l 0.926,-1.813 38.412,-75.659 0.703,-1.392 c 1.246,-2.204 2.902,-4.144 4.861,-5.719 -1.955,1.574 -3.604,3.509 -4.847,5.71 l -0.706,1.392 -38.414,75.662 -0.92,1.81 c -1.078,2.432 -1.685,5.116 -1.685,7.946 0,10.878 8.815,19.693 19.693,19.693 5.443,0 10.369,-2.214 13.931,-5.786 -3.564,3.579 -8.495,5.797 -13.946,5.797 m 52.619,-79.873 -0.06,-0.128 -12.759,-25.116 -0.703,-1.392 c -1.962,-3.474 -4.944,-6.289 -8.528,-8.061 0.005,-0.002 0.01,-0.005 0.014,-0.007 3.595,1.772 6.583,4.594 8.549,8.071 l 0.703,1.392 12.8,25.21 -0.016,0.031"
           inkscape:connector-curvature="0" /></defs><clipPath
         id="SVGID_6_"><use
           xlink:href="#SVGID_5_"
           overflow="visible"
           id="use39"
           style="overflow:visible"
           x="0"
           y="0"
           width="100%"
           height="100%" /></clipPath><g
         transform="translate(1.525879e-5,3.814697e-6)"
         clip-path="url(#SVGID_6_)"
         id="g41"><image
           sodipodi:absref="/Users/arthurwang/Documents/hackthenorth.com/static/img/logos/B652E48F4B10A95E.jpg"
           xlink:href="B652E48F4B10A95E.jpg"
           overflow="visible"
           width="305"
           height="480"
           transform="matrix(0.2402,0,0,0.2406,136.7129,36.3105)"
           id="image43"
           style="overflow:visible" /></g></g><g
       id="g45"><defs
         id="defs47"><path
           id="SVGID_7_"
           d="m 156.916,151.414 c -10.878,0 -19.693,-8.815 -19.693,-19.693 0,-2.83 0.606,-5.514 1.685,-7.946 l 0.92,-1.81 38.414,-75.662 0.706,-1.392 c 1.243,-2.201 2.892,-4.136 4.847,-5.71 1.131,-0.91 2.362,-1.698 3.676,-2.345 3.584,1.772 6.566,4.587 8.528,8.061 l 0.703,1.392 12.759,25.116 0.06,0.128 -19.528,38.47 -15.466,30.451 -0.41,0.811 c -0.887,1.596 -1.99,3.057 -3.269,4.342 -3.563,3.573 -8.489,5.787 -13.932,5.787"
           inkscape:connector-curvature="0" /></defs><clipPath
         id="SVGID_8_"><use
           xlink:href="#SVGID_7_"
           overflow="visible"
           id="use51"
           style="overflow:visible"
           x="0"
           y="0"
           width="100%"
           height="100%" /></clipPath><g
         transform="translate(1.525879e-5,3.814697e-6)"
         clip-path="url(#SVGID_8_)"
         id="g53"><image
           sodipodi:absref="/Users/arthurwang/Documents/hackthenorth.com/static/img/logos/B652E48F4B10A95F.jpg"
           xlink:href="B652E48F4B10A95F.jpg"
           overflow="visible"
           width="304"
           height="480"
           transform="matrix(0.2402,0,0,0.2406,136.9531,36.3105)"
           id="image55"
           style="overflow:visible" /></g></g><path
       d="m 209.46,71.425 -12.759,-25.116 -0.703,-1.392 c -1.966,-3.48 -4.954,-6.302 -8.549,-8.074 1.184,-0.577 2.435,-1.055 3.739,-1.395 1.587,-0.413 3.254,-0.645 4.971,-0.647 l 0.027,0 0.02,0 26.464,0.003 0.135,-0.003 0.135,0.003 c 7.371,0.053 13.781,4.113 17.168,10.113 l 0.708,1.392 34.577,68.481 12.75,25.119 0.703,1.389 c 1.969,3.48 4.957,6.302 8.554,8.074 -1.186,0.577 -2.437,1.052 -3.735,1.392 -1.597,0.416 -3.255,0.647 -4.977,0.647 l -0.027,0.003 -0.023,-0.003 -26.467,-0.003 -0.129,0.006 -0.141,-0.006 c -7.365,-0.05 -13.769,-4.113 -17.162,-10.11 l -0.709,-1.389 -34.57,-68.484 0,0 z"
       id="path57"
       inkscape:connector-curvature="0"
       style="fill:#f58858" /><path
       d="m 62.337,184.9 c 0,-1.166 0.653,-1.828 1.819,-1.828 l 1.315,0 c 1.093,0 1.746,0.662 1.746,1.828 l 0,4.228 c 0,1.456 -0.293,2.622 -0.293,2.622 l 0.149,0 c 1.383,-3.354 6.19,-9.551 14.792,-9.551 9.111,0 12.319,5.18 12.319,14.215 l 0,21.499 c 0,1.166 -0.656,1.822 -1.822,1.822 l -1.386,0 c -1.166,0 -1.746,-0.656 -1.746,-1.822 l 0,-20.186 c 0,-5.76 -0.949,-10.864 -8.021,-10.864 -7.796,0 -13.919,6.416 -13.919,14.945 l 0,16.104 c 0,1.166 -0.583,1.822 -1.749,1.822 l -1.386,0 c -1.166,0 -1.819,-0.656 -1.819,-1.822 l 0,-33.012 0.001,0 z"
       id="path59"
       inkscape:connector-curvature="0"
       style="fill:#6d6e71" /><path
       d="m 111.749,216.453 c 7.069,0 11.221,-7.287 11.221,-13.699 l 0,-1.749 -2.039,0 c -5.76,0 -17.347,0.22 -17.347,8.455 0,3.425 2.698,6.993 8.165,6.993 l 0,0 z m 9.111,-19.169 2.109,0 0,-1.163 c 0,-7.069 -3.861,-9.474 -9.035,-9.474 -4.081,0 -7.213,1.529 -8.889,2.551 -1.025,0.51 -1.822,0.364 -2.481,-0.583 l -0.437,-0.729 c -0.583,-0.946 -0.437,-1.893 0.51,-2.476 1.896,-1.166 5.977,-3.211 11.663,-3.211 8.745,0 13.629,4.884 13.629,14.069 l 0,21.645 c 0,1.166 -0.589,1.822 -1.749,1.822 l -1.166,0 c -1.169,0 -1.822,-0.585 -1.822,-1.822 l 0,-2.915 c 0,-1.673 0.22,-2.769 0.22,-2.769 l -0.146,0 c 0.07,0 -3.278,8.382 -12.393,8.382 -6.193,0 -12.387,-3.645 -12.387,-10.711 0,-11.954 15.308,-12.616 22.374,-12.616 l 0,0 z"
       id="path61"
       inkscape:connector-curvature="0"
       style="fill:#6d6e71" /><path
       d="m 134.996,184.9 c 0,-1.166 0.656,-1.828 1.822,-1.828 l 1.312,0 c 1.093,0 1.752,0.662 1.752,1.828 l 0,4.228 c 0,1.456 -0.293,2.622 -0.293,2.622 l 0.146,0 c 1.822,-4.957 7.723,-9.551 13.482,-9.551 6.776,0 10.274,3.132 11.297,9.182 l 0.143,0 c 2.042,-4.664 7.363,-9.182 13.486,-9.182 8.891,0 12.17,5.18 12.17,14.215 l 0,21.499 c 0,1.166 -0.657,1.822 -1.82,1.822 l -1.315,0 c -1.163,0 -1.825,-0.656 -1.825,-1.822 l 0,-20.263 c 0,-5.973 -1.234,-10.933 -7.867,-10.933 -7.365,0 -12.316,7.728 -12.316,15.31 l 0,15.885 c 0,1.166 -0.583,1.822 -1.752,1.822 l -1.386,0 c -1.163,0 -1.819,-0.656 -1.819,-1.822 l 0,-20.262 c 0,-5.534 -0.803,-10.933 -7.726,-10.933 -7.436,0 -12.536,7.875 -12.536,15.31 l 0,15.885 c 0,1.166 -0.586,1.822 -1.749,1.822 l -1.386,0 c -1.166,0 -1.822,-0.656 -1.822,-1.822 l 0,-33.012 0.002,0 z"
       id="path63"
       inkscape:connector-curvature="0"
       style="fill:#6d6e71" /><path
       d="m 223.329,197.794 c -0.293,-7.726 -4.954,-11.517 -10.424,-11.517 -6.123,0 -11.446,4.087 -12.606,11.517 l 23.03,0 0,0 z m -10.274,-15.595 c 9.764,0 15.302,7.073 15.302,17.493 0,1.017 -0.797,1.82 -1.896,1.82 l -26.382,0 c 0.22,9.334 6.633,14.651 14.212,14.651 4.591,0 7.942,-2.036 9.621,-3.354 1.02,-0.651 1.822,-0.51 2.405,0.439 l 0.583,0.879 c 0.51,0.87 0.364,1.746 -0.512,2.402 -1.966,1.459 -6.337,4.081 -12.243,4.081 -10.931,0 -19.169,-7.873 -19.169,-19.169 0,-12.023 8.165,-19.242 18.079,-19.242 l 0,0 z"
       id="path65"
       inkscape:connector-curvature="0"
       style="fill:#6d6e71" /><path
       d="m 251.97,182.199 c 6.269,0 10.35,2.701 12.17,4.155 0.876,0.659 0.946,1.532 0.219,2.478 l -0.509,0.806 c -0.654,1.016 -1.456,1.016 -2.479,0.366 -1.602,-1.242 -4.81,-3.357 -9.258,-3.357 -8.012,0 -14.285,6.049 -14.285,14.794 0,8.672 6.273,14.722 14.359,14.722 5.106,0 8.604,-2.408 10.35,-3.864 0.949,-0.727 1.749,-0.58 2.408,0.439 l 0.507,0.733 c 0.58,0.946 0.366,1.746 -0.436,2.473 -1.896,1.539 -6.267,4.667 -13.046,4.667 -10.934,0 -19.239,-7.802 -19.239,-19.169 0,-11.297 8.378,-19.243 19.239,-19.243 l 0,0 z"
       id="path67"
       inkscape:connector-curvature="0"
       style="fill:#6d6e71" /><path
       d="m 270.409,170.322 c 0,-1.166 0.58,-1.822 1.746,-1.822 l 1.386,0 c 1.169,0 1.825,0.656 1.825,1.822 l 0,18.293 c 0,1.673 -0.293,2.992 -0.293,2.992 l 0.144,0 c 1.386,-3.431 6.34,-9.408 14.651,-9.408 9.109,0 12.317,5.18 12.317,14.215 l 0,21.499 c 0,1.166 -0.583,1.822 -1.749,1.822 l -1.383,0 c -1.169,0 -1.822,-0.656 -1.822,-1.822 l 0,-20.186 c 0,-5.76 -0.876,-10.864 -8.019,-10.864 -7.726,0 -13.846,6.346 -13.846,15.164 l 0,15.885 c 0,1.166 -0.656,1.822 -1.825,1.822 l -1.386,0 c -1.166,0 -1.746,-0.656 -1.746,-1.822 l 0,-47.59 0,0 z"
       id="path69"
       inkscape:connector-curvature="0"
       style="fill:#6d6e71" /><path
       d="m 335.27,197.794 c -0.287,-7.726 -4.954,-11.517 -10.421,-11.517 -6.123,0 -11.444,4.087 -12.61,11.517 l 23.031,0 0,0 z m -10.272,-15.595 c 9.766,0 15.306,7.073 15.306,17.493 0,1.017 -0.807,1.82 -1.896,1.82 l -26.384,0 c 0.216,9.334 6.632,14.651 14.211,14.651 4.591,0 7.946,-2.036 9.622,-3.354 1.016,-0.651 1.822,-0.51 2.405,0.439 l 0.583,0.879 c 0.507,0.87 0.362,1.746 -0.511,2.402 -1.972,1.459 -6.343,4.081 -12.245,4.081 -10.932,0 -19.167,-7.873 -19.167,-19.169 0,-12.023 8.159,-19.242 18.076,-19.242 l 0,0 z"
       id="path71"
       inkscape:connector-curvature="0"
       style="fill:#6d6e71" /><path
       d="m 355.82,216.453 c 7.07,0 11.228,-7.287 11.228,-13.699 l 0,-1.749 -2.039,0 c -5.761,0 -17.353,0.22 -17.353,8.455 0,3.425 2.696,6.993 8.164,6.993 l 0,0 z m 9.113,-19.169 2.115,0 0,-1.163 c 0,-7.069 -3.867,-9.474 -9.038,-9.474 -4.081,0 -7.216,1.529 -8.892,2.551 -1.019,0.51 -1.825,0.364 -2.478,-0.583 l -0.438,-0.729 c -0.583,-0.946 -0.438,-1.893 0.507,-2.476 1.896,-1.166 5.982,-3.211 11.663,-3.211 8.748,0 13.63,4.884 13.63,14.069 l 0,21.645 c 0,1.166 -0.58,1.822 -1.75,1.822 l -1.165,0 c -1.166,0 -1.822,-0.585 -1.822,-1.822 l 0,-2.915 c 0,-1.673 0.219,-2.769 0.219,-2.769 l -0.143,0 c 0.069,0 -3.281,8.382 -12.393,8.382 -6.192,0 -12.392,-3.645 -12.392,-10.711 0,-11.954 15.306,-12.616 22.377,-12.616 l 0,0 z"
       id="path73"
       inkscape:connector-curvature="0"
       style="fill:#6d6e71" /><path
       d="m 395.545,216.163 c 6.557,0 11.88,-5.394 11.88,-14.722 0,-8.964 -4.814,-14.724 -11.591,-14.724 -6.122,0 -11.883,4.377 -11.883,14.795 0,7.365 4.084,14.651 11.594,14.651 l 0,0 z m -16.4,-31.263 c 0,-1.166 0.586,-1.828 1.749,-1.828 l 1.166,0 c 1.166,0 1.749,0.662 1.749,1.679 l 0,2.628 c 0,1.453 -0.217,2.479 -0.217,2.479 l 0.143,0 c 0,0 3.135,-7.659 12.827,-7.659 9.84,0 15.961,7.869 15.961,19.242 0,11.587 -6.923,19.169 -16.471,19.169 -8.89,0 -12.101,-7.436 -12.101,-7.436 l -0.143,0 c 0,0 0.29,1.312 0.29,3.205 l 0,14.934 c 0,1.165 -0.654,1.821 -1.823,1.821 l -1.382,0 c -1.163,0 -1.749,-0.656 -1.749,-1.821 l 0,-46.413 10e-4,0 z"
       id="path75"
       inkscape:connector-curvature="0"
       style="fill:#6d6e71" /></g></svg>