<?xml version="1.0" encoding="utf-8"?>
<!-- Generator: Adobe Illustrator 18.1.1, SVG Export Plug-In . SVG Version: 6.00 Build 0)  -->
<svg version="1.1" xmlns="http://www.w3.org/2000/svg" xmlns:xlink="http://www.w3.org/1999/xlink" x="0px" y="0px"
	 viewBox="0 0 115.4 46.2" enable-background="new 0 0 115.4 46.2" xml:space="preserve">
<g id="Loblaw_Digital">
</g>
<g id="Phoenix">
</g>
<g id="Magnet_Forensics_1_">
</g>
<g id="Bloomberg">
</g>
<g id="Wish">
</g>
<g id="lani">
</g>
<g id="Yelp">
</g>
<g id="Mozilla">
</g>
<g id="Microsoft">
</g>
<g id="Facebook">
</g>
<g id="Kik_1_">
</g>
<g id="D2L">
</g>
<g id="Linode">
</g>
<g id="Braintree">
</g>
<g id="Velocity">
	<g id="velocity">
		<g>
			<g>
				<path fill="#231F20" d="M94.2,11.8c-0.7,0-1.3,0.6-1.3,1.3s0.6,1.3,1.3,1.3c0.7,0,1.3-0.6,1.3-1.3S94.9,11.8,94.2,11.8"/>
				<path fill="#231F20" d="M97.5,11.8c-0.7,0-1.3,0.6-1.3,1.3s0.6,1.3,1.3,1.3c0.7,0,1.3-0.6,1.3-1.3
					C98.9,12.3,98.2,11.8,97.5,11.8"/>
				<path fill="#231F20" d="M100.9,11.8c-0.7,0-1.3,0.6-1.3,1.3s0.6,1.3,1.3,1.3c0.7,0,1.3-0.6,1.3-1.3S101.6,11.8,100.9,11.8"/>
				<path fill="#231F20" d="M104.3,11.8c-0.7,0-1.3,0.6-1.3,1.3s0.6,1.3,1.3,1.3c0.7,0,1.3-0.6,1.3-1.3
					C105.6,12.3,105,11.8,104.3,11.8"/>
				<path fill="#231F20" d="M107.7,11.8c-0.7,0-1.3,0.6-1.3,1.3s0.6,1.3,1.3,1.3c0.7,0,1.3-0.6,1.3-1.3S108.4,11.8,107.7,11.8"/>
				<path fill="#231F20" d="M111,11.8c-0.7,0-1.3,0.6-1.3,1.3s0.6,1.3,1.3,1.3c0.7,0,1.3-0.6,1.3-1.3
					C112.4,12.3,111.7,11.8,111,11.8"/>
				<path fill="#231F20" d="M90.8,11.8c-0.7,0-1.3,0.6-1.3,1.3s0.6,1.3,1.3,1.3c0.7,0,1.3-0.6,1.3-1.3
					C92.1,12.3,91.5,11.8,90.8,11.8"/>
				<path fill="#231F20" d="M87.4,12c-0.6,0-1,0.5-1,1s0.5,1,1,1s1-0.5,1-1S88,12,87.4,12"/>
				<path fill="#231F20" d="M114.4,12c-0.6,0-1,0.5-1,1s0.5,1,1,1c0.6,0,1-0.5,1-1S115,12,114.4,12"/>
				<path fill="#231F20" d="M84,12.4c-0.4,0-0.7,0.3-0.7,0.7c0,0.4,0.3,0.7,0.7,0.7s0.7-0.3,0.7-0.7C84.8,12.7,84.4,12.4,84,12.4"/>
				<path fill="#231F20" d="M94.2,8.3c-0.7,0-1.3,0.6-1.3,1.3s0.6,1.3,1.3,1.3c0.7,0,1.3-0.6,1.3-1.3S94.9,8.3,94.2,8.3"/>
				<path fill="#231F20" d="M97.5,8.3c-0.7,0-1.3,0.6-1.3,1.3s0.6,1.3,1.3,1.3c0.7,0,1.3-0.6,1.3-1.3S98.2,8.3,97.5,8.3"/>
				<path fill="#231F20" d="M100.9,8.3c-0.7,0-1.3,0.6-1.3,1.3s0.6,1.3,1.3,1.3c0.7,0,1.3-0.6,1.3-1.3S101.6,8.3,100.9,8.3"/>
				<path fill="#231F20" d="M104.3,8.3c-0.7,0-1.3,0.6-1.3,1.3s0.6,1.3,1.3,1.3c0.7,0,1.3-0.6,1.3-1.3S105,8.3,104.3,8.3"/>
				<path fill="#231F20" d="M90.8,8.3c-0.7,0-1.3,0.6-1.3,1.3s0.6,1.3,1.3,1.3c0.7,0,1.3-0.6,1.3-1.3S91.5,8.3,90.8,8.3"/>
				<path fill="#231F20" d="M87.4,8.5c-0.6,0-1,0.5-1,1c0,0.6,0.5,1,1,1s1-0.5,1-1C88.5,9,88,8.5,87.4,8.5"/>
				<path fill="#231F20" d="M84,8.8c-0.4,0-0.7,0.3-0.7,0.7s0.3,0.7,0.7,0.7s0.7-0.3,0.7-0.7C84.8,9.1,84.4,8.8,84,8.8"/>
				<path fill="#231F20" d="M80.7,8.8c-0.4,0-0.7,0.3-0.7,0.7s0.3,0.7,0.7,0.7s0.7-0.3,0.7-0.7C81.4,9.1,81,8.8,80.7,8.8"/>
				<path fill="#231F20" d="M63.8,9.1c-0.3,0-0.5,0.2-0.5,0.5c0,0.3,0.2,0.5,0.5,0.5s0.5-0.2,0.5-0.5C64.3,9.3,64,9.1,63.8,9.1"/>
				<path fill="#231F20" d="M73.9,16.2c-0.3,0-0.5,0.2-0.5,0.5s0.2,0.5,0.5,0.5s0.5-0.2,0.5-0.5C74.3,16.4,74.1,16.2,73.9,16.2"/>
				<path fill="#231F20" d="M80.7,12.6c-0.3,0-0.5,0.2-0.5,0.5c0,0.3,0.2,0.5,0.5,0.5s0.5-0.2,0.5-0.5
					C81.1,12.8,80.9,12.6,80.7,12.6"/>
				<path fill="#231F20" d="M87.4,5.6c-0.3,0-0.5,0.2-0.5,0.5c0,0.3,0.2,0.5,0.5,0.5s0.5-0.2,0.5-0.5C87.8,5.8,87.6,5.6,87.4,5.6"/>
				<path fill="#231F20" d="M84,5.6c-0.3,0-0.5,0.2-0.5,0.5c0,0.3,0.2,0.5,0.5,0.5s0.5-0.2,0.5-0.5C84.5,5.8,84.3,5.6,84,5.6"/>
				<path fill="#231F20" d="M84,19.7c-0.3,0-0.5,0.2-0.5,0.5s0.2,0.5,0.5,0.5s0.5-0.2,0.5-0.5C84.5,19.9,84.3,19.7,84,19.7"/>
				<path fill="#231F20" d="M90.8,19.7c-0.3,0-0.5,0.2-0.5,0.5s0.2,0.5,0.5,0.5s0.5-0.2,0.5-0.5S91,19.7,90.8,19.7"/>
				<path fill="#231F20" d="M94.2,19.7c-0.3,0-0.5,0.2-0.5,0.5s0.2,0.5,0.5,0.5s0.5-0.2,0.5-0.5C94.6,19.9,94.4,19.7,94.2,19.7"/>
				<path fill="#231F20" d="M70.5,16.2c-0.3,0-0.5,0.2-0.5,0.5s0.2,0.5,0.5,0.5s0.5-0.2,0.5-0.5S70.8,16.2,70.5,16.2"/>
				<path fill="#231F20" d="M63.8,16.2c-0.3,0-0.5,0.2-0.5,0.5s0.2,0.5,0.5,0.5s0.5-0.2,0.5-0.5S64,16.2,63.8,16.2"/>
				<path fill="#231F20" d="M60.4,9.1c-0.3,0-0.5,0.2-0.5,0.5c0,0.3,0.2,0.5,0.5,0.5s0.5-0.2,0.5-0.5C60.9,9.3,60.6,9.1,60.4,9.1"/>
				<path fill="#231F20" d="M57,9.1c-0.3,0-0.5,0.2-0.5,0.5c0,0.3,0.2,0.5,0.5,0.5s0.5-0.2,0.5-0.5C57.5,9.3,57.3,9.1,57,9.1"/>
				<path fill="#231F20" d="M53.6,9.1c-0.3,0-0.5,0.2-0.5,0.5c0,0.3,0.2,0.5,0.5,0.5s0.5-0.2,0.5-0.5C54.1,9.3,53.9,9.1,53.6,9.1"/>
				<path fill="#231F20" d="M40.2,9.1c-0.3,0-0.5,0.2-0.5,0.5c0,0.3,0.2,0.5,0.5,0.5s0.5-0.2,0.5-0.5C40.6,9.3,40.4,9.1,40.2,9.1"/>
				<path fill="#231F20" d="M26.7,9.1c-0.3,0-0.5,0.2-0.5,0.5c0,0.3,0.2,0.5,0.5,0.5s0.5-0.2,0.5-0.5C27.1,9.3,26.9,9.1,26.7,9.1"/>
				<path fill="#231F20" d="M46.9,9.1c-0.3,0-0.5,0.2-0.5,0.5c0,0.3,0.2,0.5,0.5,0.5s0.5-0.2,0.5-0.5C47.4,9.3,47.2,9.1,46.9,9.1"/>
				<path fill="#231F20" d="M77.3,8.8c-0.4,0-0.7,0.3-0.7,0.7s0.3,0.7,0.7,0.7c0.4,0,0.7-0.3,0.7-0.7S77.7,8.8,77.3,8.8"/>
				<path fill="#231F20" d="M80.7,15.9c-0.4,0-0.7,0.3-0.7,0.7s0.3,0.7,0.7,0.7s0.7-0.3,0.7-0.7C81.4,16.2,81,15.9,80.7,15.9"/>
				<path fill="#231F20" d="M77.3,15.9c-0.4,0-0.7,0.3-0.7,0.7s0.3,0.7,0.7,0.7c0.4,0,0.7-0.3,0.7-0.7S77.7,15.9,77.3,15.9"/>
				<path fill="#231F20" d="M73.9,8.8c-0.4,0-0.7,0.3-0.7,0.7s0.3,0.7,0.7,0.7s0.7-0.3,0.7-0.7C74.6,9.1,74.3,8.8,73.9,8.8"/>
				<path fill="#231F20" d="M70.5,8.8c-0.4,0-0.7,0.3-0.7,0.7s0.3,0.7,0.7,0.7s0.7-0.3,0.7-0.7S70.9,8.8,70.5,8.8"/>
				<path fill="#231F20" d="M67.2,8.8c-0.4,0-0.7,0.3-0.7,0.7s0.3,0.7,0.7,0.7c0.4,0,0.7-0.3,0.7-0.7C67.9,9.1,67.6,8.8,67.2,8.8"/>
				<path fill="#231F20" d="M94.2,15.3c-0.7,0-1.3,0.6-1.3,1.3c0,0.7,0.6,1.3,1.3,1.3c0.7,0,1.3-0.6,1.3-1.3
					C95.5,15.8,94.9,15.3,94.2,15.3"/>
				<path fill="#231F20" d="M97.5,15.3c-0.7,0-1.3,0.6-1.3,1.3c0,0.7,0.6,1.3,1.3,1.3c0.7,0,1.3-0.6,1.3-1.3
					C98.9,15.8,98.2,15.3,97.5,15.3"/>
				<path fill="#231F20" d="M100.9,15.3c-0.7,0-1.3,0.6-1.3,1.3c0,0.7,0.6,1.3,1.3,1.3c0.7,0,1.3-0.6,1.3-1.3
					C102.2,15.8,101.6,15.3,100.9,15.3"/>
				<path fill="#231F20" d="M104.3,15.3c-0.7,0-1.3,0.6-1.3,1.3c0,0.7,0.6,1.3,1.3,1.3c0.7,0,1.3-0.6,1.3-1.3
					C105.6,15.8,105,15.3,104.3,15.3"/>
				<path fill="#231F20" d="M90.8,15.3c-0.7,0-1.3,0.6-1.3,1.3c0,0.7,0.6,1.3,1.3,1.3c0.7,0,1.3-0.6,1.3-1.3
					C92.1,15.8,91.5,15.3,90.8,15.3"/>
				<path fill="#231F20" d="M87.4,15.5c-0.6,0-1,0.5-1,1c0,0.6,0.5,1,1,1s1-0.5,1-1C88.5,16,88,15.5,87.4,15.5"/>
				<path fill="#231F20" d="M107.7,15.5c-0.6,0-1,0.5-1,1c0,0.6,0.5,1,1,1c0.6,0,1-0.5,1-1C108.7,16,108.2,15.5,107.7,15.5"/>
				<path fill="#231F20" d="M84,15.9c-0.4,0-0.7,0.3-0.7,0.7s0.3,0.7,0.7,0.7s0.7-0.3,0.7-0.7C84.8,16.2,84.4,15.9,84,15.9"/>
				<path fill="#231F20" d="M111,15.9c-0.4,0-0.7,0.3-0.7,0.7s0.3,0.7,0.7,0.7c0.4,0,0.7-0.3,0.7-0.7S111.4,15.9,111,15.9"/>
				<path fill="#231F20" d="M104.3,19.4c-0.4,0-0.7,0.3-0.7,0.7c0,0.4,0.3,0.7,0.7,0.7s0.7-0.3,0.7-0.7
					C105,19.7,104.7,19.4,104.3,19.4"/>
				<path fill="#231F20" d="M100.9,19.4c-0.4,0-0.7,0.3-0.7,0.7c0,0.4,0.3,0.7,0.7,0.7s0.7-0.3,0.7-0.7
					C101.6,19.7,101.3,19.4,100.9,19.4"/>
				<path fill="#231F20" d="M97.5,19.4c-0.4,0-0.7,0.3-0.7,0.7c0,0.4,0.3,0.7,0.7,0.7s0.7-0.3,0.7-0.7
					C98.2,19.7,97.9,19.4,97.5,19.4"/>
				<path fill="#231F20" d="M97.5,6.7c0.4,0,0.7-0.3,0.7-0.7c0-0.4-0.3-0.7-0.7-0.7S96.8,5.6,96.8,6C96.8,6.4,97.1,6.7,97.5,6.7"/>
				<path fill="#231F20" d="M94.2,6.7c0.4,0,0.7-0.3,0.7-0.7c0-0.4-0.3-0.7-0.7-0.7S93.4,5.6,93.4,6C93.4,6.4,93.7,6.7,94.2,6.7"/>
				<path fill="#231F20" d="M90.8,6.7c0.4,0,0.7-0.3,0.7-0.7c0-0.4-0.3-0.7-0.7-0.7S90,5.6,90,6C90.1,6.4,90.4,6.7,90.8,6.7"/>
				<path fill="#231F20" d="M107.7,10.3c0.4,0,0.7-0.3,0.7-0.7s-0.3-0.7-0.7-0.7c-0.4,0-0.7,0.3-0.7,0.7
					C106.9,9.9,107.2,10.3,107.7,10.3"/>
			</g>
			<g>
				<polygon fill="#231F20" points="11.8,27.1 6.8,39.3 1.8,27.1 0,27.1 6.1,41.3 7.5,41.3 13.5,27.1 				"/>
				<polygon fill="#231F20" points="18.2,27.1 18.2,41.2 28.5,41.2 28.5,39.7 19.8,39.7 19.8,34.8 27.5,34.8 27.5,33.4 19.8,33.4 
					19.8,28.6 28.4,28.6 28.4,27.1 				"/>
				<polygon fill="#231F20" points="33.3,27.1 33.3,41.2 42.8,41.2 42.8,39.7 34.9,39.7 34.9,27.1 				"/>
				<g>
					<path fill="#231F20" d="M45.4,34.2L45.4,34.2c0-3.9,2.9-7.3,7.2-7.3c4.3,0,7.2,3.3,7.2,7.2c0,0,0,0,0,0.1
						c0,3.9-2.9,7.3-7.2,7.3C48.3,41.4,45.4,38.1,45.4,34.2 M58.1,34.2L58.1,34.2c0-3.2-2.4-5.9-5.5-5.9s-5.5,2.6-5.5,5.8v0.1
						c0,3.2,2.4,5.8,5.5,5.8S58.1,37.4,58.1,34.2"/>
					<path fill="#231F20" d="M63.3,34.2L63.3,34.2c0-4,3-7.3,7.1-7.3c2.6,0,4.1,0.9,5.5,2.2l-1.1,1.2c-1.2-1.2-2.5-1.9-4.4-1.9
						c-3.1,0-5.4,2.5-5.4,5.8v0.1c0,3.2,2.4,5.8,5.4,5.8c1.9,0,3.2-0.7,4.5-2l1,1c-1.5,1.5-3.1,2.5-5.6,2.5
						C66.3,41.4,63.3,38.2,63.3,34.2"/>
				</g>
				<rect x="81.4" y="27.1" fill="#231F20" width="1.6" height="14.1"/>
				<polygon fill="#231F20" points="87.6,27.1 87.6,28.6 92.3,28.6 92.3,41.2 94,41.2 94,28.6 98.7,28.6 98.7,27.1 				"/>
				<polygon fill="#231F20" points="113.6,27.1 108.8,34.1 104,27.1 102.1,27.1 108,35.6 108,41.2 109.6,41.2 109.6,35.6 
					115.4,27.1 				"/>
			</g>
		</g>
	</g>
</g>
<g id="citi">
</g>
<g id="Course_Hero">
</g>
<g id="square">
</g>
<g id="Capco">
</g>
</svg>
