<?xml version="1.0" encoding="UTF-8" standalone="no"?>
<!-- Generator: Adobe Illustrator 16.0.0, SVG Export Plug-In . SVG Version: 6.00 Build 0)  -->

<svg
   xmlns:dc="http://purl.org/dc/elements/1.1/"
   xmlns:cc="http://creativecommons.org/ns#"
   xmlns:rdf="http://www.w3.org/1999/02/22-rdf-syntax-ns#"
   xmlns:svg="http://www.w3.org/2000/svg"
   xmlns="http://www.w3.org/2000/svg"
   xmlns:xlink="http://www.w3.org/1999/xlink"
   xmlns:sodipodi="http://sodipodi.sourceforge.net/DTD/sodipodi-0.dtd"
   xmlns:inkscape="http://www.inkscape.org/namespaces/inkscape"
   version="1.1"
   id="svg2985"
   inkscape:version="0.91 r13725"
   sodipodi:docname="logos_indico.svg"
   x="0px"
   y="0px"
   width="700.63068"
   height="450.73639"
   viewBox="0 -44.48 700.63068 450.73638"
   enable-background="new 0 -44.48 612 420"
   xml:space="preserve"><metadata
     id="metadata22"><rdf:RDF><cc:Work
         rdf:about=""><dc:format>image/svg+xml</dc:format><dc:type
           rdf:resource="http://purl.org/dc/dcmitype/StillImage" /><dc:title></dc:title></cc:Work></rdf:RDF></metadata><defs
     id="defs20" /><sodipodi:namedview
     id="namedview2998"
     inkscape:cy="261.65062"
     borderopacity="1"
     objecttolerance="10"
     guidetolerance="10"
     gridtolerance="10"
     inkscape:cx="551.18806"
     bordercolor="#666666"
     showgrid="false"
     pagecolor="#ffffff"
     inkscape:zoom="1.0363436"
     inkscape:window-y="38"
     inkscape:window-x="25"
     inkscape:window-height="751"
     inkscape:window-width="1364"
     inkscape:pageshadow="2"
     inkscape:pageopacity="1"
     inkscape:window-maximized="0"
     inkscape:current-layer="g2993"
     fit-margin-top="100"
     fit-margin-bottom="100"
     fit-margin-left="0"
     fit-margin-right="0" /><g
     id="g2993"
     transform="matrix(1.25,0,0,-1.25,-173.1531,583.03)"><path
       id="path3211"
       sodipodi:nodetypes="sccccsssccccs"
       inkscape:connector-curvature="0"
       d="m 471.90074,305.35285 c 0,26.848 21.763,48.611 48.612,48.611 l 0,0.016 35.477,0 0,-17.803 -35.477,0 c -17.02,0 -30.807,-13.803 -30.807,-30.823 0,-17.02 13.787,-30.823 30.807,-30.823 l 35.477,0 0,-17.803 -35.477,0 0,0.016 c -26.85,0 -48.612,21.761 -48.612,48.609 z" /><g
       id="g3025"
       transform="translate(104.74474,34.905848)"><polygon
         id="rect3216-2-9"
         points="92.717,318.308 74.922,318.308 92.717,318.308 " /><path
         id="path3298"
         inkscape:connector-curvature="0"
         d="m 92.575,339.44 c 0,-4.836 -3.92,-8.755 -8.756,-8.755 -4.836,0 -8.755,3.92 -8.755,8.755 0,4.835 3.92,8.755 8.755,8.755 4.836,0.001 8.756,-3.919 8.756,-8.755 z" /></g><path
       id="path3211-8"
       inkscape:connector-curvature="0"
       d="m 261.42374,353.26585 c 26.848,0 48.611,-21.762 48.611,-48.609 l 0.016,0 0,-47.93 -17.804,0 0,47.93 c 0,17.02 -13.803,30.806 -30.823,30.806 -17.02,0 -30.823,-13.786 -30.823,-30.806 l 0,-47.93 -17.803,0 0,47.93 0.016,0 c 0,26.847 21.762,48.609 48.61,48.609 z" /><g
       id="g3002"
       transform="translate(116.37269,33.895839)"><polygon
         id="rect3216-2-9-5"
         points="340.194,319.318 322.398,319.318 340.194,319.318 " /><a
         id="a3033"
         xlink:href="http://www.indico.io#join"><path
           id="path3298-2"
           inkscape:connector-curvature="0"
           d="m 340.053,340.447 c 0,-4.836 -3.92,-8.755 -8.755,-8.755 -4.835,0 -8.755,3.92 -8.755,8.755 0,4.835 3.92,8.756 8.755,8.756 4.835,0 8.755,-3.921 8.755,-8.756 z" /></a></g><path
       id="path3001-8-9"
       inkscape:connector-curvature="0"
       d="m 620.35574,354.77385 c -27.077,0 -49.032,-21.955 -49.032,-49.032 0,-27.077 21.955,-49.016 49.032,-49.016 27.077,0 49.016,21.939 49.016,49.016 0,27.077 -21.938,49.032 -49.016,49.032 z m 0,-19.052 c 16.556,0 29.964,-13.425 29.964,-29.98 0,-16.555 -13.409,-29.98 -29.964,-29.98 -16.555,0 -29.98,13.425 -29.98,29.98 0,16.555 13.425,29.98 29.98,29.98 z m 0,-21.239 c -4.818,0 -8.723,-3.906 -8.723,-8.723 0,-4.819 3.905,-8.723 8.723,-8.723 4.818,0 8.723,3.905 8.723,8.723 10e-4,4.817 -3.905,8.723 -8.723,8.723 z" /><path
       id="rect3178"
       inkscape:connector-curvature="0"
       d="m 405.77674,401.71385 0,-58.273 c -8.498,7.084 -19.429,11.334 -31.359,11.334 -27.077,0 -49.032,-21.955 -49.032,-49.032 0,-27.077 21.955,-49.016 49.032,-49.016 26.941,0 48.798,21.719 49.016,48.609 10e-4,0.136 0,0.27 0,0.405 l 0,95.973 -17.657,0 z m -31.358,-65.992 c 16.555,0 29.964,-13.425 29.964,-29.98 0,-16.555 -13.409,-29.98 -29.964,-29.98 -16.556,0 -29.98,13.425 -29.98,29.98 -10e-4,16.555 13.424,29.98 29.98,29.98 z" /></g><rect
     x="51.430923"
     y="141.51309"
     stroke-miterlimit="10"
     width="22.243999"
     height="120.611"
     id="rect16"
     style="stroke:#000000;stroke-miterlimit:10" /><rect
     x="375.31094"
     y="141.51309"
     stroke-miterlimit="10"
     width="22.243"
     height="120.611"
     id="rect18"
     style="stroke:#000000;stroke-miterlimit:10" /></svg>