<?xml version="1.0" encoding="utf-8"?>
<!-- Generator: Adobe Illustrator 16.0.0, SVG Export Plug-In . SVG Version: 6.00 Build 0)  -->
<!DOCTYPE svg PUBLIC "-//W3C//DTD SVG 1.1//EN" "http://www.w3.org/Graphics/SVG/1.1/DTD/svg11.dtd">
<svg version="1.1" id="Layer_1" xmlns="http://www.w3.org/2000/svg" xmlns:xlink="http://www.w3.org/1999/xlink" x="0px" y="0px"
	 width="320px" height="90px" viewBox="0 0 320 90" enable-background="new 0 0 320 90" xml:space="preserve">
<g>
	<g>
		<g>
			<g>
				<defs>
					<rect id="SVGID_1_" x="-339.838" y="-603" width="699.88" height="400"/>
				</defs>
				<clipPath id="SVGID_2_">
					<use xlink:href="#SVGID_1_"  overflow="visible"/>
				</clipPath>
				<polygon clip-path="url(#SVGID_2_)" fill="#FFFFFF" points="360.042,-203 -339.958,-203 -339.958,-603 360.042,-603 				"/>
			</g>
		</g>
		<path fill="#95BF46" d="M-162.686-462.44c0.693,0,1.391,0.235,2.059,0.695c-5.145,2.421-10.66,8.519-12.989,20.696
			c-3.404,1.054-6.731,2.084-9.807,3.037C-180.695-447.3-174.217-462.44-162.686-462.44L-162.686-462.44z M-157.916-457.925
			c0.987,2.474,1.629,6.024,1.629,10.815c0,0.245-0.002,0.469-0.004,0.696c-3.908,1.21-8.152,2.524-12.407,3.842
			C-166.309-451.792-161.831-456.245-157.916-457.925L-157.916-457.925z M-146.073-449.576c-1.783,0.552-3.81,1.179-6.007,1.859
			c0.002-0.423,0.003-0.84,0.003-1.295c0-3.97-0.55-7.166-1.435-9.7C-149.96-458.266-147.595-454.226-146.073-449.576
			L-146.073-449.576z M-117.241-442.509c-0.086-0.626-0.634-0.972-1.087-1.01c-0.452-0.038-10.02-0.747-10.02-0.747
			s-6.645-6.597-7.374-7.327c-0.73-0.729-2.155-0.508-2.708-0.345c-0.082,0.024-1.452,0.447-3.719,1.148
			c-2.22-6.387-6.137-12.257-13.029-12.257c-0.19,0-0.386,0.008-0.583,0.019c-1.959-2.592-4.387-3.718-6.484-3.718
			c-16.054,0-23.724,20.069-26.129,30.268c-6.238,1.933-10.67,3.307-11.236,3.485c-3.483,1.092-3.592,1.202-4.049,4.483
			c-0.345,2.484-9.456,72.944-9.456,72.944l70.995,13.302l38.468-8.322C-103.652-350.586-117.156-441.883-117.241-442.509
			L-117.241-442.509z"/>
		<path fill="#5F8E3E" d="M-118.328-443.519c-0.452-0.038-10.02-0.747-10.02-0.747s-6.645-6.597-7.374-7.326
			c-0.273-0.273-0.641-0.412-1.026-0.472l-5.368,109.799l38.464-8.321c0,0-13.504-91.296-13.589-91.923
			C-117.327-443.135-117.875-443.481-118.328-443.519L-118.328-443.519z"/>
		<path fill="#FFFFFF" d="M-155.178-422.264l-4.743,14.109c0,0-4.156-2.218-9.25-2.218c-7.468,0-7.844,4.687-7.844,5.868
			c0,6.444,16.797,8.913,16.797,24.007c0,11.875-7.531,19.522-17.687,19.522c-12.188,0-18.419-7.585-18.419-7.585l3.263-10.781
			c0,0,6.406,5.5,11.812,5.5c3.531,0,4.969-2.781,4.969-4.813c0-8.406-13.781-8.781-13.781-22.593
			c0-11.625,8.343-22.875,25.187-22.875C-158.384-424.123-155.178-422.264-155.178-422.264L-155.178-422.264z"/>
		<path d="M-58.809-395.814c-3.837-2.082-5.809-3.836-5.809-6.248c0-3.069,2.74-5.042,7.015-5.042c4.979,0,9.426,2.083,9.426,2.083
			l3.508-10.742c0,0-3.225-2.521-12.715-2.521c-13.209,0-22.361,7.563-22.361,18.196c0,6.028,4.275,10.632,9.975,13.92
			c4.604,2.63,6.248,4.494,6.248,7.235c0,2.85-2.302,5.151-6.577,5.151c-6.369,0-12.386-3.288-12.386-3.288l-3.727,10.742
			c0,0,5.557,3.726,14.907,3.726c13.593,0,23.348-6.686,23.348-18.743C-47.957-387.812-52.89-392.416-58.809-395.814
			L-58.809-395.814z"/>
		<path d="M-4.661-418.394c-6.686,0-11.947,3.179-16.003,8.002l-0.219-0.11l5.809-30.362H-30.2l-14.688,77.276h15.126l5.043-26.416
			c1.973-9.975,7.124-16.113,11.947-16.113c3.398,0,4.714,2.301,4.714,5.59c0,2.082-0.22,4.603-0.658,6.686l-5.7,30.253H0.711
			l5.918-31.239c0.658-3.289,1.097-7.235,1.097-9.865C7.726-413.242,3.231-418.394-4.661-418.394L-4.661-418.394z"/>
		<path d="M34.472-374.111c-5.152,0-7.344-4.384-7.344-9.864c0-8.66,4.494-22.8,12.715-22.8c5.37,0,7.124,4.604,7.124,9.098
			C46.967-388.36,42.473-374.111,34.472-374.111L34.472-374.111z M41.925-418.394c-18.195,0-30.252,16.442-30.252,34.747
			c0,11.729,7.234,21.155,20.826,21.155c17.866,0,29.923-16.003,29.923-34.747C62.422-408.09,56.065-418.394,41.925-418.394
			L41.925-418.394z"/>
		<path d="M86.648-373.892c-3.928,0-6.248-2.191-6.248-2.191l2.521-14.141c1.754-9.426,6.686-15.674,11.948-15.674
			c4.603,0,6.028,4.275,6.028,8.33C100.896-387.812,95.088-373.892,86.648-373.892L86.648-373.892z M101.117-418.394
			c-10.21,0-16.004,8.988-16.004,8.988h-0.219l0.877-8.111H72.399c-0.658,5.481-1.864,13.811-3.07,20.059l-10.523,55.354h15.127
			l4.165-22.361h0.329c0,0,3.105,1.973,8.879,1.973c17.757,0,29.375-18.195,29.375-36.61
			C116.681-409.296,112.187-418.394,101.117-418.394L101.117-418.394z"/>
		<path d="M138.276-440.097c-4.822,0-8.659,3.836-8.659,8.769c0,4.494,2.85,7.564,7.125,7.564h0.219c4.713,0,8.77-3.18,8.879-8.77
			C145.84-436.918,142.88-440.097,138.276-440.097L138.276-440.097z"/>
		<polygon points="117.121,-363.588 132.248,-363.588 142.551,-417.188 127.315,-417.188 		"/>
		<path d="M181.023-417.298h-10.522l0.548-2.521c0.877-5.151,3.946-9.755,8.989-9.755c2.69,0,4.821,0.767,4.821,0.767l2.959-11.838
			c0,0-2.631-1.315-8.221-1.315c-5.371,0-10.742,1.535-14.798,5.042c-5.151,4.385-7.563,10.742-8.769,17.099l-0.438,2.521h-7.015
			l-2.191,11.4h7.014l-8.002,42.31h15.127l8-42.31h10.414L181.023-417.298L181.023-417.298z"/>
		<path d="M217.415-417.188c0,0-9.455,23.825-13.701,36.83h-0.219c-0.291-4.187-3.728-36.83-3.728-36.83h-15.895l9.098,49.216
			c0.219,1.095,0.11,1.753-0.328,2.521c-1.754,3.398-4.713,6.686-8.222,9.097c-2.851,2.083-6.028,3.398-8.549,4.275l4.165,12.825
			c3.068-0.658,9.427-3.179,14.797-8.221c6.905-6.467,13.264-16.442,19.84-30.034l18.524-39.679H217.415L217.415-417.188z"/>
	</g>
</g>
<g>
	<g>
		<g>
			<defs>
				<rect id="SVGID_3_" x="-78.02" y="-80.153" width="439.458" height="251.161"/>
			</defs>
			<clipPath id="SVGID_4_">
				<use xlink:href="#SVGID_3_"  overflow="visible"/>
			</clipPath>
			<polygon clip-path="url(#SVGID_4_)" fill="#FFFFFF" points="361.438,171.009 -78.095,171.009 -78.095,-80.153 361.438,-80.152 
							"/>
		</g>
	</g>
	<path fill="#95BF46" d="M33.215,8.105c0.435,0,0.874,0.147,1.293,0.437c-3.23,1.52-6.693,5.349-8.156,12.995
		c-2.137,0.662-4.227,1.309-6.158,1.907C21.907,17.612,25.975,8.105,33.215,8.105L33.215,8.105z M36.21,10.94
		c0.62,1.553,1.023,3.783,1.023,6.791c0,0.153-0.001,0.294-0.002,0.437c-2.454,0.76-5.119,1.584-7.791,2.412
		C30.94,14.792,33.752,11.995,36.21,10.94L36.21,10.94z M43.646,16.183c-1.12,0.347-2.392,0.741-3.772,1.167
		c0.001-0.266,0.002-0.527,0.002-0.813c0-2.493-0.345-4.5-0.901-6.091C41.206,10.727,42.69,13.263,43.646,16.183L43.646,16.183z
		 M61.75,20.621c-0.054-0.393-0.398-0.611-0.683-0.634c-0.284-0.024-6.292-0.469-6.292-0.469s-4.172-4.142-4.63-4.601
		c-0.458-0.458-1.353-0.319-1.7-0.217c-0.051,0.015-0.912,0.281-2.335,0.721c-1.394-4.01-3.854-7.696-8.181-7.696
		c-0.119,0-0.242,0.005-0.366,0.012c-1.23-1.627-2.754-2.334-4.071-2.334c-10.08,0-14.896,12.601-16.406,19.005
		c-3.917,1.214-6.7,2.077-7.055,2.188c-2.187,0.686-2.255,0.755-2.542,2.815C7.271,30.97,1.55,75.212,1.55,75.212l44.578,8.353
		l24.154-5.226C70.283,78.339,61.803,21.014,61.75,20.621L61.75,20.621z"/>
	<path fill="#5F8E3E" d="M61.067,19.986c-0.284-0.024-6.292-0.469-6.292-0.469s-4.172-4.142-4.63-4.6
		c-0.171-0.171-0.402-0.259-0.644-0.296L46.13,83.564l24.152-5.226c0,0-8.479-57.325-8.533-57.718
		C61.696,20.228,61.352,20.01,61.067,19.986L61.067,19.986z"/>
	<path fill="#FFFFFF" d="M37.929,33.332l-2.978,8.859c0,0-2.61-1.393-5.808-1.393c-4.689,0-4.925,2.943-4.925,3.685
		c0,4.046,10.547,5.596,10.547,15.074c0,7.457-4.729,12.258-11.106,12.258c-7.652,0-11.565-4.763-11.565-4.763l2.049-6.77
		c0,0,4.022,3.452,7.417,3.452c2.217,0,3.121-1.745,3.121-3.021c0-5.277-8.653-5.514-8.653-14.186
		c0-7.299,5.239-14.363,15.815-14.363C35.917,32.165,37.929,33.332,37.929,33.332L37.929,33.332z"/>
	<path d="M98.44,49.939c-2.41-1.308-3.648-2.408-3.648-3.922c0-1.928,1.721-3.167,4.405-3.167c3.126,0,5.919,1.308,5.919,1.308
		l2.203-6.745c0,0-2.025-1.583-7.984-1.583c-8.294,0-14.041,4.749-14.041,11.426c0,3.785,2.684,6.677,6.263,8.74
		c2.891,1.651,3.923,2.821,3.923,4.543c0,1.789-1.446,3.233-4.13,3.233c-3.999,0-7.777-2.063-7.777-2.063l-2.34,6.744
		c0,0,3.489,2.34,9.36,2.34c8.535,0,14.661-4.198,14.661-11.769C105.254,54.965,102.156,52.074,98.44,49.939L98.44,49.939z"/>
	<path d="M132.439,35.762c-4.198,0-7.501,1.996-10.048,5.024l-0.137-0.069l3.647-19.065h-9.498l-9.223,48.522h9.498l3.167-16.586
		c1.239-6.263,4.473-10.118,7.501-10.118c2.133,0,2.96,1.445,2.96,3.51c0,1.307-0.138,2.89-0.413,4.197l-3.579,18.996h9.498
		l3.716-19.615c0.414-2.064,0.689-4.543,0.689-6.193C140.217,38.997,137.395,35.762,132.439,35.762L132.439,35.762z"/>
	<path d="M157.012,63.566c-3.236,0-4.611-2.752-4.611-6.192c0-5.438,2.822-14.316,7.983-14.316c3.372,0,4.474,2.891,4.474,5.713
		C164.857,54.621,162.035,63.566,157.012,63.566L157.012,63.566z M161.691,35.762c-11.426,0-18.996,10.324-18.996,21.818
		c0,7.363,4.543,13.283,13.078,13.283c11.218,0,18.789-10.049,18.789-21.818C174.562,42.232,170.568,35.762,161.691,35.762
		L161.691,35.762z"/>
	<path d="M189.771,63.705c-2.465,0-3.922-1.376-3.922-1.376l1.582-8.879c1.103-5.918,4.198-9.842,7.502-9.842
		c2.892,0,3.785,2.685,3.785,5.23C198.721,54.965,195.072,63.705,189.771,63.705L189.771,63.705z M198.857,35.762
		c-6.41,0-10.049,5.644-10.049,5.644h-0.138l0.55-5.093h-8.396c-0.413,3.441-1.171,8.672-1.929,12.595l-6.606,34.757h9.498
		l2.614-14.04h0.207c0,0,1.949,1.238,5.574,1.238c11.15,0,18.445-11.426,18.445-22.988
		C208.631,41.475,205.809,35.762,198.857,35.762L198.857,35.762z"/>
	<path d="M222.189,22.135c-3.027,0-5.438,2.409-5.438,5.506c0,2.822,1.79,4.75,4.475,4.75h0.137c2.96,0,5.507-1.997,5.576-5.506
		C226.939,24.131,225.081,22.135,222.189,22.135L222.189,22.135z"/>
	<polygon points="208.907,70.175 218.404,70.175 224.874,36.52 215.309,36.52 	"/>
	<path d="M249.032,36.451h-6.607l0.345-1.583c0.551-3.235,2.478-6.125,5.645-6.125c1.689,0,3.027,0.481,3.027,0.481l1.857-7.433
		c0,0-1.652-0.826-5.162-0.826c-3.371,0-6.744,0.964-9.291,3.166c-3.234,2.753-4.748,6.745-5.506,10.737l-0.275,1.583h-4.404
		l-1.376,7.158h4.403l-5.023,26.566h9.498l5.023-26.566h6.539L249.032,36.451L249.032,36.451z"/>
	<path d="M271.882,36.52c0,0-5.937,14.958-8.603,23.125h-0.139c-0.183-2.629-2.341-23.125-2.341-23.125h-9.979l5.714,30.902
		c0.138,0.688,0.069,1.102-0.207,1.583c-1.103,2.134-2.959,4.198-5.162,5.713c-1.788,1.308-3.785,2.134-5.367,2.685l2.615,8.053
		c1.927-0.413,5.919-1.996,9.291-5.162c4.336-4.061,8.327-10.323,12.457-18.857l11.632-24.915L271.882,36.52L271.882,36.52z"/>
</g>
</svg>
