<?xml version="1.0" encoding="utf-8"?>
<!-- Generator: Adobe Illustrator 18.1.1, SVG Export Plug-In . SVG Version: 6.00 Build 0)  -->
<svg version="1.1" xmlns="http://www.w3.org/2000/svg" xmlns:xlink="http://www.w3.org/1999/xlink" x="0px" y="0px"
	 viewBox="0 0 155.9 48.8" enable-background="new 0 0 155.9 48.8" xml:space="preserve">
<g id="Loblaw_Digital">
</g>
<g id="Phoenix">
</g>
<g id="Magnet_Forensics_1_">
	<g id="Magnet_Forensics_2_">
		<g>
			<g>
				<g>
					<path fill="#010101" d="M64.7,33.6v1.3h2.6V36h-2.6v2.6h-1.4v-6.2h4.4v1.3H64.7z"/>
					<path fill="#010101" d="M75.9,32.3c0.4,0,0.7,0,1,0.1s0.6,0.3,0.7,0.6c0.3,0.3,0.4,0.4,0.4,0.7c0.1,0.3,0.1,0.6,0.1,1v1.4
						c0,0.4,0,0.7-0.1,1c-0.1,0.3-0.3,0.6-0.4,0.7c-0.3,0.3-0.4,0.4-0.7,0.4c-0.3,0.1-0.7,0.1-1,0.1c-0.4,0-0.7,0-1.1-0.1
						c-0.3-0.1-0.6-0.3-0.7-0.6c-0.1-0.3-0.3-0.4-0.4-0.9c-0.1-0.3-0.1-0.6-0.1-1v-1.4c0-0.3,0-0.6,0.1-1c0.1-0.3,0.3-0.6,0.4-0.7
						c0.1-0.3,0.4-0.4,0.7-0.6C75.1,32.5,75.5,32.3,75.9,32.3z M75.9,33.6c-0.1,0-0.3,0-0.4,0.1c-0.1,0-0.3,0.1-0.3,0.3
						c-0.1,0.1-0.1,0.1-0.1,0.3c0,0.1,0,0.3,0,0.4v1.7c0,0.1,0,0.3,0,0.4s0.1,0.3,0.1,0.3c0.1,0.1,0.1,0.1,0.3,0.3
						c0.1,0,0.3,0.1,0.4,0.1c0.3,0,0.6-0.1,0.9-0.3c0.1-0.1,0.3-0.4,0.3-0.7v-1.7c0-0.3-0.1-0.6-0.3-0.7
						C76.5,33.8,76.2,33.6,75.9,33.6z"/>
					<path fill="#010101" d="M87.8,38.7l-1-2.4H86v2.4h-1.4v-6.2h2.8c0.3,0,0.6,0,0.7,0.1c0.3,0.1,0.4,0.1,0.7,0.4
						c0.1,0.1,0.3,0.4,0.4,0.6c0.1,0.3,0.1,0.6,0.1,0.9c0,0.4-0.1,0.7-0.3,1c-0.1,0.3-0.4,0.6-0.9,0.7l1.1,2.7h-1.6V38.7z M88,34.3
						c0-0.3-0.1-0.4-0.3-0.6c-0.1-0.1-0.3-0.1-0.6-0.1H86V35h1.1c0.3,0,0.4,0,0.6-0.1C87.8,34.8,88,34.5,88,34.3z"/>
					<path fill="#010101" d="M95.8,38.7v-6.2h4.4v1.3h-3V35h2.6v1.1h-2.6v1.3h3v1.3L95.8,38.7L95.8,38.7z"/>
					<path fill="#010101" d="M110.2,38.7l-1.6-2.3l-1-1.6l0,0v3.8h-1.4v-6.2h1.3l1.3,2l1.1,1.8l0,0v-3.8h1.4v6.2L110.2,38.7
						L110.2,38.7z"/>
					<path fill="#010101" d="M121.6,34c-0.1-0.1-0.3-0.1-0.4-0.3c-0.1,0-0.3-0.1-0.4-0.1s-0.3,0-0.4,0c-0.1,0-0.3,0-0.3,0
						c-0.1,0-0.3,0-0.4,0c-0.1,0-0.1,0.1-0.3,0.1l-0.1,0.1V34c0,0.1,0,0.1,0,0.3l0.1,0.1c0.1,0,0.3,0.1,0.4,0.1
						c0.1,0,0.4,0.1,0.7,0.1s0.6,0.1,0.7,0.1c0.3,0.1,0.4,0.1,0.6,0.3c0.1,0.1,0.3,0.3,0.4,0.6c0.1,0.3,0.1,0.4,0.1,0.9
						c0,0.3-0.1,0.6-0.3,0.9c-0.1,0.3-0.3,0.4-0.6,0.6c-0.3,0.1-0.4,0.3-0.9,0.4c-0.3,0.1-0.6,0.1-0.9,0.1c-0.1,0-0.4,0-0.7,0
						s-0.4,0-0.7-0.1c-0.3,0-0.4-0.1-0.7-0.3c-0.3-0.1-0.4-0.3-0.6-0.4l0.9-1c0.3,0.3,0.6,0.4,0.9,0.6c0.3,0.1,0.6,0.1,1,0.1
						c0.3,0,0.6,0,0.7-0.1c0.1-0.1,0.3-0.3,0.3-0.4c0-0.1,0-0.1,0-0.3c0-0.1,0-0.1-0.1-0.1c0,0-0.1-0.1-0.3-0.1
						c-0.1,0-0.3-0.1-0.4-0.1c-0.3,0-0.6-0.1-0.9-0.1s-0.6-0.1-0.7-0.3c-0.3-0.1-0.4-0.3-0.6-0.6c-0.1-0.3-0.1-0.6-0.1-0.9
						c0-0.3,0-0.6,0.1-0.9c0.1-0.3,0.3-0.4,0.6-0.6c0.1-0.1,0.4-0.3,0.7-0.3c0.3-0.1,0.6-0.1,0.7-0.1c0.4,0,0.7,0,1.1,0.1
						c0.4,0.1,0.7,0.3,1.1,0.4L121.6,34z"/>
					<path fill="#010101" d="M128.7,38.7v-6.2h1.4v6.2H128.7z"/>
					<path fill="#010101" d="M141,37.2c-0.1,0.4-0.4,0.9-0.9,1.1c-0.4,0.3-0.9,0.4-1.4,0.4c-0.4,0-0.7,0-1.1-0.1
						c-0.3-0.1-0.6-0.3-0.7-0.6c-0.1-0.3-0.3-0.4-0.4-0.7c-0.1-0.3-0.1-0.6-0.1-1v-1.4c0-0.3,0-0.6,0.1-1c0.1-0.3,0.3-0.6,0.4-0.7
						c0.1-0.3,0.4-0.4,0.7-0.6c0.3-0.1,0.7-0.1,1.1-0.1c0.6,0,1.1,0.1,1.6,0.4s0.7,0.7,0.9,1.1l-1.3,0.4c0-0.3-0.1-0.4-0.3-0.6
						c-0.1-0.1-0.4-0.3-0.7-0.3c-0.1,0-0.3,0-0.4,0.1c-0.1,0-0.3,0.1-0.3,0.3c-0.1,0.1-0.1,0.1-0.1,0.3c0,0.1,0,0.3,0,0.4v1.7
						c0,0.1,0,0.3,0,0.4c0,0.1,0.1,0.3,0.1,0.3c0.1,0.1,0.1,0.1,0.3,0.3c0.1,0,0.3,0.1,0.4,0.1c0.3,0,0.6-0.1,0.7-0.3
						c0.1-0.1,0.3-0.3,0.3-0.6L141,37.2z"/>
					<path fill="#010101" d="M150.8,34c-0.1-0.1-0.3-0.1-0.4-0.3c-0.1,0-0.3-0.1-0.4-0.1c-0.1,0-0.3,0-0.4,0s-0.3,0-0.3,0
						c-0.1,0-0.3,0-0.4,0c-0.1,0-0.1,0.1-0.3,0.1l-0.1,0.1V34c0,0.1,0,0.1,0,0.3l0.1,0.1c0.1,0,0.3,0.1,0.4,0.1s0.4,0.1,0.7,0.1
						c0.3,0,0.6,0.1,0.7,0.1c0.3,0.1,0.4,0.1,0.6,0.3c0.1,0.1,0.3,0.3,0.4,0.6c0.1,0.3,0.1,0.4,0.1,0.9c0,0.3-0.1,0.6-0.3,0.9
						c-0.1,0.3-0.3,0.4-0.6,0.6c-0.3,0.1-0.4,0.3-0.9,0.4c-0.3,0.1-0.6,0.1-0.9,0.1c-0.1,0-0.4,0-0.7,0c-0.3,0-0.4,0-0.7-0.1
						c-0.3,0-0.4-0.1-0.7-0.3c-0.3-0.1-0.4-0.3-0.6-0.4l0.9-1c0.3,0.3,0.6,0.4,0.9,0.6c0.3,0.1,0.6,0.1,1,0.1c0.3,0,0.6,0,0.7-0.1
						c0.1-0.1,0.3-0.3,0.3-0.4c0-0.1,0-0.1,0-0.3c0-0.1,0-0.1-0.1-0.1c0,0-0.1-0.1-0.3-0.1s-0.3-0.1-0.4-0.1c-0.3,0-0.6-0.1-0.9-0.1
						s-0.6-0.1-0.7-0.3c-0.3-0.1-0.4-0.3-0.6-0.6c-0.1-0.3-0.1-0.6-0.1-0.9c0-0.3,0-0.6,0.1-0.9c0.1-0.3,0.3-0.4,0.6-0.6
						c0.1-0.1,0.4-0.3,0.7-0.3c0.3-0.1,0.6-0.1,0.7-0.1c0.4,0,0.7,0,1.1,0.1c0.4,0.1,0.7,0.3,1.1,0.4L150.8,34z"/>
				</g>
				<g>
					<path fill="#010101" d="M154.8,34.5c-0.1,0-0.3,0-0.4-0.1c-0.1,0-0.3-0.1-0.3-0.3c-0.1-0.1-0.1-0.1-0.3-0.3
						c0-0.1-0.1-0.3-0.1-0.4s0-0.3,0.1-0.4c0-0.1,0.1-0.3,0.3-0.3c0.1-0.1,0.1-0.1,0.3-0.3c0.1,0,0.3-0.1,0.4-0.1
						c0.1,0,0.3,0,0.4,0.1c0.1,0,0.3,0.1,0.3,0.3c0.1,0.1,0.1,0.1,0.3,0.3c0.1,0.1,0.1,0.3,0.1,0.4s0,0.3-0.1,0.4
						c0,0.1-0.1,0.3-0.3,0.3c-0.1,0.1-0.1,0.1-0.3,0.3C155.1,34.5,154.9,34.5,154.8,34.5z M154.8,32.6c-0.1,0-0.3,0-0.3,0
						c-0.1,0-0.1,0.1-0.3,0.1c-0.1,0.1-0.1,0.1-0.1,0.3c0,0.1,0,0.3,0,0.3c0,0.1,0,0.3,0,0.3c0,0.1,0.1,0.1,0.1,0.3
						c0.1,0.1,0.1,0.1,0.3,0.1s0.1,0,0.3,0c0.1,0,0.3,0,0.3,0c0.1,0,0.1-0.1,0.3-0.1c0.1-0.1,0.1-0.1,0.1-0.3c0-0.1,0-0.1,0-0.3
						c0-0.1,0-0.3,0-0.3c0-0.1-0.1-0.1-0.1-0.3c-0.1-0.1-0.1-0.1-0.3-0.1S154.9,32.6,154.8,32.6z M154.8,33.5h-0.1v0.4h-0.3v-1.1
						h0.4c0.1,0,0.1,0,0.3,0.1c0.1,0,0.1,0.1,0.1,0.3c0,0.1-0.1,0.3-0.3,0.3l0.3,0.6h-0.3L154.8,33.5z M154.6,33.1v0.3h0.3h0.1
						c0,0,0,0,0-0.1c0-0.1,0-0.1-0.1-0.1L154.6,33.1L154.6,33.1z"/>
				</g>
			</g>
			<g>
				<path fill="#010101" d="M76,29.1v-8.4h-0.1l-1.6,3.5l-1.1,2.6h-3l-1.3-2.7l-1.6-3.4l-0.1,0.1v8.4h-4V11.5h3.5l2.4,5.1l2.3,5.4
					h0.1l2.3-5.4l2.4-5.1H80v17.7h-4V29.1z"/>
				<path fill="#010101" d="M93.1,29.1l-1.3-3.7h-6l-1.3,3.7h-4.3l7-17.7h3.1l7,17.7H93.1z M89.8,20.1l-1-3.5h-0.1l-1,3.4L87,22.1
					h3.5L89.8,20.1z"/>
				<path fill="#010101" d="M123.1,29.1l-4.5-6.5l-2.7-4.3l0,0v10.8h-4V11.3h3.5l3.7,5.4l3.4,5.4l0,0V11.3h4v17.7H123.1z"/>
				<path fill="#010101" d="M128.8,29.1V11.3h12.5v3.5h-8.7v3.5h7.4v3.4h-7.4v3.7h8.7v3.5H128.8z"/>
				<path fill="#010101" d="M151,14.9v14.2h-4V14.9h-4.8v-3.5h13.6v3.5H151z"/>
				<path fill="#010101" d="M107.1,19.2L107.1,19.2h-4.3v3.3h3.5l0,0c0,0.9-0.3,1.6-0.9,2.1c-0.6,0.6-1.3,0.9-2.3,0.9
					c-0.4,0-1-0.1-1.3-0.3c-0.4-0.1-0.7-0.4-0.9-0.7c-0.3-0.3-0.4-0.6-0.6-1c-0.1-0.4-0.1-0.7-0.1-1.1v-4.8c0-0.4,0-0.7,0.1-1
					c0.1-0.3,0.3-0.7,0.6-1c0.3-0.3,0.6-0.4,0.9-0.7c0.4-0.1,0.9-0.3,1.3-0.3c1,0,1.7,0.3,2.3,0.9c0.4,0.4,0.6,0.9,0.7,1.3l3.7-1.3
					c0-0.1-0.1-0.3-0.1-0.4c-0.3-0.9-0.9-1.6-1.4-2.1s-1.3-1.1-2.1-1.4c-0.9-0.3-1.8-0.6-2.8-0.6c-1.1,0-2.1,0.1-3,0.6
					c-0.9,0.4-1.6,0.9-2.1,1.6c-0.6,0.6-1,1.4-1.3,2.3c-0.3,0.9-0.4,1.7-0.4,2.7V22c0,0.9,0.1,1.8,0.4,2.7c0.3,0.9,0.7,1.6,1.3,2.3
					c0.6,0.6,1.3,1.1,2.1,1.6s1.8,0.6,3,0.6c1,0,2-0.1,2.8-0.4c0.9-0.3,1.6-0.9,2.1-1.4c0.6-0.6,1.1-1.3,1.4-2.1
					c0.3-0.9,0.6-1.8,0.6-2.8v-3.1L107.1,19.2L107.1,19.2z"/>
			</g>
		</g>
		<g>
			<polygon fill="#144269" points="11.6,21.1 11.6,31.9 16.9,35.6 16.9,24 16.9,24 			"/>
			<polygon fill="#424242" points="11.6,31.9 11.6,38.6 16.9,42.4 16.9,35.6 16.9,35.6 			"/>
			<polygon fill="#B0B0B0" points="11.6,31.9 11.6,38.6 0,45.4 0,38.7 			"/>
			<polygon fill="#565656" points="11.6,38.6 16.7,42.4 5.7,48.8 0,45.4 			"/>
			<polygon fill="#2B79B5" points="26.7,20 0,4.4 0,38.7 11.6,31.9 11.6,21.1 26.7,29.5 			"/>
			<polygon fill="#4996D2" points="26.7,20 53.2,4.4 41.6,0 26.7,8.5 11.6,0 0,4.4 26.7,20 26.7,20 26.7,20 			"/>
			<polygon fill="#144269" points="41.6,21.1 41.6,31.9 36.5,35.6 36.5,24 			"/>
			<polygon fill="#424242" points="41.6,31.9 41.6,38.6 36.5,42.4 36.5,35.6 36.5,35.6 			"/>
			<polygon fill="#6F6F6F" points="41.6,31.9 41.6,38.6 53.2,45.4 53.2,38.7 			"/>
			<polygon fill="#565656" points="41.6,38.6 36.5,42.4 47.5,48.8 53.2,45.4 			"/>
			<polygon fill="#205B8D" points="26.7,20 53.2,4.4 53.2,38.7 41.6,31.9 41.6,21.1 26.7,29.5 			"/>
		</g>
	</g>
</g>
<g id="Bloomberg">
</g>
<g id="Wish">
</g>
<g id="lani">
</g>
<g id="Yelp">
</g>
<g id="Mozilla">
</g>
<g id="Microsoft">
</g>
<g id="Facebook">
</g>
<g id="Kik_1_">
</g>
<g id="D2L">
</g>
<g id="Linode">
</g>
<g id="Braintree">
</g>
<g id="Velocity">
</g>
<g id="citi">
</g>
<g id="Course_Hero">
</g>
<g id="square">
</g>
<g id="Capco">
</g>
</svg>
