<?xml version="1.0" encoding="utf-8"?>
<!-- Generator: Adobe Illustrator 18.1.1, SVG Export Plug-In . SVG Version: 6.00 Build 0)  -->
<svg version="1.1" xmlns="http://www.w3.org/2000/svg" xmlns:xlink="http://www.w3.org/1999/xlink" x="0px" y="0px"
	 viewBox="0 0 121.8 100" enable-background="new 0 0 121.8 100" xml:space="preserve">
<g id="Loblaw_Digital">
</g>
<g id="Phoenix">
</g>
<g id="Magnet_Forensics_1_">
</g>
<g id="Bloomberg">
</g>
<g id="Wish">
</g>
<g id="lani">
</g>
<g id="Yelp">
	<g>
		<path fill="#FFFFFF" stroke="#BCBEC0" stroke-width="0.5" d="M113.8,64.3L113.8,64.3C113.8,64.3,113.8,64.3,113.8,64.3L113.8,64.3
			z M73.6,38.3C73.6,38.3,73.6,38.3,73.6,38.3C73.6,38.3,73.6,38.3,73.6,38.3L73.6,38.3z M119.8,49.1c-0.8-0.6-0.9-0.7-5.6-2.2
			c4.1-1,4.2-1.1,5-1.6c1.6-1.1,2.5-2.9,2.4-4.9l0-0.2c-0.3-3.2-4.4-9.2-7.2-10.5c-1.8-0.9-3.9-0.7-5.4,0.3
			c-0.8,0.5-0.9,0.6-3.9,4.8c-0.3-4.9-0.9-13.6-1-14.4l0-0.2l0-0.2c-0.5-1.9-2-3.3-4-3.8c-3.3-0.8-12.1,1.6-14.4,4.1
			c-1.4,1.4-1.9,3.4-1.4,5.2l0.1,0.4l0.2,0.3c0.2,0.5,0.8,1.4,5.9,9.4l1.9,2.9c-4.5-1.9-4.7-1.9-5.7-1.9c-1.8-0.1-3.6,0.9-4.7,2.6
			l0,0c-0.6,0.9-0.9,2.1-1.1,3.4c-1.5-2-3.7-3.6-7-4.2c-2.4-0.5-4.6-0.2-6.7,0.7c-1.9-1.2-4.6-1.4-6.8-0.1c-0.7,0.4-1.2,0.8-1.6,1.3
			v-2.7l-0.2-1.6l-0.1-0.3c-0.4-1.7-1.8-3.2-3.5-3.9l0,0c-1.9-0.8-4.1-0.6-5.9,0.5c-2,1.2-3,3.1-3,5.7v5.5c-0.7-1.1-1.6-2-2.6-2.8
			c-2.7-2.1-6.4-2.8-10.7-2c-2.4,0.4-4.5,1.5-6.1,3.1c0-0.1-0.1-0.1-0.1-0.2c-0.8-1.5-2.2-2.5-3.9-2.9c-2.9-0.8-6.5,0.2-8,5.3
			c0,0-0.2,0.8-0.6,2c-0.7-1.2-2.4-4.5-2.4-4.6c-1.5-2.3-4.6-3.3-7.3-2.2C1.5,39.9,0,42.3,0,45c0,0.9,0.2,1.8,0.5,2.7l0.1,0.2
			c0,0,5.4,11.1,7,14.3c-2.5,0.7-4.3,2.6-4.6,5.1c0,0.2,0,0.5,0,0.7c0,1.6,0.7,3.2,1.9,4.4c1.9,1.8,4.9,2.3,8.3,1.6
			c3.8-0.7,5.9-3,7.5-7.8L23,59c0.8,3.1,2.1,5.1,3.4,6.3c1.9,1.9,5.3,3.9,11,3.1c4.2-0.6,7.1-2.5,8.7-4.7l0.1,0.5
			c0.5,1.6,1.7,3,3.3,3.7c1.7,0.8,3.7,0.8,5.4,0c0.9-0.4,1.7-1,2.3-1.8v2.3c0,3.8,2.2,5.4,3.5,6c1.7,0.9,3.7,0.9,5.5,0.2
			c1.7-0.7,2.9-2.1,3.4-3.8l0.1-0.3l0.2-1.6c0,0,0-0.6,0-0.7c2.3,0.2,4.7-0.1,6.8-1.2c0.9-0.5,1.7-1.1,2.5-1.7h1.5
			c0.8,0.4,1.8,0.7,2.8,0.7c1,0,2-0.3,2.8-0.7h4.5c3,1.7,7.3,2.9,9.6,2.5c2-0.4,3.6-1.6,4.2-3.4l0-0.1c0.3-0.8,0.3-1,0.3-5.6
			c2.5,4.1,2.7,4.2,3.4,4.8c1.5,1.2,3.5,1.5,5.4,0.7c3-1.2,7.5-7,8-10.2c0-0.3,0.1-0.6,0.1-0.8C121.8,51.7,121.1,50.1,119.8,49.1z"
			/>
		<g>
			<g>
				<path fill="#E6E7E8" d="M84.4,42.7c-0.7,1.2-1,4.8-0.8,7.2c0.1,0.8,0.2,1.5,0.4,1.9c0.3,0.5,0.8,0.9,1.3,0.9
					c0.4,0,0.6,0,7.2-2.2c0,0,3-0.9,3-0.9c0.7-0.2,1.2-0.9,1.3-1.7c0-0.9-0.4-1.7-1.2-2c0,0-2.1-0.9-2.1-0.9c-7.2-3-7.5-3.1-7.9-3.1
					C85.2,41.9,84.7,42.1,84.4,42.7z"/>
				<path fill="#E6E7E8" d="M100.4,64.7c0.1-0.3,0.1-0.6,0.1-7.6c0,0,0-3.1,0-3.1c0-0.8-0.4-1.4-1.2-1.8c-0.8-0.3-1.7-0.1-2.2,0.5
					c0,0-1.5,1.7-1.5,1.7c-5,5.9-5.2,6.2-5.4,6.5c-0.1,0.2-0.1,0.4-0.1,0.6c0,0.3,0.2,0.6,0.4,0.9c1.2,1.4,6.8,3.4,8.5,3.1
					C99.8,65.6,100.2,65.2,100.4,64.7z"/>
				<path fill="#E6E7E8" d="M111.7,62.3c1.7-0.7,5.4-5.3,5.6-7.1c0.1-0.6-0.1-1.2-0.5-1.5c-0.3-0.2-0.5-0.3-7.2-2.5c0,0-2.9-1-3-1
					c-0.7-0.3-1.5,0-2.1,0.6c-0.6,0.7-0.7,1.6-0.2,2.3l1.2,1.9c4,6.4,4.3,6.9,4.5,7.1C110.6,62.4,111.2,62.5,111.7,62.3L111.7,62.3z
					"/>
				<path fill="#E6E7E8" d="M108.3,45.7c7.6-1.8,7.9-1.9,8.2-2.1c0.5-0.3,0.7-0.8,0.6-1.5c0,0,0,0,0-0.1c-0.2-1.9-3.5-6.7-5.1-7.5
					c-0.6-0.3-1.1-0.3-1.6,0.1c-0.3,0.2-0.5,0.5-4.6,6c0,0-1.8,2.5-1.9,2.5c-0.5,0.6-0.5,1.4,0,2.2c0.5,0.7,1.3,1.1,2.1,0.9
					c0,0,0,0.1,0,0.1C106.4,46.2,107.1,46,108.3,45.7z"/>
				<path fill="#E6E7E8" d="M100.7,39.5L100.7,39.5c-0.1-3-1-16.4-1.1-17c-0.2-0.6-0.6-1-1.2-1.1c-1.9-0.5-9.3,1.6-10.7,3
					c-0.4,0.5-0.6,1-0.5,1.5c0.2,0.4,9.4,14.9,9.4,14.9c1.4,2.2,2.5,1.9,2.8,1.7C99.7,42.4,100.8,42,100.7,39.5z"/>
			</g>
		</g>
		<g>
			<g>
				<path fill="#B3282D" d="M85,41.1c-0.7,1.2-1,4.8-0.8,7.2c0.1,0.8,0.2,1.5,0.4,1.9c0.3,0.5,0.8,0.9,1.3,0.9c0.4,0,0.6,0,7.2-2.2
					c0,0,3-0.9,3-1c0.7-0.2,1.2-0.9,1.3-1.7c0-0.9-0.4-1.7-1.2-2c0,0-2.1-0.9-2.1-0.9c-7.2-3-7.5-3.1-7.9-3.1
					C85.8,40.3,85.3,40.6,85,41.1z"/>
				<path fill="#B3282D" d="M101,63.2c0.1-0.3,0.1-0.6,0.1-7.6c0,0,0-3.1,0-3.1c0-0.8-0.4-1.4-1.2-1.8c-0.8-0.3-1.7-0.1-2.2,0.5
					c0,0-1.5,1.7-1.5,1.7c-5,5.9-5.2,6.2-5.4,6.5c-0.1,0.2-0.1,0.4-0.1,0.6c0,0.3,0.2,0.6,0.4,0.9c1.2,1.4,6.8,3.4,8.5,3.1
					C100.4,64.1,100.8,63.7,101,63.2z"/>
				<path fill="#B3282D" d="M112.3,60.7c1.7-0.7,5.4-5.3,5.6-7.1c0.1-0.6-0.1-1.2-0.5-1.5c-0.3-0.2-0.5-0.3-7.2-2.5c0,0-2.9-1-3-1
					c-0.7-0.3-1.5,0-2.1,0.7c-0.6,0.7-0.6,1.6-0.2,2.3l1.2,1.9c4,6.4,4.3,6.9,4.5,7.1C111.2,60.9,111.8,61,112.3,60.7L112.3,60.7z"
					/>
				<path fill="#B3282D" d="M108.9,44.2c7.6-1.8,7.9-1.9,8.2-2.1c0.5-0.3,0.7-0.8,0.6-1.5c0,0,0,0,0-0.1c-0.2-1.9-3.5-6.7-5.1-7.5
					c-0.6-0.3-1.1-0.3-1.6,0.1c-0.3,0.2-0.5,0.5-4.6,6c0,0-1.8,2.5-1.9,2.5c-0.5,0.6-0.5,1.4,0,2.2c0.5,0.7,1.3,1.1,2.1,0.9
					c0,0,0,0.1,0,0.1C107,44.6,107.7,44.5,108.9,44.2z"/>
				<path fill="#B3282D" d="M101.3,37.9L101.3,37.9c-0.1-3-1-16.4-1.1-17c-0.2-0.6-0.6-1-1.2-1.1c-1.9-0.5-9.3,1.6-10.7,3
					c-0.4,0.5-0.6,1-0.5,1.5c0.2,0.4,9.4,14.9,9.4,14.9c1.4,2.2,2.5,1.9,2.8,1.7C100.3,40.8,101.4,40.5,101.3,37.9z"/>
			</g>
		</g>
		<g>
			<g>
				<path d="M7.4,69.6c1,0.9,2.8,1.1,5,0.7c2.1-0.4,3.3-1.3,4.6-5.2l6.1-19.2c0.3-1,0.3-1.9-0.1-2.6c-0.3-0.5-0.8-0.9-1.5-1.1
					c-1.1-0.3-2.5-0.3-3.3,2.7L15,55.8c0,0-6.5-12.4-6.5-12.4c-0.4-0.8-1.6-1.4-2.9-0.9c-1.6,0.6-2.1,2.1-1.5,3.9c0,0,8,16.2,8,16.2
					c0,0,0.2,0.6,0.2,0.7c0,0,0.1,0.4,0.1,0.5c0,0.6-0.2,1.1-0.6,1.5c-0.4,0.3-0.9,0.5-1.5,0.5c0,0-1.2,0-1.3,0
					c-1.3,0.2-2.1,0.9-2.2,2C6.7,68.5,6.9,69.2,7.4,69.6z"/>
				<path d="M44,49.9c-0.3-2.8-1.3-4.9-3.1-6.3c-1.9-1.4-4.5-1.9-7.7-1.3c-3.9,0.7-6.3,3.5-6.8,8.1c-0.7,5.6,0.2,9.7,2.7,12.1
					c1.8,1.8,4.5,2.5,7.8,2.1c4.6-0.7,6.7-3.2,6.7-4.8c0-1.2-0.7-2.1-1.8-2.3c-0.6-0.1-1.1,0-2.2,1c-1.6,1.4-3.5,2-5.2,1.6
					c-1.3-0.3-2.3-1.2-2.7-2.4c0,0-0.2-0.8-0.2-0.7c-0.1-0.7-0.2-1.4,0.2-1.7l0.1-0.1h10.2c0.9,0,1.4-0.1,1.7-0.4
					C44.3,54.2,44.3,52.4,44,49.9z M38.8,51.4h-8.5c-0.2-0.2-0.3-0.5-0.2-1.3c0.1-0.4,0.2-0.8,0.6-1.4c0.1-0.2,0.2-0.3,0.3-0.5
					c0.6-0.8,1.5-1.3,2.4-1.5c3-0.7,5.1,0.8,5.4,3.4C39,51.2,38.9,51.4,38.8,51.4z"/>
				<path d="M53.3,35.2c-0.8-0.3-1.7-0.2-2.5,0.2c-0.8,0.5-1.1,1.1-1.1,2.4v24.4c0,0,0.1,0.9,0.1,0.9c0.2,0.6,0.6,1.1,1.2,1.4
					c0.7,0.3,1.5,0.3,2.2,0c0.9-0.4,1.4-1.3,1.4-2.4V37.7c0,0-0.2-1.2-0.2-1.2C54.4,36,53.9,35.5,53.3,35.2z"/>
				<path d="M72.8,42.1c-2.3-0.5-4.2-0.1-6.1,1.2c0,0-0.2,0.2-0.3,0.2l-0.2,0.1l-0.5,0.2l-0.1-0.6L65.5,43l0-0.1l0,0
					c0,0-0.1-0.2-0.1-0.2c-0.5-0.8-2-1.2-3.3-0.5c-0.6,0.4-1,0.9-1,2.4v23.9c0,1.3,0.4,2.1,1.3,2.6c0.8,0.4,1.6,0.4,2.3,0.1
					c0.6-0.3,1.1-0.8,1.2-1.3l0.1-1v-4.1l0-0.7l0-0.2l0-0.1l0.2-0.8l0.7,0.5c0,0,0.2,0.1,0.3,0.2l0.2,0.1c0,0,0.3,0.2,0.3,0.2
					c0,0,0.2,0.1,0.2,0.1c2,0.9,4.7,0.8,6.8-0.3c2.7-1.4,4.1-3.9,4.4-8.2C80,47.1,78,43.1,72.8,42.1z M72.6,60c-3.4,0-3.9-3-4-5.3
					c0,0,0-1.3,0-1.3s0-1,0-1c0.2-3.9,1-5.5,3.1-5.9c1.4-0.3,2.4-0.2,3.2,0.5c1.2,1,1.7,3,1.7,6.4C76.5,57.3,75.8,60,72.6,60z"/>
			</g>
		</g>
		<g>
			<path d="M83.6,60.5c0.8,0,1.4,0.6,1.4,1.4c0,0.8-0.6,1.4-1.4,1.4c-0.8,0-1.4-0.6-1.4-1.4C82.2,61.1,82.8,60.5,83.6,60.5z
				 M83.6,63.1c0.7,0,1.2-0.5,1.2-1.2c0-0.7-0.5-1.2-1.2-1.2c-0.7,0-1.2,0.5-1.2,1.2C82.4,62.6,82.9,63.1,83.6,63.1z M83.1,61.1h0.6
				c0.4,0,0.6,0.1,0.6,0.5c0,0.3-0.2,0.4-0.4,0.4l0.5,0.7H84L83.6,62h-0.3v0.7h-0.2V61.1z M83.3,61.8h0.3c0.2,0,0.4,0,0.4-0.3
				c0-0.2-0.2-0.3-0.4-0.3h-0.3V61.8z"/>
		</g>
	</g>
</g>
<g id="Mozilla">
</g>
<g id="Microsoft">
</g>
<g id="Facebook">
</g>
<g id="Kik_1_">
</g>
<g id="D2L">
</g>
<g id="Linode">
</g>
<g id="Braintree">
</g>
<g id="Velocity">
</g>
<g id="citi">
</g>
<g id="Course_Hero">
</g>
<g id="square">
</g>
<g id="Capco">
</g>
</svg>
