<?xml version="1.0" encoding="utf-8"?>
<!-- Generator: Adobe Illustrator 16.0.0, SVG Export Plug-In . SVG Version: 6.00 Build 0)  -->
<!DOCTYPE svg PUBLIC "-//W3C//DTD SVG 1.1//EN" "http://www.w3.org/Graphics/SVG/1.1/DTD/svg11.dtd">
<svg version="1.1" id="Layer_1" xmlns="http://www.w3.org/2000/svg" xmlns:xlink="http://www.w3.org/1999/xlink" x="0px" y="0px"
	 width="578.414px" height="337.079px" viewBox="0 0 578.414 337.079" enable-background="new 0 0 578.414 337.079"
	 xml:space="preserve">
<g>
	<path fill="#0082CA" d="M37.383,186.226C18.455,186.226,0,172.66,0,141.902s18.455-44.166,37.383-44.166
		c9.307,0,16.562,2.366,21.768,5.836l-5.678,12.461c-3.47-2.524-8.676-4.101-13.881-4.101c-11.357,0-21.768,8.991-21.768,29.812
		c0,20.82,10.726,29.97,21.768,29.97c5.205,0,10.411-1.577,13.881-4.102l5.678,12.777C53.788,184.018,46.69,186.226,37.383,186.226
		L37.383,186.226z"/>
	<path fill="#0082CA" d="M102.529,111.459c-13.407,0-20.032,11.988-20.032,30.285c0,18.297,6.625,30.442,20.032,30.442
		c13.408,0,20.033-12.146,20.033-30.442C122.562,123.447,115.937,111.459,102.529,111.459L102.529,111.459z M102.529,186.226
		c-24.133,0-37.383-19.086-37.383-44.324s13.25-44.166,37.383-44.166c24.134,0,37.384,18.928,37.384,44.166
		S126.663,186.226,102.529,186.226L102.529,186.226z"/>
	<path fill="#0082CA" d="M154.424,184.49v-85.02h17.351v85.02H154.424L154.424,184.49z M163.099,84.013
		c-5.678,0-10.253-4.417-10.253-9.78c0-5.363,4.575-9.779,10.253-9.779c5.679,0,10.253,4.417,10.253,9.779
		C173.352,79.596,168.778,84.013,163.099,84.013L163.099,84.013z"/>
	<path fill="#0082CA" d="M240.074,184.49v-56.785c0-9.938-5.994-16.089-17.824-16.089c-6.309,0-12.145,1.104-15.616,2.523v70.35
		h-17.193v-80.761c8.518-3.47,19.402-5.994,32.651-5.994c23.819,0,35.333,10.411,35.333,28.393v58.362H240.074L240.074,184.49z"/>
	<path fill="#0082CA" d="M305.375,111.617c-4.732,0-10.253,1.104-13.565,2.839v55.839c2.524,1.104,7.414,2.208,12.303,2.208
		c13.723,0,23.819-9.465,23.819-31.232C327.932,122.658,319.098,111.617,305.375,111.617L305.375,111.617z M303.167,186.226
		c-11.042,0-21.925-2.682-28.55-5.994V60.668h17.193v41.011c4.101-1.893,10.726-3.47,16.562-3.47
		c21.926,0,36.753,15.773,36.753,41.8C345.125,172.029,328.562,186.226,303.167,186.226L303.167,186.226z"/>
	<path fill="#0082CA" d="M406.168,141.744c-17.351,0.946-34.702,2.366-34.702,17.509c0,8.99,6.941,14.512,20.033,14.512
		c5.521,0,11.988-0.947,14.669-2.209V141.744L406.168,141.744z M391.972,186.226c-24.448,0-36.752-9.938-36.752-26.657
		c0-23.661,25.237-27.919,50.948-29.339v-5.363c0-10.726-7.098-14.512-17.982-14.512c-8.044,0-17.823,2.524-23.502,5.206
		l-4.417-11.831c6.783-2.997,18.299-5.994,29.654-5.994c20.348,0,32.652,7.887,32.652,28.866v53.63
		C416.421,183.544,403.96,186.226,391.972,186.226L391.972,186.226z"/>
	<path fill="#0082CA" d="M461.374,186.226c-9.938,0-20.348-2.682-26.499-5.994l5.836-13.25c4.416,2.682,13.723,5.521,20.19,5.521
		c9.307,0,15.458-4.574,15.458-11.674c0-7.729-6.468-10.726-15.143-13.88c-11.356-4.259-24.134-9.464-24.134-25.396
		c0-14.039,10.884-23.818,29.812-23.818c10.254,0,18.771,2.524,24.766,5.994l-5.363,11.988c-3.786-2.366-11.356-5.048-17.509-5.048
		c-8.991,0-14.039,4.732-14.039,10.884c0,7.729,6.31,10.411,14.67,13.565c11.83,4.417,24.922,9.307,24.922,25.868
		C494.341,176.288,482.669,186.226,461.374,186.226L461.374,186.226z"/>
	<path fill="#0082CA" d="M542.923,110.354c-13.25,0-21.925,10.095-22.241,27.762l41.168-5.679
		C561.694,117.61,554.28,110.354,542.923,110.354L542.923,110.354z M578.256,141.586l-56.47,7.886
		c1.735,15.301,11.673,23.03,26.027,23.03c8.518,0,17.666-2.052,23.502-5.205l5.049,12.934c-6.625,3.47-17.982,5.994-29.654,5.994
		c-26.817,0-41.801-17.193-41.801-44.324c0-26.026,14.512-44.166,38.33-44.166c22.083,0,35.176,14.512,35.176,37.383
		C578.415,137.17,578.415,139.378,578.256,141.586L578.256,141.586z"/>
</g>
</svg>
