<?xml version="1.0" encoding="utf-8"?>
<!-- Generator: Adobe Illustrator 16.0.0, SVG Export Plug-In . SVG Version: 6.00 Build 0)  -->
<!DOCTYPE svg PUBLIC "-//W3C//DTD SVG 1.1//EN" "http://www.w3.org/Graphics/SVG/1.1/DTD/svg11.dtd">
<svg version="1.1" id="Layer_2" xmlns="http://www.w3.org/2000/svg" xmlns:xlink="http://www.w3.org/1999/xlink" x="0px" y="0px"
	 width="340.822px" height="219px" viewBox="0 0 340.822 219" enable-background="new 0 0 340.822 219" xml:space="preserve">
<path id="path2998" fill="#4285F4" d="M83.711,99.812h-39.73v11.785h28.177c-1.392,16.527-15.146,23.574-28.13,23.574
	c-16.61,0-31.105-13.065-31.105-31.377c0-17.838,13.817-31.577,31.142-31.577c13.366,0,21.243,8.519,21.243,8.519l8.255-8.546
	c0,0-10.596-11.792-29.92-11.792C19.037,60.397,0,81.158,0,103.584c0,21.973,17.907,43.399,44.27,43.399
	c23.187,0,40.16-15.879,40.16-39.359c0-4.954-0.72-7.816-0.72-7.816L83.711,99.812z"/>
<path id="path3000" fill="#EA4335" d="M116.257,91.274c-16.302,0-27.985,12.742-27.985,27.601c0,15.081,11.332,28.059,28.177,28.059
	c15.25,0,27.742-11.651,27.742-27.733C144.191,100.769,129.659,91.274,116.257,91.274L116.257,91.274z M116.419,102.206
	c8.017,0,15.614,6.479,15.614,16.921c0,10.219-7.565,16.882-15.651,16.882c-8.885,0-15.894-7.112-15.894-16.964
	C100.488,109.406,107.411,102.206,116.419,102.206L116.419,102.206z"/>
<path id="path3005" fill="#FBBC05" d="M177.121,91.274c-16.302,0-27.985,12.742-27.985,27.601c0,15.081,11.333,28.059,28.177,28.059
	c15.25,0,27.743-11.651,27.743-27.733C205.057,100.769,190.524,91.274,177.121,91.274L177.121,91.274z M177.284,102.206
	c8.017,0,15.614,6.479,15.614,16.921c0,10.219-7.565,16.882-15.651,16.882c-8.885,0-15.893-7.112-15.893-16.964
	C161.354,109.406,168.276,102.206,177.284,102.206L177.284,102.206z"/>
<path id="path3007" fill="#4285F4" d="M236.821,91.305c-14.964,0-26.726,13.102-26.726,27.808c0,16.75,13.637,27.857,26.468,27.857
	c7.935,0,12.152-3.148,15.268-6.762v5.487c0,9.602-5.832,15.352-14.634,15.352c-8.503,0-12.768-6.32-14.251-9.907l-10.699,4.471
	c3.796,8.022,11.438,16.39,25.039,16.39c14.877,0,26.217-9.368,26.217-29.015V92.978h-11.672v4.715
	C248.242,93.826,243.336,91.306,236.821,91.305L236.821,91.305z M237.904,102.214c7.337,0,14.87,6.263,14.87,16.957
	c0,10.87-7.518,16.861-15.031,16.861c-7.979,0-15.401-6.476-15.401-16.758C222.342,108.59,230.051,102.214,237.904,102.214
	L237.904,102.214z"/>
<path id="path3011" fill="#EA4335" d="M315.399,91.238c-14.114,0-25.967,11.227-25.967,27.792c0,17.528,13.211,27.925,27.322,27.925
	c11.778,0,19.007-6.44,23.321-12.213l-9.623-6.401c-2.497,3.874-6.671,7.661-13.64,7.661c-7.826,0-11.424-4.283-13.653-8.435
	l37.327-15.482l-1.938-4.539C334.944,98.661,326.532,91.239,315.399,91.238L315.399,91.238z M315.886,101.942
	c5.087,0,8.746,2.701,10.302,5.943l-24.928,10.416C300.185,110.238,307.826,101.942,315.886,101.942z"/>
<path id="path3015" fill="#34A853" d="M271.637,145.303h12.261V63.275h-12.261V145.303z"/>
</svg>
