<?xml version="1.0" encoding="utf-8"?>
<!-- Generator: Adobe Illustrator 16.0.0, SVG Export Plug-In . SVG Version: 6.00 Build 0)  -->
<!DOCTYPE svg PUBLIC "-//W3C//DTD SVG 1.1//EN" "http://www.w3.org/Graphics/SVG/1.1/DTD/svg11.dtd">
<svg version="1.1" id="Layer_1" xmlns="http://www.w3.org/2000/svg" xmlns:xlink="http://www.w3.org/1999/xlink" x="0px" y="0px"
	 width="314.606px" height="160.674px" viewBox="0 0 314.606 160.674" enable-background="new 0 0 314.606 160.674"
	 xml:space="preserve">
<g>
	<polygon fill="#FFFFFF" points="54.743,79.388 3.168,79.382 3.168,29.178 54.743,29.178 54.743,79.388 	"/>
	<path fill="#2FAD55" d="M46.967,57.698c-1.135,2.374-6.024,5.476-7.879,6.362c-1.79-2.812-3.692-5.341-5.591-7.592
		c2.724-1.682,6.479-4.585,7.504-8.299c-1.189,2.481-5.657,5.598-8.452,7.201c-2.302-2.617-4.562-4.825-6.574-6.604
		c3.041-1.771,7.869-5.196,9.114-9.687c-1.483,3.087-7.523,7.056-10.408,8.562c-2.706-2.286-4.777-3.696-5.6-4.235
		c0.211,1.357-1.032,1.815-1.386,1.916c0.725,0.261,2.486,1.635,4.812,3.749c-0.347,1.403-5.406,9.948-9.159,11.747
		c5.295-1.463,9.111-7.912,10.472-10.535c1.917,1.804,4.099,3.982,6.347,6.38c-0.016,0.839-4.767,9.01-8.259,10.681
		c4.74-1.31,8.166-7.065,9.404-9.446c2.178,2.371,4.367,4.908,6.393,7.461c-0.781,1.721-3.993,6.864-6.437,8.037
		c3.474-0.958,6.064-4.897,7.237-7.018c3.357,4.334,6.405,9.471,7.68,13.009C44.7,74.36,42.138,69.04,39.71,65.069
		C41.761,63.958,45.974,61.301,46.967,57.698L46.967,57.698z"/>
	<path fill="#448644" d="M17.478,45.268c0.022,0,0.06,0.016,0.081,0.018c-0.014-0.021-0.033-0.043-0.049-0.068L17.478,45.268
		L17.478,45.268z"/>
	<path fill="#2FAD55" d="M3.168,29.178v5.136c2.225,0.973,15.039,6.655,15.764,8.535c0.033,0.082,0.041,0.149,0.061,0.224
		c3.288-4.716,11.681-13.23,23.262,0.438c13.677,16.138,5.905,32.858,4.312,35.877h8.176v-50.21H3.168L3.168,29.178z"/>
	<path fill="#2FAD55" d="M17.51,45.217c-1.56-2.112-11.295-5.852-14.342-6.985v41.156h22.073
		c-4.627-1.729-9.444-4.813-13.812-10.119c-13.818-16.776,3.657-23.133,6.164-23.935c-0.009-0.017-0.023-0.031-0.034-0.048
		C17.545,45.264,17.526,45.242,17.51,45.217L17.51,45.217z"/>
	<polygon points="205.023,79.892 202.368,79.892 188.188,45.941 196.219,45.941 203.731,66.297 211.8,45.941 219.558,45.941 
		205.023,79.892 	"/>
	<path d="M227.508,79.297V52.332h-3.983v-6.391h11.387v33.356H227.508L227.508,79.297z M231.28,33.017
		c1.174,0,2.178,0.44,3.012,1.326c0.834,0.889,1.25,1.957,1.25,3.205c0,1.25-0.416,2.319-1.25,3.205
		c-0.834,0.884-1.838,1.325-3.012,1.325c-1.178,0-2.182-0.441-3.015-1.325c-0.835-0.886-1.246-1.956-1.246-3.205
		c0-1.249,0.411-2.316,1.246-3.205C229.099,33.458,230.103,33.017,231.28,33.017L231.28,33.017z"/>
	<path d="M263.646,79.297V60.008c0-2.85-0.514-4.923-1.538-6.231c-1.024-1.311-2.698-1.966-5.022-1.966
		c-1.071,0-2.217,0.322-3.438,0.966c-1.222,0.645-2.174,1.444-2.856,2.398v24.121h-7.336V45.941h5.275l1.348,3.117
		c1.992-2.523,4.938-3.784,8.826-3.784c3.733,0,6.678,1.193,8.84,3.572c2.156,2.381,3.238,5.703,3.238,9.962v20.489H263.646
		L263.646,79.297z"/>
	<path d="M307.456,60.632c0-4.465-1.377-8.142-4.129-11.028c-2.754-2.885-6.406-4.33-10.957-4.33c-4.279,0-7.946,1.632-11.002,4.891
		c-3.06,3.263-4.586,7.521-4.586,12.778c0,5.337,1.391,9.497,4.172,12.479c2.776,2.981,6.56,4.471,11.34,4.471
		c5.113,0,8.953-1.113,11.531-3.341l-2.845-5.945c-1.735,1.834-4.276,2.75-7.618,2.75c-2.673,0-4.804-0.732-6.386-2.209
		c-1.583-1.468-2.44-3.53-2.575-6.185h22.441C307.251,63.028,307.456,61.584,307.456,60.632L307.456,60.632z M292.491,51.812
		c4.574,0,7.121,2.428,7.627,7.277h-15.439C285.696,54.239,288.3,51.812,292.491,51.812L292.491,51.812z"/>
	<path d="M63.354,77.116l2.599-6.21c2.18,1.884,4.644,2.82,7.39,2.82c2.843,0,4.263-1.081,4.263-3.251
		c0-1.271-0.429-2.31-1.287-3.123c-0.857-0.815-2.523-1.773-5.001-2.881c-5.404-2.386-8.104-5.73-8.104-10.034
		c0-2.887,1.032-5.136,3.097-6.746c2.067-1.611,4.708-2.417,7.919-2.417c3.255,0,6.313,0.78,9.178,2.34l-2.101,6.056
		c-1.597-1.486-3.814-2.23-6.655-2.23c-2.547,0-3.822,1.087-3.822,3.253c0,0.853,0.419,1.625,1.256,2.314
		c0.838,0.683,2.635,1.605,5.384,2.764c2.749,1.155,4.73,2.554,5.938,4.196c1.211,1.641,1.816,3.625,1.816,5.953
		c0,3.097-1.079,5.531-3.233,7.308c-2.152,1.777-5.081,2.664-8.785,2.664c-2.086,0-3.756-0.184-5.014-0.543
		C66.934,78.982,65.322,78.238,63.354,77.116L63.354,77.116z"/>
	<path d="M110.318,78.66c0.834,0.823,1.778,1.232,2.826,1.232c0.956,0,1.804-0.13,2.546-0.389c0.742-0.257,1.415-0.942,2.021-2.062
		c-1.68-1.142-2.521-3.938-2.521-8.384v-7.141c0-6.461-1.114-10.852-3.34-13.166c-2.226-2.318-5.731-3.478-10.514-3.478
		c-3.476,0-6.476,0.645-8.992,1.932l1.582,6.016c1.858-0.938,4.164-1.411,6.921-1.411c4.673,0,7.007,1.959,7.007,5.869
		c-1.175-0.296-2.194-0.446-3.054-0.446c-5.032,0-8.912,1.09-11.645,3.271c-2.731,2.178-4.095,5.198-4.095,9.057
		c0,3.296,0.969,5.847,2.908,7.642c1.938,1.793,4.603,2.689,7.988,2.689c1.802,0,3.531-0.363,5.186-1.09
		c1.654-0.73,2.814-1.671,3.479-2.819C108.914,76.95,109.478,77.84,110.318,78.66L110.318,78.66z M107.922,66.68
		c0,4.697-2.205,7.046-6.615,7.046c-3.275,0-4.911-1.497-4.911-4.496c0-4.034,2.9-6.055,8.705-6.055
		c0.628,0,1.569,0.127,2.821,0.375V66.68L107.922,66.68z"/>
	<path d="M143.316,79.297V60.008c0-2.85-0.512-4.923-1.538-6.231c-1.025-1.311-2.699-1.966-5.022-1.966
		c-1.075,0-2.221,0.322-3.442,0.966c-1.22,0.645-2.171,1.444-2.854,2.398v24.121h-7.337V45.941h5.278l1.351,3.117
		c1.989-2.523,4.931-3.784,8.821-3.784c3.734,0,6.679,1.193,8.841,3.572c2.157,2.381,3.239,5.703,3.239,9.962v20.489H143.316
		L143.316,79.297z"/>
	<path d="M184.715,79.297V31.605l-7.339,1.871v13.355c-1.953-1.039-4.119-1.558-6.503-1.558c-4.337,0-7.947,1.659-10.83,4.971
		c-2.881,3.315-4.323,7.607-4.323,12.884c0,5.279,1.254,9.391,3.767,12.339c2.511,2.952,5.955,4.425,10.331,4.425
		c1.544,0,3.04-0.263,4.484-0.776c1.443-0.524,2.472-1.135,3.074-1.844v2.025H184.715L184.715,79.297z M177.375,71.325
		c-0.31,0.46-0.977,0.912-2.005,1.358c-1.028,0.452-1.891,0.673-2.595,0.673c-6.293,0-9.441-3.477-9.441-10.423
		c0-3.557,0.793-6.291,2.377-8.194c1.58-1.903,3.841-2.852,6.771-2.852c1.702,0,3.333,0.664,4.893,1.997V71.325L177.375,71.325z"/>
	<path d="M310.081,38.051h0.377c0.432,0,0.795-0.157,0.795-0.561c0-0.287-0.207-0.574-0.795-0.574c-0.17,0-0.287,0.013-0.377,0.026
		V38.051L310.081,38.051z M310.081,39.864h-0.521v-3.273c0.273-0.04,0.533-0.079,0.926-0.079c0.496,0,0.82,0.104,1.016,0.248
		c0.197,0.144,0.301,0.365,0.301,0.678c0,0.43-0.287,0.691-0.639,0.795v0.026c0.287,0.052,0.482,0.313,0.547,0.795
		c0.078,0.509,0.158,0.704,0.209,0.809h-0.547c-0.08-0.104-0.158-0.404-0.221-0.834c-0.08-0.417-0.287-0.574-0.705-0.574h-0.365
		V39.864L310.081,39.864z M310.628,35.678c-1.291,0-2.346,1.108-2.346,2.478c0,1.396,1.055,2.491,2.359,2.491
		c1.305,0.013,2.348-1.095,2.348-2.478s-1.043-2.491-2.348-2.491H310.628L310.628,35.678z M310.642,35.221
		c1.604,0,2.883,1.304,2.883,2.934c0,1.656-1.279,2.947-2.896,2.947c-1.604,0-2.908-1.291-2.908-2.947
		c0-1.63,1.305-2.934,2.908-2.934H310.642L310.642,35.221z"/>
	<polygon points="3.134,102.67 3.134,92.655 4.509,92.655 4.509,102.67 3.134,102.67 	"/>
	<path d="M14.897,102.67v-4.256c0-0.778-0.118-1.323-0.352-1.636c-0.234-0.312-0.627-0.468-1.178-0.468
		c-0.296,0-0.605,0.089-0.929,0.267s-0.572,0.396-0.745,0.655v5.438h-1.297v-7.328h0.888l0.41,0.943
		c0.428-0.712,1.126-1.068,2.096-1.068c1.602,0,2.403,0.975,2.403,2.924v4.529H14.897L14.897,102.67z"/>
	<path d="M22.225,96.374h-0.844v-1.031h0.844V93.81l1.297-0.499v2.031h2.016v1.031h-2.016v3.64c0,0.616,0.104,1.055,0.312,1.314
		c0.208,0.26,0.544,0.39,1.006,0.39c0.334,0,0.68-0.083,1.037-0.25l0.192,1.14c-0.539,0.136-1.13,0.204-1.775,0.204
		c-0.58,0-1.07-0.216-1.47-0.646c-0.399-0.431-0.599-0.975-0.599-1.632V96.374L22.225,96.374z"/>
	<path d="M34.027,96.311c-0.578,0-1.062,0.188-1.454,0.562c-0.374,0.356-0.585,0.799-0.635,1.329h4.047
		c0-0.525-0.164-0.964-0.492-1.315C35.135,96.503,34.646,96.311,34.027,96.311L34.027,96.311z M37.18,99.139h-5.272
		c0,0.857,0.234,1.516,0.703,1.977c0.414,0.401,0.946,0.602,1.597,0.602c0.742,0,1.36-0.219,1.856-0.656l0.546,0.938
		c-0.201,0.202-0.508,0.376-0.923,0.523c-0.52,0.192-1.098,0.289-1.736,0.289c-0.921,0-1.702-0.312-2.345-0.937
		c-0.716-0.688-1.074-1.613-1.074-2.775c0-1.207,0.367-2.176,1.101-2.904c0.656-0.651,1.434-0.978,2.332-0.978
		c1.044,0,1.862,0.294,2.455,0.882c0.574,0.564,0.862,1.313,0.862,2.248C37.283,98.634,37.249,98.898,37.18,99.139L37.18,99.139z"/>
	<path d="M42.472,100.601v-8.259h1.297v8.046c0,0.393,0.112,0.701,0.337,0.928s0.519,0.339,0.882,0.339v1.156
		C43.311,102.811,42.472,102.075,42.472,100.601L42.472,100.601z"/>
	<path d="M50.311,100.601v-8.259h1.297v8.046c0,0.393,0.112,0.701,0.337,0.928s0.519,0.339,0.882,0.339v1.156
		C51.149,102.811,50.311,102.075,50.311,100.601L50.311,100.601z"/>
	<path d="M59.389,92.577c0.224,0,0.414,0.079,0.572,0.236s0.236,0.346,0.236,0.565c0,0.223-0.079,0.414-0.236,0.571
		s-0.348,0.236-0.572,0.236c-0.219,0-0.407-0.079-0.565-0.236s-0.236-0.349-0.236-0.571c0-0.225,0.078-0.414,0.233-0.568
		C58.976,92.654,59.165,92.577,59.389,92.577L59.389,92.577z M58.681,102.67v-6.234h-1v-1.094h2.297v7.328H58.681L58.681,102.67z"/>
	<path d="M68.235,96.264c-0.454,0-0.824,0.159-1.11,0.478s-0.429,0.705-0.429,1.16c0,0.51,0.139,0.933,0.416,1.267
		c0.277,0.335,0.652,0.502,1.124,0.502c0.462,0,0.824-0.163,1.085-0.488c0.261-0.325,0.392-0.752,0.392-1.28
		c0-0.455-0.141-0.842-0.423-1.16C69.008,96.423,68.656,96.264,68.235,96.264L68.235,96.264z M65.478,104.67l0.705-1.047
		c0.758,0.511,1.456,0.766,2.095,0.766c0.589,0,1.053-0.101,1.394-0.303c0.34-0.201,0.51-0.452,0.51-0.751
		c0-0.59-0.429-0.884-1.285-0.884c-0.146,0-0.41,0.036-0.793,0.109s-0.681,0.109-0.895,0.109c-1.039,0-1.559-0.393-1.559-1.178
		c0-0.242,0.121-0.462,0.364-0.657c0.242-0.197,0.543-0.338,0.901-0.425c-1.031-0.483-1.547-1.321-1.547-2.515
		c0-0.766,0.267-1.403,0.801-1.913c0.534-0.511,1.193-0.766,1.979-0.766c0.721,0,1.284,0.148,1.69,0.444l0.65-0.772l0.849,0.796
		l-0.78,0.585c0.333,0.433,0.499,0.998,0.499,1.695c0,0.738-0.23,1.358-0.691,1.859s-1.065,0.788-1.813,0.861l-1.075,0.108
		c-0.126,0.014-0.296,0.063-0.508,0.148s-0.318,0.197-0.318,0.335c0,0.188,0.223,0.283,0.67,0.283c0.195,0,0.501-0.036,0.915-0.109
		c0.415-0.073,0.722-0.109,0.923-0.109c0.72,0,1.281,0.172,1.685,0.517c0.403,0.344,0.604,0.82,0.604,1.432
		c0,0.674-0.303,1.219-0.907,1.633s-1.37,0.622-2.296,0.622c-0.475,0-0.975-0.085-1.499-0.255
		C66.219,105.121,65.797,104.914,65.478,104.67L65.478,104.67z"/>
	<path d="M79.491,96.311c-0.578,0-1.062,0.188-1.454,0.562c-0.373,0.356-0.585,0.799-0.635,1.329h4.047
		c0-0.525-0.164-0.964-0.491-1.315C80.599,96.503,80.109,96.311,79.491,96.311L79.491,96.311z M82.644,99.139h-5.272
		c0,0.857,0.234,1.516,0.703,1.977c0.414,0.401,0.946,0.602,1.597,0.602c0.742,0,1.361-0.219,1.857-0.656l0.546,0.938
		c-0.201,0.202-0.508,0.376-0.923,0.523c-0.52,0.192-1.099,0.289-1.737,0.289c-0.921,0-1.703-0.312-2.345-0.937
		c-0.716-0.688-1.073-1.613-1.073-2.775c0-1.207,0.367-2.176,1.101-2.904c0.657-0.651,1.434-0.978,2.332-0.978
		c1.044,0,1.862,0.294,2.455,0.882c0.575,0.564,0.862,1.313,0.862,2.248C82.746,98.634,82.712,98.898,82.644,99.139L82.644,99.139z"
		/>
	<path d="M92.326,102.67v-4.256c0-0.778-0.117-1.323-0.352-1.636c-0.234-0.312-0.627-0.468-1.178-0.468
		c-0.296,0-0.606,0.089-0.929,0.267s-0.571,0.396-0.744,0.655v5.438h-1.297v-7.328h0.888l0.41,0.943
		c0.428-0.712,1.126-1.068,2.096-1.068c1.602,0,2.403,0.975,2.403,2.924v4.529H92.326L92.326,102.67z"/>
	<path d="M99.655,96.374h-0.844v-1.031h0.844V93.81l1.297-0.499v2.031h2.015v1.031h-2.015v3.64c0,0.616,0.104,1.055,0.312,1.314
		s0.543,0.39,1.006,0.39c0.334,0,0.679-0.083,1.036-0.25l0.192,1.14c-0.539,0.136-1.13,0.204-1.774,0.204
		c-0.58,0-1.07-0.216-1.47-0.646c-0.4-0.431-0.599-0.975-0.599-1.632V96.374L99.655,96.374z"/>
	<path d="M117.859,97.689v3.819c0.467,0.046,0.825,0.068,1.075,0.068c0.852,0,1.475-0.16,1.867-0.481
		c0.393-0.321,0.589-0.832,0.589-1.534c0-0.651-0.188-1.132-0.562-1.441s-0.999-0.465-1.874-0.465L117.859,97.689L117.859,97.689z
		 M117.859,93.749v2.881c0.284,0.027,0.637,0.041,1.058,0.041c1.284,0,1.926-0.526,1.926-1.581c0-0.926-0.59-1.389-1.77-1.389
		C118.62,93.701,118.216,93.716,117.859,93.749L117.859,93.749z M119.337,102.67h-2.854V92.65c1.215-0.059,2.091-0.089,2.628-0.089
		c0.987,0,1.752,0.214,2.294,0.64c0.541,0.427,0.812,1.037,0.812,1.83c0,0.466-0.174,0.89-0.52,1.272
		c-0.348,0.384-0.732,0.623-1.152,0.719c0.795,0.191,1.373,0.509,1.737,0.95c0.363,0.442,0.544,1.045,0.544,1.806
		c0,0.88-0.322,1.582-0.966,2.106C121.217,102.409,120.375,102.67,119.337,102.67L119.337,102.67z"/>
	<path d="M131.997,96.605c-0.283-0.195-0.569-0.294-0.857-0.294c-0.461,0-0.864,0.213-1.209,0.638
		c-0.345,0.426-0.518,0.938-0.518,1.536v4.186h-1.296v-7.328h1.296v1.188c0.476-0.875,1.181-1.312,2.118-1.312
		c0.233,0,0.569,0.041,1.007,0.123L131.997,96.605L131.997,96.605z"/>
	<path d="M138.049,98.998c0,1.834,0.647,2.751,1.941,2.751c0.604,0,1.077-0.245,1.42-0.737c0.343-0.491,0.514-1.163,0.514-2.014
		c0-1.812-0.644-2.718-1.934-2.718c-0.59,0-1.061,0.241-1.413,0.724S138.049,98.151,138.049,98.998L138.049,98.998z M136.674,98.998
		c0-1.131,0.304-2.043,0.913-2.738c0.608-0.694,1.409-1.042,2.403-1.042c1.048,0,1.862,0.334,2.441,1.001
		c0.579,0.668,0.868,1.594,0.868,2.779c0,1.18-0.296,2.11-0.888,2.792c-0.593,0.681-1.4,1.021-2.421,1.021
		c-1.044,0-1.857-0.344-2.441-1.032C136.966,101.091,136.674,100.164,136.674,98.998L136.674,98.998z"/>
	<path d="M152.396,99.061c-0.411-0.083-0.698-0.125-0.862-0.125c-0.658,0-1.194,0.169-1.609,0.506s-0.623,0.736-0.623,1.196
		c0,0.762,0.449,1.142,1.349,1.142c0.656,0,1.238-0.312,1.745-0.938V99.061L152.396,99.061z M152.52,101.827
		c-0.52,0.656-1.316,0.984-2.387,0.984c-0.575,0-1.073-0.209-1.494-0.627c-0.422-0.418-0.633-0.938-0.633-1.559
		c0-0.744,0.325-1.374,0.975-1.888c0.649-0.514,1.478-0.771,2.486-0.771c0.273,0,0.583,0.058,0.93,0.172
		c0-1.177-0.528-1.766-1.584-1.766c-0.81,0-1.433,0.224-1.87,0.672l-0.546-1.094c0.245-0.201,0.586-0.374,1.02-0.519
		c0.435-0.144,0.85-0.216,1.246-0.216c1.06,0,1.831,0.241,2.31,0.723c0.48,0.482,0.721,1.248,0.721,2.298v2.619
		c0,0.642,0.192,1.068,0.578,1.282v0.656c-0.529,0-0.925-0.075-1.188-0.226C152.822,102.42,152.634,102.172,152.52,101.827
		L152.52,101.827z"/>
	<path d="M164.103,97.047c-0.328-0.491-0.777-0.736-1.348-0.736c-0.698,0-1.262,0.259-1.693,0.776
		c-0.432,0.519-0.647,1.178-0.647,1.977c0,1.759,0.803,2.638,2.409,2.638c0.205,0,0.451-0.064,0.738-0.194
		c0.288-0.129,0.468-0.267,0.541-0.412V97.047L164.103,97.047z M164.103,102.67v-0.54c-0.452,0.443-1.109,0.665-1.973,0.665
		c-0.918,0-1.663-0.327-2.233-0.983c-0.571-0.655-0.857-1.529-0.857-2.621c0-1.097,0.329-2.033,0.987-2.81
		c0.658-0.776,1.441-1.164,2.349-1.164c0.758,0,1.334,0.178,1.727,0.533v-3.408h1.297v10.328H164.103L164.103,102.67z"/>
	<path d="M172.252,96.885v4.224c0,0.073,0.161,0.192,0.485,0.359c0.322,0.166,0.567,0.249,0.735,0.249
		c0.882,0,1.514-0.212,1.896-0.636c0.38-0.424,0.572-1.135,0.572-2.133c0-0.828-0.223-1.476-0.668-1.94
		c-0.446-0.465-1.045-0.697-1.8-0.697c-0.159,0-0.38,0.068-0.664,0.205C172.525,96.653,172.339,96.776,172.252,96.885
		L172.252,96.885z M172.062,102.148l-0.458,0.663h-0.649V92.342h1.297v3.552c0.123-0.168,0.354-0.323,0.694-0.465
		c0.339-0.141,0.672-0.212,1.001-0.212c1.002,0,1.813,0.347,2.435,1.039c0.622,0.692,0.933,1.567,0.933,2.624
		c0,1.222-0.313,2.182-0.936,2.882c-0.624,0.699-1.469,1.049-2.534,1.049c-0.347,0-0.686-0.065-1.021-0.194
		C172.49,102.486,172.236,102.331,172.062,102.148L172.062,102.148z"/>
	<path d="M186.481,99.061c-0.41-0.083-0.697-0.125-0.863-0.125c-0.656,0-1.192,0.169-1.607,0.506
		c-0.416,0.337-0.623,0.736-0.623,1.196c0,0.762,0.449,1.142,1.35,1.142c0.656,0,1.237-0.312,1.744-0.938V99.061L186.481,99.061z
		 M186.604,101.827c-0.52,0.656-1.316,0.984-2.387,0.984c-0.574,0-1.072-0.209-1.494-0.627s-0.633-0.938-0.633-1.559
		c0-0.744,0.324-1.374,0.975-1.888c0.649-0.514,1.479-0.771,2.486-0.771c0.273,0,0.583,0.058,0.93,0.172
		c0-1.177-0.527-1.766-1.584-1.766c-0.811,0-1.434,0.224-1.87,0.672l-0.546-1.094c0.246-0.201,0.586-0.374,1.02-0.519
		c0.436-0.144,0.851-0.216,1.246-0.216c1.061,0,1.83,0.241,2.311,0.723c0.48,0.482,0.721,1.248,0.721,2.298v2.619
		c0,0.642,0.192,1.068,0.578,1.282v0.656c-0.529,0-0.926-0.075-1.188-0.226C186.907,102.42,186.718,102.172,186.604,101.827
		L186.604,101.827z"/>
	<path d="M198.032,102.67v-4.256c0-0.778-0.119-1.323-0.353-1.636c-0.233-0.312-0.628-0.468-1.179-0.468
		c-0.297,0-0.605,0.089-0.928,0.267c-0.324,0.178-0.572,0.396-0.746,0.655v5.438h-1.295v-7.328h0.887l0.41,0.943
		c0.428-0.712,1.125-1.068,2.096-1.068c1.602,0,2.402,0.975,2.402,2.924v4.529H198.032L198.032,102.67z"/>
	<path d="M209.547,97.047c-0.329-0.491-0.778-0.736-1.347-0.736c-0.699,0-1.264,0.259-1.694,0.776
		c-0.431,0.519-0.646,1.178-0.646,1.977c0,1.759,0.801,2.638,2.407,2.638c0.205,0,0.451-0.064,0.739-0.194
		c0.287-0.129,0.467-0.267,0.54-0.412V97.047L209.547,97.047z M209.547,102.67v-0.54c-0.452,0.443-1.11,0.665-1.972,0.665
		c-0.918,0-1.664-0.327-2.234-0.983c-0.571-0.655-0.855-1.529-0.855-2.621c0-1.097,0.328-2.033,0.985-2.81s1.44-1.164,2.351-1.164
		c0.758,0,1.334,0.178,1.726,0.533v-3.408h1.297v10.328H209.547L209.547,102.67z"/>
	<polygon points="230.907,102.811 225.735,95.483 225.735,102.67 224.438,102.67 224.438,92.655 224.985,92.655 230.016,99.577 
		230.016,92.655 231.312,92.655 231.312,102.811 230.907,102.811 	"/>
	<path d="M239.983,96.311c-0.578,0-1.062,0.188-1.453,0.562c-0.373,0.356-0.586,0.799-0.636,1.329h4.047
		c0-0.525-0.163-0.964-0.491-1.315C241.091,96.503,240.602,96.311,239.983,96.311L239.983,96.311z M243.136,99.139h-5.271
		c0,0.857,0.233,1.516,0.702,1.977c0.414,0.401,0.946,0.602,1.597,0.602c0.742,0,1.361-0.219,1.857-0.656l0.546,0.938
		c-0.2,0.202-0.509,0.376-0.923,0.523c-0.52,0.192-1.1,0.289-1.736,0.289c-0.922,0-1.703-0.312-2.346-0.937
		c-0.716-0.688-1.072-1.613-1.072-2.775c0-1.207,0.366-2.176,1.1-2.904c0.656-0.651,1.435-0.978,2.332-0.978
		c1.045,0,1.863,0.294,2.455,0.882c0.576,0.564,0.863,1.313,0.863,2.248C243.239,98.634,243.204,98.898,243.136,99.139
		L243.136,99.139z"/>
	<path d="M248.786,96.374h-0.842v-1.031h0.842V93.81l1.297-0.499v2.031h2.017v1.031h-2.017v3.64c0,0.616,0.105,1.055,0.313,1.314
		s0.543,0.39,1.007,0.39c0.334,0,0.678-0.083,1.035-0.25l0.192,1.14c-0.539,0.136-1.132,0.204-1.774,0.204
		c-0.58,0-1.07-0.216-1.47-0.646s-0.601-0.975-0.601-1.632V96.374L248.786,96.374z"/>
	<polygon points="264.345,102.811 264.001,102.811 261.853,97.827 259.72,102.811 259.376,102.811 256.751,95.327 258.142,95.327 
		259.712,100.139 261.657,95.327 262.001,95.327 264.009,100.139 265.688,95.327 266.97,95.327 264.345,102.811 	"/>
	<path d="M272.599,98.998c0,1.834,0.646,2.751,1.941,2.751c0.604,0,1.076-0.245,1.42-0.737c0.342-0.491,0.514-1.163,0.514-2.014
		c0-1.812-0.645-2.718-1.934-2.718c-0.59,0-1.062,0.241-1.414,0.724C272.774,97.486,272.599,98.151,272.599,98.998L272.599,98.998z
		 M271.224,98.998c0-1.131,0.305-2.043,0.912-2.738c0.609-0.694,1.41-1.042,2.404-1.042c1.047,0,1.861,0.334,2.44,1.001
		c0.579,0.668,0.868,1.594,0.868,2.779c0,1.18-0.297,2.11-0.889,2.792c-0.592,0.681-1.399,1.021-2.42,1.021
		c-1.045,0-1.857-0.344-2.441-1.032C271.515,101.091,271.224,100.164,271.224,98.998L271.224,98.998z"/>
	<path d="M286.921,96.605c-0.283-0.195-0.569-0.294-0.857-0.294c-0.461,0-0.863,0.213-1.209,0.638
		c-0.346,0.426-0.518,0.938-0.518,1.536v4.186h-1.297v-7.328h1.297v1.188c0.475-0.875,1.181-1.312,2.117-1.312
		c0.233,0,0.569,0.041,1.008,0.123L286.921,96.605L286.921,96.605z"/>
	<polygon points="296.817,102.67 294.516,99.003 293.378,100.173 293.378,102.67 292.081,102.67 292.081,92.342 293.378,92.342 
		293.378,98.751 296.191,95.342 297.706,95.342 295.358,98.127 298.223,102.67 296.817,102.67 	"/>
	<path d="M302.385,102.234l0.457-1.235c0.724,0.479,1.307,0.719,1.748,0.719c0.801,0,1.2-0.337,1.2-1.012
		c0-0.482-0.385-0.897-1.16-1.243c-0.596-0.273-0.998-0.481-1.205-0.623c-0.207-0.141-0.387-0.301-0.539-0.481
		c-0.152-0.18-0.268-0.371-0.342-0.574c-0.075-0.202-0.112-0.42-0.112-0.652c0-0.602,0.22-1.071,0.655-1.408
		c0.439-0.337,1.011-0.506,1.718-0.506c0.532,0,1.206,0.168,2.019,0.504l-0.369,1.199c-0.515-0.406-1.03-0.609-1.549-0.609
		c-0.31,0-0.57,0.073-0.781,0.219c-0.213,0.146-0.317,0.331-0.317,0.554c0,0.469,0.267,0.824,0.799,1.066l0.929,0.424
		c0.568,0.26,0.983,0.556,1.242,0.889c0.26,0.332,0.389,0.749,0.389,1.25c0,0.656-0.229,1.17-0.689,1.542
		c-0.461,0.371-1.1,0.557-1.916,0.557C303.788,102.811,303.064,102.619,302.385,102.234L302.385,102.234z"/>
</g>
</svg>
