<?xml version="1.0" encoding="UTF-8" standalone="no"?>
<!-- Generator: Adobe Illustrator 16.0.0, SVG Export Plug-In . SVG Version: 6.00 Build 0)  -->

<svg
   xmlns:dc="http://purl.org/dc/elements/1.1/"
   xmlns:cc="http://creativecommons.org/ns#"
   xmlns:rdf="http://www.w3.org/1999/02/22-rdf-syntax-ns#"
   xmlns:svg="http://www.w3.org/2000/svg"
   xmlns="http://www.w3.org/2000/svg"
   xmlns:sodipodi="http://sodipodi.sourceforge.net/DTD/sodipodi-0.dtd"
   xmlns:inkscape="http://www.inkscape.org/namespaces/inkscape"
   version="1.1"
   id="Layer_1"
   x="0px"
   y="0px"
   width="700"
   height="490"
   viewBox="0 115.5 700 490.00001"
   enable-background="new 0 115.5 612 534"
   xml:space="preserve"
   inkscape:version="0.91 r13725"
   sodipodi:docname="logos_lani.svg"><metadata
     id="metadata40"><rdf:RDF><cc:Work
         rdf:about=""><dc:format>image/svg+xml</dc:format><dc:type
           rdf:resource="http://purl.org/dc/dcmitype/StillImage" /><dc:title></dc:title></cc:Work></rdf:RDF></metadata><defs
     id="defs38" /><sodipodi:namedview
     pagecolor="#ffffff"
     bordercolor="#666666"
     borderopacity="1"
     objecttolerance="10"
     gridtolerance="10"
     guidetolerance="10"
     inkscape:pageopacity="0"
     inkscape:pageshadow="2"
     inkscape:window-width="640"
     inkscape:window-height="480"
     id="namedview36"
     showgrid="false"
     inkscape:zoom="0.44194757"
     inkscape:cx="226"
     inkscape:cy="136.5248"
     inkscape:window-x="50"
     inkscape:window-y="46"
     inkscape:window-maximized="0"
     inkscape:current-layer="Layer_1"
     fit-margin-top="0"
     fit-margin-left="0"
     fit-margin-right="0"
     fit-margin-bottom="0" /><g
     id="Loblaw_Digital"
     transform="translate(-80,96.53301)" /><g
     id="Phoenix"
     transform="translate(-80,96.53301)" /><g
     id="Magnet_Forensics_1_"
     transform="translate(-80,96.53301)" /><g
     id="Bloomberg"
     transform="translate(-80,96.53301)" /><g
     id="Wish"
     transform="translate(-80,96.53301)" /><g
     id="lani"
     transform="translate(42,-27.46699)"><g
       id="g9"><path
         d="m 286.1,317.922 0,177.935 c 0,0.468 0.468,0.468 0.468,0.468 l 0,10.302 c -5.619,0 -10.302,-4.683 -10.302,-10.77 l 0,-177.935 9.834,0 z"
         id="path11"
         inkscape:connector-curvature="0"
         style="fill:#010101" /><path
         d="m 305.766,466.825 c 0,-22.477 22.944,-39.802 49.634,-39.802 l 59.936,0 0,-12.173 c 0,-15.453 -19.198,-29.968 -44.952,-29.968 -17.325,0 -31.841,4.683 -42.61,11.238 l -5.15,-8.428 c 13.11,-7.96 29.499,-12.643 48.229,-12.643 29.031,0 54.316,16.857 54.316,39.801 l 0,91.776 -8.429,0 -0.937,-27.158 -0.468,0 c -10.77,17.793 -31.373,29.499 -54.785,29.499 -34.65,0 -54.784,-18.73 -54.784,-42.142 z m 109.57,-12.175 0,-17.325 -59.936,0 c -22.944,0 -39.333,14.048 -39.333,29.5 0,17.325 14.516,32.309 44.483,32.309 30.905,0 54.786,-23.412 54.786,-44.484 z"
         id="path13"
         inkscape:connector-curvature="0"
         style="fill:#010101" /><path
         d="m 460.756,377.857 0.937,36.523 0.937,0 c 11.238,-23.412 33.714,-39.333 58.999,-39.333 29.5,0 49.635,16.857 49.635,44.952 l 0,86.626 -9.833,0 0,-86.625 c 0,-22.477 -15.453,-35.119 -39.333,-35.119 -32.777,0 -59.937,29.031 -59.937,64.619 l 0,57.126 -9.833,0 0,-128.769 8.428,0 z"
         id="path15"
         inkscape:connector-curvature="0"
         style="fill:#010101" /><path
         d="m 603.104,327.755 c 4.683,0 8.896,3.746 8.896,8.428 0,4.682 -4.214,8.896 -8.896,8.896 -4.682,0 -8.429,-4.214 -8.429,-8.896 0,-4.214 3.746,-8.428 8.429,-8.428 z m 5.15,50.102 0,128.769 -9.833,0 0,-128.769 9.833,0 z"
         id="path17"
         inkscape:connector-curvature="0"
         style="fill:#010101" /></g><path
       d="m 131.578,251.431 -105.825,0 C 11.706,251.431 0,263.137 0,277.185 l 0,206.029 c 0,14.047 11.706,25.753 25.753,25.753 l 197.601,0 c 14.047,0 25.753,-11.706 25.753,-25.753 l 0,-109.57 -117.529,-122.213 z"
       id="path19"
       inkscape:connector-curvature="0"
       style="fill:#010101" /><path
       d="m 240.211,377.39 8.429,0 m 0,-19.667 -8.429,0 0,-25.286 8.429,0 0,25.286 z m 0,-42.142 -8.429,0 0,-25.285 8.429,0 0,25.285 z m -8.429,-41.674 c -0.468,-6.556 -5.619,-12.174 -12.643,-13.579 l 1.405,-8.429 c 10.301,1.873 18.262,10.77 19.198,21.071 l -7.96,0.937 z m -28.563,-14.048 -25.285,0 0,-8.429 25.285,0 0,8.429 z m -42.61,0 -25.286,0 0,-8.429 25.286,0 0,8.429 z m -42.143,-8.428 0,8.429"
       id="path21"
       inkscape:connector-curvature="0"
       style="fill:#010101" /></g><g
     id="Yelp"
     transform="translate(-80,96.53301)" /><g
     id="Mozilla"
     transform="translate(-80,96.53301)" /><g
     id="Microsoft"
     transform="translate(-80,96.53301)" /><g
     id="Facebook"
     transform="translate(-80,96.53301)" /><g
     id="Kik_1_"
     transform="translate(-80,96.53301)" /><g
     id="D2L"
     transform="translate(-80,96.53301)" /><g
     id="Linode"
     transform="translate(-80,96.53301)" /><g
     id="Braintree"
     transform="translate(-80,96.53301)" /><g
     id="Velocity"
     transform="translate(-80,96.53301)" /><g
     id="citi"
     transform="translate(-80,96.53301)" /><g
     id="Course_Hero"
     transform="translate(-80,96.53301)" /><g
     id="square"
     transform="translate(-80,96.53301)" /><g
     id="Capco"
     transform="translate(-80,96.53301)" /></svg>