<?xml version="1.0" encoding="utf-8"?>
<!-- Generator: Adobe Illustrator 16.0.0, SVG Export Plug-In . SVG Version: 6.00 Build 0)  -->
<!DOCTYPE svg PUBLIC "-//W3C//DTD SVG 1.1//EN" "http://www.w3.org/Graphics/SVG/1.1/DTD/svg11.dtd">
<svg version="1.1" id="Layer_1" xmlns="http://www.w3.org/2000/svg" xmlns:xlink="http://www.w3.org/1999/xlink" x="0px" y="0px"
	 width="1383.762px" height="658px" viewBox="0 0 1383.762 658" enable-background="new 0 0 1383.762 658" xml:space="preserve">
<path d="M328.292,160.485h-45.676v-29.577h45.676V160.485z M282.616,180.857h45.676v166.329h-45.676V180.857z"/>
<path d="M350.913,180.857h43.434v23.162h0.964c11.58-18.664,31.525-27.671,50.832-27.671c48.573,0,60.802,27.344,60.802,68.529
	v102.309h-45.688V253.24c0-27.344-8.041-40.858-29.271-40.858c-24.774,0-35.391,13.831-35.391,47.619v87.185h-45.682V180.857"/>
<path d="M538.24,211.413h-27.345v-30.556h27.345v-12.872c0-29.282,18.343-50.506,55.661-50.506c8.038,0,16.406,0.958,24.127,1.285
	v34.096c-5.472-0.642-10.939-0.959-16.727-0.959c-12.229,0-17.375,5.15-17.375,18.981v9.975h31.527v30.556h-31.527v135.772H538.24
	V211.413"/>
<path d="M780.699,347.186h-43.431v-23.162h-0.967c-11.575,18.653-31.523,27.66-50.834,27.66c-48.576,0-60.794-27.346-60.794-68.52
	V180.857h45.68v93.935c0,27.343,8.047,40.856,29.272,40.856c24.772,0,35.391-13.83,35.391-47.61v-87.181h45.683V347.186"/>
<path d="M834.735,293.128c0.314,19.95,17.041,27.989,35.062,27.989c13.188,0,29.916-5.142,29.916-21.228
	c0-13.838-18.98-18.664-51.793-25.74c-26.384-5.794-52.76-15.115-52.76-44.389c0-42.469,36.666-53.413,72.384-53.413
	c36.35,0,69.813,12.229,73.354,53.077h-43.44c-1.286-17.686-14.798-22.509-31.199-22.509c-10.3,0-25.416,1.927-25.416,15.441
	c0,16.409,25.733,18.654,51.791,24.764c26.701,6.119,52.759,15.767,52.759,46.66c0,43.745-37.961,57.902-75.921,57.902
	c-38.604,0-76.238-14.473-78.178-58.556H834.735"/>
<path d="M1000.34,160.485h-45.695v-29.577h45.695V160.485z M954.645,180.857h45.695v166.329h-45.695V180.857z"/>
<path d="M1097.71,176.348c52.45,0,86.229,34.749,86.229,87.826c0,52.771-33.779,87.51-86.229,87.51
	c-52.11,0-85.89-34.739-85.89-87.51C1011.82,211.097,1045.6,176.348,1097.71,176.348 M1097.71,317.261
	c31.21,0,40.54-26.703,40.54-53.087c0-26.702-9.33-53.404-40.54-53.404c-30.88,0-40.21,26.702-40.21,53.404
	C1057.5,290.558,1066.83,317.261,1097.71,317.261z"/>
<path d="M1193.34,180.857h43.43v23.162h0.971c11.58-18.664,31.52-27.671,50.819-27.671c48.591,0,60.811,27.344,60.811,68.529
	v102.309h-45.69V253.24c0-27.344-8.029-40.858-29.279-40.858c-24.761,0-35.381,13.831-35.381,47.619v87.185h-45.68V180.857"/>
<g>
	<defs>
		<rect id="SVGID_1_" x="0.06" y="73.349" width="1383.7" height="279.591"/>
	</defs>
	<clipPath id="SVGID_2_">
		<use xlink:href="#SVGID_1_"  overflow="visible"/>
	</clipPath>
	<path clip-path="url(#SVGID_2_)" fill="#0067B1" d="M89.32,353c-49.247-0.013-89.133-39.901-89.152-89.14v-83.343
		c0-11.85,9.617-21.417,21.478-21.417c11.849,0,21.459,0,21.459,0v104.76c0.045,25.504,20.696,46.159,46.215,46.209h58.33
		c25.516-0.05,46.164-20.705,46.214-46.209v-58.341c-0.05-25.503-20.698-46.157-46.214-46.195H68.814c-11.86,0-25.826,0-25.826,0
		v-21.477c0-11.861,0-21.467,0-21.467H147.65c49.249,0.012,89.128,39.903,89.146,89.139v58.341
		c-0.018,49.238-39.897,89.127-89.146,89.14H89.32"/>
	<path clip-path="url(#SVGID_2_)" fill="#0067B1" d="M0,94.776C0,82.94,9.598,73.349,21.423,73.349
		c11.765,0,21.31,9.48,21.415,21.216h0.018v21.627H21.211C9.487,116.08,0,106.537,0,94.776"/>
</g>
<path d="M1368.13,145.819c2.62,0,5.19,0.677,7.69,2.025c2.5,1.348,4.449,3.279,5.85,5.786c1.39,2.513,2.09,5.13,2.09,7.853
	c0,2.699-0.689,5.293-2.06,7.779c-1.38,2.492-3.3,4.425-5.79,5.802c-2.48,1.374-5.07,2.061-7.78,2.061s-5.3-0.687-7.79-2.061
	c-2.48-1.377-4.41-3.31-5.79-5.802c-1.39-2.486-2.07-5.08-2.07-7.779c0-2.723,0.69-5.34,2.101-7.853
	c1.399-2.507,3.359-4.438,5.85-5.786C1362.939,146.496,1365.5,145.819,1368.13,145.819 M1368.13,148.421
	c-2.2,0-4.33,0.564-6.42,1.692c-2.07,1.125-3.7,2.735-4.87,4.828c-1.17,2.096-1.76,4.276-1.76,6.542c0,2.256,0.58,4.414,1.729,6.478
	c1.15,2.067,2.761,3.678,4.841,4.832c2.069,1.154,4.229,1.73,6.479,1.73s4.41-0.576,6.479-1.73c2.08-1.154,3.681-2.765,4.83-4.832
	c1.141-2.064,1.721-4.222,1.721-6.478c0-2.266-0.58-4.446-1.75-6.542c-1.17-2.093-2.79-3.703-4.88-4.828
	C1372.439,148.985,1370.31,148.421,1368.13,148.421z M1361.27,170.138v-16.849h5.79c1.99,0,3.42,0.157,4.311,0.467
	c0.88,0.312,1.59,0.855,2.12,1.631c0.529,0.774,0.79,1.595,0.79,2.468c0,1.231-0.44,2.303-1.33,3.216
	c-0.88,0.913-2.061,1.424-3.521,1.534c0.601,0.252,1.08,0.549,1.43,0.895c0.681,0.663,1.511,1.776,2.49,3.339l2.061,3.299h-3.311
	l-1.5-2.654c-1.189-2.088-2.13-3.394-2.85-3.921c-0.5-0.388-1.22-0.58-2.18-0.58h-1.601v7.155H1361.27z M1363.97,160.654h3.32
	c1.58,0,2.67-0.233,3.25-0.703c0.569-0.469,0.86-1.091,0.86-1.867c0-0.496-0.141-0.942-0.421-1.335
	c-0.27-0.394-0.659-0.688-1.159-0.882c-0.49-0.191-1.4-0.291-2.74-0.291h-3.11V160.654z"/>
</svg>
