<?xml version="1.0" encoding="utf-8"?>
<!-- Generator: Adobe Illustrator 16.0.0, SVG Export Plug-In . SVG Version: 6.00 Build 0)  -->
<!DOCTYPE svg PUBLIC "-//W3C//DTD SVG 1.1//EN" "http://www.w3.org/Graphics/SVG/1.1/DTD/svg11.dtd">
<svg version="1.1" id="Layer_1" xmlns="http://www.w3.org/2000/svg" xmlns:xlink="http://www.w3.org/1999/xlink" x="0px" y="0px"
	 width="430px" height="298.875px" viewBox="-70.768 0 430 298.875" enable-background="new -70.768 0 430 298.875"
	 xml:space="preserve">
<g>
	<path d="M191.939,174.452c-9.123,1.473-13.787,8.211-13.787,20.069c0,11.933,6.213,19.912,15.736,19.912
		c4.434,0,8.459-1.474,16.926-5.625v9.651c-10.16,4.66-16.143,6.103-24.326,6.103c-8.863,0-15.1-2.354-20.19-7.543
		c-5.218-5.22-7.827-12.114-7.827-19.791c0-17.078,12.643-28.634,31.109-28.634c12.266,0,20.701,5.605,20.701,13.835
		c0,5.299-3.928,8.944-9.752,8.944c-2.99,0-5.447-0.783-8.59-2.607V174.452L191.939,174.452z"/>
	<path d="M146.919,197.229c8.181-10.312,11.069-14.471,11.069-19.531c0-5.041-4.002-9.102-9.35-9.102
		c-3.293,0-6.257,1.555-7.704,3.171v21.005l-13.402,17.857v-40.713h-12.742l-21.182,35.117v-35.117h-7.322l-19.229,4.688v4.915
		l10.488,1.064v43.065h13.557l20.316-33.388v33.388h14.846L146.919,197.229L146.919,197.229z"/>
	<path d="M26.573,240.553l8.791,1.955v4.988H0.877v-4.988l7.859-1.955v-60.248H0v-5.167l21.098-6.408h5.475v7.194
		c9.88-5.879,13.275-6.92,18.343-6.92c11.705,0,20.344,10.795,20.344,25.742c0,17.278-11.528,28.903-29.691,28.903
		c-2.055,0-5.473-0.124-8.996-0.528V240.553L26.573,240.553z M26.573,217.02c1.443,0.068,2.076,0.068,2.988,0.068
		c10.92,0,16.773-6.809,16.773-19.859c0-11.049-4.789-16.924-13.629-16.924c-1.471,0-3.015,0.179-6.132,0.559V217.02L26.573,217.02z
		"/>
	<polyline fill="#DE4F99" points="283.464,124.732 270.07,124.732 270.07,98.339 283.464,98.339 283.464,124.732 	"/>
	<polyline fill="#F3A072" points="243.365,58.728 233.007,58.728 233.007,42.658 243.365,42.658 243.365,58.728 	"/>
	<polyline fill="#F37E30" points="233.007,42.658 180.359,42.658 180.359,32.347 233.007,32.347 233.007,42.658 	"/>
	<polyline fill="#EC5827" points="180.359,98.339 180.359,98.339 180.359,42.658 233.007,42.658 233.007,58.728 180.359,58.728 
		180.359,98.339 	"/>
	<polyline fill="#F5A42A" points="270.07,98.339 243.365,98.339 243.365,58.728 270.07,58.728 270.07,98.339 	"/>
	<polyline fill="#E83826" points="270.07,124.732 243.365,124.732 243.365,98.339 270.07,98.339 270.07,124.732 	"/>
	<polyline fill="#EE7026" points="243.365,98.339 233.007,98.339 233.007,58.728 243.365,58.728 243.365,98.339 	"/>
	<polyline fill="#DB2C27" points="243.365,124.732 233.007,124.732 233.007,98.339 243.365,98.339 243.365,124.732 	"/>
	<polyline fill="#E14126" points="233.007,98.339 213.285,98.339 213.285,85.113 180.359,85.113 180.359,98.339 180.359,58.728 
		233.007,58.728 233.007,98.339 	"/>
	<polyline fill="#C82928" points="233.007,124.732 213.285,124.732 213.285,98.339 233.007,98.339 233.007,124.732 	"/>
	<polyline fill="#C43628" points="213.285,98.339 180.359,98.339 180.359,85.113 213.285,85.113 213.285,98.339 	"/>
	<polyline fill="#AC2726" points="213.285,124.732 180.359,124.732 180.359,98.339 213.285,98.339 213.285,124.732 	"/>
	<polygon fill="#AC2726" points="127.564,124.732 180.359,124.732 180.359,137.931 127.564,137.931 	"/>
</g>
</svg>
