<?xml version="1.0" encoding="utf-8"?>
<!-- Generator: Adobe Illustrator 18.1.1, SVG Export Plug-In . SVG Version: 6.00 Build 0)  -->
<svg version="1.1" xmlns="http://www.w3.org/2000/svg" xmlns:xlink="http://www.w3.org/1999/xlink" x="0px" y="0px"
	 viewBox="0 0 184.4 47.1" enable-background="new 0 0 184.4 47.1" xml:space="preserve">
<g id="Loblaw_Digital">
</g>
<g id="Phoenix">
</g>
<g id="Magnet_Forensics_1_">
</g>
<g id="Bloomberg">
	<g id="Layer_40_1_">
		<g>
			<path fill="#010101" d="M4.9,10.8h4c3.6,0,5.2,1.2,5.2,3.5c0,2-1.6,3.4-4.9,3.4H4.9V10.8z M0,33.9h9.8c5.1,0,10.3-1.8,10.3-7.8
				c0-3.5-2.5-6.2-5.9-6.6v-0.1c2.8-0.8,4.7-2.9,4.7-6c0-5-4.2-6.9-8.4-6.9H0V33.9z M4.9,21.9h4.7c3.9,0,5.8,1,5.8,3.9
				c0,3.6-3.5,4-6,4H4.9L4.9,21.9L4.9,21.9z"/>
			<path fill="#010101" d="M23.3,6H28v27.9h-4.6L23.3,6z"/>
			<path fill="#010101" d="M35.7,24.6c0-2.9,2-5.5,5.4-5.5c3.4,0,5.4,2.7,5.4,5.5c0,2.9-2,5.5-5.4,5.5
				C37.7,30.1,35.7,27.5,35.7,24.6z M31,24.6c0,5.8,4.5,9.7,10,9.7s10-3.9,10-9.7s-4.5-9.7-10-9.7S31,18.8,31,24.6z"/>
			<path fill="#010101" d="M57.9,24.6c0-2.9,2-5.5,5.4-5.5c3.4,0,5.4,2.7,5.4,5.5c0,2.9-2,5.5-5.4,5.5
				C59.9,30.2,57.9,27.5,57.9,24.6z M53.2,24.6c0,5.8,4.5,9.7,10,9.7s10-3.9,10-9.7s-4.5-9.7-10-9.7C57.7,14.9,53.2,18.8,53.2,24.6z
				"/>
			<path fill="#010101" d="M76.2,15.4h4.4v2.9h0.1c0.8-1.7,2.6-3.3,5.6-3.3c2.8,0,4.8,1.1,5.8,3.4c1.3-2.3,3.3-3.4,6.1-3.4
				c4.9,0,6.6,3.5,6.6,7.9v11h-4.6V23.4c0-2.3-0.7-4.3-3.4-4.3c-2.9,0-4,2.4-4,4.8v10h-4.6v-11c0-2.3-0.9-3.8-3.2-3.8
				c-3.1,0-4.2,2.2-4.2,4.7v10.1h-4.6L76.2,15.4L76.2,15.4z"/>
			<path fill="#010101" d="M123.9,24.6c0,2.9-2,5.5-5.4,5.5c-3.4,0-5.4-2.7-5.4-5.5c0-2.9,2-5.5,5.4-5.5
				C121.9,19.1,123.9,21.7,123.9,24.6z M108.6,33.9h4.4v-2.8h0.1c1.3,2.2,3.8,3.2,6.4,3.2c5.7,0,9.2-4.2,9.2-9.7s-3.6-9.7-8.9-9.7
				c-3.5,0-5.3,1.6-6.3,2.8h-0.1V6h-4.6L108.6,33.9L108.6,33.9z"/>
			<path fill="#010101" d="M135.3,22.7c0.3-2.7,2-4.4,4.8-4.4c2.9,0,4.7,1.7,4.7,4.4H135.3z M149.4,26.2v-1.3c0-6.4-3.5-10-8.6-10
				c-5.6,0-10,3.9-10,9.7s4.5,9.7,10,9.7c3,0,5.6-1.1,7.8-3.7l-3.3-2.5c-1.2,1.5-2.7,2.5-5,2.5c-2.6,0-4.7-1.7-5-4.4
				C135.3,26.2,149.4,26.2,149.4,26.2z"/>
			<path fill="#010101" d="M152.4,15.4h4.6v3h0.1c1-2.1,3.1-3.4,5.5-3.4c0.6,0,1.1,0.1,1.7,0.3v4.5c-0.8-0.2-1.5-0.3-2.2-0.3
				c-4.4,0-5,3.6-5,4.7v9.9h-4.6V15.4z"/>
			<path fill="#010101" d="M174.5,19.1c3.3,0,5.5,2.2,5.5,5.4c0,3.1-2.1,5.4-5.5,5.4c-3.1,0-5.4-2.4-5.4-5.4
				C169.1,21.3,171.3,19.1,174.5,19.1z M180.1,15.4v2.8H180c-1.3-2.2-3.8-3.2-6.4-3.2c-5.7,0-9.2,4.2-9.2,9.7c0,5.2,3.6,9.5,9.2,9.5
				c2.3,0,4.7-0.9,6.1-2.7h0.1v1.3c0,3.6-1.4,6.2-5.9,6.2c-2.6,0-4.5-0.9-6.4-2.7l-2.8,3.8c2.6,2.3,5.7,3.1,9.2,3.1
				c7.2,0,10.4-4.2,10.4-10.9V15.5h-4.4V15.4z"/>
		</g>
	</g>
</g>
<g id="Wish">
</g>
<g id="lani">
</g>
<g id="Yelp">
</g>
<g id="Mozilla">
	<path fill="none" d="M132.5,36.5"/>
</g>
<g id="Microsoft">
</g>
<g id="Facebook">
</g>
<g id="Kik_1_">
</g>
<g id="D2L">
</g>
<g id="Linode">
</g>
<g id="Braintree">
</g>
<g id="Velocity">
</g>
<g id="citi">
</g>
<g id="Course_Hero">
</g>
<g id="square">
</g>
<g id="Capco">
</g>
</svg>
