<?xml version="1.0" encoding="utf-8"?>
<!-- Generator: Adobe Illustrator 16.0.0, SVG Export Plug-In . SVG Version: 6.00 Build 0)  -->
<!DOCTYPE svg PUBLIC "-//W3C//DTD SVG 1.1//EN" "http://www.w3.org/Graphics/SVG/1.1/DTD/svg11.dtd">
<svg version="1.1" id="Layer_1" xmlns="http://www.w3.org/2000/svg" xmlns:xlink="http://www.w3.org/1999/xlink" x="0px" y="0px"
	 width="561.5px" height="177px" viewBox="0 0 561.5 177" enable-background="new 0 0 561.5 177" xml:space="preserve">
<g id="estimote">
</g>
<g id="Pebble">
</g>
<g id="Spark">
</g>
<g id="Layer_4">
</g>
<g id="Layer_5">
</g>
<g id="Layer_6">
</g>
<g id="Base">
</g>
<g id="yelp">
</g>
<g id="Yext">
</g>
<g id="Estimote">
</g>
<g id="Kloudless">
</g>
<g id="Microsoft">
</g>
<g id="Big_Viking">
</g>
<g id="_x35_00px">
</g>
<g id="Magnet_Forensics">
</g>
<g id="Guides">
</g>
<g id="Wit.Ai" display="none">
</g>
<g id="Layer_18">
</g>
<g id="Kik">
</g>
<g id="Layer_20">
</g>
<g id="Affirm">
</g>
<g id="Shopify">
</g>
<g id="apple">
</g>
<g id="Layer_24">
</g>
<g id="pagerduty">
</g>
<g id="Layer_26">
</g>
<g id="bitalino">
</g>
<g id="Layer_28">
</g>
<g id="TextNow">
</g>
<g id="Uber">
	<g>
		<g>
			<g>
				<path fill="#131326" d="M73.402,79.62v45.006c0,15.271-7.501,24.377-29.736,24.377s-29.736-9.106-29.736-24.377v-31.61
					C13.662,85.514,7.5,79.62,0,79.62v8.84c2.679,0,4.822,2.144,5.089,4.822v34.825c0,17.949,13.931,30.541,38.577,30.541
					s38.577-12.592,38.577-30.541V80.155h-8.841V79.62z"/>
				<path fill="#131326" d="M329.506,147.932V126.77c0-2.947,2.411-5.357,5.358-5.357h38.308v-8.842h-38.576
					c-1.875,0-3.48,0.535-5.09,1.072V88.191h62.688v-8.839h-71.526v77.419h74.205v-8.84H329.506L329.506,147.932z"/>
			</g>
		</g>
		<path fill="#131326" d="M556.143,148.468c-2.144,1.606-5.091,1.339-6.966-0.536L532.3,126.501
			c13.662,2.412,26.253-1.875,22.771-23.308c-2.145-12.858-10.448-23.573-23.574-23.573h-57.062v77.151h8.842V131.59
			c0-2.68,2.411-5.09,5.355-5.09h32.415l21.164,26.789c4.821,5.625,13.395,6.695,19.288,2.145L556.143,148.468z M488.365,118.195
			c-1.876,0-3.751,0.269-5.357,1.072V87.925h48.488c8.304,0,15.27,6.697,15.27,15.271c0,8.305-6.695,15.27-15.27,15.27
			L488.365,118.195z"/>
		<path fill="#131326" d="M231.993,116.855c5.091-3.75,8.305-9.645,8.305-16.608c0-11.521-9.376-20.896-20.896-20.896h-57.865v77.42
			h57.598c12.055,0,21.967-9.912,21.967-21.967C241.102,127.305,237.351,120.876,231.993,116.855z M170.378,87.925h49.024
			c6.966,0,12.324,5.625,12.324,12.322c0,6.965-5.626,12.323-12.324,12.323h-44.47c-1.607,0-3.215,0.535-4.554,1.072V87.925
			L170.378,87.925z M219.135,148.468h-48.757v-21.967c0-2.946,2.411-5.358,5.358-5.358h43.399c7.5,0,13.662,6.162,13.662,13.664
			C232.797,142.307,226.635,148.468,219.135,148.468z"/>
	</g>
</g>
</svg>
