<?xml version="1.0" encoding="utf-8"?>
<!-- Generator: Adobe Illustrator 16.0.0, SVG Export Plug-In . SVG Version: 6.00 Build 0)  -->
<!DOCTYPE svg PUBLIC "-//W3C//DTD SVG 1.1//EN" "http://www.w3.org/Graphics/SVG/1.1/DTD/svg11.dtd">
<svg version="1.1" id="Layer_1" xmlns="http://www.w3.org/2000/svg" xmlns:xlink="http://www.w3.org/1999/xlink" x="0px" y="0px"
	 width="451.885px" height="255px" viewBox="78.489 255.5 451.885 255" enable-background="new 78.489 255.5 451.885 255"
	 xml:space="preserve">
<g id="Layer.__206">
	<g id="shape">
		<path id="path" d="M195.917,318.707c-0.077,1.377-0.688,2.142-1.759,2.524c-2.066,0.765-4.284,1.3-6.426,1.76
			c-2.295-2.066-4.896-3.825-7.803-5.202c-4.055-4.437-7.574-7.574-10.481-9.41c-2.83-1.759-5.814-2.983-8.95-3.519
			c-3.137-0.612-6.273-0.535-9.256,0.153c-3.137,0.765-6.044,2.142-8.645,4.208c-5.814,1.224-10.328,3.289-13.541,6.043
			c-2.372,0.229-4.055,0.841-5.125,1.759c-3.978-0.612-7.65-1.606-11.093-2.601c-3.825-1.147-6.885-3.136-8.415-6.579
			c-3.672-8.186-6.12-19.202-7.497-33.048c-9.715,18.284-15.835,37.638-18.437,58.14c9.41,6.732,19.661,12.164,30.83,16.294
			c-0.765,2.907-1.224,5.737-1.606,8.721c-0.076,0.306,0.077,0.535,0.306,0.765c0.612,0.765,0.612,1.53,0,2.219
			c-0.765,0.841-1.53,1.683-2.142,2.524c-0.382,0.459-0.459,0.994-0.382,1.606l0.765,5.661c0.153,1.071,0.077,2.065-0.306,3.06
			l-5.891,16.754c2.601,0.076,5.202-0.076,7.65-0.612c-1.147,6.962-2.065,13.847-2.677,20.809c4.208-0.536,8.262-1.301,12.087-2.219
			c-0.536,4.59-0.842,9.18-0.765,13.923c4.896-0.535,9.639-1.224,14.382-2.065c1.301,6.12,2.907,12.24,4.743,18.283
			c5.584-1.606,10.863-3.519,15.912-5.813c6.579,6.961,13.77,13.081,21.573,18.283c7.344-5.737,13.77-11.857,19.431-18.437
			c2.601,2.754,5.355,5.355,8.262,7.803c2.218-5.66,3.978-11.551,5.278-17.671c3.672,1.3,7.191,2.295,10.48,2.983
			c-0.918-7.497-2.218-14.765-3.825-21.879c2.372,0.306,4.59,0.459,6.809,0.535l-19.507-47.43c1.147-1.454,2.601-2.678,4.284-4.055
			c0.306-0.229,0.229-0.536-0.077-0.765l-2.907-2.295l0,0c8.568-3.596,15.071-8.033,19.508-13.311
			c-5.202-19.048-14.306-35.267-27.387-48.654C194.54,298.128,195.534,308.303,195.917,318.707z M196.069,297.21
			c3.978,8.186,6.197,16.677,8.033,26.163c0.688,3.749-4.743-0.918-5.202-5.508C198.288,310.521,197.523,304.937,196.069,297.21z
			 M183.83,322.608c6.655,5.049,10.557,12.087,11.781,21.038c-0.918,0.229-1.912,0.459-2.831,0.841l0.765-2.524
			c0.077-0.382-0.077-0.382-0.536-0.229c-2.065,0.995-3.978,2.142-5.737,3.519c-6.426-2.754-13.541-4.36-21.343-4.667
			c-3.213-2.677-6.885-4.59-10.863-5.737c-0.688-0.229-0.995-0.077-0.995,0.382v2.372c0,0.612-0.306,0.841-0.994,0.612
			c-3.825-1.147-7.803-1.53-11.781-1.224c-0.612,0.076-0.841,0.229-0.612,0.612l3.213,4.437c0.077,0.153,0.077,0.229,0.077,0.382
			c-9.792,1.913-20.502,5.279-31.977,10.021l0.612-2.983c0.459-0.077,0.918-0.229,1.454-0.382c2.524-0.918,5.125-2.754,7.879-5.661
			c1.76-1.836,3.213-3.901,4.36-6.12c1.148-2.218,1.836-4.59,2.142-7.038c0.536-4.131,0.459-7.42-0.153-9.945
			c-0.229-0.995-0.536-1.759-0.841-2.142c3.213-0.765,5.661-0.153,7.267,1.913c1.683,2.065,2.066,4.896,1.147,8.415
			c7.574-3.06,16.295-4.743,26.163-4.896c-0.688-9.104-5.202-14.076-13.387-14.917c10.48-5.661,26.01,1.913,33.125,19.278
			c2.983,1.76,5.737,4.131,8.186,7.038C188.19,330.87,186.201,326.815,183.83,322.608z M175.032,351.831
			c-1.148-2.065-2.372-3.901-3.672-5.584c4.59-0.612,8.645,0.153,12.011,2.372c-0.995,0.994-1.913,1.989-2.754,3.06
			c-0.459,0.688-0.536,1.836-0.077,3.366c0.382,1.071,1.454,2.219,3.213,3.442c3.596,2.601,7.268,5.126,10.939,7.421
			c0.842,0.535,1.454,0.382,1.989-0.307c0.688-1.147,1.147-2.371,1.453-3.825l3.29,8.721c-2.295-1.071-4.819-1.836-7.42-2.295
			c0.995,2.983,1.76,6.043,2.295,9.18c-2.295-1.683-4.743-3.137-7.344-4.36c0.765-1.683,1.224-3.137,1.224-4.514
			c0.076-0.994-0.383-1.76-1.148-2.142c0.306,1.989-0.994,4.131-3.978,6.426c-1.454,1.071-3.213,1.301-5.279,0.765
			c-5.355-1.683-9.869-3.748-13.311-6.35c-1.3-0.994-0.765-1.912,0.229-4.054c-1.071,0.918-2.218,1.988-3.29,3.136
			c-0.918,1.071-0.612,1.836,0.383,3.137c-8.492,2.295-16.983,5.126-25.627,8.645c1.836-4.666,3.289-9.18,4.36-13.617
			c-4.131-0.459-8.415-0.076-12.929,1.147l2.065-14.688c3.366-1.147,6.656-2.065,9.945-2.831l-2.907,4.131
			c-0.382,0.765-0.306,1.377,0.229,1.836c3.978,3.519,8.339,6.426,12.929,8.874c0.306,0.077,0.688,0.077,1.224-0.229
			c3.901-1.836,7.497-3.825,10.863-6.043c1.224-0.612,3.06-0.382,5.584,0.765c1.836,0.841,3.442,0.306,4.896-1.683
			C175.415,354.355,175.644,352.979,175.032,351.831z M187.119,357.492c0.688-0.229,1.3-0.383,1.912-0.459
			c0.383,1.147,0.689,1.989,1.301,2.983c0.536,0.841,1.3,1.071,1.683,0.229c0.382-1.071,0.612-2.295,0.612-3.672
			c0.382,0,0.765,0,1.147,0c0.765,0.076,1.377,0.382,1.836,1.071c1.147,1.683,1.147,3.672,0,5.967
			c-0.229,0.459-0.612,0.611-1.071,0.459c-2.831-1.224-5.432-2.984-7.727-5.202C186.277,358.181,186.354,357.798,187.119,357.492z
			 M182.682,398.037c0-0.229,0.153-0.229,0.765-0.383c1.071-0.229,1.607-1.07,0.536-1.683c-4.437-2.602-10.863-3.061-19.202-1.913
			c-0.994,0.153-1.377,1.53,0.306,1.607h4.743l-3.442,6.578c-0.153,0.307-0.459,0.459-0.842,0.536l-7.038,0.382
			c-0.535,0-0.918-0.382-1.147-1.07l-2.907-8.951l22.797-8.567l12.087,9.104c-0.306,4.284-1.224,8.186-2.677,11.704l-2.295-0.994
			c-0.23-0.077-0.383-0.459-0.459-0.995L182.682,398.037z M138.694,312.51c0.918-0.382,1.836-0.535,2.601-0.535
			c0.765,0.076,1.301,0.306,1.454,0.765c0.153,0.459,0,0.995-0.536,1.607c-0.535,0.612-1.3,1.071-2.218,1.453
			c-0.918,0.383-1.836,0.536-2.601,0.536c-0.765-0.077-1.3-0.306-1.454-0.765c-0.153-0.459,0-0.994,0.536-1.606
			C137.012,313.428,137.7,312.893,138.694,312.51z M82.314,328.116c1.454-13.694,5.508-27.617,12.164-41.846
			c-3.442,13.847-5.967,27.234-7.344,40.239C86.674,330.793,82.008,331.405,82.314,328.116z M108.324,363.688
			c1.683-2.218,3.748-3.978,6.196-5.355c0.382-0.229,0.765-0.229,0.995,0c1.147,1.147,2.218,2.295,3.06,3.596l-0.765,3.06
			c-0.612-1.147-1.454-2.219-2.448-3.213c-0.382-0.459-0.841-0.459-1.453-0.153c-0.995,0.612-1.913,1.377-2.831,2.295
			c1.454-0.765,2.295-0.765,2.677-0.153c1.147,2.065,1.989,4.36,2.601,6.809l-2.677,10.404l-2.219-0.918
			c-0.382-0.229-0.688-0.535-0.765-0.994c-1.3-4.743-2.065-9.486-2.524-14.229C108.095,364.377,108.171,363.994,108.324,363.688z
			 M162.715,354.432c0.688,0.382,0.536,0.841-0.382,1.454c-2.907,1.683-5.891,3.213-8.951,4.59c-0.612,0.306-1.147,0.306-1.53,0.153
			c-3.366-1.989-6.579-4.208-9.715-6.655c-0.459-0.383-0.536-0.842-0.229-1.377c0.612-1.147,1.224-2.219,2.065-3.213
			c0.459-0.612,1.224-0.765,2.295-0.535c2.218,0.535,4.36,1.147,6.426,1.759c0.459,1.989,1.147,3.901,1.989,5.738
			c0.459,0.918,1.224,0.918,1.759,0.076c0.765-1.224,1.301-2.524,1.53-4.054C159.579,353.055,161.186,353.744,162.715,354.432z"/>
	</g>
</g>
<g>
	<g>
		<path d="M263.466,369.35c0-4.438-4.896-6.12-5.814-6.35c0.918-0.229,4.896-1.759,4.896-6.12v-16.677c0-5.049-4.208-9.18-9.18-9.18
			h-20.196v64.107h21.038c9.41,0,9.18-9.639,9.18-9.639V369.35H263.466z M242.199,338.826h11.475v20.349h-11.475V338.826z
			 M254.362,387.48h-12.24v-20.579h12.24V387.48z M272.264,395.054h8.797v-64.107h-8.797V395.054z M311.355,330.946h-12.317
			c-5.049,0-9.18,4.131-9.18,9.18v45.67c0,5.049,4.208,9.18,9.18,9.18h12.317c4.972,0,9.18-4.131,9.18-9.18V363h-15.3v7.88h7.039
			v16.677h-13.158v-48.73h12.24v14.994h9.18v-13.617C320.611,335.154,316.404,330.946,311.355,330.946z M356.107,381.666
			l-8.262-50.72h-9.181l11.858,64.107h11.321l11.398-64.107h-9.18L356.107,381.666z M382.041,395.054h8.798v-64.107h-8.798V395.054z
			 M423.733,330.946L411.723,361.7h-2.906v-30.753h-9.181v64.107h9.181V369.12h10.557l3.06,25.934h8.798l-2.83-23.639
			c-0.688-6.503-2.754-9.333-7.574-9.639l12.164-30.83H423.733z M441.711,395.054h8.798v-64.107h-8.798V395.054z M481.644,330.946
			h-5.737c-4.131,0-6.196,1.607-7.497,4.82v-4.82h-9.256v64.107h9.256v-56.151h12.699v56.151h9.639v-54.851
			C490.9,335.154,486.693,330.946,481.644,330.946z M530.374,353.82v-13.617c0-5.049-4.207-9.18-9.18-9.18h-12.316
			c-4.973,0-9.257,4.131-9.257,9.18v45.67c0,5.05,4.208,9.181,9.257,9.181h12.316c5.049,0,9.18-4.131,9.18-9.181V363h-15.376v7.88
			h7.038v16.677h-13.158v-48.73h12.316v14.994H530.374z"/>
	</g>
</g>
</svg>
