<?xml version="1.0" encoding="utf-8"?>
<!-- Generator: Adobe Illustrator 16.0.0, SVG Export Plug-In . SVG Version: 6.00 Build 0)  -->
<!DOCTYPE svg PUBLIC "-//W3C//DTD SVG 1.1//EN" "http://www.w3.org/Graphics/SVG/1.1/DTD/svg11.dtd">
<svg version="1.1" id="QB_Endorsed_RGB" xmlns="http://www.w3.org/2000/svg" xmlns:xlink="http://www.w3.org/1999/xlink" x="0px"
	 y="0px" width="572.188px" height="176.5px" viewBox="0 -12.5 572.188 176.5" enable-background="new 0 -12.5 572.188 176.5"
	 xml:space="preserve">
<g>
	<g>
		<path fill="#58595B" d="M249.248,140.311c0,1.862,0.057,3.608,0.175,5.236c0.116,1.629,0.174,3.112,0.174,4.451h-6.457
			c0-1.105-0.03-2.21-0.088-3.316c-0.058-1.104-0.087-2.239-0.087-3.403h-0.174c-0.467,0.99-1.121,1.95-1.963,2.881
			c-0.844,0.932-1.847,1.761-3.011,2.486c-1.165,0.729-2.474,1.311-3.927,1.745c-1.454,0.437-3.026,0.655-4.712,0.655
			c-2.677,0-4.99-0.408-6.938-1.223c-1.949-0.813-3.564-1.947-4.843-3.402c-1.28-1.453-2.225-3.214-2.836-5.279
			c-0.611-2.064-0.916-4.32-0.916-6.763v-25.22h6.806v24.521c0,3.433,0.756,6.14,2.27,8.116c1.512,1.979,3.868,2.967,7.068,2.967
			c2.211,0,4.115-0.378,5.716-1.134c1.599-0.757,2.908-1.833,3.927-3.229c1.017-1.396,1.773-3.054,2.269-4.974
			c0.494-1.92,0.742-4.043,0.742-6.37v-19.896h6.807v31.151H249.248L249.248,140.311z"/>
		<path fill="#58595B" d="M256.492,109.157h6.806v40.84h-6.806V109.157z"/>
		<path fill="#58595B" d="M300.646,119.366c-1.453-1.744-3.023-3.01-4.713-3.795c-1.688-0.785-3.551-1.18-5.586-1.18
			c-2.268,0-4.274,0.395-6.021,1.18c-1.745,0.785-3.185,1.875-4.32,3.271c-1.134,1.396-1.993,3.011-2.573,4.843
			c-0.584,1.833-0.873,3.798-0.873,5.892s0.332,4.058,1.002,5.89c0.668,1.832,1.6,3.447,2.793,4.843
			c1.191,1.396,2.631,2.487,4.319,3.272c1.687,0.786,3.578,1.178,5.669,1.178c4.48,0,7.943-1.687,10.389-5.062l5.061,4.801
			c-1.979,2.269-4.305,3.927-6.979,4.974c-2.68,1.047-5.5,1.571-8.469,1.571c-3.141,0-6.02-0.524-8.638-1.571
			c-2.617-1.047-4.843-2.53-6.675-4.45c-1.832-1.919-3.26-4.188-4.276-6.807c-1.019-2.618-1.526-5.498-1.526-8.639
			c0-3.084,0.508-5.936,1.526-8.553c1.017-2.617,2.457-4.888,4.32-6.808c1.86-1.92,4.085-3.417,6.675-4.494
			c2.588-1.075,5.456-1.612,8.594-1.612c3.025,0,5.893,0.522,8.6,1.569c2.705,1.047,5.074,2.679,7.109,4.888L300.646,119.366z"/>
		<path fill="#58595B" d="M348.904,88.213h18.85c2.561,0,5.062,0.262,7.504,0.785c2.443,0.521,4.625,1.382,6.545,2.573
			c1.92,1.193,3.479,2.75,4.67,4.67s1.787,4.306,1.787,7.156c0,3.607-0.975,6.588-2.922,8.944c-1.951,2.356-4.582,4.028-7.896,5.019
			v0.174c1.977,0.176,3.824,0.686,5.541,1.526c1.717,0.845,3.197,1.935,4.449,3.272c1.252,1.339,2.229,2.895,2.924,4.669
			c0.697,1.774,1.049,3.68,1.049,5.716c0,3.434-0.713,6.254-2.141,8.465c-1.426,2.211-3.285,3.971-5.584,5.279
			s-4.887,2.225-7.766,2.749c-2.881,0.522-5.748,0.786-8.598,0.786h-18.412V88.213L348.904,88.213z M356.234,114.393h10.123
			c1.746,0,3.443-0.116,5.104-0.349c1.656-0.232,3.154-0.712,4.492-1.44c1.338-0.727,2.416-1.745,3.229-3.054
			c0.814-1.309,1.223-3.039,1.223-5.191c0-1.921-0.377-3.477-1.133-4.67c-0.758-1.191-1.762-2.138-3.012-2.836
			c-1.254-0.697-2.678-1.178-4.275-1.439c-1.604-0.262-3.215-0.394-4.846-0.394h-10.906L356.234,114.393L356.234,114.393z
			 M356.234,143.19h12.393c1.801,0,3.592-0.188,5.367-0.566c1.77-0.379,3.371-0.989,4.799-1.833
			c1.424-0.845,2.574-1.948,3.445-3.316c0.875-1.364,1.311-3.039,1.311-5.018c0-2.152-0.424-3.955-1.268-5.41
			c-0.842-1.454-1.947-2.618-3.314-3.491s-2.938-1.482-4.711-1.832c-1.775-0.349-3.594-0.523-5.455-0.523h-12.564L356.234,143.19
			L356.234,143.19z"/>
		<path fill="#58595B" d="M394.543,129.577c0-3.199,0.551-6.109,1.656-8.729c1.104-2.617,2.619-4.872,4.539-6.763
			c1.92-1.892,4.217-3.36,6.895-4.407c2.674-1.047,5.584-1.57,8.727-1.57s6.051,0.523,8.729,1.57
			c2.676,1.047,4.975,2.518,6.895,4.407s3.432,4.146,4.539,6.763c1.104,2.618,1.656,5.528,1.656,8.729
			c0,3.199-0.555,6.106-1.656,8.726c-1.107,2.618-2.619,4.873-4.539,6.763c-1.92,1.893-4.219,3.36-6.895,4.407
			c-2.678,1.047-5.586,1.571-8.729,1.571s-6.051-0.524-8.727-1.571c-2.678-1.047-4.975-2.516-6.895-4.407
			c-1.92-1.89-3.436-4.145-4.539-6.763C395.094,135.685,394.543,132.776,394.543,129.577z M401.873,129.577
			c0,2.151,0.334,4.145,1.002,5.978s1.646,3.433,2.924,4.8c1.279,1.368,2.809,2.443,4.582,3.229s3.768,1.178,5.979,1.178
			s4.203-0.394,5.979-1.178c1.775-0.785,3.301-1.861,4.582-3.229c1.277-1.365,2.254-2.967,2.922-4.8
			c0.67-1.833,1.006-3.825,1.006-5.978c0-2.153-0.336-4.146-1.006-5.979c-0.668-1.833-1.645-3.432-2.922-4.8
			c-1.281-1.366-2.807-2.444-4.582-3.229c-1.773-0.785-3.768-1.179-5.979-1.179s-4.203,0.394-5.979,1.179
			c-1.773,0.784-3.303,1.862-4.582,3.229c-1.277,1.368-2.256,2.967-2.924,4.8C402.207,125.432,401.873,127.425,401.873,129.577z"/>
		<path fill="#58595B" d="M441.402,129.577c0-3.199,0.553-6.109,1.656-8.729c1.105-2.617,2.617-4.872,4.537-6.763
			c1.92-1.892,4.219-3.36,6.896-4.407c2.676-1.047,5.584-1.57,8.727-1.57s6.051,0.523,8.729,1.57
			c2.676,1.047,4.973,2.518,6.893,4.407s3.436,4.146,4.539,6.763c1.105,2.618,1.658,5.528,1.658,8.729
			c0,3.199-0.555,6.106-1.658,8.726c-1.104,2.618-2.619,4.873-4.539,6.763c-1.92,1.893-4.217,3.36-6.893,4.407
			c-2.678,1.047-5.586,1.571-8.729,1.571s-6.051-0.524-8.727-1.571c-2.678-1.047-4.977-2.516-6.896-4.407
			c-1.92-1.89-3.432-4.145-4.537-6.763C441.955,135.685,441.402,132.776,441.402,129.577z M448.732,129.577
			c0,2.151,0.334,4.145,1.004,5.978c0.668,1.833,1.643,3.433,2.924,4.8c1.277,1.368,2.805,2.443,4.58,3.229
			c1.771,0.786,3.768,1.178,5.979,1.178s4.201-0.394,5.979-1.178c1.773-0.785,3.303-1.861,4.582-3.229
			c1.277-1.365,2.254-2.967,2.924-4.8c0.668-1.833,1.004-3.825,1.004-5.978c0-2.153-0.336-4.146-1.004-5.979
			c-0.67-1.833-1.646-3.432-2.924-4.8c-1.279-1.366-2.809-2.444-4.582-3.229c-1.775-0.785-3.768-1.179-5.979-1.179
			s-4.205,0.394-5.979,1.179c-1.775,0.784-3.303,1.862-4.58,3.229c-1.281,1.368-2.256,2.967-2.924,4.8
			C449.066,125.432,448.732,127.425,448.732,129.577z"/>
		<path fill="#58595B" d="M528.318,139.263c1.338,1.688,2.807,3.025,4.404,4.014c1.602,0.99,3.623,1.484,6.066,1.484
			c1.047,0,2.107-0.116,3.186-0.35c1.074-0.231,2.053-0.61,2.924-1.133c0.873-0.524,1.57-1.18,2.094-1.966
			c0.521-0.784,0.787-1.729,0.787-2.836c0-1.104-0.248-2.007-0.742-2.705c-0.496-0.696-1.15-1.294-1.965-1.788
			s-1.744-0.887-2.791-1.179c-1.049-0.29-2.125-0.552-3.23-0.785c-1.92-0.405-3.754-0.873-5.5-1.396
			c-1.744-0.523-3.27-1.207-4.58-2.053c-1.309-0.843-2.354-1.933-3.141-3.271c-0.785-1.337-1.178-3.056-1.178-5.147
			c0-1.979,0.436-3.724,1.307-5.236c0.873-1.512,2.037-2.764,3.492-3.754c1.453-0.988,3.084-1.744,4.887-2.27
			c1.803-0.523,3.664-0.785,5.584-0.785c2.91,0,5.602,0.582,8.072,1.744c2.473,1.164,4.408,3.055,5.805,5.674l-5.672,3.752
			c-0.873-1.453-2.021-2.634-3.447-3.535c-1.428-0.9-3.156-1.354-5.191-1.354c-0.934,0-1.877,0.117-2.836,0.35
			c-0.961,0.232-1.818,0.582-2.574,1.047c-0.756,0.467-1.383,1.062-1.877,1.789c-0.494,0.729-0.74,1.558-0.74,2.486
			c0,0.873,0.275,1.614,0.828,2.227c0.553,0.611,1.309,1.147,2.27,1.615c0.959,0.465,2.062,0.873,3.314,1.222
			s2.545,0.641,3.885,0.872c1.803,0.35,3.521,0.801,5.148,1.353c1.629,0.554,3.055,1.296,4.273,2.226
			c1.225,0.933,2.184,2.096,2.883,3.49c0.695,1.396,1.047,3.113,1.047,5.149c0,2.327-0.467,4.306-1.396,5.935
			c-0.932,1.629-2.168,2.952-3.709,3.971c-1.543,1.019-3.287,1.761-5.234,2.226c-1.949,0.465-3.941,0.698-5.979,0.698
			c-3.492,0-6.502-0.539-9.033-1.615c-2.529-1.076-4.812-3.066-6.85-5.979L528.318,139.263z"/>
		<polygon fill="#58595B" points="325.432,127.743 345.152,109.157 335.465,109.157 316.877,127.133 316.877,88.243 310.072,88.243 
			310.072,149.997 316.877,149.997 316.877,128.53 337.123,149.997 347.158,149.997 		"/>
		<polygon fill="#58595B" points="503.971,127.743 523.693,109.157 514.006,109.157 495.42,127.133 495.42,88.243 488.613,88.243 
			488.613,149.997 495.42,149.997 495.42,128.53 515.664,149.997 525.699,149.997 		"/>
		<g>
			<path fill="#58595B" d="M192.265,143.714v-0.174c2.326-0.989,4.406-2.37,6.239-4.146c1.833-1.773,3.403-3.779,4.712-6.021
				c1.31-2.239,2.312-4.654,3.011-7.243c0.698-2.588,1.047-5.191,1.047-7.811c0-4.479-0.815-8.652-2.443-12.521
				c-1.629-3.869-3.854-7.213-6.676-10.036c-2.822-2.821-6.167-5.046-10.036-6.676c-3.869-1.628-8.071-2.443-12.61-2.443
				c-4.538,0-8.741,0.815-12.609,2.443c-3.87,1.629-7.215,3.854-10.036,6.676c-2.823,2.823-5.048,6.167-6.676,10.036
				c-1.629,3.87-2.443,8.043-2.443,12.521c0,4.48,0.814,8.653,2.443,12.521c1.628,3.87,3.853,7.214,6.676,10.036
				c2.82,2.823,6.166,5.048,10.036,6.676c3.868,1.629,8.071,2.442,12.609,2.442h32.502v-6.282L192.265,143.714L192.265,143.714z
				 M175.509,143.19c-3.433,0-6.604-0.641-9.512-1.921c-2.909-1.278-5.425-3.038-7.548-5.28c-2.125-2.237-3.796-4.871-5.018-7.896
				c-1.222-3.022-1.833-6.283-1.833-9.772c0-3.434,0.596-6.662,1.79-9.688c1.191-3.023,2.849-5.657,4.974-7.896
				c2.123-2.239,4.639-4.015,7.548-5.324c2.909-1.309,6.108-1.963,9.599-1.963c3.492,0,6.69,0.654,9.6,1.963
				c2.909,1.31,5.424,3.085,7.548,5.324s3.782,4.873,4.974,7.896c1.192,3.025,1.789,6.255,1.789,9.688
				c0,3.489-0.611,6.748-1.832,9.772c-1.222,3.024-2.896,5.659-5.019,7.896c-2.124,2.24-4.654,4.002-7.592,5.28
				C182.04,142.551,178.882,143.19,175.509,143.19z"/>
		</g>
	</g>
	<g>
		<g>
			<g>
				<g>
					<g>
						<g>
							<path fill="#4E84C4" d="M230.877,75.419h-3.374c-0.69,0-1.21-0.365-1.264-1.043l-0.062-1.328
								c-2.421,1.951-5.316,3.01-8.377,3.01c-5.895,0-8.324-3.749-8.324-9.434V51.039c0-0.899,0.528-1.217,1.373-1.217h3.686
								c0.853,0,1.322,0.261,1.322,1.217v14.472c0,2.905,0.74,4.905,3.902,4.905c2.004,0,4.529-1.111,6.11-2.526V51.04
								c0-0.899,0.474-1.217,1.318-1.217h3.74c0.836,0,1.312,0.261,1.312,1.217v22.906C232.24,75.053,231.935,75.419,230.877,75.419
								z"/>
						</g>
					</g>
					<path fill="#4E84C4" d="M145.123,50.878c0-0.639,0.312-1.056,0.949-1.056h4.457c0.636,0,1.002,0.368,1.002,1.056v23.23
						c0,0.945-0.417,1.311-1.315,1.311h-3.721c-0.952,0-1.372-0.365-1.372-1.311V50.878L145.123,50.878z"/>
					<path fill="#4E84C4" d="M238.838,50.878c0-0.639,0.316-1.056,0.949-1.056h4.457c0.629,0,0.999,0.368,0.999,1.056v23.23
						c0,0.945-0.417,1.311-1.322,1.311h-3.709c-0.948,0-1.373-0.365-1.373-1.311L238.838,50.878L238.838,50.878z"/>
					<path fill="#4E84C4" d="M179.766,75.419h-3.786c-0.952,0-1.269-0.471-1.269-1.369V59.718c0-2.894-0.782-4.958-4.001-4.958
						c-2.051,0-4.576,1.111-6.222,2.534v16.814c0,0.89-0.363,1.311-1.261,1.311h-3.844c-0.798,0-1.269-0.42-1.269-1.262V51.145
						c0-0.843,0.374-1.316,1.315-1.316h3.435c0.733,0,1.211,0.213,1.261,1.001l0.039,1.408c2.433-1.946,5.49-3.065,8.551-3.065
						c5.903,0,8.324,3.697,8.324,9.442V74.05C181.038,74.947,180.726,75.419,179.766,75.419z"/>
					<g>
						<g>
							<path fill="#4E84C4" d="M198.557,42.629c0-2.126-1.735-3.866-3.859-3.866c-2.147,0-3.871,1.74-3.871,3.866
								c0,2.137,1.724,3.866,3.871,3.866C196.821,46.495,198.557,44.766,198.557,42.629z"/>
						</g>
						<path fill="#4E84C4" d="M204.054,49.822c0.625,0,0.998,0.208,0.998,0.901v3.705c0,0.634-0.412,1.006-1.048,1.006h-6.107
							l-0.008,18.673c0,0.945-0.409,1.311-1.369,1.311h-3.658c-0.956,0-1.376-0.365-1.376-1.311V55.435h-6.107
							c-0.632,0-1.053-0.372-1.053-1.006v-3.705c0-0.694,0.367-0.901,0.995-0.901L204.054,49.822L204.054,49.822z"/>
					</g>
					<g>
						<g>
							<path fill="#4E84C4" d="M263.944,42.629c0-2.126-1.731-3.866-3.867-3.866c-2.136,0-3.867,1.74-3.867,3.866
								c0,2.137,1.731,3.866,3.867,3.866C262.213,46.495,263.944,44.766,263.944,42.629z"/>
						</g>
						<path fill="#4E84C4" d="M269.441,49.822c0.633,0,1.002,0.208,1.002,0.901v3.705c0,0.634-0.42,1.006-1.047,1.006h-6.119v18.674
							c0,0.945-0.42,1.311-1.365,1.311h-3.671c-0.948,0-1.369-0.365-1.369-1.311V55.435h-6.106c-0.636,0-1.049-0.372-1.049-1.006
							v-3.705c0-0.694,0.362-0.901,0.994-0.901L269.441,49.822L269.441,49.822z"/>
					</g>
				</g>
			</g>
		</g>
	</g>
	<g>
		<circle fill="#4AA848" cx="62.616" cy="100.385" r="62.615"/>
		<g>
			<path fill="#FFFFFF" d="M59.783,137.34h-8.761V84.161h-7.836c-8.92,0-16.178,7.259-16.178,16.179
				c0,8.921,7.257,16.178,16.178,16.178h2.283v8.761h-2.283c-13.751,0-24.939-11.188-24.939-24.938
				c0-13.752,11.188-24.939,24.939-24.939h16.597V137.34z"/>
			<path fill="#FFFFFF" d="M81.953,125.278H65.354V63.34h8.761v53.178h7.836c8.921,0,16.178-7.257,16.178-16.178
				s-7.257-16.179-16.178-16.179h-2.282v-8.76h2.282c13.752,0,24.94,11.188,24.94,24.94
				C106.893,114.092,95.705,125.278,81.953,125.278z"/>
		</g>
	</g>
	<g>
		<path fill="#58595B" d="M568.723,141.366c0.699,0.293,1.305,0.696,1.818,1.217c0.512,0.519,0.914,1.127,1.207,1.824
			c0.293,0.699,0.439,1.449,0.439,2.25c0,0.811-0.146,1.562-0.439,2.256c-0.293,0.691-0.695,1.296-1.207,1.81
			c-0.516,0.515-1.119,0.917-1.818,1.209c-0.697,0.293-1.453,0.438-2.264,0.438c-0.812,0-1.564-0.146-2.266-0.438
			c-0.697-0.292-1.307-0.694-1.816-1.209c-0.514-0.513-0.916-1.116-1.209-1.81c-0.293-0.694-0.439-1.445-0.439-2.256
			c0-0.801,0.146-1.551,0.439-2.25c0.293-0.697,0.695-1.308,1.209-1.824c0.512-0.518,1.119-0.924,1.816-1.217
			s1.453-0.439,2.266-0.439C567.27,140.927,568.023,141.073,568.723,141.366z M564.523,142.129
			c-0.588,0.257-1.102,0.606-1.531,1.047c-0.432,0.442-0.768,0.96-1.008,1.556c-0.242,0.596-0.361,1.237-0.361,1.924
			c0,0.688,0.119,1.33,0.361,1.927c0.242,0.596,0.576,1.112,1.008,1.556c0.432,0.441,0.943,0.791,1.531,1.047
			c0.592,0.258,1.234,0.387,1.936,0.387c0.688,0,1.326-0.129,1.916-0.387c0.592-0.256,1.104-0.605,1.533-1.047
			c0.432-0.439,0.77-0.96,1.016-1.556c0.246-0.597,0.371-1.237,0.371-1.927c0-0.688-0.125-1.33-0.371-1.924
			c-0.246-0.596-0.584-1.115-1.016-1.556c-0.434-0.44-0.941-0.791-1.533-1.047c-0.59-0.256-1.229-0.386-1.916-0.386
			C565.76,141.743,565.115,141.872,564.523,142.129z M564.379,149.968v-6.623h2.541c0.75,0,1.297,0.157,1.643,0.471
			c0.344,0.312,0.516,0.769,0.516,1.362c0,0.288-0.043,0.539-0.131,0.755c-0.088,0.217-0.207,0.398-0.361,0.547
			c-0.154,0.149-0.332,0.269-0.533,0.354c-0.197,0.088-0.41,0.151-0.639,0.192l1.971,2.941h-0.951l-1.863-2.941h-1.371v2.941
			H564.379L564.379,149.968z M567.004,146.31c0.242-0.015,0.457-0.059,0.641-0.131c0.188-0.072,0.334-0.188,0.445-0.347
			c0.115-0.159,0.17-0.378,0.17-0.655c0-0.236-0.043-0.426-0.131-0.57c-0.086-0.144-0.207-0.259-0.354-0.346
			c-0.15-0.087-0.314-0.146-0.502-0.177c-0.188-0.031-0.381-0.046-0.584-0.046h-1.494v2.295h1.078
			C566.52,146.333,566.764,146.325,567.004,146.31z"/>
	</g>
</g>
</svg>
