<?xml version="1.0" encoding="utf-8"?>
<!-- Generator: Adobe Illustrator 18.1.1, SVG Export Plug-In . SVG Version: 6.00 Build 0)  -->
<svg version="1.1" xmlns="http://www.w3.org/2000/svg" xmlns:xlink="http://www.w3.org/1999/xlink" x="0px" y="0px"
	 viewBox="0 0 198.2 100" enable-background="new 0 0 198.2 100" xml:space="preserve">
<g id="Loblaw_Digital">
</g>
<g id="Phoenix">
</g>
<g id="Magnet_Forensics_1_">
</g>
<g id="Bloomberg">
</g>
<g id="Wish">
</g>
<g id="lani">
</g>
<g id="Yelp">
</g>
<g id="Mozilla">
</g>
<g id="Microsoft">
</g>
<g id="Facebook">
</g>
<g id="Kik_1_">
</g>
<g id="D2L">
</g>
<g id="Linode">
	<g>
		<g>
			<path d="M80.3,34.9l5.2-1.2v24.9c0,2.7,0.8,4.4,2.4,4.9c-0.8,1.5-2.2,2.3-4.1,2.3c-2.3,0-3.5-1.6-3.5-4.9V34.9z"/>
			<path d="M93.3,65.3V47.4h-2.8v-4.2h8.1v22.1H93.3z M95.9,34.6c0.8,0,1.5,0.3,2.1,0.9c0.6,0.6,0.9,1.3,0.9,2.1
				c0,0.8-0.3,1.5-0.9,2.1c-0.6,0.6-1.3,0.9-2.1,0.9c-0.8,0-1.5-0.3-2.1-0.9c-0.6-0.6-0.9-1.3-0.9-2.1c0-0.8,0.3-1.5,0.9-2.1
				C94.4,34.9,95.1,34.6,95.9,34.6z"/>
			<path d="M118.8,65.3V52.5c0-1.9-0.4-3.3-1.1-4.1c-0.7-0.9-1.9-1.3-3.5-1.3c-0.8,0-1.6,0.2-2.4,0.6c-0.9,0.4-1.5,1-2,1.6v16h-5.2
				V43.1h3.7l1,2.1c1.4-1.7,3.5-2.5,6.2-2.5c2.6,0,4.7,0.8,6.2,2.4c1.5,1.6,2.3,3.8,2.3,6.6v13.6H118.8z"/>
			<path d="M128.1,54.2c0-3.4,1-6.1,2.9-8.2c2-2.1,4.5-3.2,7.7-3.2c3.4,0,6,1,7.8,3.1c1.9,2,2.8,4.8,2.8,8.4c0,3.5-0.9,6.3-2.8,8.4
				c-1.9,2.1-4.5,3.1-7.8,3.1c-3.4,0-6-1.1-7.8-3.2C129,60.4,128.1,57.6,128.1,54.2z M133.4,54.2c0,4.9,1.8,7.3,5.3,7.3
				c1.6,0,2.9-0.6,3.8-1.9c0.9-1.3,1.4-3.1,1.4-5.4c0-4.8-1.8-7.2-5.3-7.2c-1.6,0-2.9,0.6-3.8,1.9C133.9,50.1,133.4,51.9,133.4,54.2
				z"/>
			<path d="M167.7,65.3v-1.3c-0.4,0.5-1.1,0.9-2.2,1.2c-1,0.4-2.1,0.5-3.2,0.5c-3.1,0-5.5-1-7.3-2.9c-1.8-2-2.7-4.7-2.7-8.2
				c0-3.5,1-6.3,3.1-8.5c2-2.2,4.6-3.3,7.6-3.3c1.7,0,3.2,0.3,4.6,1v-8.9l5.2-1.2v31.6H167.7z M167.7,48.4c-1.1-0.9-2.3-1.3-3.5-1.3
				c-2.1,0-3.7,0.6-4.8,1.9c-1.1,1.3-1.7,3.1-1.7,5.4c0,4.6,2.2,6.9,6.7,6.9c0.5,0,1.1-0.1,1.8-0.4c0.7-0.3,1.2-0.6,1.4-0.9V48.4z"
				/>
			<path d="M197.8,55.8H182c0.1,1.8,0.7,3.1,1.8,4.1c1.1,1,2.6,1.5,4.5,1.5c2.4,0,4.1-0.6,5.4-1.8l2,3.9c-1.8,1.5-4.5,2.2-8.1,2.2
				c-3.4,0-6-1-8-3c-2-2-2.9-4.7-2.9-8.3c0-3.5,1.1-6.3,3.2-8.5c2.2-2.2,4.7-3.2,7.8-3.2c3.2,0,5.8,1,7.7,2.9
				c1.9,1.9,2.9,4.4,2.9,7.3C198.2,53.6,198.1,54.5,197.8,55.8z M182.2,51.9h10.9c-0.4-3.2-2.1-4.9-5.4-4.9
				C184.7,47.1,182.9,48.7,182.2,51.9z"/>
		</g>
		<g>
			<path fill="#556757" d="M55.4,52.4l-0.9,10.2l-2.9-2l0.3-5.2c0,0,0,0,0,0c0,0,0,0,0,0c0,0,0,0,0-0.1c0,0,0,0,0,0c0,0,0-0.1,0-0.1
				c0,0,0,0,0,0c0,0,0-0.1-0.1-0.1c0,0,0,0,0,0c0,0,0,0-0.1-0.1l-6.3-4.2l0.1-4.6L55.4,52.4z M40,63.4L35.5,60l0,0.8
				c0,0.2-0.1,0.3-0.2,0.4l-3.4,2.3l3.7,3c0,0,0,0,0,0c0,0,0,0,0,0c0,0,0,0,0.1,0.1c0,0,0,0,0,0c0,0,0,0,0,0.1c0,0,0,0,0,0
				c0,0,0,0,0,0.1c0,0,0,0,0,0l0.2,3.5l4.1,3.5L40,63.4z M11.4,67.9l2.1,10.2l8.8,9.4l-1.5-10.3L11.4,67.9z M19.7,69.4l-2.1-14.3
				L6.9,46.2l2.9,13.9L19.7,69.4z M16.3,46.3l-3-20.3L1.1,18.4l4,19.1L16.3,46.3z"/>
			<path fill="#00A85D" d="M64.2,46.8l-1.3,9.7l-7.4,5.9l0.9-10L64.2,46.8z M40.9,63.4L41,73.9l9.3-7.4L51,56.3L40.9,63.4z
				 M34.9,67.8l-13.1,9.4L23.4,88l12-9.5L34.9,67.8z M34.6,60.6l-0.6-14.2l-15.4,8.8l2.2,14.8L34.6,60.6z M33.6,38.1l-0.8-19.2
				L14.3,26l3,20.6L33.6,38.1z"/>
			<path d="M65.3,45.7C65.3,45.7,65.3,45.7,65.3,45.7C65.3,45.7,65.3,45.7,65.3,45.7c0-0.1,0-0.1,0-0.2c0,0,0,0,0,0c0,0,0,0,0-0.1
				c0,0,0,0,0,0c0,0,0,0-0.1-0.1c0,0,0,0,0,0c0,0,0,0,0,0c0,0,0,0,0,0l-10.7-5.9c-0.1-0.1-0.3-0.1-0.5,0l-9,5.5c0,0,0,0,0,0
				c0,0,0,0,0,0c0,0,0,0,0,0c0,0,0,0,0,0c0,0,0,0,0,0.1c0,0,0,0,0,0c0,0,0,0,0,0.1c0,0,0,0,0,0l-0.1,4.8l-3.7-2.4
				c-0.2-0.1-0.3-0.1-0.5,0l-5.3,3.2l-0.2-5.4c0,0,0,0,0,0c0,0,0,0,0-0.1c0,0,0,0,0,0c0,0,0,0,0-0.1c0,0,0,0,0,0c0,0,0,0,0,0
				c0,0,0,0,0,0c0,0,0,0,0,0l-5.5-3.7l5.1-2.7c0.2-0.1,0.3-0.3,0.3-0.4l-0.9-20.2c0,0,0,0,0-0.1c0,0,0,0,0,0c0,0,0-0.1,0-0.1
				c0,0,0,0,0,0c0,0,0-0.1-0.1-0.1c0,0,0,0,0,0c0,0,0,0,0,0c0,0,0,0,0,0c0,0,0,0,0,0l-13.9-6.7c-0.1-0.1-0.2-0.1-0.3,0L0.3,17
				c0,0,0,0,0,0c0,0,0,0,0,0c0,0-0.1,0-0.1,0c0,0,0,0,0,0c0,0,0,0,0,0c0,0,0,0-0.1,0.1c0,0,0,0,0,0.1c0,0,0,0,0,0.1c0,0,0,0.1,0,0.1
				c0,0,0,0,0,0c0,0,0,0,0,0c0,0,0,0,0,0.1c0,0,0,0,0,0.1c0,0,0,0,0,0l4.2,20.4c0,0.1,0.1,0.2,0.2,0.3l5.7,4.5l-4.1,2c0,0,0,0,0,0
				c0,0,0,0,0,0c0,0,0,0,0,0c0,0,0,0-0.1,0.1c0,0,0,0,0,0c0,0,0,0.1-0.1,0.1c0,0,0,0,0,0c0,0,0,0.1,0,0.1c0,0,0,0,0,0c0,0,0,0,0,0
				c0,0,0,0.1,0,0.1c0,0,0,0,0,0l3.2,15.3c0,0.1,0.1,0.2,0.1,0.2l4,3.8L10.4,66c0,0-0.1,0-0.1,0.1c0,0,0,0,0,0c0,0,0,0.1-0.1,0.1
				c0,0,0,0,0,0c0,0,0,0.1,0,0.1c0,0,0,0.1,0,0.1c0,0,0,0,0,0l2.5,11.9c0,0.1,0.1,0.2,0.1,0.2l9.9,10.6c0,0,0,0,0,0c0,0,0,0,0,0
				c0,0,0.1,0,0.1,0.1c0,0,0,0,0,0c0,0,0,0,0,0c0.1,0,0.1,0,0.2,0c0,0,0.1,0,0.1,0c0,0,0,0,0,0c0,0,0,0,0,0c0,0,0,0,0.1,0
				c0,0,0,0,0,0L36.1,79c0.1-0.1,0.2-0.2,0.2-0.4l-0.3-7l4.3,3.6c0,0,0,0,0,0c0,0,0,0,0.1,0c0,0,0,0,0,0c0,0,0,0,0,0
				c0,0,0.1,0,0.1,0c0,0,0.1,0,0.1,0c0,0,0,0,0,0c0,0,0,0,0,0c0,0,0,0,0.1,0c0,0,0,0,0,0l10.2-8.2c0.1-0.1,0.2-0.2,0.2-0.3l0.3-5.1
				l3.1,2.2c0,0,0,0,0,0c0,0,0,0,0,0c0,0,0,0,0.1,0c0,0,0,0,0,0c0,0,0.1,0,0.1,0c0,0,0.1,0,0.1,0c0,0,0,0,0,0c0,0,0,0,0,0
				c0,0,0,0,0.1,0c0,0,0,0,0,0l8.4-6.7c0.1-0.1,0.2-0.2,0.2-0.3L65.3,45.7C65.3,45.8,65.3,45.8,65.3,45.7
				C65.3,45.8,65.3,45.8,65.3,45.7z M55.5,62.4l0.9-10l7.8-5.6l-1.3,9.7L55.5,62.4z M51.6,60.5l0.3-5.2c0,0,0,0,0,0c0,0,0,0,0,0
				c0,0,0,0,0-0.1c0,0,0,0,0,0c0,0,0-0.1,0-0.1c0,0,0,0,0,0c0,0,0-0.1-0.1-0.1c0,0,0,0,0,0c0,0,0,0-0.1-0.1l-6.3-4.2l0.1-4.6
				l9.9,6.2l-0.9,10.2L51.6,60.5z M50.3,66.5L41,73.9l-0.1-10.5l10-7.2L50.3,66.5z M35.3,78.5l-12,9.5l-1.6-10.9l13.1-9.4L35.3,78.5
				z M13.5,78.1l-2.1-10.2l9.4,9.3l1.5,10.3L13.5,78.1z M13.3,26l3,20.3L5.1,37.5l-4-19.1L13.3,26z M32.8,18.9l0.8,19.2l-16.3,8.5
				l-3-20.6L32.8,18.9z M34.6,60.6l-13.8,9.3l-2.2-14.8l15.4-8.8L34.6,60.6z M17.6,55.1l2.1,14.3l-9.9-9.3L6.9,46.2L17.6,55.1z
				 M35.8,66.9C35.8,66.8,35.8,66.8,35.8,66.9c0-0.1,0-0.1,0-0.1c0,0,0,0,0,0c0,0,0,0,0-0.1c0,0,0,0,0,0c0,0,0,0-0.1-0.1
				c0,0,0,0,0,0c0,0,0,0,0,0l-3.7-3l3.4-2.3c0.1-0.1,0.2-0.2,0.2-0.4l0-0.8l4.5,3.4l0.1,10.5l-4.1-3.5L35.8,66.9z"/>
		</g>
	</g>
</g>
<g id="Braintree">
</g>
<g id="Velocity">
</g>
<g id="citi">
</g>
<g id="Course_Hero">
</g>
<g id="square">
</g>
<g id="Capco">
</g>
</svg>
