<?xml version="1.0" encoding="utf-8"?>
<!-- Generator: Adobe Illustrator 18.1.1, SVG Export Plug-In . SVG Version: 6.00 Build 0)  -->
<svg version="1.1" xmlns="http://www.w3.org/2000/svg" xmlns:xlink="http://www.w3.org/1999/xlink" x="0px" y="0px"
	 viewBox="0 0 245.9 100" enable-background="new 0 0 245.9 100" xml:space="preserve">
<g id="Loblaw_Digital">
	<g>
		<g>
			<path d="M0,64.7V39.5h21.6c2,0,3.5,0.4,4.4,1.2c0.9,0.8,1.4,2,1.4,3.7V50c0,1.7-0.5,2.9-1.4,3.7c-0.9,0.8-2.4,1.2-4.4,1.2H5.8
				v9.8H0z M19,43.8H5.8v6.7H19c1,0,1.7-0.1,2.1-0.4c0.4-0.3,0.6-0.8,0.6-1.6v-2.7c0-0.7-0.2-1.2-0.6-1.5C20.7,44,20,43.8,19,43.8z"
				/>
			<path d="M37.4,64.7V39.5h5.9v9.8h18.4v-9.8h5.9v25.3h-5.9V53.9H43.2v10.9H37.4z"/>
			<path d="M79,48.4c0-1.9,0.4-3.3,1.1-4c0.7-0.7,2.1-1.1,4.2-1.1h15.7c2.1,0,3.5,0.4,4.2,1.1c0.7,0.7,1.1,2,1.1,4v11.3
				c0,2-0.4,3.3-1.1,4c-0.7,0.7-2.1,1.1-4.2,1.1H84.3c-2.1,0-3.5-0.4-4.2-1.1c-0.7-0.7-1.1-2-1.1-4V48.4z M84,60.7h16.4V47.2H84
				V60.7z"/>
			<path d="M116.8,64.7V39.5h25.9v4.3h-20v5.6h11.7v4.3h-11.7V60h20.2v4.8H116.8z"/>
			<path d="M154.7,64.7V39.5h4l17.8,14.9c0.6,0.5,1.1,1,1.6,1.4c0.5,0.4,0.9,0.9,1.3,1.3c-0.1-1.4-0.2-2.4-0.2-3c0-0.6,0-1,0-1.4
				V39.5h5.3v25.3h-4l-18.6-15.6c-0.4-0.4-0.8-0.8-1.2-1.1c-0.3-0.3-0.6-0.6-0.9-1c0.1,0.8,0.1,1.5,0.2,2.2c0,0.7,0.1,1.3,0.1,1.8
				v13.7H154.7z"/>
			<path d="M197.3,64.7V39.5h5.9v25.3H197.3z"/>
			<path d="M213.2,64.7l12-13L213,39.5h7.8l8.1,8.6l7.7-8.6h6.8l-11,11.6l13.6,13.7h-8l-9.3-9.8l-8.5,9.8H213.2z"/>
		</g>
		<path d="M99.1,39.2H83.4c0,0,2.1-1.1,0.1-2.5c-2.1-1.4-7.5-5.2-7.5-5.2L99.1,39.2z"/>
	</g>
</g>
<g id="Phoenix">
</g>
<g id="Magnet_Forensics_1_">
</g>
<g id="Bloomberg">
</g>
<g id="Wish">
</g>
<g id="lani">
</g>
<g id="Yelp">
</g>
<g id="Mozilla">
</g>
<g id="Microsoft">
</g>
<g id="Facebook">
</g>
<g id="Kik_1_">
</g>
<g id="D2L">
</g>
<g id="Linode">
</g>
<g id="Braintree">
</g>
<g id="Velocity">
</g>
<g id="citi">
</g>
<g id="Course_Hero">
</g>
<g id="square">
</g>
<g id="Capco">
</g>
</svg>
