<?xml version="1.0" encoding="UTF-8" standalone="no"?>
<!-- Generator: Adobe Illustrator 16.0.0, SVG Export Plug-In . SVG Version: 6.00 Build 0)  -->

<svg
   xmlns:dc="http://purl.org/dc/elements/1.1/"
   xmlns:cc="http://creativecommons.org/ns#"
   xmlns:rdf="http://www.w3.org/1999/02/22-rdf-syntax-ns#"
   xmlns:svg="http://www.w3.org/2000/svg"
   xmlns="http://www.w3.org/2000/svg"
   xmlns:xlink="http://www.w3.org/1999/xlink"
   xmlns:sodipodi="http://sodipodi.sourceforge.net/DTD/sodipodi-0.dtd"
   xmlns:inkscape="http://www.inkscape.org/namespaces/inkscape"
   version="1.1"
   id="Layer_1"
   x="0px"
   y="0px"
   width="506.975px"
   height="221.989px"
   viewBox="0 0 506.975 221.989"
   enable-background="new 0 0 506.975 221.989"
   xml:space="preserve"
   inkscape:version="0.91 r13725"
   sodipodi:docname="logos_firebase.svg"><metadata
     id="metadata370"><rdf:RDF><cc:Work
         rdf:about=""><dc:format>image/svg+xml</dc:format><dc:type
           rdf:resource="http://purl.org/dc/dcmitype/StillImage" /><dc:title></dc:title></cc:Work></rdf:RDF></metadata><defs
     id="defs368" /><sodipodi:namedview
     pagecolor="#ffffff"
     bordercolor="#666666"
     borderopacity="1"
     objecttolerance="10"
     gridtolerance="10"
     guidetolerance="10"
     inkscape:pageopacity="0"
     inkscape:pageshadow="2"
     inkscape:window-width="1143"
     inkscape:window-height="797"
     id="namedview366"
     showgrid="false"
     inkscape:zoom="0.61146999"
     inkscape:cx="253.4875"
     inkscape:cy="110.9945"
     inkscape:window-x="0"
     inkscape:window-y="0"
     inkscape:window-maximized="0"
     inkscape:current-layer="Layer_1" /><g
     id="g3"
     transform="translate(0,-9.8124195)"><defs
       id="defs5"><rect
         id="SVGID_1_"
         x="-133.603"
         y="-203.257"
         width="764.15997"
         height="611.15997" /></defs><clipPath
       id="SVGID_2_"><use
         xlink:href="#SVGID_1_"
         overflow="visible"
         id="use9"
         style="overflow:visible"
         x="0"
         y="0"
         width="100%"
         height="100%" /></clipPath><g
       clip-path="url(#SVGID_2_)"
       id="g11"><defs
         id="defs13"><rect
           id="SVGID_3_"
           x="-133.603"
           y="-203.257"
           width="764.15997"
           height="611.15997" /></defs><clipPath
         id="SVGID_4_"><use
           xlink:href="#SVGID_3_"
           overflow="visible"
           id="use17"
           style="overflow:visible"
           x="0"
           y="0"
           width="100%"
           height="100%" /></clipPath><path
         clip-path="url(#SVGID_4_)"
         d="m 8.174,125.303 c -1.085,1.702 -1.357,3.353 -1.328,4.647 l 0.285,15.789 c 0.28,11.516 22.007,14.633 39.044,14.633 14.527,0 38.592,-2.381 38.363,-14.651 l -0.284,-15.777 0,-0.021 0,-0.021 c -0.034,-1.286 -0.379,-2.903 -1.507,-4.57 0.711,-1.115 1.295,-2.437 1.325,-4.654 l -0.283,-15.778 -0.001,-0.021 0,-0.022 c -0.037,-1.413 -0.45,-3.225 -1.863,-5.063 0.871,-1.284 1.669,-2.67 1.662,-5.152 l -0.32,-17.768 -10e-4,-0.021 0,-0.023 C 82.906,62.946 50.683,62.243 44.227,62.243 c -13.345,0 -29.738,2.19 -35.725,8.335 -2.247,2.307 -2.68,4.696 -2.644,6.303 L 6.18,94.658 c 0.106,2.113 0.805,3.753 1.864,5.108 -1.367,1.873 -1.696,3.72 -1.664,5.141 l 0.285,15.788 c 0.117,2.764 0.892,3.513 1.509,4.608"
         id="path19"
         inkscape:connector-curvature="0"
         style="fill:#282829" /></g><g
       clip-path="url(#SVGID_2_)"
       id="g21"><defs
         id="defs23"><path
           id="SVGID_5_"
           d="m 14.63,127.608 c 10e-4,-0.001 10e-4,-0.001 0.002,-0.002 l 0,3.449 c 0,2.832 13.681,5.812 30.556,5.812 16.194,0 29.437,-2.744 30.48,-5.468 l 0,-6.998 c -4.953,2.927 -16.729,4.985 -30.482,4.985 -13.823,0 -25.647,-2.08 -30.556,-5.03 l 0,3.252 z m 0,-24.899 c 10e-4,0 10e-4,-0.001 0.002,-0.001 l 0,2.902 c 0,2.833 13.681,5.812 30.556,5.812 16.194,0 29.437,-2.744 30.48,-5.47 l 0,-7.018 c -3.077,1.82 -8.047,3.414 -15.046,4.346 l -0.836,0.139 c -3.284,0.425 -21.059,1.34 -28.541,0.117 2.17,-0.39 3.009,-0.549 5.059,-1.199 -4.487,0.589 -8.763,0.325 -14.509,-1.118 -3.151,-0.648 -5.492,-2.069 -7.165,-3.979 l 0,5.469 z"
           inkscape:connector-curvature="0" /></defs><clipPath
         id="SVGID_6_"><use
           xlink:href="#SVGID_5_"
           overflow="visible"
           id="use27"
           style="overflow:visible"
           x="0"
           y="0"
           width="100%"
           height="100%" /></clipPath><linearGradient
         id="SVGID_7_"
         gradientUnits="userSpaceOnUse"
         x1="-133.603"
         y1="407.9028"
         x2="-132.603"
         y2="407.9028"
         gradientTransform="matrix(55.2859,0,0,-55.2859,7404.1396,22668.346)"><stop
           offset="0"
           style="stop-color:#282829"
           id="stop30" /><stop
           offset="0.2454"
           style="stop-color:#48484A"
           id="stop32" /><stop
           offset="0.9448"
           style="stop-color:#282829"
           id="stop34" /><stop
           offset="1"
           style="stop-color:#282829"
           id="stop36" /></linearGradient><rect
         x="14.63"
         y="97.240997"
         clip-path="url(#SVGID_6_)"
         width="61.037998"
         height="39.625999"
         id="rect38"
         style="fill:url(#SVGID_7_)" /></g><g
       clip-path="url(#SVGID_2_)"
       id="g40"><defs
         id="defs42"><rect
           id="SVGID_8_"
           x="-133.603"
           y="-203.257"
           width="764.15997"
           height="611.15997" /></defs><clipPath
         id="SVGID_9_"><use
           xlink:href="#SVGID_8_"
           overflow="visible"
           id="use46"
           style="overflow:visible"
           x="0"
           y="0"
           width="100%"
           height="100%" /></clipPath><path
         clip-path="url(#SVGID_9_)"
         d="m 21.795,101.22 c -3.652,-0.752 -6.214,-2.54 -7.91,-4.927 1.064,2.072 2.659,4.455 6.806,5.756 11.492,3.607 17.085,2.443 17.085,2.443 l -4.898,1.239 c 3.93,0.444 8.681,0.899 12.796,0.899 20.453,0 25.173,-3.695 28.483,-6.897 -3.101,1.482 -7.583,2.755 -13.536,3.547 l -0.835,0.14 c -3.284,0.424 -21.059,1.338 -28.541,0.115 2.17,-0.389 3.009,-0.548 5.059,-1.199 -4.488,0.591 -8.762,0.326 -14.509,-1.116"
         id="path48"
         inkscape:connector-curvature="0"
         style="fill:#282829" /><path
         clip-path="url(#SVGID_9_)"
         d="m 45.186,129.386 c -13.363,0 -24.858,-1.944 -30.044,-4.739 3.06,4.061 15.444,7.1 30.266,7.1 15.328,0 28.048,-3.25 30.544,-7.52 -4.774,3.019 -16.743,5.159 -30.766,5.159"
         id="path50"
         inkscape:connector-curvature="0"
         style="fill:#282829" /><path
         clip-path="url(#SVGID_9_)"
         d="M 12.392,93.54 C 12.388,93.53 12.383,93.521 12.38,93.511 l -0.009,0 c 0.007,0.009 0.014,0.019 0.021,0.029"
         id="path52"
         inkscape:connector-curvature="0"
         style="fill:#282829" /></g><g
       clip-path="url(#SVGID_2_)"
       id="g54"><defs
         id="defs56"><path
           id="SVGID_10_"
           d="m 13.868,128.1 c -1.036,0.767 -1.622,1.584 -1.667,2.431 -0.001,-0.022 -0.005,-0.052 -0.005,-0.08 l 0,0.188 0,15.798 0,0.185 c 0,-0.027 0.005,-0.06 0.005,-0.092 0.204,4.414 14.892,7.975 32.985,7.975 18.094,0 32.784,-3.561 32.989,-7.975 0,0.032 0.005,0.064 0.005,0.092 l 0,-0.185 0,-15.798 0,-0.188 c 0,0.028 -0.005,0.058 -0.005,0.08 -0.043,-0.847 -0.631,-1.664 -1.671,-2.431 -0.231,-0.169 -0.488,-0.332 -0.762,-0.491 l 0,3.446 c 0,2.832 -13.68,5.812 -30.554,5.812 -16.875,0 -30.556,-2.979 -30.556,-5.812 l 0,-3.449 c -0.274,0.159 -0.532,0.323 -0.764,0.494 m 61.874,-22.49 c 0,2.833 -13.68,5.812 -30.554,5.812 -16.875,0 -30.556,-2.979 -30.556,-5.812 l 0,-2.902 c -1.522,0.914 -2.384,1.911 -2.431,2.952 0,-0.026 -0.005,-0.061 -0.005,-0.091 l 0,0.183 0,15.567 0,0.184 c 0,-0.026 0.004,-0.054 0.005,-0.083 0.045,0.85 0.631,1.667 1.667,2.435 4.352,3.214 16.723,5.532 31.318,5.532 14.596,0 26.969,-2.318 31.318,-5.532 1.04,-0.768 1.628,-1.585 1.671,-2.435 0,0.029 0.005,0.057 0.005,0.083 l 0,-0.184 0,-15.567 0,-0.183 c 0,0.03 -0.005,0.064 -0.005,0.091 -0.048,-1.041 -0.909,-2.038 -2.433,-2.952 l 0,2.902 z"
           inkscape:connector-curvature="0" /></defs><clipPath
         id="SVGID_11_"><use
           xlink:href="#SVGID_10_"
           overflow="visible"
           id="use60"
           style="overflow:visible"
           x="0"
           y="0"
           width="100%"
           height="100%" /></clipPath><linearGradient
         id="SVGID_12_"
         gradientUnits="userSpaceOnUse"
         x1="-133.603"
         y1="407.9028"
         x2="-132.603"
         y2="407.9028"
         gradientTransform="matrix(-67.8469,0,0,67.8469,-8987.4688,-27546.359)"><stop
           offset="0"
           style="stop-color:#FFD200"
           id="stop63" /><stop
           offset="0.4049"
           style="stop-color:#FFE26A"
           id="stop65" /><stop
           offset="0.9877"
           style="stop-color:#FFD200"
           id="stop67" /><stop
           offset="1"
           style="stop-color:#FFD200"
           id="stop69" /></linearGradient><rect
         x="12.196"
         y="102.708"
         clip-path="url(#SVGID_11_)"
         width="65.984001"
         height="51.794998"
         id="rect71"
         style="fill:url(#SVGID_12_)" /></g><g
       clip-path="url(#SVGID_2_)"
       id="g73"><defs
         id="defs75"><rect
           id="SVGID_13_"
           x="-133.603"
           y="-203.257"
           width="764.15997"
           height="611.15997" /></defs><clipPath
         id="SVGID_14_"><use
           xlink:href="#SVGID_13_"
           overflow="visible"
           id="use79"
           style="overflow:visible"
           x="0"
           y="0"
           width="100%"
           height="100%" /></clipPath><path
         clip-path="url(#SVGID_14_)"
         d="m 45.189,138.785 c 19.454,-0.083 32.99,-3.442 32.959,-8.378 -0.093,-0.803 -0.656,-1.58 -1.645,-2.307 -0.23,-0.17 -0.487,-0.332 -0.761,-0.491 l 0,3.446 c 0,2.832 -13.68,5.812 -30.554,5.812 -16.875,0 -30.556,-2.979 -30.556,-5.812 l 0,-3.449 c -0.274,0.158 -0.531,0.323 -0.764,0.494 -0.985,0.727 -1.545,1.5 -1.64,2.306 -0.032,5.507 13.635,8.409 32.961,8.379"
         id="path81"
         inkscape:connector-curvature="0"
         style="fill:#fff797" /><path
         clip-path="url(#SVGID_14_)"
         d="m 75.742,102.708 0,2.902 c 0,2.833 -13.68,5.813 -30.554,5.813 -16.875,0 -30.556,-2.98 -30.556,-5.813 l 0,-2.902 c -1.492,0.895 -2.343,1.871 -2.423,2.892 0.292,4.262 14.94,7.698 32.98,7.698 18.032,0 32.676,-3.434 32.977,-7.694 -0.075,-1.022 -0.928,-2.001 -2.424,-2.896"
         id="path83"
         inkscape:connector-curvature="0"
         style="fill:#fff797" /></g><g
       clip-path="url(#SVGID_2_)"
       id="g85"><defs
         id="defs87"><path
           id="SVGID_15_"
           d="m 13.318,79.303 c -0.121,-0.253 -0.566,-1.578 -0.537,-2.067 -3.211,9.318 -2.351,21.662 9.013,24.001 5.745,1.443 10.021,1.708 14.509,1.117 -2.051,0.651 -2.889,0.81 -5.059,1.201 7.481,1.22 25.486,0.261 28.727,-0.162 l -10e-4,-0.001 c 8.003,-1.066 14.001,-3.092 16.903,-5.235 1.082,-0.797 1.674,-1.65 1.674,-2.535 l 0,-1.317 0,-13.891 c 0,-2.455 0.558,-7.62 -20.912,-8.047 25.514,2.394 20.531,10.686 -2.552,11.059 -5.101,0.084 -16.47,0.622 -16.419,-5.065 0,-5.691 10.768,-5.732 11.401,-5.732 -1.123,-0.057 -3.813,-0.953 -2.494,-1.862 1.26,-0.868 7.141,-1.634 13.678,-1.519 0,0 -16.406,-2.973 -28.865,-0.885 l 1.462,-1.359 c -5.978,0.901 -18.298,2.864 -20.528,12.299"
           inkscape:connector-curvature="0" /></defs><clipPath
         id="SVGID_16_"><use
           xlink:href="#SVGID_15_"
           overflow="visible"
           id="use91"
           style="overflow:visible"
           x="0"
           y="0"
           width="100%"
           height="100%" /></clipPath><linearGradient
         id="SVGID_17_"
         gradientUnits="userSpaceOnUse"
         x1="-133.603"
         y1="407.9028"
         x2="-132.603"
         y2="407.9028"
         gradientTransform="matrix(67.3885,0,0,-67.3885,9014.4551,27573.551)"><stop
           offset="0"
           style="stop-color:#FFD200"
           id="stop94" /><stop
           offset="0.4049"
           style="stop-color:#FFE26A"
           id="stop96" /><stop
           offset="0.9877"
           style="stop-color:#FFD200"
           id="stop98" /><stop
           offset="1"
           style="stop-color:#FFD200"
           id="stop100" /></linearGradient><rect
         x="9.5699997"
         y="66.275002"
         clip-path="url(#SVGID_16_)"
         width="73.579002"
         height="38.5"
         id="rect102"
         style="fill:url(#SVGID_17_)" /></g><g
       clip-path="url(#SVGID_2_)"
       id="g104"><defs
         id="defs106"><rect
           id="SVGID_18_"
           x="-133.603"
           y="-203.257"
           width="764.15997"
           height="611.15997" /></defs><clipPath
         id="SVGID_19_"><use
           xlink:href="#SVGID_18_"
           overflow="visible"
           id="use110"
           style="overflow:visible"
           x="0"
           y="0"
           width="100%"
           height="100%" /></clipPath><defs
         id="defs112"><filter
           id="Adobe_OpacityMaskFilter"
           filterUnits="userSpaceOnUse"
           x="11.162"
           y="66.986"
           width="67.389"
           height="37.162998"><feFlood
             result="back"
             id="feFlood115" /><feBlend
             in="SourceGraphic"
             in2="back"
             mode="normal"
             id="feBlend117" /></filter></defs><mask
         maskUnits="userSpaceOnUse"
         x="11.162"
         y="66.986"
         width="67.389"
         height="37.163"
         id="SVGID_20_"><g
           id="g120"
           style="filter:url(#Adobe_OpacityMaskFilter)"><g
             enable-background="new    "
             id="g122"><g
               id="g124"><defs
                 id="defs126"><path
                   id="SVGID_21_"
                   d="m 85.408,83.373 c 0,17.289 -17.76,31.304 -39.668,31.304 -21.908,0 -39.668,-14.016 -39.668,-31.304 0,-17.289 17.76,-31.305 39.668,-31.305 21.908,0 39.668,14.016 39.668,31.305"
                   inkscape:connector-curvature="0" /></defs><clipPath
                 id="SVGID_22_"
                 clip-path="url(#SVGID_19_)"><use
                   xlink:href="#SVGID_21_"
                   overflow="visible"
                   id="use130"
                   style="overflow:visible"
                   x="0"
                   y="0"
                   width="100%"
                   height="100%" /></clipPath><radialGradient
                 id="SVGID_23_"
                 cx="-133.603"
                 cy="407.9028"
                 r="1"
                 gradientTransform="matrix(53.5111,0,0,-51.617,7173.1704,21129.221)"
                 gradientUnits="userSpaceOnUse"><stop
                   offset="0"
                   style="stop-color:#FFFFFF"
                   id="stop133" /><stop
                   offset="0.9877"
                   style="stop-color:#000000"
                   id="stop135" /><stop
                   offset="1"
                   style="stop-color:#000000"
                   id="stop137" /></radialGradient><rect
                 x="6.072"
                 y="52.068001"
                 clip-path="url(#SVGID_22_)"
                 width="79.335999"
                 height="62.609001"
                 id="rect139"
                 style="fill:url(#SVGID_23_)" /></g></g></g></mask><g
         clip-path="url(#SVGID_19_)"
         mask="url(#SVGID_20_)"
         id="g141"><g
           id="g143"><defs
             id="defs145"><rect
               id="SVGID_24_"
               x="11.162"
               y="66.986"
               width="67.389"
               height="37.162998" /></defs><clipPath
             id="SVGID_25_"><use
               xlink:href="#SVGID_24_"
               overflow="visible"
               id="use149"
               style="overflow:visible"
               x="0"
               y="0"
               width="100%"
               height="100%" /></clipPath><path
             clip-path="url(#SVGID_25_)"
             d="m 55.084,83.41 c -5.101,0.083 -16.469,0.621 -16.418,-5.065 0,-5.691 10.768,-5.733 11.4,-5.733 -1.122,-0.056 -3.813,-0.953 -2.493,-1.862 1.259,-0.866 7.141,-1.633 13.678,-1.519 0,0 -16.406,-2.972 -28.866,-0.884 l 1.461,-1.361 c -5.977,0.902 -18.297,2.866 -20.527,12.301 -0.12,-0.254 -0.565,-1.579 -0.537,-2.067 -3.21,9.317 -2.35,21.662 9.013,24 5.746,1.443 10.021,1.708 14.509,1.118 -2.05,0.65 -2.889,0.81 -5.059,1.199 7.482,1.222 25.256,0.308 28.541,-0.116 l 0.835,-0.14 c 8.003,-1.064 13.352,-2.996 16.253,-5.141 1.082,-0.796 1.675,-1.65 1.675,-2.536 l 0,-1.316 0,-13.892 c 0,-2.455 0.557,-7.619 -20.912,-8.046 25.514,2.393 20.53,10.687 -2.553,11.06"
             id="path151"
             inkscape:connector-curvature="0"
             style="fill:#ffc425" /></g></g><defs
         id="defs153"><filter
           id="Adobe_OpacityMaskFilter_1_"
           filterUnits="userSpaceOnUse"
           x="31.318001"
           y="93.510002"
           width="24.871"
           height="10.657"><feFlood
             result="back"
             id="feFlood156" /><feBlend
             in="SourceGraphic"
             in2="back"
             mode="normal"
             id="feBlend158" /></filter></defs><mask
         maskUnits="userSpaceOnUse"
         x="31.318"
         y="93.51"
         width="24.871"
         height="10.657"
         id="SVGID_26_"><g
           id="g161"
           style="filter:url(#Adobe_OpacityMaskFilter_1_)"><g
             enable-background="new    "
             id="g163"><linearGradient
               id="SVGID_27_"
               gradientUnits="userSpaceOnUse"
               x1="-133.603"
               y1="407.9028"
               x2="-132.603"
               y2="407.9028"
               gradientTransform="matrix(21.4703,0,0,-21.4703,2906.4092,8856.2441)"><stop
                 offset="0"
                 style="stop-color:#FFFFFF"
                 id="stop166" /><stop
                 offset="0.5951"
                 style="stop-color:#1C1B1C"
                 id="stop168" /><stop
                 offset="1"
                 style="stop-color:#1C1B1C"
                 id="stop170" /></linearGradient><rect
               x="37.911999"
               y="92.333"
               clip-path="url(#SVGID_19_)"
               width="21.469999"
               height="12.226"
               id="rect172"
               style="fill:url(#SVGID_27_)" /></g></g></mask><g
         clip-path="url(#SVGID_19_)"
         mask="url(#SVGID_26_)"
         id="g174"
         style="opacity:0.79000005"><g
           id="g176"><defs
             id="defs178"><rect
               id="SVGID_28_"
               x="31.318001"
               y="93.510002"
               width="24.870001"
               height="10.657" /></defs><clipPath
             id="SVGID_29_"><use
               xlink:href="#SVGID_28_"
               overflow="visible"
               id="use182"
               style="overflow:visible"
               x="0"
               y="0"
               width="100%"
               height="100%" /></clipPath><path
             clip-path="url(#SVGID_29_)"
             d="M 31.318,103.566 C 40.48,101.918 54.292,94.851 54.937,93.51 l 1.251,9.839 c -3.045,1.038 -19.207,1.062 -24.87,0.217"
             id="path184"
             inkscape:connector-curvature="0"
             style="fill:#fff797" /></g></g><defs
         id="defs186"><filter
           id="Adobe_OpacityMaskFilter_2_"
           filterUnits="userSpaceOnUse"
           x="13.318"
           y="74.367996"
           width="13.454"
           height="11.517"><feFlood
             result="back"
             id="feFlood189" /><feBlend
             in="SourceGraphic"
             in2="back"
             mode="normal"
             id="feBlend191" /></filter></defs><mask
         maskUnits="userSpaceOnUse"
         x="13.318"
         y="74.368"
         width="13.454"
         height="11.517"
         id="SVGID_30_"><g
           id="g194"
           style="filter:url(#Adobe_OpacityMaskFilter_2_)"><g
             enable-background="new    "
             id="g196"><g
               id="g198"><defs
                 id="defs200"><path
                   id="SVGID_31_"
                   d="m 14.932,75.596 c -0.778,1.004 -1.256,2.489 -1.614,3.707 0.438,5.159 9.267,6.419 13.454,6.581 -11.063,-1.947 -12.06,-7.86 -11.84,-10.288"
                   inkscape:connector-curvature="0" /></defs><clipPath
                 id="SVGID_32_"
                 clip-path="url(#SVGID_19_)"><use
                   xlink:href="#SVGID_31_"
                   overflow="visible"
                   id="use204"
                   style="overflow:visible"
                   x="0"
                   y="0"
                   width="100%"
                   height="100%" /></clipPath><linearGradient
                 id="SVGID_33_"
                 gradientUnits="userSpaceOnUse"
                 x1="-133.603"
                 y1="408.01901"
                 x2="-132.603"
                 y2="408.01901"
                 gradientTransform="matrix(10.9865,7.7637,7.7637,-10.9865,-1684.5249,5597.3823)"><stop
                   offset="0"
                   style="stop-color:#FFFFFF"
                   id="stop207" /><stop
                   offset="0.0826"
                   style="stop-color:#E1E2E3"
                   id="stop209" /><stop
                   offset="0.2725"
                   style="stop-color:#AAACAF"
                   id="stop211" /><stop
                   offset="0.453"
                   style="stop-color:#7F8184"
                   id="stop213" /><stop
                   offset="0.6188"
                   style="stop-color:#5D5E61"
                   id="stop215" /><stop
                   offset="0.7668"
                   style="stop-color:#414142"
                   id="stop217" /><stop
                   offset="0.8918"
                   style="stop-color:#19191A"
                   id="stop219" /><stop
                   offset="0.9787"
                   style="stop-color:#000000"
                   id="stop221" /><stop
                   offset="1"
                   style="stop-color:#000000"
                   id="stop223" /></linearGradient><polygon
                 clip-path="url(#SVGID_32_)"
                 points="22.291,92.225 8.469,82.458 17.799,69.255 31.621,79.022 "
                 id="polygon225"
                 style="fill:url(#SVGID_33_)" /></g></g></g></mask><g
         clip-path="url(#SVGID_19_)"
         mask="url(#SVGID_30_)"
         id="g227"
         style="opacity:0.37000002"><g
           id="g229"><defs
             id="defs231"><rect
               id="SVGID_34_"
               x="13.318"
               y="74.367996"
               width="13.453"
               height="11.516" /></defs><clipPath
             id="SVGID_35_"><use
               xlink:href="#SVGID_34_"
               overflow="visible"
               id="use235"
               style="overflow:visible"
               x="0"
               y="0"
               width="100%"
               height="100%" /></clipPath><path
             clip-path="url(#SVGID_35_)"
             d="m 15.837,74.368 c -1.694,1.88 -2.161,3.717 -2.518,4.935 0.437,5.159 9.267,6.419 13.453,6.582 C 15.709,83.937 12.681,79.587 15.837,74.368"
             id="path237"
             inkscape:connector-curvature="0"
             style="fill:#ffd200" /></g></g><defs
         id="defs239"><filter
           id="Adobe_OpacityMaskFilter_3_"
           filterUnits="userSpaceOnUse"
           x="11.165"
           y="77.236"
           width="9.5270004"
           height="10.98"><feFlood
             result="back"
             id="feFlood242" /><feBlend
             in="SourceGraphic"
             in2="back"
             mode="normal"
             id="feBlend244" /></filter></defs><mask
         maskUnits="userSpaceOnUse"
         x="11.165"
         y="77.236"
         width="9.527"
         height="10.98"
         id="SVGID_36_"><g
           id="g247"
           style="filter:url(#Adobe_OpacityMaskFilter_3_)"><g
             id="g249"><defs
               id="defs251"><rect
                 id="SVGID_37_"
                 x="11.165"
                 y="77.236"
                 width="9.5270004"
                 height="10.98" /></defs><clipPath
               id="SVGID_38_"
               clip-path="url(#SVGID_19_)"><use
                 xlink:href="#SVGID_37_"
                 overflow="visible"
                 id="use255"
                 style="overflow:visible"
                 x="0"
                 y="0"
                 width="100%"
                 height="100%" /></clipPath><g
               enable-background="new    "
               id="g257"><g
                 id="g259"><defs
                   id="defs261"><path
                     id="SVGID_39_"
                     d="m 12.781,77.236 c 0,0 0.512,6.603 7.911,7.832 l -9.473,3.148 c 0,0 -0.502,-5.016 1.562,-10.98"
                     inkscape:connector-curvature="0" /></defs><clipPath
                   id="SVGID_40_"
                   clip-path="url(#SVGID_38_)"><use
                     xlink:href="#SVGID_39_"
                     overflow="visible"
                     id="use265"
                     style="overflow:visible"
                     x="0"
                     y="0"
                     width="100%"
                     height="100%" /></clipPath><linearGradient
                   id="SVGID_41_"
                   gradientUnits="userSpaceOnUse"
                   x1="-133.603"
                   y1="408.0415"
                   x2="-132.603"
                   y2="408.0415"
                   gradientTransform="matrix(2.4085,7.0534,7.0534,-2.4085,-2541.8652,2004.1218)"><stop
                     offset="0"
                     style="stop-color:#FFFFFF"
                     id="stop268" /><stop
                     offset="0.1575"
                     style="stop-color:#D7D8DA"
                     id="stop270" /><stop
                     offset="0.5768"
                     style="stop-color:#7E8082"
                     id="stop272" /><stop
                     offset="0.8661"
                     style="stop-color:#434344"
                     id="stop274" /><stop
                     offset="1"
                     style="stop-color:#000000"
                     id="stop276" /></linearGradient><polygon
                   clip-path="url(#SVGID_40_)"
                   points="11.759,91.266 7.359,78.382 19.65,74.186 24.05,87.069 "
                   id="polygon278"
                   style="fill:url(#SVGID_41_)" /></g></g></g></g></mask><g
         clip-path="url(#SVGID_19_)"
         mask="url(#SVGID_36_)"
         id="g280"
         style="opacity:0.75"><g
           id="g282"><defs
             id="defs284"><rect
               id="SVGID_42_"
               x="11.165"
               y="77.236"
               width="9.5270004"
               height="10.98" /></defs><clipPath
             id="SVGID_43_"><use
               xlink:href="#SVGID_42_"
               overflow="visible"
               id="use288"
               style="overflow:visible"
               x="0"
               y="0"
               width="100%"
               height="100%" /></clipPath><path
             clip-path="url(#SVGID_43_)"
             d="m 12.781,77.236 c 0,0 0.512,6.602 7.911,7.832 l -9.473,3.147 c 0,0 -0.502,-5.015 1.562,-10.979"
             id="path290"
             inkscape:connector-curvature="0"
             style="fill:#fff797" /></g></g><defs
         id="defs292"><filter
           id="Adobe_OpacityMaskFilter_4_"
           filterUnits="userSpaceOnUse"
           x="18.299999"
           y="41.252998"
           width="73.924004"
           height="73.754997"><feFlood
             result="back"
             id="feFlood295" /><feBlend
             in="SourceGraphic"
             in2="back"
             mode="normal"
             id="feBlend297" /></filter></defs><mask
         maskUnits="userSpaceOnUse"
         x="18.3"
         y="41.253"
         width="73.924"
         height="73.755"
         id="SVGID_44_"><g
           id="g300"
           style="filter:url(#Adobe_OpacityMaskFilter_4_)"><g
             enable-background="new    "
             id="g302"><g
               id="g304"><defs
                 id="defs306"><path
                   id="SVGID_45_"
                   d="m 80.104,78.229 c 0,5.568 -11.375,10.075 -25.408,10.075 -14.033,0 -25.408,-4.507 -25.408,-10.075 0,-5.561 11.375,-10.071 25.408,-10.071 14.033,0 25.408,4.51 25.408,10.071"
                   inkscape:connector-curvature="0" /></defs><clipPath
                 id="SVGID_46_"
                 clip-path="url(#SVGID_19_)"><use
                   xlink:href="#SVGID_45_"
                   overflow="visible"
                   id="use310"
                   style="overflow:visible"
                   x="0"
                   y="0"
                   width="100%"
                   height="100%" /></clipPath><radialGradient
                 id="SVGID_47_"
                 cx="-133.603"
                 cy="407.9028"
                 r="1"
                 gradientTransform="matrix(26.193,0,0,-10.386,3541.1431,4314.1094)"
                 gradientUnits="userSpaceOnUse"><stop
                   offset="0"
                   style="stop-color:#FFFFFF"
                   id="stop313" /><stop
                   offset="0.6564"
                   style="stop-color:#FFFFFF"
                   id="stop315" /><stop
                   offset="1"
                   style="stop-color:#000000"
                   id="stop317" /></radialGradient><rect
                 x="29.288"
                 y="68.157997"
                 clip-path="url(#SVGID_46_)"
                 width="50.816002"
                 height="20.146"
                 id="rect319"
                 style="fill:url(#SVGID_47_)" /></g></g></g></mask><g
         clip-path="url(#SVGID_19_)"
         mask="url(#SVGID_44_)"
         id="g321"
         style="opacity:0.6800001"><g
           id="g323"><defs
             id="defs325"><rect
               id="SVGID_48_"
               x="28.068001"
               y="69.057999"
               width="50.243999"
               height="17.379" /></defs><clipPath
             id="SVGID_49_"><use
               xlink:href="#SVGID_48_"
               overflow="visible"
               id="use329"
               style="overflow:visible"
               x="0"
               y="0"
               width="100%"
               height="100%" /></clipPath><g
             clip-path="url(#SVGID_49_)"
             id="g331"><defs
               id="defs333"><path
                 id="SVGID_50_"
                 d="m 57.635,72.367 c 25.514,2.393 20.531,10.686 -2.552,11.059 -5.101,0.083 -16.47,0.622 -16.419,-5.065 0,-5.691 10.768,-5.733 11.401,-5.733 -1.123,-0.056 -3.813,-0.953 -2.494,-1.862 1.26,-0.867 7.141,-1.633 13.678,-1.517 0,0 -0.135,-0.025 -0.38,-0.066 -1.945,-0.145 -4.019,-0.169 -6.205,-0.047 -14.082,0.02 -27.288,3.266 -26.568,9.689 -0.063,5.676 11.455,8.423 25.432,7.402 13.866,-0.541 24.963,-3.381 24.782,-8.009 l 0,-0.002 C 77.483,75.701 73.814,72.689 57.635,72.367"
                 inkscape:connector-curvature="0" /></defs><clipPath
               id="SVGID_51_"><use
                 xlink:href="#SVGID_50_"
                 overflow="visible"
                 id="use337"
                 style="overflow:visible"
                 x="0"
                 y="0"
                 width="100%"
                 height="100%" /></clipPath><linearGradient
               id="SVGID_52_"
               gradientUnits="userSpaceOnUse"
               x1="-133.603"
               y1="407.811"
               x2="-132.603"
               y2="407.811"
               gradientTransform="matrix(11.7338,-12.9071,-12.9071,-11.7338,6875.6484,3150.9631)"><stop
                 offset="0"
                 style="stop-color:#FFF797"
                 id="stop340" /><stop
                 offset="0.0429"
                 style="stop-color:#FFF797"
                 id="stop342" /><stop
                 offset="0.9448"
                 style="stop-color:#FFC425"
                 id="stop344" /><stop
                 offset="1"
                 style="stop-color:#FFC425"
                 id="stop346" /></linearGradient><polygon
               clip-path="url(#SVGID_51_)"
               points="92.225,77.265 57.912,115.008 18.3,78.997 52.613,41.253 "
               id="polygon348"
               style="fill:url(#SVGID_52_)" /></g></g></g><polygon
         clip-path="url(#SVGID_19_)"
         points="168.063,87.502 129.628,87.502 129.628,102.611 163.498,102.611 163.498,116.809 129.628,116.809 129.628,146.889 114.012,146.889 114.012,73.305 168.063,73.305 "
         id="polygon350"
         style="fill:#282829" /><path
         clip-path="url(#SVGID_19_)"
         d="m 173.845,73.163 16.226,0 0,13.69 -16.226,0 0,-13.69 z m 0.405,19.672 15.413,0 0,54.055 -15.413,0 0,-54.055 z"
         id="path352"
         inkscape:connector-curvature="0"
         style="fill:#282829" /><path
         clip-path="url(#SVGID_19_)"
         d="m 195.896,92.535 15.413,0 0,10.952 c 3.146,-7.504 8.216,-12.371 17.343,-11.965 l 0,16.124 -0.812,0 c -10.241,0 -16.531,6.187 -16.531,19.166 l 0,20.077 -15.413,0 0,-54.354 z"
         id="path354"
         inkscape:connector-curvature="0"
         style="fill:#282829" /><path
         clip-path="url(#SVGID_19_)"
         d="m 230.197,120.017 0,-0.204 c 0,-15.515 11.053,-28.292 26.872,-28.292 18.152,0 26.469,14.095 26.469,29.509 0,1.218 -0.102,2.638 -0.203,4.056 l -37.826,0 c 1.521,6.999 6.388,10.647 13.285,10.647 5.172,0 8.926,-1.621 13.182,-5.576 l 8.824,7.808 c -5.07,6.288 -12.371,10.142 -22.208,10.142 -16.329,0 -28.395,-11.459 -28.395,-28.09 m 38.333,-4.563 c -0.914,-6.896 -4.972,-11.559 -11.461,-11.559 -6.389,0 -10.545,4.561 -11.765,11.559 l 23.226,0 z"
         id="path356"
         inkscape:connector-curvature="0"
         style="fill:#282829" /><path
         clip-path="url(#SVGID_19_)"
         d="m 303.588,139.791 0,7.099 -15.413,0 0,-74.028 15.413,0 0,27.481 c 3.751,-5.07 8.924,-8.821 16.936,-8.821 12.676,0 24.744,9.937 24.744,28.089 l 0,0.202 c 0,18.152 -11.866,28.091 -24.744,28.091 -8.216,0 -13.285,-3.753 -16.936,-8.113 m 26.264,-19.978 0,-0.202 c 0,-9.026 -6.083,-15.008 -13.282,-15.008 -7.201,0 -13.185,5.981 -13.185,15.008 l 0,0.202 c 0,9.026 5.983,15.01 13.185,15.01 7.199,0 13.282,-5.883 13.282,-15.01"
         id="path358"
         inkscape:connector-curvature="0"
         style="fill:#282829" /><path
         clip-path="url(#SVGID_19_)"
         d="m 348.008,131.272 0,-0.201 c 0,-11.865 9.023,-17.341 21.901,-17.341 5.478,0 9.433,0.911 13.286,2.229 l 0,-0.912 c 0,-6.388 -3.955,-9.938 -11.662,-9.938 -5.881,0 -10.041,1.114 -15.008,2.941 l -3.854,-11.763 c 5.983,-2.638 11.864,-4.362 21.092,-4.362 8.416,0 14.501,2.233 18.355,6.085 4.057,4.056 5.882,10.04 5.882,17.34 l 0,31.538 -14.907,0 0,-5.881 c -3.752,4.156 -8.922,6.896 -16.429,6.896 -10.24,0.001 -18.656,-5.881 -18.656,-16.631 m 35.392,-3.548 0,-2.738 c -2.638,-1.218 -6.086,-2.027 -9.837,-2.027 -6.592,0 -10.648,2.637 -10.648,7.504 l 0,0.202 c 0,4.158 3.448,6.592 8.415,6.592 7.201,-0.001 12.07,-3.956 12.07,-9.533"
         id="path360"
         inkscape:connector-curvature="0"
         style="fill:#282829" /><path
         clip-path="url(#SVGID_19_)"
         d="m 403.105,139.69 6.592,-10.142 c 5.883,4.26 12.066,6.49 17.141,6.49 4.46,0 6.488,-1.622 6.488,-4.056 l 0,-0.202 c 0,-3.347 -5.272,-4.463 -11.257,-6.288 -7.604,-2.23 -16.226,-5.78 -16.226,-16.327 l 0,-0.203 c 0,-11.052 8.923,-17.238 19.876,-17.238 6.896,0 14.399,2.332 20.281,6.287 l -5.882,10.649 c -5.375,-3.146 -10.747,-5.071 -14.703,-5.071 -3.751,0 -5.678,1.621 -5.678,3.753 l 0,0.2 c 0,3.043 5.171,4.463 11.053,6.491 7.605,2.536 16.427,6.187 16.427,16.125 l 0,0.203 c 0,12.067 -9.024,17.543 -20.788,17.543 -7.605,0 -16.124,-2.534 -23.324,-8.214"
         id="path362"
         inkscape:connector-curvature="0"
         style="fill:#282829" /><path
         clip-path="url(#SVGID_19_)"
         d="m 450.265,120.017 0,-0.204 c 0,-15.515 11.053,-28.292 26.874,-28.292 18.152,0 26.467,14.095 26.467,29.509 0,1.218 -0.102,2.638 -0.204,4.056 l -37.823,0 c 1.52,6.999 6.389,10.647 13.283,10.647 5.171,0 8.923,-1.621 13.185,-5.576 l 8.821,7.808 c -5.07,6.288 -12.373,10.142 -22.21,10.142 -16.325,0 -28.393,-11.459 -28.393,-28.09 m 38.333,-4.563 c -0.912,-6.896 -4.969,-11.559 -11.459,-11.559 -6.389,0 -10.547,4.561 -11.764,11.559 l 23.223,0 z"
         id="path364"
         inkscape:connector-curvature="0"
         style="fill:#282829" /></g></g></svg>