<?xml version="1.0" encoding="utf-8"?>
<!-- Generator: Adobe Illustrator 16.0.0, SVG Export Plug-In . SVG Version: 6.00 Build 0)  -->
<!DOCTYPE svg PUBLIC "-//W3C//DTD SVG 1.1//EN" "http://www.w3.org/Graphics/SVG/1.1/DTD/svg11.dtd">
<svg version="1.1" id="Layer_1" xmlns="http://www.w3.org/2000/svg" xmlns:xlink="http://www.w3.org/1999/xlink" x="0px" y="0px"
	 width="327.058px" height="165px" viewBox="0 -25.25 327.058 165" enable-background="new 0 -25.25 327.058 165"
	 xml:space="preserve">
<g>
	<g>
		<defs>
			<rect id="SVGID_1_" width="327.058" height="96.5"/>
		</defs>
		<clipPath id="SVGID_2_">
			<use xlink:href="#SVGID_1_"  overflow="visible"/>
		</clipPath>
		<path clip-path="url(#SVGID_2_)" d="M19.784,38.171h-8.667c0.12-2.614,0.805-4.468,2.081-5.652
			c1.37-1.223,3.582-1.699,6.509-1.401l0.498,0.05l0.205-2.044l-0.493-0.054c-3.534-0.381-6.273,0.286-8.125,1.969
			c-1.704,1.544-2.599,3.88-2.729,7.132H3.472v1.999h5.577v27.205h2.052V40.17h8.683V38.171z"/>
	</g>
	<g>
		<defs>
			<rect id="SVGID_3_" width="327.058" height="96.5"/>
		</defs>
		<clipPath id="SVGID_4_">
			<use xlink:href="#SVGID_3_"  overflow="visible"/>
		</clipPath>
		<path clip-path="url(#SVGID_4_)" d="M33.694,37.697l-0.147,0.001l-0.156-0.001c-6.173,0-11.149,3.306-13.311,8.844
			c-0.756,1.943-1.14,3.986-1.14,6.074c0,2.089,0.384,4.133,1.141,6.078c2.226,5.617,7.077,8.841,13.308,8.841l0.149-0.001
			l0.16,0.001c6.264,0,11.133-3.224,13.36-8.845c0.721-1.853,1.086-3.896,1.086-6.074c0-2.178-0.365-4.221-1.088-6.078
			C44.843,41.002,39.847,37.697,33.694,37.697 M20.993,52.615c0-1.749,0.326-3.532,0.966-5.29c1.918-4.919,6.031-7.627,11.584-7.627
			c5.552,0,9.665,2.708,11.584,7.628c0.64,1.625,0.965,3.404,0.965,5.289c0,1.906-0.333,3.734-0.965,5.289
			c-1.91,4.849-6.076,7.63-11.43,7.63l-0.154-0.001l-0.154,0.001c-5.354-0.001-9.521-2.781-11.428-7.622
			C21.328,56.225,20.993,54.393,20.993,52.615"/>
	</g>
	<g>
		<defs>
			<rect id="SVGID_5_" width="327.058" height="96.5"/>
		</defs>
		<clipPath id="SVGID_6_">
			<use xlink:href="#SVGID_5_"  overflow="visible"/>
		</clipPath>
		<path clip-path="url(#SVGID_6_)" d="M63.585,37.803c-3.788,0-7.044,1.728-8.919,4.621v-4.515h-2.052V67.48h2.052v-18.59
			c0.103-5.271,3.772-8.984,8.919-9.035c1.477,0,2.974,0.289,4.451,0.86l0.68,0.263v-2.187l-0.333-0.118
			C66.73,38.088,65.162,37.803,63.585,37.803"/>
	</g>
	<g>
		<defs>
			<rect id="SVGID_7_" width="327.058" height="96.5"/>
		</defs>
		<clipPath id="SVGID_8_">
			<use xlink:href="#SVGID_7_"  overflow="visible"/>
		</clipPath>
		<path clip-path="url(#SVGID_8_)" d="M104.417,37.856h-0.105c-2.451,0-5.896,0.643-8.384,3.707
			c-0.357,0.432-1.321,1.706-1.918,3.506c-0.515-1.497-1.288-2.907-2.166-3.891c-1.956-2.173-4.778-3.322-8.16-3.322H83.58
			c-3.498,0-6.416,1.281-8.438,3.707c-0.289,0.352-0.557,0.743-0.797,1.165v-4.819h-2.053v29.466h2.053V50.833
			c0.048-3.455,0.857-6.128,2.413-7.952c2-2.457,4.813-2.973,6.822-2.973h0.104c2.779,0,5.07,0.925,6.63,2.678
			c1.799,1.971,2.711,4.903,2.711,8.715v16.074h2.052V51.301c0-3.7,0.789-6.453,2.414-8.42c1.999-2.457,4.812-2.973,6.821-2.973
			h0.105c2.804,0,5.052,0.902,6.682,2.679c1.69,1.844,2.608,4.768,2.658,8.45v16.338h2.052V51.031
			c-0.053-4.22-1.141-7.535-3.233-9.854C110.62,39.005,107.798,37.856,104.417,37.856"/>
	</g>
	<g>
		<defs>
			<rect id="SVGID_9_" width="327.058" height="96.5"/>
		</defs>
		<clipPath id="SVGID_10_">
			<use xlink:href="#SVGID_9_"  overflow="visible"/>
		</clipPath>
		<path clip-path="url(#SVGID_10_)" d="M147.324,44.762c-2.319-4.438-6.801-7.012-12.445-7.012c-6.294,0-11.143,3.224-13.303,8.839
			c-1.516,3.791-1.516,8.316-0.003,12.101c2.162,5.621,7.012,8.845,13.306,8.845c5.582,0,10.063-2.663,12.419-7.248l-0.027,7.09
			h2.053V37.909h-2V44.762z M123.455,57.964c-1.281-3.382-1.281-7.262-0.003-10.638c1.879-4.781,6.043-7.523,11.427-7.523
			c5.384,0,9.549,2.742,11.427,7.524c1.331,3.378,1.331,7.252,0,10.631c-1.878,4.781-6.043,7.522-11.427,7.522
			C129.496,65.48,125.331,62.739,123.455,57.964"/>
	</g>
	<g>
		<defs>
			<rect id="SVGID_11_" width="327.058" height="96.5"/>
		</defs>
		<clipPath id="SVGID_12_">
			<use xlink:href="#SVGID_11_"  overflow="visible"/>
		</clipPath>
		<path clip-path="url(#SVGID_12_)" d="M167.972,65.379c-6.734,0.748-7.758-1.621-7.759-7.975V40.066h7.839v-2h-7.839V32.12h-2.052
			v5.946h-5.367v2h5.367v17.338c0,3.705,0.467,6.046,1.513,7.589c1.17,1.724,3.098,2.526,6.068,2.526
			c0.734,0,1.557-0.051,2.446-0.147l0.495-0.056l-0.211-1.993L167.972,65.379z"/>
	</g>
	<g>
		<defs>
			<rect id="SVGID_13_" width="327.058" height="96.5"/>
		</defs>
		<clipPath id="SVGID_14_">
			<use xlink:href="#SVGID_13_"  overflow="visible"/>
		</clipPath>
		<path clip-path="url(#SVGID_14_)" d="M172.973,30.699c-0.856,0-1.554,0.697-1.554,1.553c0,0.855,0.697,1.551,1.554,1.551
			c0.854,0,1.551-0.696,1.551-1.551C174.523,31.396,173.828,30.699,172.973,30.699"/>
	</g>
	<g>
		<defs>
			<rect id="SVGID_15_" width="327.058" height="96.5"/>
		</defs>
		<clipPath id="SVGID_16_">
			<use xlink:href="#SVGID_15_"  overflow="visible"/>
		</clipPath>
		<rect x="171.945" y="37.803" clip-path="url(#SVGID_16_)" width="2.053" height="29.572"/>
	</g>
	<g>
		<defs>
			<rect id="SVGID_17_" width="327.058" height="96.5"/>
		</defs>
		<clipPath id="SVGID_18_">
			<use xlink:href="#SVGID_17_"  overflow="visible"/>
		</clipPath>
		<path clip-path="url(#SVGID_18_)" d="M194.012,37.697l-0.146,0.001l-0.158-0.001c-6.172,0-11.148,3.306-13.311,8.844
			c-0.757,1.943-1.141,3.986-1.141,6.074c0,2.089,0.384,4.133,1.142,6.078c2.226,5.617,7.075,8.841,13.308,8.841l0.149-0.001
			l0.159,0.001c6.266,0,11.135-3.224,13.359-8.845c0.722-1.854,1.086-3.897,1.086-6.074c0-2.176-0.364-4.219-1.088-6.078
			C205.162,41.002,200.166,37.697,194.012,37.697 M181.311,52.615c0-1.748,0.326-3.531,0.966-5.29
			c1.919-4.919,6.032-7.627,11.585-7.627c5.552,0,9.665,2.708,11.585,7.629c0.639,1.622,0.965,3.401,0.965,5.288
			c0,1.908-0.334,3.736-0.965,5.289c-1.91,4.849-6.076,7.63-11.433,7.63l-0.152-0.001l-0.153,0.001
			c-5.354-0.001-9.521-2.781-11.43-7.622C181.645,56.225,181.311,54.393,181.311,52.615"/>
	</g>
	<g>
		<defs>
			<rect id="SVGID_19_" width="327.058" height="96.5"/>
		</defs>
		<clipPath id="SVGID_20_">
			<use xlink:href="#SVGID_19_"  overflow="visible"/>
		</clipPath>
		<path clip-path="url(#SVGID_20_)" d="M225.912,37.855l-0.113,0.001c-3.834,0-7.198,1.365-9.465,3.837
			c-0.527,0.554-0.99,1.195-1.385,1.918l0.038-5.703h-2.055v29.467h2.104v-16.12c0.047-3.454,0.977-6.192,2.76-8.138
			c1.899-2.039,4.799-3.208,7.953-3.208l0.109-0.001c6.766,0,10.805,4.357,10.805,11.654v15.813h2.053V51.562
			C238.716,43.235,233.69,37.855,225.912,37.855"/>
	</g>
	<g>
		<defs>
			<rect id="SVGID_21_" width="327.058" height="96.5"/>
		</defs>
		<clipPath id="SVGID_22_">
			<use xlink:href="#SVGID_21_"  overflow="visible"/>
		</clipPath>
		<path clip-path="url(#SVGID_22_)" d="M315.935,47.392c3.645-1.544,5.861-4.816,5.861-8.771c0-4.752-3.598-9.867-11.496-9.867
			c-5.646,0-11.393,3.37-11.444,9.814c0,3.765,2.162,7.07,5.755,8.741c-4.621,1.612-7.544,5.352-7.544,9.781
			c0,5.133,4.142,10.655,13.233,10.655c9.129,0,13.285-5.522,13.285-10.655C323.585,52.545,320.771,48.989,315.935,47.392
			 M321.429,57.143c0,4.094-3.48,8.498-11.129,8.498c-7.646,0-11.131-4.404-11.131-8.498c0-4.144,3.483-8.603,11.131-8.603
			C317.947,48.54,321.429,52.999,321.429,57.143 M310.3,46.435c-6.418,0-9.342-4.05-9.342-7.814c0-5.332,4.842-7.761,9.342-7.761
			c4.498,0,9.34,2.412,9.34,7.708C319.64,42.483,316.751,46.435,310.3,46.435"/>
	</g>
	<g>
		<defs>
			<rect id="SVGID_23_" width="327.058" height="96.5"/>
		</defs>
		<clipPath id="SVGID_24_">
			<use xlink:href="#SVGID_23_"  overflow="visible"/>
		</clipPath>
		<rect x="267.141" y="4.25" clip-path="url(#SVGID_24_)" width="1.5" height="88"/>
	</g>
</g>
</svg>
