<?xml version="1.0" encoding="utf-8"?>
<!-- Generator: Adobe Illustrator 18.1.1, SVG Export Plug-In . SVG Version: 6.00 Build 0)  -->
<svg version="1.1" xmlns="http://www.w3.org/2000/svg" xmlns:xlink="http://www.w3.org/1999/xlink" x="0px" y="0px"
	 viewBox="0 0 191.3 46.5" enable-background="new 0 0 191.3 46.5" xml:space="preserve">
<g id="Loblaw_Digital">
</g>
<g id="Phoenix">
</g>
<g id="Magnet_Forensics_1_">
</g>
<g id="Bloomberg">
</g>
<g id="Wish">
</g>
<g id="lani">
</g>
<g id="Yelp">
</g>
<g id="Mozilla">
</g>
<g id="Microsoft">
</g>
<g id="Facebook">
</g>
<g id="Kik_1_">
</g>
<g id="D2L">
</g>
<g id="Linode">
</g>
<g id="Braintree">
	<g>
		<g>
			<path fill="#010101" d="M0,41.8v-3.3h2.6V22.3H0V19h10.5c4.8,0,7.8,2.2,7.8,6.1c0,2.6-1.5,4.1-3.4,4.9c2.7,0.7,4.6,2.7,4.6,5.3
				c0,4.2-3.2,6.5-8.5,6.5H0z M6.2,22.3v6.2h3.9c2.9,0,4.5-1.1,4.5-3.1c0-2-1.6-3.1-4.5-3.1H6.2z M6.2,38.5h4.5
				c3.5,0,5.2-1.1,5.2-3.3c0-2.2-1.8-3.3-5.5-3.3H6.2V38.5z"/>
			<path fill="#010101" d="M38.7,29.9c-0.4-1.3-1.4-2.1-2.7-2.1c-3,0-5.9,2.2-5.9,6.3v4.3h5.8v3.3h-13v-3.3h3.7V28.4h-2.9v-3.3h6.3
				v2.8c1.1-2,3.2-3.4,6.1-3.4c3.2,0,5.2,1.8,5.8,4.5L38.7,29.9z"/>
			<path fill="#010101" d="M56.3,32.1v-0.9c0-2.4-1.9-3.3-3.9-3.3c-1.9,0-3.6,0.8-4.9,2l-2.3-2.5c1.6-1.5,3.8-2.8,7.2-2.8
				c4.2,0,7.5,2.2,7.5,6.5v7.5h2.4v3.3h-6V40c-0.9,1.5-3.3,2.3-5.7,2.3c-3.5,0-6.4-1.8-6.4-5.3c0-4.1,4-5.7,7.7-5.7
				C53.7,31.4,55.2,31.7,56.3,32.1z M56.3,35c-1.1-0.4-2.7-0.7-4.3-0.7c-2.2,0-4.3,0.7-4.3,2.7c0,1.5,1.3,2.2,3.2,2.2
				c2.6,0,5.4-1.4,5.4-3.7V35z"/>
			<path fill="#010101" d="M83.3,38.5v3.3H66.4v-3.3h7V28.4H68v-3.3h8.8v13.4H83.3z M76.8,21.7H73v-5.1h3.9V21.7z"/>
			<path fill="#010101" d="M87.4,38.5H90V28.4h-2.4v-3.3h5.8v2.2c1-1.6,3.1-2.7,5.7-2.7c3.7,0,6.4,2.4,6.4,6.2v7.8h2.6v3.3h-8.7
				v-3.3h2.7v-6.8c0-2.9-1.8-3.7-3.4-3.7c-2.6,0-5.3,2-5.3,5v5.6h2.7v3.3h-8.7V38.5z"/>
			<path fill="#010101" d="M112.9,28.4h-4.4v-3.3h4.4v-6h3.5v6h8.1v3.3h-8.1v7c0,2.6,1.8,3.7,3.9,3.7c2,0,3.6-1.1,4.8-2.3l2.3,2.4
				c-1.5,1.7-3.9,3.2-7.1,3.2c-4.2,0-7.3-2.3-7.3-6.8V28.4z"/>
			<path fill="#010101" d="M146.2,29.9c-0.4-1.3-1.4-2.1-2.7-2.1c-3,0-5.9,2.2-5.9,6.3v4.3h5.8v3.3h-13v-3.3h3.7V28.4h-2.9v-3.3h6.3
				v2.8c1.1-2,3.2-3.4,6.1-3.4c3.2,0,5.2,1.8,5.8,4.5L146.2,29.9z"/>
			<path fill="#010101" d="M169.5,39.2c-1.7,1.8-4.8,3.1-8.2,3.1c-5.6,0-9.5-3.8-9.5-8.9s3.8-8.9,9.1-8.9c5.3,0,9,4,9,9.5v0.6h-14.4
				c0.6,2.8,2.9,4.5,5.9,4.5c2.5,0,4.7-1,5.9-2.3L169.5,39.2z M155.5,31.7h10.3c-0.5-2.4-2.6-4-5-4
				C158.2,27.7,156.1,29.3,155.5,31.7z"/>
			<path fill="#010101" d="M191,39.2c-1.7,1.8-4.8,3.1-8.2,3.1c-5.6,0-9.5-3.8-9.5-8.9s3.8-8.9,9.1-8.9c5.3,0,9,4,9,9.5v0.6h-14.4
				c0.6,2.8,2.9,4.5,5.9,4.5c2.5,0,4.7-1,5.9-2.3L191,39.2z M177,31.7h10.3c-0.5-2.4-2.6-4-5-4C179.6,27.7,177.6,29.3,177,31.7z"/>
		</g>
	</g>
</g>
<g id="Velocity">
</g>
<g id="citi">
</g>
<g id="Course_Hero">
</g>
<g id="square">
</g>
<g id="Capco">
</g>
</svg>
