<?xml version="1.0" encoding="utf-8"?>
<!-- Generator: Adobe Illustrator 16.0.0, SVG Export Plug-In . SVG Version: 6.00 Build 0)  -->
<!DOCTYPE svg PUBLIC "-//W3C//DTD SVG 1.1//EN" "http://www.w3.org/Graphics/SVG/1.1/DTD/svg11.dtd">
<svg version="1.1" id="Layer_1" xmlns="http://www.w3.org/2000/svg" xmlns:xlink="http://www.w3.org/1999/xlink" x="0px" y="0px"
	 width="571.641px" height="380px" viewBox="0 -22.5 571.641 380" enable-background="new 0 -22.5 571.641 380"
	 xml:space="preserve">
<g>
	<path fill="#00A960" d="M298.391,57.687c-9.687,0-17.571,7.881-17.571,17.569c0,9.686,7.884,17.567,17.571,17.567
		c9.688,0,17.572-7.881,17.572-17.567C315.963,65.569,308.079,57.687,298.391,57.687L298.391,57.687z"/>
	<polygon fill="#00A960" points="283.295,223.684 313.284,223.684 313.284,104.37 283.295,104.37 	"/>
	<path fill="#00A960" d="M403.474,101.301c-14.975,0-32.247,10.804-37.931,24.338V104.37h-28.457v119.313h29.988v-55.408
		c0-23.453,9.007-36.543,28.614-36.905l16.745-29.382C410.7,101.555,405.057,101.301,403.474,101.301L403.474,101.301z"/>
	<g>
		<g>
			<g>
				<defs>
					<rect id="SVGID_1_" y="57.685" width="571.641" height="166.038"/>
				</defs>
				<clipPath id="SVGID_2_">
					<use xlink:href="#SVGID_1_"  overflow="visible"/>
				</clipPath>
				<path clip-path="url(#SVGID_2_)" fill="#00A960" d="M524.044,101.38c-12.87,0-24.411,4.838-32.495,13.621l-0.416,0.451
					l-0.411-0.453c-7.981-8.782-19.479-13.618-32.362-13.618c-27.577,0-47.599,20.108-47.599,47.811v74.533h29.518v-75.17
					c0-11.63,7.097-19.144,18.081-19.144c10.987,0,18.09,7.514,18.09,19.144v75.17h29.508v-75.17c0-11.63,7.1-19.144,18.089-19.144
					s18.09,7.514,18.09,19.144v75.17h29.509v-74.533C571.641,121.488,551.622,101.38,524.044,101.38L524.044,101.38z"/>
			</g>
		</g>
		<g>
			<g>
				<defs>
					<rect id="SVGID_3_" y="57.685" width="571.641" height="166.038"/>
				</defs>
				<clipPath id="SVGID_4_">
					<use xlink:href="#SVGID_3_"  overflow="visible"/>
				</clipPath>
				<path clip-path="url(#SVGID_4_)" fill="#00A960" d="M246.986,93.376c0-3.937,0.528-8.651,3.896-11.238
					c3.69-2.866,9.09-2.34,13.458-2.12l5.825-21.723l-3.106-0.164c-12.522-0.67-25.688-1.599-36.671,5.661
					c-9.306,6.152-13.45,16.74-13.45,27.613v12.964h-35.761V93.376c0-3.923,0.518-8.578,3.82-11.195
					c3.69-2.926,9.157-2.382,13.534-2.163l5.824-21.723l-3.106-0.164c-12.616-0.675-25.918-1.596-36.912,5.855
					c-9.122,6.182-13.158,16.676-13.158,27.419v12.964h-13.527v21.686h13.527v97.628h29.998v-97.627h35.761v97.627h30.001v-97.627
					h20.769V104.37h-20.722V93.376L246.986,93.376z"/>
			</g>
		</g>
	</g>
	<path fill="#00A960" d="M122.427,223.696l-0.018-105.356c-0.087-8.816-6.751-16.049-15.323-17.037
		c-5.733-0.367-11.819,1.731-15.407,6.376L0,223.684h22.596c9.018-0.011,16.182-4.69,21.606-11.697l50.779-64.229v75.94
		L122.427,223.696L122.427,223.696z"/>
</g>
</svg>
