<?xml version="1.0" encoding="utf-8"?>
<!-- Generator: Adobe Illustrator 16.0.0, SVG Export Plug-In . SVG Version: 6.00 Build 0)  -->
<!DOCTYPE svg PUBLIC "-//W3C//DTD SVG 1.1//EN" "http://www.w3.org/Graphics/SVG/1.1/DTD/svg11.dtd">
<svg version="1.1" id="Layer_1" xmlns:svg="http://www.w3.org/2000/svg"
	 xmlns="http://www.w3.org/2000/svg" xmlns:xlink="http://www.w3.org/1999/xlink" x="0px" y="0px" width="800px" height="800px"
	 viewBox="-688 739.037 800 800" enable-background="new -688 739.037 800 800" xml:space="preserve">
<g id="g3">
	<g id="g5">
		<rect id="rect7" x="-642.013" y="1022.339" fill="#00B0DA" width="67.436" height="22.074"/>
		<rect id="rect9" x="-642.013" y="1065.25" fill="#00B0DA" width="67.436" height="22.074"/>
		<rect id="rect11" x="-642.013" y="1108.171" fill="#00B0DA" width="67.436" height="22.072"/>
		<rect id="rect13" x="-642.013" y="1151.076" fill="#00B0DA" width="67.436" height="22.07"/>
		<rect id="rect15" x="-685.542" y="1193.994" fill="#00B0DA" width="155.717" height="22.072"/>
		<rect id="rect17" x="-685.542" y="1236.912" fill="#00B0DA" width="155.717" height="22.074"/>
		<rect id="rect19" x="-686.771" y="979.421" fill="#00B0DA" width="155.717" height="22.072"/>
		<rect id="rect21" x="-686.771" y="936.516" fill="#00B0DA" width="155.717" height="22.073"/>
		<polygon id="polygon23" fill="#00B0DA" points="-79.25,1044.414 -87.221,1022.339 -198.803,1022.339 -198.803,1044.414 		"/>
		<polygon id="polygon25" fill="#00B0DA" points="-131.366,1087.324 -131.366,1075.059 -127.069,1087.324 -3.543,1087.324 
			1.041,1075.059 1.041,1087.324 68.479,1087.324 68.479,1065.25 -58.104,1065.25 -64.844,1083.96 -71.598,1065.25 
			-198.803,1065.25 -198.803,1087.324 		"/>
		<rect id="rect27" x="-198.803" y="1108.171" fill="#00B0DA" width="67.438" height="22.072"/>
		<polygon id="polygon29" fill="#00B0DA" points="-18.342,1130.222 -10.594,1108.171 -119.102,1108.171 -110.975,1130.222 		"/>
		<rect id="rect31" x="-198.803" y="1151.076" fill="#00B0DA" width="67.438" height="22.07"/>
		<rect id="rect33" x="-242.325" y="1193.994" fill="#00B0DA" width="110.959" height="22.072"/>
		<rect id="rect35" x="-242.325" y="1236.912" fill="#00B0DA" width="110.959" height="22.074"/>
		<polygon id="polygon37" fill="#00B0DA" points="-33.807,1173.148 -25.838,1151.076 -103.788,1151.076 -95.889,1173.148 		"/>
		<polygon id="polygon39" fill="#00B0DA" points="-48.747,1216.068 -41.104,1193.994 -88.446,1193.994 -80.321,1216.068 		"/>
		<polygon id="polygon41" fill="#00B0DA" points="-65.233,1258.931 -63.896,1258.966 -55.969,1236.912 -73.038,1236.912 		"/>
		<polygon id="polygon43" fill="#00B0DA" points="-243.555,979.441 -243.555,1001.494 -94.575,1001.494 -101.948,979.441 		"/>
		<polygon id="polygon45" fill="#00B0DA" points="-243.555,936.516 -243.555,958.589 -109.293,958.589 -117.262,936.516 		"/>
		<polygon id="polygon47" fill="#00B0DA" points="68.479,1044.414 68.479,1022.339 -43.688,1022.339 -51.665,1044.414 		"/>
		<rect id="rect49" x="1.041" y="1108.171" fill="#00B0DA" width="67.438" height="22.072"/>
		<rect id="rect51" x="1.041" y="1151.076" fill="#00B0DA" width="67.438" height="22.07"/>
		<rect id="rect53" x="1.041" y="1193.994" fill="#00B0DA" width="112.188" height="22.072"/>
		<rect id="rect55" x="1.041" y="1236.912" fill="#00B0DA" width="112.188" height="22.074"/>
		<polygon id="polygon57" fill="#00B0DA" points="-28.979,979.441 -36.354,1001.494 112,1001.494 112,979.441 		"/>
		<polygon id="polygon59" fill="#00B0DA" points="-13.043,936.516 -21.014,958.589 112,958.589 112,936.516 		"/>
		<rect id="rect61" x="-464.25" y="1022.339" fill="#00B0DA" width="67.437" height="22.074"/>
		<path id="path63" fill="#00B0DA" d="M-291.983,1087.324c0,0,14.414-11.332,19.007-22.074H-464.25v22.074H-291.983z"/>
		<path id="path65" fill="#00B0DA" d="M-464.25,1108.171v22.053h191.271c-4.594-10.707-19.006-22.053-19.006-22.053H-464.25z"/>
		<rect id="rect67" x="-464.25" y="1151.076" fill="#00B0DA" width="67.437" height="22.07"/>
		<path id="path69" fill="#00B0DA" d="M-263.772,1044.414c0,0,4.289-11.647,4.289-22.074h-71.726v22.074H-263.772z"/>
		<path id="path71" fill="#00B0DA" d="M-331.211,1151.076v22.07h71.728c0-10.41-4.289-22.07-4.289-22.07H-331.211z"/>
		<path id="path73" fill="#00B0DA" d="M-508.979,979.441v22.053h247.648c0,0-2.902-17-7.947-22.053H-508.979L-508.979,979.441z"/>
		<path id="path75" fill="#00B0DA" d="M-269.278,1216.068c5.045-5.061,7.947-22.074,7.947-22.074h-247.648v22.074H-269.278z"/>
		<path id="path77" fill="#00B0DA" d="M-508.979,936.516v22.073h221.903c0,0-22.688-22.073-52.706-22.073H-508.979z"/>
		<path id="path79" fill="#00B0DA" d="M-339.782,1258.966c30.021,0,52.706-22.055,52.706-22.055h-221.903v22.055H-339.782z"/>
	</g>
</g>
</svg>
