<?xml version="1.0" encoding="utf-8"?>
<!-- Generator: Adobe Illustrator 18.1.1, SVG Export Plug-In . SVG Version: 6.00 Build 0)  -->
<svg version="1.1" xmlns="http://www.w3.org/2000/svg" xmlns:xlink="http://www.w3.org/1999/xlink" x="0px" y="0px"
	 viewBox="0 0 90.7 100" enable-background="new 0 0 90.7 100" xml:space="preserve">
<g id="Loblaw_Digital">
</g>
<g id="Phoenix">
</g>
<g id="Magnet_Forensics_1_">
</g>
<g id="Bloomberg">
</g>
<g id="Wish">
</g>
<g id="lani">
</g>
<g id="Yelp">
</g>
<g id="Mozilla">
</g>
<g id="Microsoft">
</g>
<g id="Facebook">
</g>
<g id="Kik_1_">
</g>
<g id="D2L">
	<g>
		<g>
			<path fill="#F47B29" d="M13.4,68.5H3.5c-2,0-3.5-1.6-3.5-3.6V34.3c0-2,1.6-3.6,3.5-3.6h9.9c11.5,0,13.3,8.3,13.3,14.1v9.7
				C26.7,60.3,24.9,68.5,13.4,68.5z M19.6,44.9c0-4.4-1.3-7.3-6.7-7.3H7.1v24.3h5.8c5.4,0,6.7-2.9,6.7-7.3V44.9z"/>
			<path fill="#F47B29" d="M50.1,68.5h-17c-2.1,0-3.4-1.4-3.4-3.4c0-5.7,2.5-9.2,5.9-12.1c4.8-4.1,10.8-6.6,10.8-11.5
				c0-2.4-1.3-4.8-4.9-4.8c-2.1,0-3.5,0.5-4.6,1.2c-1.5,0.8-2.2,1.7-3.6,1.7c-1.8,0-3.4-1.5-3.4-3.4c0-0.9,0.3-1.9,1.2-2.6
				c2.8-2.2,6.4-3.4,10.6-3.4c8.6,0,11.8,6.2,11.8,11.3c0,10.9-13.1,12.5-16,20.2h12.6c1.9,0,3.4,1.5,3.4,3.4
				C53.6,67,52.1,68.5,50.1,68.5z"/>
			<path fill="#F47B29" d="M77.7,68.5H61.1c-1.9,0-3.4-1.5-3.4-3.4V33.8c0-2,1.6-3.6,3.5-3.6c2,0,3.6,1.6,3.6,3.6v27.9h12.9
				c1.9,0,3.4,1.5,3.4,3.4C81.1,67,79.6,68.5,77.7,68.5z"/>
		</g>
		<g>
			<path fill="#F47B29" d="M83.2,32.2h-1.6v-0.5h3.8v0.5h-1.6v4.2h-0.6V32.2z"/>
			<path fill="#F47B29" d="M86,31.7h0.9l1.5,4l1.5-4h0.9v4.8h-0.6v-4h0l-1.5,4h-0.5l-1.5-4h0v4H86V31.7z"/>
		</g>
	</g>
</g>
<g id="Linode">
</g>
<g id="Braintree">
</g>
<g id="Velocity">
</g>
<g id="citi">
</g>
<g id="Course_Hero">
</g>
<g id="square">
</g>
<g id="Capco">
</g>
</svg>
