<?xml version="1.0" encoding="utf-8"?>
<!-- Generator: Adobe Illustrator 18.1.1, SVG Export Plug-In . SVG Version: 6.00 Build 0)  -->
<svg version="1.1" xmlns="http://www.w3.org/2000/svg" xmlns:xlink="http://www.w3.org/1999/xlink" x="0px" y="0px"
	 viewBox="0 0 94.8 100" enable-background="new 0 0 94.8 100" xml:space="preserve">
<g id="Loblaw_Digital">
</g>
<g id="Phoenix">
</g>
<g id="Magnet_Forensics_1_">
</g>
<g id="Bloomberg">
</g>
<g id="Wish">
</g>
<g id="lani">
</g>
<g id="Yelp">
</g>
<g id="Mozilla">
</g>
<g id="Microsoft">
</g>
<g id="Facebook">
</g>
<g id="Kik_1_">
</g>
<g id="D2L">
</g>
<g id="Linode">
</g>
<g id="Braintree">
</g>
<g id="Velocity">
	<g>
		<path fill="#004785" d="M94.2,26.7c0,1.7-1.3,3-3,3c-1.7,0-3-1.3-3-3c0-1.7,1.3-3,3-3C92.9,23.6,94.2,24.9,94.2,26.7z M94.8,26.7
			c0-2-1.5-3.6-3.6-3.6c-2,0-3.6,1.5-3.6,3.6c0,2,1.5,3.6,3.6,3.6C93.2,30.2,94.8,28.7,94.8,26.7z M92.8,25.8c0-0.8-0.6-1.2-1.3-1.2
			h-1.7v3.9h0.7V27h0.8l0.8,1.5h0.8L92,27C92.5,26.8,92.8,26.4,92.8,25.8z M92.2,25.8c0,0.4-0.3,0.6-0.6,0.6h-1v-1.1h1
			C91.9,25.3,92.2,25.5,92.2,25.8z"/>
		<polygon fill="none" points="108.9,92.1 -24.2,92.1 -24.2,0.6 108.9,8.1 		"/>
	</g>
</g>
<g id="citi">
	<g>
		<g>
			<g>
				<path fill="#004785" d="M26.2,57.4L26,57.5c-2.4,2.5-5.2,3.8-8.1,3.8c-6,0-10.4-4.5-10.4-10.7c0-6.2,4.4-10.7,10.4-10.7
					c2.9,0,5.7,1.3,8.1,3.8l0.1,0.2l3.9-4.7L30,39c-3.2-3.8-7.1-5.6-11.8-5.6c-4.8,0-9.1,1.6-12.2,4.5C2.5,41,0.7,45.4,0.7,50.6
					c0,5.2,1.8,9.6,5.2,12.7c3.1,2.9,7.5,4.5,12.2,4.5c4.7,0,8.6-1.8,11.8-5.6l0.1-0.1L26.2,57.4z"/>
				<polygon fill="#004785" points="34,33.9 34,67.2 40.8,67.2 40.8,63.4 40.8,33.9 				"/>
				<path fill="#004785" d="M67.5,60c-1.8,1.1-3.5,1.7-5,1.7c-2.2,0-3.2-1.2-3.2-3.8V40.2h6.9v-6.3h-6.9V23.6l-6.7,3.6v6.8h-5.8v6.3
					h5.8V59c0,5.1,3,8.6,7.6,8.7c3.1,0.1,4.9-0.8,6-1.5l0.1,0l1.6-6.4L67.5,60z"/>
				<polygon fill="#004785" points="73.1,33.9 73.1,67.2 79.9,67.2 79.9,63.4 79.9,33.9 				"/>
				<path fill="#ED1C24" d="M84.2,28.5C78.5,20,68,14,56.8,14c-11,0-21.5,5.8-27.4,14.5h7.8C42.6,23,49.5,20,56.8,20
					c7.2,0,14.2,3,19.6,8.5H84.2z"/>
			</g>
		</g>
	</g>
</g>
<g id="Course_Hero">
</g>
<g id="square">
</g>
<g id="Capco">
</g>
</svg>
