<?xml version="1.0" encoding="utf-8"?>
<!-- Generator: Adobe Illustrator 16.0.0, SVG Export Plug-In . SVG Version: 6.00 Build 0)  -->
<!DOCTYPE svg PUBLIC "-//W3C//DTD SVG 1.1//EN" "http://www.w3.org/Graphics/SVG/1.1/DTD/svg11.dtd">
<svg version="1.1" id="Layer_1" xmlns="http://www.w3.org/2000/svg" xmlns:xlink="http://www.w3.org/1999/xlink" x="0px" y="0px"
	 width="612px" height="257px" viewBox="0 -6 612 257" enable-background="new 0 -6 612 257" xml:space="preserve">
<g>
	<path fill="#21A8E1" d="M167.575,94.864c-3.341-1.42-7.931-2.636-13.782-2.636c-14.3,0-24.643,8.709-24.643,25.121
		c0,14.988,9.082,24.603,24.521,24.603c5.218,0,10.648-1.012,13.986-2.534l2.089,9.825c-3.027,1.518-9.71,3.039-18.164,3.039
		c-22.338,0-35.908-13.574-35.908-34.337c0-22.489,16.075-36.059,37.581-36.059c8.454,0,14.513,1.722,17.12,3.039l-2.819,9.928
		 M197.209,152.379c-14.407,0-25.472-9.624-25.472-25.426c0-16.206,10.963-26.133,26.308-26.133
		c15.137,0,25.263,10.331,25.263,25.324C223.308,144.276,210.155,152.379,197.209,152.379 M197.731,109.939
		c-9.082,0-12.738,8.507-12.738,16.711c0,9.522,4.802,16.712,12.632,16.712c7.307,0,12.424-6.989,12.424-16.915
		c0-7.695-3.55-16.508-12.322-16.508 M263.292,151.266l-0.628-7.495h-0.208c-2.191,3.546-7.201,8.607-16.283,8.607
		c-9.29,0-17.748-5.369-17.748-21.473v-28.972h12.84v26.842c0,8.201,2.717,13.473,9.499,13.473c5.116,0,8.454-3.546,9.812-6.688
		c0.417-1.114,0.73-2.433,0.73-3.849v-29.78h12.84v34.543c0,5.875,0.208,10.737,0.42,14.79L263.292,151.266 M307.556,112.473
		c-6.156,0-10.334,3.848-11.485,9.421c-0.208,1.113-0.416,2.432-0.416,3.848v25.524h-12.84v-33.429
		c0-6.687-0.106-11.444-0.42-15.903h11.171l0.42,9.42h0.417c2.505-6.988,8.454-10.534,13.884-10.534
		c1.253,0,1.982,0.102,3.026,0.302v11.75C310.27,112.674,309.123,112.473,307.556,112.473 M332.403,109.735
		c-4.594,0-7.1,2.125-7.1,5.165c0,3.142,2.403,4.659,8.874,6.887c9.188,3.24,13.464,7.802,13.57,15.093
		c0,8.914-7.201,15.397-20.669,15.397c-6.157,0-11.693-1.42-15.451-3.443l2.505-9.017c2.922,1.722,8.454,3.545,13.048,3.545
		c5.639,0,8.145-2.229,8.145-5.471c0-3.343-2.09-5.063-8.353-7.193c-9.918-3.342-14.092-8.608-13.99-14.382
		c0-8.711,7.413-15.5,19.209-15.5c5.64,0,10.542,1.42,13.465,2.938l-2.506,8.813C340.963,111.359,336.896,109.735,332.403,109.735
		 M396.189,130.095h-34.03c0.313,8.914,7.516,12.763,15.658,12.763c5.953,0,10.229-0.812,14.094-2.229l1.877,8.608
		c-4.382,1.723-10.441,3.04-17.744,3.04c-16.483,0-26.202-9.824-26.202-24.921c0-13.673,8.561-26.536,24.844-26.536
		c16.482,0,21.922,13.17,21.922,24.007C396.606,127.157,396.398,128.98,396.189,130.095 M373.954,109.331
		c-7.937,0-11.273,6.989-11.796,12.058h22.343C384.603,116.826,382.514,109.331,373.954,109.331 M461.229,151.266v-30.087h-29.752
		v30.087h-12.84V82.994h12.84v27.348h29.752V82.994h12.84v68.271H461.229 M526.171,130.095H492.14
		c0.313,8.914,7.515,12.763,15.658,12.763c5.949,0,10.229-0.812,14.093-2.229l1.881,8.608c-4.386,1.723-10.439,3.04-17.748,3.04
		c-16.482,0-26.201-9.824-26.201-24.921c0-13.673,8.561-26.536,24.844-26.536c16.482,0,21.922,13.17,21.922,24.007
		C526.587,127.157,526.379,128.98,526.171,130.095 M503.935,109.331c-7.936,0-11.272,6.989-11.795,12.058h22.338
		C514.583,116.826,512.494,109.331,503.935,109.331 M556.447,112.473c-6.16,0-10.335,3.848-11.48,9.421
		c-0.208,1.113-0.42,2.432-0.42,3.848v25.524h-12.84v-33.429c0-6.687-0.105-11.444-0.416-15.903h11.171l0.416,9.42h0.417
		c2.505-6.988,8.453-10.534,13.884-10.534c1.253,0,1.982,0.102,3.027,0.302v11.75C559.161,112.674,558.011,112.473,556.447,112.473
		 M585.89,152.379c-14.406,0-25.472-9.624-25.472-25.426c0-16.206,10.963-26.133,26.308-26.133
		c15.138,0,25.265,10.331,25.265,25.324C611.985,144.276,598.831,152.379,585.89,152.379 M586.412,109.939
		c-9.082,0-12.738,8.507-12.738,16.711c0,9.522,4.803,16.712,12.632,16.712c7.308,0,12.424-6.989,12.424-16.915
		c0-7.695-3.55-16.508-12.32-16.508"/>
	<path fill="#21A8E1" d="M44.576,157.598C-5.971,143.387-0.965,97.186,1.328,77.401c8.242,0,80.045,0,86.496,0
		c2.293,19.784,7.295,65.974-43.244,80.196 M87.097,78.213c-6.336,0-76.937,0-85.035,0c-2.256,19.385-7.059,64.652,42.518,78.568
		C94.152,142.865,89.354,97.598,87.097,78.213 M44.58,153.257c-15.235-4.256-24.847-11.733-30.829-20.44c1.057,0,2.126,0,2.628,0
		c-0.951-0.298-1.693-1.297-1.856-1.799c0.555-0.273,0.938-0.832,0.938-1.489c0-0.567-0.286-1.065-0.722-1.367v-9.232l6.189,3.524
		v-7.141c0,0,8.042-4.121,23.648-4.121c13.835,0,22.064,4.121,22.064,4.121l-0.004,8.055l15.455-8.809L44.568,95.852l-37.52,18.707
		l5.797,3.301v10.286c-0.457,0.298-0.759,0.808-0.759,1.391c0,0.674,0.404,1.249,0.983,1.51c-0.045,0.118-0.123,0.267-0.216,0.425
		C2.049,114.441,4.354,93.172,5.688,81.76c7.405,0,71.979,0,77.765,0c2.064,17.643,6.458,58.843-38.883,71.515 M64.392,116.989
		c0,0-7.16-3.578-20.4-3.578c-13.24,0-20.372,3.578-20.372,3.578v9.861h40.776v-9.861"/>
</g>
</svg>
