<?xml version="1.0" encoding="utf-8"?>
<!-- Generator: Adobe Illustrator 16.0.0, SVG Export Plug-In . SVG Version: 6.00 Build 0)  -->
<!DOCTYPE svg PUBLIC "-//W3C//DTD SVG 1.1//EN" "http://www.w3.org/Graphics/SVG/1.1/DTD/svg11.dtd">
<svg version="1.1" id="Layer_1" xmlns="http://www.w3.org/2000/svg" xmlns:xlink="http://www.w3.org/1999/xlink" x="0px" y="0px"
	 width="612px" height="470px" viewBox="0 0 612 470" enable-background="new 0 0 612 470" xml:space="preserve">
<g id="Loblaw_Digital">
</g>
<g id="Phoenix">
</g>
<g id="Magnet_Forensics_1_">
</g>
<g id="Bloomberg">
</g>
<g id="Wish">
</g>
<g id="lani">
</g>
<g id="Yelp">
</g>
<g id="Mozilla">
</g>
<g id="Microsoft">
</g>
<g id="Facebook">
</g>
<g id="Kik_1_">
</g>
<g id="D2L">
</g>
<g id="Linode">
</g>
<g id="Braintree">
</g>
<g id="Velocity">
</g>
<g id="citi">
</g>
<g id="Course_Hero">
</g>
<g id="square">
</g>
<g id="Capco">
	<g>
		<g>
			<path d="M550.039,153.364c0-4.892,2.174-7.609,7.609-7.609h5.979c4.893,0,7.609,2.175,7.609,7.609v125.553
				c0,4.892-2.174,7.608-7.609,7.608h-5.979c-4.893,0-7.609-2.175-7.609-7.608V153.364z M546.778,321.854h26.632
				c25.545,0,38.59-12.501,38.59-38.59V149.016c0-26.089-12.501-38.59-38.59-38.59h-26.632c-25.546,0-38.59,12.501-38.59,38.59
				v134.249C508.731,309.354,521.232,321.854,546.778,321.854"/>
			<path d="M420.139,321.854h25.545c25.547,0,38.591-12.501,38.591-38.59v-38.59H443.51v34.242c0,4.892-2.174,7.608-7.608,7.608
				h-5.436c-4.893,0-7.608-2.175-7.608-7.608V153.364c0-4.892,2.174-7.609,7.608-7.609h4.349c4.892,0,7.608,2.175,7.608,7.609v29.35
				h40.765v-33.698c0-26.088-12.502-38.59-38.591-38.59h-25.002c-25.545,0-38.589,12.502-38.589,38.59v134.249
				C381.549,309.354,394.05,321.854,420.139,321.854"/>
		</g>
		<path d="M178.817,163.146l9.24,90.769h-18.479L178.817,163.146z M165.772,289.787h26.089l3.261,30.437h41.307l-27.176-207.622
			h-57.069l-27.176,207.622h37.503L165.772,289.787z"/>
		<g>
			<path d="M300.021,147.93h8.696c4.893,0,7.609,2.174,7.609,7.608v49.46c0,4.893-2.175,7.609-7.609,7.609h-8.696V147.93z
				 M300.021,247.938h19.022c25.546,0,38.59-12.502,38.59-38.59v-58.158c0-26.088-12.501-38.588-38.589-38.588h-60.331v207.622
				h41.308V247.938L300.021,247.938z"/>
			<path d="M40.764,321.854h25.545c25.545,0,38.59-12.501,38.59-38.59v-38.59H64.135v34.242c0,4.892-2.174,7.608-7.609,7.608h-5.435
				c-4.892,0-7.609-2.718-7.609-7.608V153.364c0-4.892,2.174-7.609,7.609-7.609h4.892c4.892,0,7.609,2.175,7.609,7.609v29.35h40.764
				v-33.698c0-26.088-12.501-38.59-38.59-38.59H40.764c-25.545,0-38.59,12.502-38.59,38.59v134.249
				C2.174,309.354,15.218,321.854,40.764,321.854"/>
		</g>
	</g>
</g>
</svg>
