<?xml version="1.0" encoding="utf-8"?>
<!-- Generator: Adobe Illustrator 16.0.0, SVG Export Plug-In . SVG Version: 6.00 Build 0)  -->
<!DOCTYPE svg PUBLIC "-//W3C//DTD SVG 1.1//EN" "http://www.w3.org/Graphics/SVG/1.1/DTD/svg11.dtd">
<svg version="1.1" id="Layer_1" xmlns:sketch="http://www.bohemiancoding.com/sketch/ns"
	 xmlns="http://www.w3.org/2000/svg" xmlns:xlink="http://www.w3.org/1999/xlink" x="0px" y="0px" width="463px" height="229px"
	 viewBox="0 -35.5 463 229" enable-background="new 0 -35.5 463 229" xml:space="preserve">
<title>Urthecast logo grey</title>
<desc>Created with Sketch.</desc>
<g id="Symbols" sketch:type="MSPage">
	<g id="Desktop-HD-Copy" transform="translate(-52.000000, -60.000000)" sketch:type="MSArtboardGroup">
		<g id="Urthecast-logo-grey" transform="translate(52.000000, 60.000000)" sketch:type="MSLayerGroup">
			<path id="t" sketch:type="MSShapeGroup" fill="#FF7C00" d="M450.14,46.047v37.287h-5.695V20.113l5.699-3.446l-0.004,24.152h12.36
				v5.229H450.14"/>
			<path id="s" sketch:type="MSShapeGroup" fill="#FF7C00" d="M409.875,76.51c1.188,0.498,2.736,0.928,4.633,1.29
				c1.893,0.358,3.709,0.538,5.441,0.538c3.253,0,5.823-0.734,7.713-2.204c1.899-1.47,2.844-3.288,2.844-5.452
				c0-1.497-0.286-2.729-0.853-3.701c-0.569-0.973-1.323-1.792-2.274-2.455c-0.944-0.668-2.016-1.209-3.207-1.623
				c-1.188-0.416-2.413-0.847-3.653-1.29c-1.357-0.443-2.699-0.944-4.02-1.5c-1.33-0.552-2.506-1.26-3.536-2.12
				c-1.025-0.859-1.854-1.903-2.481-3.123c-0.618-1.219-0.93-2.746-0.93-4.578c0-3.383,1.201-6.129,3.614-8.239
				c2.406-2.106,6.134-3.163,11.172-3.163c2.108,0,4.152,0.197,6.129,0.583c1.976,0.39,3.508,0.806,4.595,1.25
				c-0.271,1.608-0.655,3.19-1.139,4.745c-1.136-0.39-2.592-0.776-4.35-1.166c-1.757-0.389-3.588-0.582-5.479-0.582
				c-3.306,0-5.647,0.596-7.026,1.788c-1.382,1.196-2.077,2.76-2.077,4.704c0,1.054,0.23,1.954,0.695,2.702
				c0.455,0.752,1.083,1.389,1.868,1.917c0.781,0.528,1.674,0.985,2.678,1.372c1.007,0.389,2.071,0.748,3.207,1.084
				c1.468,0.497,2.942,1.039,4.429,1.621c1.487,0.583,2.841,1.345,4.066,2.289c1.216,0.941,2.213,2.138,3.001,3.576
				c0.785,1.447,1.176,3.248,1.176,5.412c0,1.998-0.391,3.816-1.176,5.452c-0.788,1.636-1.884,3.024-3.294,4.159
				c-1.406,1.138-3.08,2.012-5.028,2.624c-1.952,0.61-4.094,0.915-6.421,0.915c-2.598,0-4.915-0.166-6.946-0.502
				c-2.029-0.332-3.669-0.775-4.913-1.33C408.659,79.838,409.174,78.172,409.875,76.51"/>
			<path id="a" sketch:type="MSShapeGroup" fill="#FF7C00" d="M394.43,61.762c-0.907-0.108-1.785-0.302-3.153-0.44
				s-2.672-0.21-3.9-0.21c-4.019,0-7.133,0.779-9.327,2.33c-2.196,1.555-3.037,3.859-3.037,6.74c0,1.833,0.072,3.219,0.74,4.33
				c0.676,1.111,1.545,1.954,2.617,2.537c1.075,0.582,2.252,0.971,3.534,1.164c1.289,0.197,2.578,0.295,3.861,0.295
				c2.965,0,5.795-0.346,8.662-1.135c0.016-3.157,0.003-6.314,0.003-9.473V61.762L394.43,61.762z M394.43,54.416
				c0-3.661-0.569-6.468-2.233-8.162c-1.66-1.689-4.129-2.536-7.392-2.536c-2.148,0-4.104,0.152-5.872,0.457
				c-1.773,0.305-3.352,0.681-4.744,1.125c-0.268-0.501-0.496-1.223-0.686-2.164c-0.186-0.945-0.283-1.832-0.283-2.666
				c1.396-0.443,3.108-0.816,5.149-1.124c2.035-0.301,4.132-0.458,6.271-0.458c5.201,0,9.062,1.182,11.582,3.539
				S400,48.49,400,53.539v28.047c-1.88,0.39-4.156,0.775-6.834,1.165c-2.682,0.386-5.229,0.583-7.643,0.583
				c-4.981,0-8.912-1.026-11.779-3.079c-2.867-2.052-4.3-5.381-4.3-9.99c0-2.218,0.411-4.202,1.243-5.95
				c0.832-1.747,1.983-3.217,3.462-4.408c1.472-1.192,3.238-2.094,5.308-2.706c2.06-0.61,4.327-0.915,6.792-0.915
				c1.932,0,3.592,0.068,4.987,0.207c1.393,0.139,2.286,0.232,3.193,0.344V54.416L394.43,54.416z"/>
			<path id="c" sketch:type="MSShapeGroup" fill="#FF7C00" d="M362.616,77.008c0.266,0.555,0.517,1.303,0.753,2.248
				c0.238,0.941,0.414,1.721,0.52,2.33c-1.333,0.498-2.845,0.914-4.546,1.246c-1.699,0.336-3.589,0.502-5.668,0.502
				c-6.647,0-11.699-1.9-15.151-5.703c-3.461-3.8-5.19-9.307-5.19-16.52c0-3.163,0.424-6.09,1.282-8.781
				c0.85-2.689,2.095-5.032,3.745-7.03c1.647-1.998,3.712-3.566,6.179-4.704c2.476-1.134,5.339-1.707,8.579-1.707
				c2.025,0,3.951,0.156,5.783,0.458c1.838,0.308,3.285,0.654,4.35,1.043c0,0.721-0.091,1.554-0.278,2.496
				c-0.19,0.945-0.39,1.693-0.599,2.249c-1.063-0.39-2.409-0.721-4.032-0.999c-1.62-0.278-3.361-0.417-5.224-0.417
				c-2.391,0-4.479,0.43-6.261,1.29c-1.783,0.86-3.271,2.066-4.465,3.62c-1.203,1.555-2.092,3.383-2.675,5.493
				c-0.587,2.11-0.877,4.439-0.877,6.99c0,5.994,1.37,10.39,4.108,13.19c2.742,2.804,6.448,4.206,11.127,4.206
				c1.6,0,3.123-0.139,4.586-0.417C360.128,77.813,361.44,77.451,362.616,77.008"/>
			<path id="e" sketch:type="MSShapeGroup" fill="#4A4A4A" d="M319.536,57.365c0-1.717-0.223-3.41-0.666-5.076
				c-0.442-1.662-1.133-3.122-2.067-4.368c-0.942-1.25-2.153-2.262-3.647-3.038c-1.49-0.776-3.286-1.165-5.382-1.165
				c-3.867,0-6.877,1.192-9.029,3.58c-2.153,2.384-3.453,5.74-3.893,10.067H319.536L319.536,57.365z M294.686,61.944
				c0,5.659,1.299,9.821,3.892,12.482c2.596,2.665,6.491,3.997,11.679,3.997c2.1,0,4.045-0.18,5.84-0.543
				c1.796-0.359,3.547-0.843,5.261-1.456c0.276,0.613,0.496,1.362,0.662,2.249s0.276,1.693,0.329,2.411
				c-1.601,0.722-3.478,1.276-5.63,1.666c-2.153,0.386-4.501,0.583-7.04,0.583c-3.644,0-6.779-0.543-9.399-1.623
				c-2.627-1.084-4.78-2.594-6.462-4.537c-1.686-1.941-2.928-4.258-3.729-6.949c-0.801-2.689-1.199-5.646-1.199-8.863
				c0-3.108,0.371-6.021,1.117-8.74c0.747-2.716,1.877-5.104,3.396-7.155c1.516-2.052,3.465-3.665,5.84-4.83
				c2.373-1.165,5.217-1.748,8.531-1.748c2.758,0,5.216,0.475,7.369,1.416c2.155,0.945,3.964,2.262,5.426,3.952
				c1.463,1.693,2.57,3.718,3.314,6.078c0.744,2.357,1.117,4.925,1.117,7.698c0,0.498-0.016,1.138-0.044,1.913
				c-0.025,0.778-0.065,1.442-0.119,1.998H294.686L294.686,61.944z"/>
			<path id="h" sketch:type="MSShapeGroup" fill="#4A4A4A" d="M274.734,61.608c0-11.962-4.192-16.532-12.855-16.532
				c-7.697,0-14.366,5.523-14.366,16.258v21.951h-5.847V13.75h5.847v33.626c3.819-4.874,9.487-7.636,16.402-7.636
				c10.386,0,16.641,6.072,16.641,19.141v24.404h-5.821V61.608"/>
			<path id="t_1_" sketch:type="MSShapeGroup" fill="#4A4A4A" d="M219.586,46.047l0,37.287h-5.697V20.113l5.701-3.446l-0.003,24.152
				h12.358v5.229H219.586"/>
			<path id="r" sketch:type="MSShapeGroup" fill="#4A4A4A" d="M180.556,39.903h5.771v6.839c4.214-5.515,8.496-7.849,13.274-7.849
				c2.448,0,4.122,0.504,5.956,1.736l-2.7,5.172c-1.708-0.983-3.44-1.453-5.056-1.453c-6.082,0-11.474,6.276-11.474,15.885v23.051
				h-5.771V39.903"/>
			<path id="u" sketch:type="MSShapeGroup" fill="#4A4A4A" d="M163.44,38.889h6.004v38.983c-5.742,3.758-11.877,5.462-18.556,5.462
				c-10.232,0-20.333-3.506-20.333-20.267V38.889h6.005v22.129c0,14.013,6.871,16.854,14.617,16.854
				c3.458,0,7.913-1.011,12.263-3.313V38.889"/>
			<path id="C" sketch:type="MSShapeGroup" fill="#FF7C00" d="M58.333,33.09v14.199l36.111,21.648v28.289L52.778,70.702V43.458
				l2.778,1.706V30.96l-2.778-1.71V0.004L94.444,26.57v28.202L58.333,33.09z"/>
			<path id="U" sketch:type="MSShapeGroup" fill="#FF7C00" d="M16.667,81.316L25,76.014v5.303l16.667-10.605V0.004L25,10.61v61.869
				l-8.333,5.303V15.913L0.003,26.519v70.708l16.664-10.607"/>
		</g>
	</g>
</g>
</svg>
