<?xml version="1.0" encoding="utf-8"?>
<!-- Generator: Adobe Illustrator 16.0.0, SVG Export Plug-In . SVG Version: 6.00 Build 0)  -->
<!DOCTYPE svg PUBLIC "-//W3C//DTD SVG 1.1//EN" "http://www.w3.org/Graphics/SVG/1.1/DTD/svg11.dtd">
<svg version="1.1" id="Layer_1" xmlns="http://www.w3.org/2000/svg" xmlns:xlink="http://www.w3.org/1999/xlink" x="0px" y="0px"
	 width="1475.9px" height="666.066px" viewBox="62.3 -73.708 1475.9 666.066" enable-background="new 62.3 -73.708 1475.9 666.066"
	 xml:space="preserve">
<path fill="#939192" d="M236.79,65.39c41.45-0.14,82.91-0.07,124.36-0.04c-30.57,48.79-61.82,97.17-92.3,146.02l-0.04,0.06
	c-27.62,42.92-54.75,86.18-82.12,129.26c-41.46,0.061-82.93,0.041-124.39,0.021C120.37,248.88,178.67,157.19,236.79,65.39z"/>
<path fill="#252122" d="M521.86,264.55c17.659-42.72,36.18-85.08,54.029-127.73c8.53-0.05,17.07,0.04,25.61-0.05
	c18.4,42.48,36.27,85.19,54.44,127.77c-9.73,0.05-19.46,0.04-29.19,0c-3.68-9.53-7.73-18.92-11.5-28.41
	c-17.88,0.021-35.75-0.06-53.62,0.04c-3.86,9.45-7.66,18.93-11.54,28.38C540.68,264.58,531.27,264.58,521.86,264.55z"/>
<path fill="#252122" d="M1314.99,136.85c8.54-0.12,17.08,0.03,25.63-0.09c17.12,39.59,33.76,79.4,50.74,119.051
	c1.26,2.879,2.479,5.779,3.579,8.729c-9.68,0.06-19.359,0.03-29.039,0.01c-3.881-9.46-7.631-18.97-11.58-28.39
	c-17.84-0.09-35.67,0-53.5-0.04c-4.03,9.42-7.7,18.989-11.65,28.44c-9.42-0.011-18.83,0.06-28.24-0.041
	C1278.65,221.85,1297.11,179.47,1314.99,136.85z"/>
<path fill="#252122" d="M688.2,137.74c16.26-0.01,32.51,0,48.77-0.01c13.021,0.13,26.271,2.81,37.57,9.53
	c14.14,8.08,24.729,22.17,28.4,38.07c4.39,18.07,1.029,38.24-10.181,53.26c-9.189,12.52-23.279,20.95-38.38,24.19
	c-9.61,2.43-19.56,1.68-29.37,1.79c-12.26,0-24.529-0.01-36.8,0.01C688.17,222.3,688.19,180.02,688.2,137.74z"/>
<path fill="#252122" d="M844.31,264.58c-0.01-42.29-0.079-84.58,0.03-126.87c18.24,0.12,36.49-0.13,54.73,0.14
	c10.52,1.04,21.09,3.34,30.33,8.66c16.239,8.67,27.729,25.17,30.79,43.26c0.85,8.74,1.13,17.7-0.9,26.3
	c-3.22,14.729-12.39,27.939-24.78,36.47c-12.899,8.91-28.92,12.67-44.47,12.03C874.79,264.57,859.55,264.561,844.31,264.58z"/>
<path fill="#252122" d="M1001.66,137.76c31.89-0.04,63.779-0.02,95.67-0.01c0.02,8.28,0,16.57,0.01,24.86
	c-22.63,0.05-45.27-0.01-67.9,0.02c0.011,8.59-0.039,17.18,0.03,25.77c19.92,0.03,39.841-0.07,59.771,0.05
	c-0.26,8.28,0.47,16.61-0.43,24.85c-19.791-0.1-39.591-0.06-59.381-0.02c0.021,8.8,0.021,17.6,0,26.39
	c22.95,0.07,45.9-0.01,68.851,0.04c0.01,8.29-0.011,16.58,0.01,24.86c-32.22,0.06-64.43,0.08-96.64-0.01
	C1001.66,222.29,1001.64,180.03,1001.66,137.76z"/>
<path fill="#252122" d="M1144.7,138.21c9.36-1.06,18.84-0.2,28.26-0.48c13.03,0.35,26.271-1.11,39.11,1.82
	c13.04,2.88,24.92,11.88,29.83,24.5c5.949,15.53,4.14,34.83-7.53,47.3c-9.601,10.141-23.74,14.65-37.42,15.061
	c-8.061,0.12-16.13-0.01-24.19,0.06c-0.02,12.7,0.01,25.4-0.02,38.101c-9.33-0.051-18.66,0.1-27.98-0.08
	C1144.74,222.391,1144.85,180.3,1144.7,138.21z"/>
<path fill="#252122" d="M1428.73,137.76c13.75-0.06,27.51-0.01,41.27-0.03c11.73,0.09,23.68-0.7,35.14,2.37
	c7.721,2.12,14.96,6.34,20.271,12.39c6.42,7.56,9.3,17.68,9.16,27.49c0.119,9.99-3.051,20.21-9.73,27.76
	c-4.68,5.31-10.9,8.99-17.42,11.57c10.24,15.08,20.74,30,30.78,45.209c-10.82,0.11-21.64,0.021-32.46,0.041
	c-8.79-13.431-18-26.591-26.65-40.121c-1.71-0.369-3.439-0.709-5.17-0.59c-5.75,0.17-11.53-0.49-17.23,0.41
	c-0.029,13.44,0,26.87-0.02,40.311c-9.32-0.04-18.64,0.07-27.96-0.061C1428.73,222.26,1428.71,180.01,1428.73,137.76z"/>
<path fill="#FFFFFF" d="M715.71,163.37c4.05-0.89,8.21-0.5,12.32-0.56c8.46-0.1,17.109,0.09,25.18,2.91
	c7.36,3.1,13.73,8.57,17.59,15.6c5.431,9.6,5.79,21.29,3.431,31.86c-2.58,8.33-7.721,16.2-15.461,20.54
	c-7.649,4.78-16.859,6.14-25.729,5.73c-5.69-0.32-11.6,0.6-17.13-0.46C715.54,213.79,715.96,188.57,715.71,163.37z"/>
<path fill="#FFFFFF" d="M872.27,239.439c0.011-25.549-0.149-51.1,0.08-76.649c14.29,0.52,30.03-2.08,42.801,5.93
	c17.239,10.62,21.21,35.45,11.819,52.55c-5.89,11.23-18.55,17.601-30.92,18.11C888.12,239.53,880.19,239.391,872.27,239.439z"/>
<path fill="#FFFFFF" d="M1172.7,163.24c6.05-0.85,12.18-0.25,18.28-0.44c6.189,0.2,12.85,0.42,18.239,3.88
	c9.91,6.31,10.311,22.55,1.391,29.89c-4.23,3.67-10.021,5.08-15.521,5.05c-7.45,0-14.9,0.03-22.34-0.04
	C1172.73,188.8,1172.82,176.02,1172.7,163.24z"/>
<path fill="#FFFFFF" d="M1456.64,163.22c7.75-0.86,15.57-0.189,23.36-0.42c6.1,0.18,12.59,0.18,18.11,3.17
	c10.77,5.71,10.96,23.48,0.729,29.85c-5.87,3.85-13.17,3.71-19.89,3.57c-7.431-0.02-14.851,0.01-22.271-0.02
	C1456.65,187.32,1456.73,175.27,1456.64,163.22z"/>
<path fill="#FFFFFF" d="M571.7,211.46c5.399-13.63,11.109-27.14,16.58-40.74c6.18,13.311,11.3,27.13,16.92,40.7
	C594.03,211.52,582.86,211.45,571.7,211.46z"/>
<path fill="#FFFFFF" d="M1326.97,171.47c0.271-0.02,0.83-0.05,1.11-0.07c5.06,13.01,10.59,25.85,15.76,38.831
	c0.2,0.289,0.61,0.869,0.811,1.16c-11.24,0.159-22.49,0.069-33.73,0.049C1315.91,197.98,1321.86,184.89,1326.97,171.47z"/>
<path fill="#252122" d="M268.85,211.37c41.41,0.14,82.83-0.06,124.25,0.09c26.99,43.11,54.23,86.05,81.15,129.2
	c-41.46,0.13-82.91,0.061-124.36,0.029c-26.89-43.17-54.3-86.029-81.08-129.26L268.85,211.37z"/>
</svg>
