<?xml version="1.0" encoding="utf-8"?>
<!-- Generator: Adobe Illustrator 16.0.0, SVG Export Plug-In . SVG Version: 6.00 Build 0)  -->
<!DOCTYPE svg PUBLIC "-//W3C//DTD SVG 1.1//EN" "http://www.w3.org/Graphics/SVG/1.1/DTD/svg11.dtd">
<svg version="1.1" id="Layer_1" xmlns="http://www.w3.org/2000/svg" xmlns:xlink="http://www.w3.org/1999/xlink" x="0px" y="0px"
	 width="321px" height="115.624px" viewBox="-35.801 0.174 321 115.624" enable-background="new -35.801 0.174 321 115.624"
	 xml:space="preserve">
<path fill="#EE307C" d="M0,23.029h20.257v54.367c0,8.604,3.936,13.729,7.048,15.925c-3.295,2.93-13.363,5.492-20.868-0.731
	C2.012,88.92,0,82.887,0,77.213V23.029z"/>
<path fill="#EE307C" d="M126.601,68.19v-5.713h6.178V42.433h-6.783c-2.604-12.034-13.318-21.051-26.133-21.051
	c-14.76,0-26.725,11.965-26.725,26.725v46.81c4.205,0.591,9.215-0.074,13.478-3.608c4.425-3.669,6.438-9.702,6.438-15.377v-1.724
	h10.117V54.163H93.052v-6.057h0.023c0-3.748,3.038-6.787,6.786-6.787c3.749,0,6.8,3.039,6.8,6.787V68.19
	c0,14.761,11.979,26.727,26.737,26.727V74.977C129.651,74.977,126.601,71.938,126.601,68.19"/>
<path fill="#EE307C" d="M49.878,42.432v29.417c0,1.67-1.386,3.023-3.095,3.023c-1.71,0-3.097-1.354-3.097-3.023V42.432H23.644
	v34.597c0,6.225,2.11,14.096,11.716,16.658c9.615,2.565,15.192-2.746,15.192-2.746c-0.508,3.499-3.803,6.062-9.111,6.611
	c-4.018,0.415-9.152-0.915-11.715-2.014v18.33c6.528,1.925,13.435,2.547,20.191,1.235c12.264-2.381,20.005-12.632,20.005-26.269
	V42.432H49.878z"/>
</svg>
